<svg xmlns="http://www.w3.org/2000/svg" viewBox="0 0 85 85"><defs><style>.cls-1{fill:#9cc0ff;}.cls-2{fill:#276ef1;}</style></defs><title>2-Way Ratings</title><g id="Layer_1" data-name="Layer 1"><path class="cls-1" d="M77.6,60.68A39.57,39.57,0,0,1,2.92,42.5H0L6.46,31.35,12.92,42.5H10A32.5,32.5,0,0,0,73.21,53.09Z"/><path class="cls-2" d="M85,42.5,78.54,53.67,72.09,42.5H75A32.5,32.5,0,0,0,11.79,31.91L7.4,24.32A39.57,39.57,0,0,1,82.08,42.5Z"/><path d="M64.08,35.67l-16.54.07L42.49,20l-5,15.72-16.53-.07,13.41,9.64L29.16,61l13.33-9.74L55.83,61,50.66,45.31Zm-21.58,7Zm0,0Z"/></g></svg>