<?xml version="1.0" encoding="UTF-8"?>
<svg width="68px" height="58px" viewBox="0 0 68 58" version="1.1" xmlns="http://www.w3.org/2000/svg" xmlns:xlink="http://www.w3.org/1999/xlink">
    <!-- Generator: Sketch 51.2 (57519) - http://www.bohemiancoding.com/sketch -->
    <title>icon/illustration/Request a ride anywhere you go</title>
    <desc>Created with Sketch.</desc>
    <defs>
        <polygon id="path-1" points="0.178036364 0.173090909 67.9979909 0.173090909 67.9979909 46.5749773 0.178036364 46.5749773"></polygon>
        <polygon id="path-3" points="0.175331818 0.250518182 12.7398773 0.250518182 12.7398773 9.27272727 0.175331818 9.27272727"></polygon>
        <polygon id="path-5" points="0.572281818 0.250518182 13.1363636 0.250518182 13.1363636 9.27272727 0.572281818 9.27272727"></polygon>
        <polygon id="path-7" points="0.193336364 0.360477273 7.72727273 0.360477273 7.72727273 6.59715909 0.193336364 6.59715909"></polygon>
    </defs>
    <g id="Airport-detail-Design-1115" stroke="none" stroke-width="1" fill="none" fill-rule="evenodd">
        <g id="D_airportDetail_181115" transform="translate(-140.000000, -649.000000)">
            <g id="icon/illustration/whereTo" transform="translate(140.000000, 649.000000)">
                <rect id="Rectangle-7" fill="#FFFFFF" x="25.6" y="10.4" width="29.6" height="5.2"></rect>
                <g id="Group-31" stroke-width="1">
                    <polygon id="Fill-1" fill="#000000" points="0.175409091 49.7614727 68 49.7614727 68 36.9512 0.175409091 36.9512"></polygon>
                    <g id="Group-30" transform="translate(0.000000, 0.599791)">
                        <g id="Group-4">
                            <mask id="mask-2" fill="white">
                                <use xlink:href="#path-1"></use>
                            </mask>
                            <g id="Clip-3"></g>
                            <path d="M67.9979909,25.82725 L67.9979909,41.5452955 L65.9618545,44.7915227 C65.2671727,45.89575 64.0485818,46.5749773 62.7395818,46.5749773 L5.43644545,46.5749773 C4.12821818,46.5749773 2.9104,45.89575 2.21417273,44.7915227 L0.178036364,41.5452955 L0.178036364,25.82725 C0.178036364,24.0198409 0.677218182,22.2533864 1.62535455,20.7156591 L4.14444545,16.6433864 L12.0857636,3.80375 C12.6011727,2.96997727 13.2549,2.25829545 14.0160364,1.69420455 C15.3242636,0.720568182 16.9269,0.172704545 18.6029455,0.172704545 L49.5730818,0.172704545 C51.2499,0.172704545 52.8525364,0.720568182 54.1615364,1.69420455 C54.9219,2.25829545 55.5764,2.96997727 56.0910364,3.80375 L64.0315818,16.6433864 L66.5506727,20.7156591 C67.4988091,22.2533864 67.9979909,24.0198409 67.9979909,25.82725" id="Fill-2" fill="#276EF1" mask="url(#mask-2)"></path>
                        </g>
                        <g id="Group-7" transform="translate(0.000000, 47.909091)">
                            <mask id="mask-4" fill="white">
                                <use xlink:href="#path-3"></use>
                            </mask>
                            <g id="Clip-6"></g>
                            <path d="M11.2168318,9.27288182 L1.69915,9.27288182 C0.85765,9.27288182 0.175331818,8.59133636 0.175331818,7.74983636 L0.175331818,0.250518182 L12.7398773,0.250518182 L12.7398773,7.74983636 C12.7398773,8.59133636 12.0575591,9.27288182 11.2168318,9.27288182" id="Fill-5" fill="#000000" mask="url(#mask-4)"></path>
                        </g>
                        <g id="Group-10" transform="translate(54.863636, 47.909091)">
                            <mask id="mask-6" fill="white">
                                <use xlink:href="#path-5"></use>
                            </mask>
                            <g id="Clip-9"></g>
                            <path d="M11.6137818,9.27288182 L2.09532727,9.27288182 C1.2546,9.27288182 0.572281818,8.59133636 0.572281818,7.74983636 L0.572281818,0.250518182 L13.1368273,0.250518182 L13.1368273,7.74983636 C13.1368273,8.59133636 12.4545091,9.27288182 11.6137818,9.27288182" id="Fill-8" fill="#000000" mask="url(#mask-6)"></path>
                        </g>
                        <path d="M6.36920455,10.4059318 L1.16488636,10.4059318 C0.47175,10.4059318 -0.0676136364,11.0071136 0.00734090909,11.6956136 L0.209795455,13.5772045 C0.681931818,15.3830682 2.31238636,16.6426136 4.17852273,16.6426136 L7.53447727,16.6426136 L7.53447727,11.5704318 C7.53447727,10.9275227 7.01288636,10.4059318 6.36920455,10.4059318" id="Fill-11" fill="#276EF1"></path>
                        <g id="Group-15" transform="translate(60.272727, 10.045455)">
                            <mask id="mask-8" fill="white">
                                <use xlink:href="#path-7"></use>
                            </mask>
                            <g id="Clip-14"></g>
                            <path d="M1.35783636,0.360477273 L6.56215455,0.360477273 C7.25529091,0.360477273 7.79465455,0.961659091 7.72047273,1.65015909 L7.51724545,3.53175 C7.04588182,5.33761364 5.41465455,6.59715909 3.54851818,6.59715909 L0.193336364,6.59715909 L0.193336364,1.52497727 C0.193336364,0.882068182 0.714927273,0.360477273 1.35783636,0.360477273" id="Fill-13" fill="#276EF1" mask="url(#mask-8)"></path>
                        </g>
                        <path d="M52.5977682,39.9129091 L54.6223136,42.2032727 C55.1469955,42.7967273 55.4359955,43.5617273 55.4359955,44.3537727 L55.4359955,48.4994545 L12.7397227,48.4994545 L12.7397227,44.3537727 C12.7397227,43.5617273 13.0294955,42.7967273 13.5541773,42.2032727 L15.57795,39.9129091 C16.1938136,39.2159091 17.0793591,38.8164091 18.0104955,38.8164091 L50.1652227,38.8164091 C51.0963591,38.8164091 51.9819045,39.2159091 52.5977682,39.9129091" id="Fill-16" fill="#000000"></path>
                        <path d="M4.51736364,26.43925 L4.51736364,27.8703409 C4.51736364,28.6878864 5.03895455,29.41425 5.81477273,29.6746591 L17.5115455,33.6055227 L21.6495,26.43925 L4.51736364,26.43925 Z" id="Fill-18" fill="#FFFFFF"></path>
                        <path d="M40.9766455,46.6923545 L27.2012364,46.6923545 C26.6750091,46.6923545 26.2484636,46.2665818 26.2484636,45.7411273 L26.2484636,43.3456727 C26.2484636,42.8202182 26.6750091,42.3944455 27.2012364,42.3944455 L40.9766455,42.3944455 C41.5028727,42.3944455 41.9278727,42.8202182 41.9278727,43.3456727 L41.9278727,45.7411273 C41.9278727,46.2665818 41.5028727,46.6923545 40.9766455,46.6923545" id="Fill-20" fill="#9CC0FF"></path>
                        <path d="M63.6582,26.43925 L63.6582,27.8703409 C63.6582,28.6878864 63.1358364,29.41425 62.3600182,29.6746591 L50.6632455,33.6055227 L46.5252909,26.43925 L63.6582,26.43925 Z" id="Fill-22" fill="#FFFFFF"></path>
                        <polygon id="Fill-24" fill="#000000" points="50.6629364 33.6054455 47.9158909 34.5296273 20.2599818 34.5296273 17.5121636 33.6054455 21.6493455 26.4391727 46.5249818 26.4391727"></polygon>
                        <path d="M54.7989591,4.60591818 C53.6707773,2.78150909 51.7173227,1.69196364 49.5714591,1.69196364 L18.6036409,1.69196364 C16.45855,1.69196364 14.5043227,2.78150909 13.3769136,4.60591818 L7.47018636,14.1614636 L60.7056864,14.1614636 L54.7989591,4.60591818 Z" id="Fill-26" fill="#000000"></path>
                        <path d="M64.0317364,16.6435409 L4.1446,16.6435409 L12.0851455,3.80390455 C12.6005545,2.97013182 13.2550545,2.25845 14.0154182,1.69358636 L54.1616909,1.69358636 C54.9220545,2.25845 55.5765545,2.97013182 56.0911909,3.80390455 L64.0317364,16.6435409 Z" id="Fill-28" fill="#000000"></path>
                    </g>
                </g>
            </g>
        </g>
    </g>
</svg>