<?xml version="1.0" encoding="UTF-8"?>
<svg version="1.1" xmlns="http://www.w3.org/2000/svg" width="512" height="512">
<path d="M0 0 C5.84867957 5.23802641 10.61221954 11.02295133 15.2175293 17.3659668 C22.41472269 26.77096476 30.71511284 31.71474165 42.47143555 33.3112793 C47.5236391 33.29904636 52.3918342 32.69451207 57.35424805 31.7800293 C76.28610259 28.93313388 93.87604915 33.79332428 109.70581055 44.2409668 C125.55326906 56.10417726 134.47694016 72.28651656 137.9753418 91.55737305 C138.86937834 98.32248423 138.95881225 104.9499273 137.97924805 111.70581055 C136.0348817 125.51081159 137.34723543 136.32738487 145.47143555 147.9362793 C148.49118047 151.59418382 151.99375197 154.37556905 155.78393555 157.1862793 C171.71399835 169.02381845 181.22707428 184.76194714 184.15893555 204.4362793 C184.26206055 205.7150293 184.36518555 206.9937793 184.47143555 208.3112793 C184.55071289 209.26647461 184.55071289 209.26647461 184.6315918 210.2409668 C185.42311117 228.48032631 178.30256682 244.77409487 166.6706543 258.42456055 C162.64630788 262.72466518 158.18250388 265.94937026 153.34643555 269.2487793 C147.61890139 273.18735313 143.56243446 276.94335672 140.47143555 283.3112793 C140.14916992 283.95581055 139.8269043 284.6003418 139.49487305 285.2644043 C136.23579915 292.7572284 136.03072461 300.54453334 137.40893555 308.4987793 C140.28387248 325.1182777 138.56275802 341.32570671 130.47143555 356.3112793 C129.99061523 357.20331055 129.50979492 358.0953418 129.0144043 359.0144043 C119.74018745 374.80990744 105.11620319 386.2623247 87.47143555 391.3112793 C86.3112793 391.64772461 86.3112793 391.64772461 85.12768555 391.9909668 C75.16021799 394.4163839 64.5279013 393.78487775 54.47143555 392.3112793 C40.9805658 391.33063456 30.4190762 393.22683666 19.6862793 402.09643555 C16.48836814 405.2943467 13.82283761 408.84973327 11.12890625 412.46801758 C0.49236487 426.75319997 -13.59728037 435.6280045 -31.27856445 438.6862793 C-50.47832454 440.90491824 -68.75834884 437.29729093 -84.21606445 425.2097168 C-90.71523284 419.60220261 -96.220683 413.23809744 -101.00512695 406.11206055 C-106.70254856 397.75690316 -114.68630487 393.85400016 -124.43481445 391.70581055 C-130.52877312 390.92867693 -136.40573208 391.73579799 -142.41137695 392.8425293 C-161.3432315 395.68942472 -178.93317806 390.82923432 -194.76293945 380.3815918 C-210.61039796 368.51838133 -219.53406906 352.33604204 -223.0324707 333.06518555 C-223.92650725 326.30007437 -224.01594115 319.67263129 -223.03637695 312.91674805 C-221.09201061 299.111747 -222.40436434 288.29517373 -230.52856445 276.6862793 C-234.04316762 272.43337874 -238.28886767 269.24204012 -242.68530273 265.96875 C-256.93908303 255.35559017 -265.85205022 241.28802312 -268.84106445 223.6237793 C-271.20363951 204.5868764 -267.46209095 186.20037489 -255.6105957 170.83081055 C-250.4621246 164.60048435 -245.04990035 159.90824391 -238.40356445 155.3737793 C-232.6760303 151.43520546 -228.61956337 147.67920187 -225.52856445 141.3112793 C-225.20629883 140.66674805 -224.8840332 140.0222168 -224.55200195 139.3581543 C-221.29292806 131.86533019 -221.08785352 124.07802525 -222.46606445 116.1237793 C-225.97899146 95.81617385 -221.97242744 77.30955656 -210.59887695 60.0769043 C-198.73566649 44.22944579 -182.55332719 35.30577469 -163.2824707 31.80737305 C-156.51735952 30.9133365 -149.88991645 30.8239026 -143.1340332 31.8034668 C-129.32903216 33.74783314 -118.51245888 32.43547941 -106.90356445 24.3112793 C-102.6506639 20.79667613 -99.45932528 16.55097608 -96.18603516 12.15454102 C-85.54949378 -2.13064137 -71.45984853 -11.00544591 -53.77856445 -14.0637207 C-34.59751985 -16.28019697 -14.9856337 -12.84653416 0 0 Z M-74.15356445 26.9987793 C-76.72053987 30.13419915 -79.01879624 33.42992892 -81.34106445 36.7487793 C-91.64207913 50.98899652 -105.80305954 58.4078071 -122.77856445 61.9987793 C-131.54410423 62.72924094 -139.6596233 62.65925309 -148.27856445 60.7487793 C-157.98255103 58.639217 -165.89269289 59.1328853 -174.52856445 64.3112793 C-177.3891052 66.46202169 -179.95574557 68.82790401 -182.52856445 71.3112793 C-183.14860352 71.8578418 -183.76864258 72.4044043 -184.4074707 72.9675293 C-191.71282789 79.65753243 -195.74807916 88.44476716 -196.52856445 98.3112793 C-196.42193952 102.34057952 -195.98851575 106.30872438 -195.52856445 110.3112793 C-193.18226865 131.92715338 -198.30345213 149.57447964 -211.59106445 166.7487793 C-215.5833463 171.5300763 -219.99244559 175.39021761 -224.78051758 179.32446289 C-233.88352925 186.83955251 -240.16359758 194.48644493 -242.52856445 206.3112793 C-243.42431967 219.02411298 -241.21338736 229.22649348 -233.03637695 239.1159668 C-229.73334224 242.67186541 -226.22825099 245.21954493 -222.09106445 247.7487793 C-207.90906406 256.49854972 -199.92540884 270.25465869 -195.77856445 286.1940918 C-193.96576251 295.03150126 -194.14629604 303.31127331 -195.59106445 312.1862793 C-197.61920761 325.66314362 -195.68060626 338.42914393 -187.65356445 349.7487793 C-180.56337824 358.34020391 -171.73964348 364.06729388 -160.52856445 365.3112793 C-158.85835201 365.21414255 -157.19064904 365.06488131 -155.52856445 364.8737793 C-130.97566991 362.40844818 -109.50563763 363.83711458 -89.21606445 379.1237793 C-84.22958316 383.29531785 -80.4488652 388.16075864 -76.52856445 393.3112793 C-68.68270396 402.88934276 -61.06310509 409.84199831 -48.52856445 412.3112793 C-35.81573077 413.20703452 -25.61335027 410.99610221 -15.72387695 402.8190918 C-12.16797834 399.51605709 -9.62029882 396.01096583 -7.09106445 391.8737793 C1.65870597 377.6917789 15.41481494 369.70812368 31.35424805 365.5612793 C40.19165751 363.74847736 48.47142956 363.92901088 57.34643555 365.3737793 C70.82329987 367.40192246 83.58930018 365.46332111 94.90893555 357.4362793 C103.44734362 350.38984569 109.32733459 341.49804422 110.47143555 330.3112793 C110.3928869 324.51613492 109.4147028 318.88080322 108.40893555 313.1862793 C105.32263883 294.90230936 110.33254813 278.60931759 120.4206543 263.3659668 C124.99265947 257.30087271 130.46391956 252.88616031 136.47143555 248.3112793 C146.9086807 239.73197307 154.30020713 230.63315403 155.72924805 216.8190918 C156.16496186 206.79767413 153.61295264 196.78144468 147.09643555 189.01049805 C143.13061801 184.86354942 138.93664827 181.57126215 134.09643555 178.4987793 C118.77711551 168.38126572 111.53568023 153.3557341 107.72143555 135.8737793 C107.24761488 129.1218348 106.83038401 122.11143281 107.9597168 115.41674805 C110.37693567 100.74736631 108.25178079 87.16071303 100.1550293 74.5612793 C93.8956806 66.19611723 84.78177648 60.80675023 74.40893555 59.3112793 C68.52900166 58.98132617 62.85250022 60.05558241 57.10400391 61.19213867 C38.66171184 64.77308688 21.57867906 59.42367046 6.1628418 49.2487793 C-1.53141023 43.70981122 -7.49513448 37.26571262 -13.38793945 29.8894043 C-20.22245509 21.65805335 -28.79902727 15.98297189 -39.52856445 14.3112793 C-52.48378723 13.16166908 -65.29857733 17.22223243 -74.15356445 26.9987793 Z " fill="#999999" transform="translate(298.528564453125,43.688720703125)"/>
<path d="M0 0 C4.26996415 3.36360383 5.78401587 7.40711707 6.5 12.6875 C6.37566297 18.40700353 2.85079447 21.14270081 -1 25 C-2.41888193 26.51926471 -3.8224656 28.05184695 -5.22583008 29.58544922 C-6.77308181 31.27520772 -8.32875704 32.9568338 -9.88671875 34.63671875 C-12.78898579 37.76922451 -15.67853184 40.91314872 -18.5625 44.0625 C-19.01206055 44.55331055 -19.46162109 45.04412109 -19.92480469 45.54980469 C-20.83030793 46.53851282 -21.73574434 47.52728217 -22.64111328 48.51611328 C-24.92642496 51.01164407 -27.2132958 53.50574527 -29.5 56 C-30.41667404 56.99999325 -31.3333407 57.99999324 -32.25 59 C-52.41666667 81 -72.58333333 103 -92.75 125 C-93.20415283 125.49556396 -93.65830566 125.99112793 -94.1262207 126.50170898 C-95.03831684 127.49647244 -95.95091058 128.49077989 -96.86401367 129.48461914 C-99.23000221 132.06112444 -101.5854933 134.64620561 -103.92578125 137.24609375 C-104.40917969 137.78041016 -104.89257812 138.31472656 -105.390625 138.86523438 C-106.72790968 140.34396262 -108.06135207 141.82616304 -109.39453125 143.30859375 C-116.42498299 150.57093445 -116.42498299 150.57093445 -120.30859375 151.62890625 C-125.65515199 151.46213287 -129.87381406 150.60592771 -134 147 C-136.30344071 144.45918181 -138.43258853 141.82929594 -140.546875 139.12890625 C-143.12025976 135.84661136 -145.790904 132.66986823 -148.5 129.5 C-152.62251357 124.65170182 -156.66994487 119.74835345 -160.6875 114.8125 C-163.26147199 111.68199352 -165.87610768 108.58863911 -168.5 105.5 C-178.51080913 93.68978843 -178.51080913 93.68978843 -183 88 C-183.62390625 87.21882813 -184.2478125 86.43765625 -184.890625 85.6328125 C-188.21847208 81.13866387 -189.88791413 77.67983427 -189.453125 72.0078125 C-188.44421201 67.53728427 -185.89766846 65.57849745 -182.1875 63.1875 C-178.29840333 61.73862085 -176.11972923 61.28970186 -172 62 C-166.04499299 65.69747361 -161.79164679 71.49636118 -157.484375 76.91015625 C-154.72760545 80.33878002 -151.87634081 83.67183757 -149 87 C-144.6919692 91.99842469 -140.47217551 97.05655773 -136.3125 102.1796875 C-131.94234795 107.50950132 -127.46543508 112.7499838 -123 118 C-119.88163667 116.62647072 -117.88134572 115.08161027 -115.57421875 112.5859375 C-114.94193359 111.90660156 -114.30964844 111.22726562 -113.65820312 110.52734375 C-113.00787109 109.81707031 -112.35753906 109.10679687 -111.6875 108.375 C-111.04876953 107.68792969 -110.41003906 107.00085938 -109.75195312 106.29296875 C-105.97960741 102.2186825 -102.29911788 98.07284391 -98.65454102 93.88427734 C-96.19536855 91.08364387 -93.66458526 88.3525761 -91.125 85.625 C-87.55486427 81.77476645 -84.00352262 77.91120526 -80.5 74 C-76.99645613 70.08877103 -73.44415551 66.22616286 -69.875 62.375 C-66.70532707 58.95364088 -63.5515448 55.5278835 -60.5 52 C-55.97689941 46.77428184 -51.24286265 41.74066819 -46.54638672 36.67138672 C-40.82295451 30.4853089 -35.13063393 24.27070599 -29.5 18 C-28.78328125 17.2059375 -28.0665625 16.411875 -27.328125 15.59375 C-25.5975026 13.66567404 -23.88143487 11.72780134 -22.171875 9.78125 C-21.19816397 8.68727984 -20.22420904 7.5935267 -19.25 6.5 C-18.80205078 5.98308594 -18.35410156 5.46617187 -17.89257812 4.93359375 C-12.72586843 -0.8242551 -7.36256723 -2.32080924 0 0 Z " fill="#323232" transform="translate(346,182)"/>
</svg>
