<?xml version="1.0" encoding="UTF-8"?>
<svg version="1.1" xmlns="http://www.w3.org/2000/svg" width="1080" height="1080">
<path d="M0 0 C183.48 0 366.96 0 556 0 C556 183.48 556 366.96 556 556 C372.52 556 189.04 556 0 556 C0 372.52 0 189.04 0 0 Z " fill="#FDFDFD" transform="translate(262,262)"/>
<path d="M0 0 C1.52270508 0.01015137 1.52270508 0.01015137 3.07617188 0.02050781 C37.66589689 0.48559792 37.66589689 0.48559792 49.3125 8.25 C51.19724157 8.73305228 53.09537974 9.16499283 55 9.5625 C59.89009791 10.71554606 63.53456446 12.22649402 67.59375 15.1640625 C69.48136501 16.35669199 71.13360598 16.81995513 73.3125 17.25 C73.3125 17.91 73.3125 18.57 73.3125 19.25 C74.63314453 19.63091797 74.63314453 19.63091797 75.98046875 20.01953125 C79.39243175 21.27951759 81.73144935 22.75554847 84.625 24.9375 C85.58019531 25.65550781 86.53539062 26.37351562 87.51953125 27.11328125 C88.44121094 27.81839844 89.36289062 28.52351563 90.3125 29.25 C91.46298828 30.10658203 91.46298828 30.10658203 92.63671875 30.98046875 C122.71169839 53.71218585 122.71169839 53.71218585 125.3125 68.25 C125.9725 68.25 126.6325 68.25 127.3125 68.25 C128.6015625 69.859375 128.6015625 69.859375 129.9375 72 C130.38351562 72.69609375 130.82953125 73.3921875 131.2890625 74.109375 C132.3125 76.25 132.3125 76.25 132.3125 80.25 C132.9725 80.25 133.6325 80.25 134.3125 80.25 C134.65023438 81.06984375 134.98796875 81.8896875 135.3359375 82.734375 C135.78195312 83.81203125 136.22796875 84.8896875 136.6875 86 C137.34878906 87.60101563 137.34878906 87.60101563 138.0234375 89.234375 C138.76483262 90.96879026 139.54219072 92.69064781 140.4140625 94.36328125 C141.41568121 96.46668054 141.86915985 98.40350655 142.3125 100.6875 C142.78242261 103.10004912 143.28271413 105.18219476 144.2734375 107.4375 C151.5183213 127.04771178 150.44656861 154.06434084 146.3125 174.25 C146.15652344 175.16265625 146.00054688 176.0753125 145.83984375 177.015625 C140.67946193 205.98314649 120.93652335 236.9167397 98.3125 255.25 C96.91257812 256.40628906 96.91257812 256.40628906 95.484375 257.5859375 C81.01444063 269.28614709 64.62875665 277.22186865 47.0859375 283.234375 C44.43925021 283.98297095 44.43925021 283.98297095 43.3125 285.25 C20.05677259 291.22086025 -16.6823726 294.9442042 -38.6875 283.25 C-40.1160577 282.91728601 -41.55493801 282.62653832 -43 282.375 C-47.57313599 281.43038503 -50.70417746 279.65502493 -54.6875 277.25 C-56.6687585 276.52954236 -58.66419589 275.84218657 -60.6875 275.25 C-60.6875 274.59 -60.6875 273.93 -60.6875 273.25 C-61.55375 273.1675 -62.42 273.085 -63.3125 273 C-67.19857778 272.13642716 -69.57250021 270.69749984 -72.6875 268.25 C-72.6875 267.59 -72.6875 266.93 -72.6875 266.25 C-73.58339844 265.98960937 -74.47929687 265.72921875 -75.40234375 265.4609375 C-88.43335392 260.65759249 -101.68362585 245.27520413 -109.6875 234.25 C-110.30238281 233.404375 -110.91726563 232.55875 -111.55078125 231.6875 C-121.6875 217.44834047 -121.6875 217.44834047 -121.6875 214.25 C-122.3475 214.25 -123.0075 214.25 -123.6875 214.25 C-123.94144531 213.58613281 -124.19539063 212.92226563 -124.45703125 212.23828125 C-126.54207525 206.79465032 -126.54207525 206.79465032 -129.3125 201.6875 C-131.01491986 198.66957389 -131.49042408 195.80602321 -132.16015625 192.4296875 C-132.64118709 190.07114406 -132.64118709 190.07114406 -134.125 187.4375 C-144.48473361 166.30364343 -142.71162463 135.52960028 -137.6875 113.25 C-137.0275 113.25 -136.3675 113.25 -135.6875 113.25 C-135.56375 112.26773438 -135.44 111.28546875 -135.3125 110.2734375 C-131.54859608 84.22669961 -116.91249504 63.39376041 -99.6875 44.25 C-99.03394531 43.51136719 -98.38039063 42.77273438 -97.70703125 42.01171875 C-78.08212203 21.08714667 -48.59038841 6.05462999 -20.30859375 2.8125 C-16.76766671 2.38769879 -16.76766671 2.38769879 -13.890625 1.203125 C-9.25482283 -0.17630882 -4.81076569 -0.04622671 0 0 Z " fill="#000001" transform="translate(535.6875,394.75)"/>
<path d="M0 0 C1.52270508 0.01015137 1.52270508 0.01015137 3.07617188 0.02050781 C37.66589689 0.48559792 37.66589689 0.48559792 49.3125 8.25 C51.19724157 8.73305228 53.09537974 9.16499283 55 9.5625 C59.89009791 10.71554606 63.53456446 12.22649402 67.59375 15.1640625 C69.48136501 16.35669199 71.13360598 16.81995513 73.3125 17.25 C73.3125 17.91 73.3125 18.57 73.3125 19.25 C74.63314453 19.63091797 74.63314453 19.63091797 75.98046875 20.01953125 C79.39243175 21.27951759 81.73144935 22.75554847 84.625 24.9375 C85.58019531 25.65550781 86.53539062 26.37351562 87.51953125 27.11328125 C88.44121094 27.81839844 89.36289062 28.52351563 90.3125 29.25 C91.46298828 30.10658203 91.46298828 30.10658203 92.63671875 30.98046875 C122.71169839 53.71218585 122.71169839 53.71218585 125.3125 68.25 C125.9725 68.25 126.6325 68.25 127.3125 68.25 C128.6015625 69.859375 128.6015625 69.859375 129.9375 72 C130.38351562 72.69609375 130.82953125 73.3921875 131.2890625 74.109375 C132.3125 76.25 132.3125 76.25 132.3125 80.25 C132.9725 80.25 133.6325 80.25 134.3125 80.25 C134.65023438 81.06984375 134.98796875 81.8896875 135.3359375 82.734375 C135.78195312 83.81203125 136.22796875 84.8896875 136.6875 86 C137.34878906 87.60101563 137.34878906 87.60101563 138.0234375 89.234375 C138.76483262 90.96879026 139.54219072 92.69064781 140.4140625 94.36328125 C141.41568121 96.46668054 141.86915985 98.40350655 142.3125 100.6875 C142.78242261 103.10004912 143.28271413 105.18219476 144.2734375 107.4375 C151.5183213 127.04771178 150.44656861 154.06434084 146.3125 174.25 C146.15652344 175.16265625 146.00054688 176.0753125 145.83984375 177.015625 C140.67946193 205.98314649 120.93652335 236.9167397 98.3125 255.25 C96.91257812 256.40628906 96.91257812 256.40628906 95.484375 257.5859375 C81.01444063 269.28614709 64.62875665 277.22186865 47.0859375 283.234375 C44.43925021 283.98297095 44.43925021 283.98297095 43.3125 285.25 C20.05677259 291.22086025 -16.6823726 294.9442042 -38.6875 283.25 C-40.1160577 282.91728601 -41.55493801 282.62653832 -43 282.375 C-47.57313599 281.43038503 -50.70417746 279.65502493 -54.6875 277.25 C-56.6687585 276.52954236 -58.66419589 275.84218657 -60.6875 275.25 C-60.6875 274.59 -60.6875 273.93 -60.6875 273.25 C-61.55375 273.1675 -62.42 273.085 -63.3125 273 C-67.19857778 272.13642716 -69.57250021 270.69749984 -72.6875 268.25 C-72.6875 267.59 -72.6875 266.93 -72.6875 266.25 C-73.58339844 265.98960937 -74.47929687 265.72921875 -75.40234375 265.4609375 C-88.43335392 260.65759249 -101.68362585 245.27520413 -109.6875 234.25 C-110.30238281 233.404375 -110.91726563 232.55875 -111.55078125 231.6875 C-121.6875 217.44834047 -121.6875 217.44834047 -121.6875 214.25 C-122.3475 214.25 -123.0075 214.25 -123.6875 214.25 C-123.94144531 213.58613281 -124.19539063 212.92226563 -124.45703125 212.23828125 C-126.54207525 206.79465032 -126.54207525 206.79465032 -129.3125 201.6875 C-131.01491986 198.66957389 -131.49042408 195.80602321 -132.16015625 192.4296875 C-132.64118709 190.07114406 -132.64118709 190.07114406 -134.125 187.4375 C-144.48473361 166.30364343 -142.71162463 135.52960028 -137.6875 113.25 C-137.0275 113.25 -136.3675 113.25 -135.6875 113.25 C-135.56375 112.26773438 -135.44 111.28546875 -135.3125 110.2734375 C-131.54859608 84.22669961 -116.91249504 63.39376041 -99.6875 44.25 C-99.03394531 43.51136719 -98.38039063 42.77273438 -97.70703125 42.01171875 C-78.08212203 21.08714667 -48.59038841 6.05462999 -20.30859375 2.8125 C-16.76766671 2.38769879 -16.76766671 2.38769879 -13.890625 1.203125 C-9.25482283 -0.17630882 -4.81076569 -0.04622671 0 0 Z M-78.6875 52.25 C-79.20022461 52.7135791 -79.71294922 53.1771582 -80.24121094 53.65478516 C-104.66285554 76.03029197 -118.08380604 106.60830792 -119.56665039 139.48876953 C-120.0015526 153.57391307 -118.83542888 167.73696949 -114.6875 181.25 C-114.48979004 181.98234863 -114.29208008 182.71469727 -114.08837891 183.46923828 C-112.36517584 189.65574114 -109.9943625 195.1124959 -106.9375 200.75 C-106.4935791 201.57878662 -106.0496582 202.40757324 -105.59228516 203.26147461 C-102.34560478 209.23642328 -98.86994985 214.87804607 -94.6875 220.25 C-94.06359375 221.075 -93.4396875 221.9 -92.796875 222.75 C-78.02111663 241.83050688 -58.56049239 255.59732596 -35.6875 263.25 C-34.59566406 263.61867188 -33.50382812 263.98734375 -32.37890625 264.3671875 C-1.24285658 274.41580659 32.36756301 270.43620121 61.28515625 255.78515625 C69.62277175 251.38744275 77.26697767 246.5538884 84.3125 240.25 C85.56933594 239.17105469 85.56933594 239.17105469 86.8515625 238.0703125 C101.57132545 225.21831403 111.323126 209.91567906 119.3125 192.25 C119.60286133 191.60836914 119.89322266 190.96673828 120.19238281 190.30566406 C131.07064126 165.60059961 132.90737631 132.57049551 123.11791992 107.30102539 C122.85213135 106.62418701 122.58634277 105.94734863 122.3125 105.25 C122.05895752 104.58411865 121.80541504 103.9182373 121.54418945 103.23217773 C109.43986105 71.58849537 87.2040472 47.45715347 56.6484375 32.87890625 C53.3125 31.25 53.3125 31.25 50.3125 29.25 C48.47466765 28.56352189 48.47466765 28.56352189 46.46875 28.03125 C45.72270508 27.82209961 44.97666016 27.61294922 44.20800781 27.39746094 C43.41749023 27.18379883 42.62697266 26.97013672 41.8125 26.75 C40.9987793 26.52860352 40.18505859 26.30720703 39.34667969 26.07910156 C-1.93953669 15.03113988 -46.66815302 23.19540737 -78.6875 52.25 Z " fill="#1E27C4" transform="translate(535.6875,394.75)"/>
<path d="M0 0 C0 0.66 0 1.32 0 2 C0.556875 2.20625 1.11375 2.4125 1.6875 2.625 C4.98557248 4.58601607 6.82331327 6.85589694 9 10 C9.45193504 13.53201035 9.4471066 15.32145837 7.46878052 18.32382202 C6.74576752 19.06693634 6.02275452 19.81005066 5.27783203 20.57568359 C4.45124084 21.43941589 3.62464966 22.30314819 2.77301025 23.1930542 C1.85791687 24.11934631 0.94282349 25.04563843 0 26 C-0.95227723 26.987513 -1.90311214 27.97641861 -2.8526001 28.96661377 C-9.61446938 35.99322165 -16.49827553 42.90253196 -23.36572266 49.82568359 C-25.88493879 52.3673503 -28.39398251 54.91847231 -30.89501953 57.47802734 C-33.93741153 60.59139694 -36.99655884 63.687326 -40.06847763 66.77155685 C-41.22989838 67.94336692 -42.38530502 69.12117063 -43.53439713 70.30507278 C-45.13730419 71.95409319 -46.76084839 73.57974411 -48.39111328 75.20166016 C-49.30772736 76.13080231 -50.22434143 77.05994446 -51.16873169 78.01724243 C-54.76925005 80.53871134 -56.688018 80.65705351 -61 80 C-63.3603363 78.52854919 -63.3603363 78.52854919 -65.46655273 76.43920898 C-66.2668541 75.66097275 -67.06715546 74.88273651 -67.89170837 74.08091736 C-68.73053055 73.22792557 -69.56935272 72.37493378 -70.43359375 71.49609375 C-71.31153091 70.62485367 -72.18946808 69.75361359 -73.0940094 68.85597229 C-75.41723502 66.53872399 -77.72258976 64.2052522 -80.02313232 61.86553955 C-81.43642857 60.43858178 -82.86260489 59.02601785 -84.29467773 57.61791992 C-87.04761594 54.90823029 -89.77519068 52.17541197 -92.49609375 49.43359375 C-93.34908554 48.59477158 -94.20207733 47.7559494 -95.08091736 46.89170837 C-100.83766955 40.97173652 -100.83766955 40.97173652 -101.65283203 36.09204102 C-100.80945745 32.0975238 -99.32693015 30.35928707 -96.4375 27.5 C-95.59058594 26.6234375 -94.74367188 25.746875 -93.87109375 24.84375 C-91 23 -91 23 -87.69628906 23.03466797 C-83.23101208 24.20083079 -81.00484567 26.30249912 -77.98828125 29.6015625 C-77.45277145 30.15742035 -76.91726166 30.7132782 -76.36552429 31.28598022 C-74.66599322 33.05187221 -72.98762043 34.83595693 -71.3125 36.625 C-69.62573123 38.42011982 -67.93489102 40.21006782 -66.2273407 41.98544312 C-65.16757712 43.08759563 -64.11970098 44.20132807 -63.08528137 45.32730103 C-61.51312566 47.02377909 -61.51312566 47.02377909 -59 49 C-54.9474093 48.82174083 -52.95109358 46.27175087 -50.25073242 43.48022461 C-49.79322098 43.0119072 -49.33570953 42.54358978 -48.86433411 42.06108093 C-47.87352154 41.04549857 -46.88607279 40.0266259 -45.90163231 39.00486565 C-44.34106179 37.38741165 -42.76960075 35.78132969 -41.19441223 34.17811584 C-36.71811553 29.61938713 -32.25733652 25.04583796 -27.81616211 20.45288086 C-25.09683063 17.64220965 -22.36059585 14.84895359 -19.61312294 12.06579781 C-18.57111955 11.00335466 -17.53572671 9.93438526 -16.50725365 8.85883904 C-15.06644016 7.35291776 -13.60511197 5.87008279 -12.13745117 4.39038086 C-11.31234543 3.54068222 -10.48723969 2.69098358 -9.63713074 1.8155365 C-6.25829573 -0.51062738 -4.01542851 -0.34660592 0 0 Z " fill="#FBFBFB" transform="translate(586,500)"/>
<path d="M0 0 C-1.61010527 4.07376031 -4.53822271 6.76507069 -7.625 9.75 C-8.140625 10.25660156 -8.65625 10.76320313 -9.1875 11.28515625 C-10.45383339 12.52803902 -11.7263144 13.76465276 -13 15 C-13.66 14.67 -14.32 14.34 -15 14 C-2.98984772 0 -2.98984772 0 0 0 Z " fill="#4951D1" transform="translate(446,431)"/>
</svg>
