<?xml version="1.0" encoding="UTF-8"?>
<svg version="1.1" xmlns="http://www.w3.org/2000/svg" width="512" height="512">
<path d="M0 0 C1.32039595 1.1157221 2.63368496 2.23994599 3.9375 3.375 C4.81728516 4.04208984 4.81728516 4.04208984 5.71484375 4.72265625 C21.17329573 16.74589668 29.42433389 37.12733448 32.51953125 55.90625 C36.26831453 87.01764769 20.44181227 111.23594841 5.1965332 136.82250977 C-0.29333046 146.04056502 -5.6768271 155.31598991 -11.0144043 164.62304688 C-11.589729 165.62529297 -12.16505371 166.62753906 -12.7578125 167.66015625 C-13.25297363 168.52519775 -13.74813477 169.39023926 -14.25830078 170.28149414 C-16.81828482 174.6708795 -19.44116194 179.02205152 -22.0625 183.375 C-20.41118073 183.38046844 -20.41118073 183.38046844 -18.72650146 183.38604736 C-8.31103504 183.42311737 2.10413901 183.48102047 12.51938248 183.55890274 C17.87295949 183.59827705 23.22637448 183.63051466 28.58007812 183.64599609 C33.7544646 183.66122901 38.92840535 183.69579155 44.10259247 183.74330902 C46.06872414 183.75805467 48.03491948 183.76603707 50.00110626 183.76688385 C67.39934412 183.78190161 81.36080582 186.39335832 94.6875 198.5625 C105.82091536 210.49880589 108.74022194 223.78356076 108.28125 239.51953125 C107.59760765 252.18888903 101.27031061 264.11053988 92.0078125 272.75 C79.42717998 282.62460968 67.50641068 284.81535436 51.9296875 284.81640625 C50.39371499 284.82820468 48.85775384 284.84157484 47.32180786 284.85643005 C43.30382132 284.89238374 39.28593548 284.91274776 35.26782227 284.92797852 C28.8316963 284.95293714 22.3957927 284.99278625 15.9598732 285.04987907 C13.72652052 285.0660668 11.49338304 285.0699718 9.25997925 285.07289124 C-4.32831961 285.09154469 -4.32831961 285.09154469 -16.0625 291.375 C-20.14428113 296.53093406 -20.75317275 300.89883238 -20.5078125 307.43359375 C-19.71074185 312.69845513 -17.54221694 316.39699323 -13.3828125 319.71484375 C-8.0663201 323.03469789 -2.61018086 323.49808976 3.51358032 323.50630188 C4.59832642 323.51031006 5.68307251 323.51431824 6.8006897 323.51844788 C7.97586151 323.51791916 9.15103333 323.51739044 10.36181641 323.5168457 C12.23616364 323.52205734 12.23616364 323.52205734 14.14837646 323.52737427 C16.859122 323.5347188 19.56981878 323.54039806 22.28056717 323.54366493 C26.57741512 323.5496047 30.87418153 323.5661743 35.17098999 323.58500671 C36.64598269 323.59134352 38.12097545 323.59766915 39.59596825 323.60398388 C40.70376581 323.6087326 40.70376581 323.6087326 41.83394313 323.61357725 C51.82922236 323.65553458 61.82446277 323.68860323 71.81982422 323.70092773 C78.57270979 323.70933944 85.32539205 323.73194361 92.0781759 323.7702834 C95.64441943 323.78993868 99.21035982 323.80248403 102.77666092 323.79744911 C106.76365932 323.7918885 110.74990961 323.81734448 114.73681641 323.8449707 C115.89984283 323.83836929 117.06286926 323.83176788 118.26113892 323.82496643 C132.29522644 323.98379158 144.32413503 329.09929368 154.6875 338.5625 C165.82091536 350.49880589 168.74022194 363.78356076 168.28125 379.51953125 C167.59760765 392.18888903 161.27031061 404.11053988 152.0078125 412.75 C139.42717998 422.62460968 127.50641068 424.81535436 111.9296875 424.81640625 C110.39371499 424.82820468 108.85775384 424.84157484 107.32180786 424.85643005 C103.30382132 424.89238374 99.28593548 424.91274776 95.26782227 424.92797852 C88.8316963 424.95293714 82.3957927 424.99278625 75.9598732 425.04987907 C73.72652052 425.0660668 71.49338304 425.0699718 69.25997925 425.07289124 C55.67168039 425.09154469 55.67168039 425.09154469 43.9375 431.375 C39.85571887 436.53093406 39.24682725 440.89883238 39.4921875 447.43359375 C40.28925815 452.69845513 42.45778306 456.39699323 46.6171875 459.71484375 C52.90466702 463.64102541 59.567201 463.52101383 66.70736694 463.49525452 C68.01362642 463.49653615 68.01362642 463.49653615 69.34627497 463.49784368 C72.25740101 463.4994877 75.16846913 463.49399477 78.07958984 463.48852539 C80.16911823 463.48824326 82.25864672 463.48840176 84.34817505 463.4889679 C90.01706913 463.48925486 95.68594206 463.48337436 101.35483122 463.47639394 C107.28054923 463.47014367 113.20626773 463.46955527 119.13198853 463.46836853 C130.35157183 463.46526016 141.57114539 463.45705341 152.7907244 463.44701904 C165.5645007 463.43584259 178.33827747 463.43034359 191.11205745 463.42532361 C217.38721037 463.4148704 243.66235464 463.39728049 269.9375 463.375 C269.35633423 462.37871582 269.35633423 462.37871582 268.76342773 461.36230469 C259.68359375 445.796875 259.68359375 445.796875 257.8140564 442.59191895 C256.55370048 440.43133222 255.29330356 438.27076942 254.03286743 436.11022949 C253.42470184 435.06774048 252.81653625 434.02525146 252.18994141 432.95117188 C251.64769928 432.02171753 251.10545715 431.09226318 250.54678345 430.13464355 C248.85047896 427.22577393 247.15562326 424.31606292 245.4609375 421.40625 C243.06300721 417.29398049 240.64973892 413.19119027 238.2265625 409.09375 C222.24763745 382.02762318 209.71071682 357.66603771 217.43701172 325.28271484 C222.90522714 304.43947809 236.27953794 286.2818935 254.77001953 275.28515625 C274.34108893 264.10453007 297.43058364 260.4841086 319.5625 265.875 C332.01008459 269.60402323 343.35737908 275.56063704 352.9375 284.375 C353.77796875 285.12394531 354.6184375 285.87289063 355.484375 286.64453125 C364.86084464 295.43852323 371.38250212 306.39584189 375.9375 318.375 C376.33066406 319.39980469 376.72382813 320.42460937 377.12890625 321.48046875 C382.45941932 337.91776514 382.28383531 358.27208597 375.9375 374.375 C375.70095703 374.97876465 375.46441406 375.5825293 375.22070312 376.20458984 C369.96127917 389.22935923 362.31535836 401.10506909 355.09210205 413.10203552 C351.42114091 419.21074265 347.86107974 425.3820182 344.3125 431.5625 C343.07441236 433.71495512 341.83613228 435.86729957 340.59765625 438.01953125 C339.99195801 439.07221191 339.38625977 440.12489258 338.76220703 441.20947266 C334.07953355 449.33304028 329.35551163 457.43210274 324.60742188 465.51757812 C322.93818153 468.37383383 321.28854333 471.24077643 319.640625 474.109375 C318.59430294 475.90657203 317.54745324 477.70346201 316.5 479.5 C315.81031128 480.71695557 315.81031128 480.71695557 315.10668945 481.95849609 C314.43706177 483.09665771 314.43706177 483.09665771 313.75390625 484.2578125 C313.37693604 484.91152832 312.99996582 485.56524414 312.61157227 486.23876953 C309.60196938 490.07922822 306.5318739 493.75030566 301.62479174 494.93187261 C298.88653866 495.14171 296.2038036 495.16530461 293.4577179 495.1234436 C292.41481431 495.13139242 291.37191072 495.13934123 290.29740399 495.14753091 C286.80879562 495.16675339 283.32181435 495.14315776 279.83325195 495.11962891 C277.32954809 495.12448582 274.8258481 495.13192552 272.32215881 495.14175415 C266.23012948 495.15861605 260.13873545 495.14755033 254.04677925 495.12322827 C246.94403384 495.09593231 239.84140043 495.09926919 232.73861589 495.10349493 C220.05684795 495.10987182 207.37530478 495.08656085 194.69360352 495.04736328 C182.40674995 495.00939642 170.12015999 494.995178 157.83325195 495.00634766 C144.4402282 495.01848693 131.04732032 495.01806279 117.65430611 494.99537599 C116.22355442 494.99296156 114.79280272 494.99054959 113.36205101 494.98814011 C112.65819224 494.98693303 111.95433347 494.98572595 111.22914565 494.9844823 C106.28690373 494.97674841 101.34470513 494.97750188 96.4024601 494.9813118 C89.73666168 494.986021 83.07124803 494.96876896 76.40550804 494.93719101 C73.96430732 494.92873492 71.52307237 494.92698422 69.0818634 494.93257141 C50.26955611 494.9690816 35.72359985 493.46099875 21.1875 480.1875 C10.05408464 468.25119411 7.13477806 454.96643924 7.59375 439.23046875 C8.27739235 426.56111097 14.60468939 414.63946012 23.8671875 406 C36.44782002 396.12539032 48.36858932 393.93464564 63.9453125 393.93359375 C65.48128501 393.92179532 67.01724616 393.90842516 68.55319214 393.89356995 C72.57117868 393.85761626 76.58906452 393.83725224 80.60717773 393.82202148 C87.0433037 393.79706286 93.4792073 393.75721375 99.9151268 393.70012093 C102.14847948 393.6839332 104.38161696 393.6800282 106.61502075 393.67710876 C120.20331961 393.65845531 120.20331961 393.65845531 131.9375 387.375 C136.01928113 382.21906594 136.62817275 377.85116762 136.3828125 371.31640625 C135.58574185 366.05154487 133.41721694 362.35300677 129.2578125 359.03515625 C123.9413201 355.71530211 118.48518086 355.25191024 112.36141968 355.24369812 C111.27667358 355.23968994 110.19192749 355.23568176 109.0743103 355.23155212 C107.89913849 355.23208084 106.72396667 355.23260956 105.51318359 355.2331543 C104.26361877 355.22967987 103.01405396 355.22620544 101.72662354 355.22262573 C99.015878 355.2152812 96.30518122 355.20960194 93.59443283 355.20633507 C89.29758488 355.2003953 85.00081847 355.1838257 80.70401001 355.16499329 C79.22901731 355.15865648 77.75402455 355.15233085 76.27903175 355.14601612 C75.17123419 355.1412674 75.17123419 355.1412674 74.04105687 355.13642275 C64.04577764 355.09446542 54.05053723 355.06139677 44.05517578 355.04907227 C37.30229021 355.04066056 30.54960795 355.01805639 23.7968241 354.9797166 C20.23058057 354.96006132 16.66464018 354.94751597 13.09833908 354.95255089 C9.11134068 354.9581115 5.12509039 354.93265552 1.13818359 354.9050293 C-0.02484283 354.91163071 -1.18786926 354.91823212 -2.38613892 354.92503357 C-16.42022644 354.76620842 -28.44913503 349.65070632 -38.8125 340.1875 C-49.94591536 328.25119411 -52.86522194 314.96643924 -52.40625 299.23046875 C-51.72260765 286.56111097 -45.39531061 274.63946012 -36.1328125 266 C-23.55217998 256.12539032 -11.63141068 253.93464564 3.9453125 253.93359375 C5.48128501 253.92179532 7.01724616 253.90842516 8.55319214 253.89356995 C12.57117868 253.85761626 16.58906452 253.83725224 20.60717773 253.82202148 C27.0433037 253.79706286 33.4792073 253.75721375 39.9151268 253.70012093 C42.14847948 253.6839332 44.38161696 253.6800282 46.61502075 253.67710876 C60.20331961 253.65845531 60.20331961 253.65845531 71.9375 247.375 C76.01928113 242.21906594 76.62817275 237.85116762 76.3828125 231.31640625 C75.58574185 226.05154487 73.41721694 222.35300677 69.2578125 219.03515625 C62.3323711 214.71060284 54.76952258 215.24087767 46.91845703 215.28076172 C44.63957736 215.2835472 42.36069755 215.28621722 40.08181763 215.28878784 C38.87846897 215.29183804 37.67512032 215.29488823 36.43530655 215.29803085 C30.04928935 215.30939704 23.66334243 215.28887281 17.27734375 215.2734375 C9.15726799 215.25457904 1.0375384 215.24573183 -7.08251953 215.27539062 C-13.65136822 215.29927126 -20.21952031 215.28650514 -26.78836441 215.25238419 C-29.28814578 215.24561645 -31.78799347 215.25129056 -34.28771591 215.26974106 C-37.78762681 215.2939154 -41.28485026 215.27468863 -44.78466797 215.24560547 C-46.32636154 215.27168633 -46.32636154 215.27168633 -47.89920044 215.29829407 C-54.4761294 215.18480729 -57.83635251 213.76272887 -62.5285511 209.11758995 C-64.34790247 207.05077833 -65.83223304 205.04422467 -67.125 202.609375 C-67.60308105 201.73369873 -68.08116211 200.85802246 -68.57373047 199.95581055 C-69.06502441 199.02164307 -69.55631836 198.08747559 -70.0625 197.125 C-71.18722392 195.06222902 -72.31495756 193.00109694 -73.4453125 190.94140625 C-74.0321582 189.86648926 -74.61900391 188.79157227 -75.22363281 187.68408203 C-78.34192633 182.07264413 -81.64315946 176.57180807 -84.9375 171.0625 C-90.88756814 161.07605741 -96.75159275 151.04483584 -102.53833008 140.96289062 C-105.62983671 135.57951098 -108.74114096 130.2099976 -111.90234375 124.8671875 C-124.77778853 103.09567763 -124.77778853 103.09567763 -128.0625 94.375 C-128.46984375 93.32054688 -128.8771875 92.26609375 -129.296875 91.1796875 C-135.84851009 71.12091431 -133.39286273 48.76371126 -124.25 30.0625 C-113.72592899 9.69591224 -97.94391706 -5.21495837 -76.0625 -12.625 C-75.16402344 -12.94339844 -74.26554687 -13.26179687 -73.33984375 -13.58984375 C-48.77940737 -20.76294563 -20.24292847 -15.47383176 0 0 Z " fill="#485959" transform="translate(132.0625,16.625)"/>
<path d="M0 0 C1.56306023 1.3506309 3.10479526 2.72630823 4.625 4.125 C5.46546875 4.87394531 6.3059375 5.62289063 7.171875 6.39453125 C16.54834464 15.18852323 23.07000212 26.14584189 27.625 38.125 C28.01816406 39.14980469 28.41132813 40.17460937 28.81640625 41.23046875 C34.14691932 57.66776514 33.97133531 78.02208597 27.625 94.125 C27.38845703 94.72876465 27.15191406 95.3325293 26.90820312 95.95458984 C21.64877917 108.97935923 14.00285836 120.85506909 6.77960205 132.85203552 C3.10864091 138.96074265 -0.45142026 145.1320182 -4 151.3125 C-5.23808764 153.46495512 -6.47636772 155.61729957 -7.71484375 157.76953125 C-8.32054199 158.82221191 -8.92624023 159.87489258 -9.55029297 160.95947266 C-14.23296645 169.08304028 -18.95698837 177.18210274 -23.70507812 185.26757812 C-25.37431847 188.12383383 -27.02395667 190.99077643 -28.671875 193.859375 C-29.71819706 195.65657203 -30.76504676 197.45346201 -31.8125 199.25 C-32.50218872 200.46695557 -32.50218872 200.46695557 -33.20581055 201.70849609 C-36.61195908 207.49790358 -40.44812603 213.07315876 -47.21875 214.88671875 C-48.0953125 214.86222656 -48.971875 214.83773437 -49.875 214.8125 C-51.18984375 214.81830078 -51.18984375 214.81830078 -52.53125 214.82421875 C-59.26730412 213.16796368 -62.51223171 209.2908492 -66.05859375 203.625 C-67.32472664 201.46696644 -68.57544844 199.29983443 -69.8125 197.125 C-71.14277314 194.84478598 -72.47349677 192.5648347 -73.8046875 190.28515625 C-74.42956055 189.20379395 -75.05443359 188.12243164 -75.69824219 187.00830078 C-77.553133 183.81868802 -79.47407379 180.6861326 -81.4375 177.5625 C-86.98867623 168.59429305 -92.22263264 159.43509003 -97.51953125 150.31542969 C-99.91990115 146.18805681 -102.33082942 142.06690341 -104.74194336 137.94580078 C-107.06082336 133.97784641 -109.37053974 130.00459012 -111.68017578 126.03125 C-113.35988847 123.15091294 -115.05238974 120.27837639 -116.74609375 117.40625 C-130.33763112 94.22273101 -137.27847009 71.8696179 -130.87548828 45.03271484 C-125.40727286 24.18947809 -112.03296206 6.0318935 -93.54248047 -4.96484375 C-64.40155163 -21.61257133 -26.98584777 -20.82970125 0 0 Z " fill="#7CD4F3" transform="translate(480.375,296.875)"/>
<path d="M0 0 C1.32039595 1.1157221 2.63368496 2.23994599 3.9375 3.375 C4.81728516 4.04208984 4.81728516 4.04208984 5.71484375 4.72265625 C21.17329573 16.74589668 29.42433389 37.12733448 32.51953125 55.90625 C36.26904048 87.02367238 20.43552876 111.25794099 5.18115234 136.84667969 C0.45985897 144.7709425 -4.166822 152.74477931 -8.75 160.75 C-14.34421038 170.50489061 -20.14208992 180.10717294 -26.1171875 189.6328125 C-28.02697067 192.68376228 -29.88743965 195.75477788 -31.6953125 198.8671875 C-32.0989502 199.55917236 -32.50258789 200.25115723 -32.91845703 200.96411133 C-33.64926346 202.22469783 -34.37240425 203.48978044 -35.08544922 204.76049805 C-37.85120693 209.51867941 -40.79323452 212.61857817 -46.0625 214.375 C-48.26171875 214.71875 -48.26171875 214.71875 -50.75 214.875 C-51.55824219 214.9471875 -52.36648437 215.019375 -53.19921875 215.09375 C-58.69198227 213.71493897 -62.48649522 209.63694554 -65.6628418 205.078125 C-67.21086921 202.46439096 -68.64853061 199.81358234 -70.0625 197.125 C-71.18722392 195.06222902 -72.31495756 193.00109694 -73.4453125 190.94140625 C-74.0321582 189.86648926 -74.61900391 188.79157227 -75.22363281 187.68408203 C-78.34192633 182.07264413 -81.64315946 176.57180807 -84.9375 171.0625 C-90.88756814 161.07605741 -96.75159275 151.04483584 -102.53833008 140.96289062 C-105.62983671 135.57951098 -108.74114096 130.2099976 -111.90234375 124.8671875 C-124.77778853 103.09567763 -124.77778853 103.09567763 -128.0625 94.375 C-128.46984375 93.32054688 -128.8771875 92.26609375 -129.296875 91.1796875 C-135.84851009 71.12091431 -133.39286273 48.76371126 -124.25 30.0625 C-113.72592899 9.69591224 -97.94391706 -5.21495837 -76.0625 -12.625 C-75.16402344 -12.94339844 -74.26554687 -13.26179687 -73.33984375 -13.58984375 C-48.77940737 -20.76294563 -20.24292847 -15.47383176 0 0 Z " fill="#FE7038" transform="translate(132.0625,16.625)"/>
<path d="M0 0 C20.77286055 0 38.19116651 5.23740383 54 19 C54.58652344 19.44472656 55.17304688 19.88945312 55.77734375 20.34765625 C71.23579573 32.37089668 79.48683389 52.75233448 82.58203125 71.53125 C86.33154048 102.64867238 70.49802876 126.88294099 55.24365234 152.47167969 C50.52235897 160.3959425 45.895678 168.36977931 41.3125 176.375 C35.71828962 186.12989061 29.92041008 195.73217294 23.9453125 205.2578125 C22.03552933 208.30876228 20.17506035 211.37977788 18.3671875 214.4921875 C17.76173096 215.53016479 17.76173096 215.53016479 17.14404297 216.58911133 C16.41323654 217.84969783 15.69009575 219.11478044 14.97705078 220.38549805 C12.8032447 224.12529187 10.6934843 226.71841449 7 229 C4.69 229.33 2.38 229.66 0 230 C0 191.06 0 152.12 0 112 C4.95 111.01 4.95 111.01 10 110 C18.05980295 106.94704434 24.35752377 101.26438472 28 93.3125 C30.22423555 86.04375638 30.28141348 77.19800896 27.4375 70.125 C22.68292624 61.24319208 16.64597616 56.08724237 7 53 C4.69 52.67 2.38 52.34 0 52 C0 34.84 0 17.68 0 0 Z " fill="#FE405B" transform="translate(82,1)"/>
<path d="M0 0 C21.1953937 0 39.20616996 5.46860195 55 20 C55.84046875 20.74894531 56.6809375 21.49789063 57.546875 22.26953125 C66.92334464 31.06352323 73.44500212 42.02084189 78 54 C78.39316406 55.02480469 78.78632813 56.04960937 79.19140625 57.10546875 C84.52191932 73.54276514 84.34633531 93.89708597 78 110 C77.76345703 110.60376465 77.52691406 111.2075293 77.28320312 111.82958984 C72.02377917 124.85435923 64.37785836 136.73006909 57.15460205 148.72703552 C53.48364091 154.83574265 49.92357974 161.0070182 46.375 167.1875 C45.13691236 169.33995512 43.89863228 171.49229957 42.66015625 173.64453125 C42.05445801 174.69721191 41.44875977 175.74989258 40.82470703 176.83447266 C36.14203355 184.95804028 31.41801163 193.05710274 26.66992188 201.14257812 C25.00068153 203.99883383 23.35104333 206.86577643 21.703125 209.734375 C20.65680294 211.53157203 19.60995324 213.32846201 18.5625 215.125 C17.87281128 216.34195557 17.87281128 216.34195557 17.16918945 217.58349609 C14.31354493 222.43721566 11.12205564 227.33322526 6 230 C4.02 230 2.04 230 0 230 C0 191.06 0 152.12 0 112 C4.95 111.01 4.95 111.01 10 110 C18.40036951 106.74015512 23.66962831 101.4732147 27.4375 93.25 C30.44054917 84.77386122 30.00048593 76.3958736 26.25390625 68.25 C22.44366108 61.41292456 17.36519751 56.80929677 10 54 C6.7 53.34 3.4 52.68 0 52 C0 34.84 0 17.68 0 0 Z " fill="#6BA7FE" transform="translate(430,281)"/>
<path d="M0 0 C5.88688233 4.74037342 10.35938925 10.95531033 11.7734375 18.4921875 C12.69304792 28.77373348 11.0727269 36.84620113 4.3984375 44.8671875 C-0.98669173 50.56233483 -6.60730876 53.91058654 -14.453125 54.8984375 C-24.33594458 55.17106701 -31.80110117 53.17201581 -39.38671875 46.62890625 C-45.50167691 40.15042616 -48.41101973 33.57865152 -48.8515625 24.6796875 C-48.57990077 16.2943953 -45.87236772 9.55754967 -40.2578125 3.296875 C-28.70892612 -7.31921671 -13.11156064 -8.87905686 0 0 Z " fill="#D4E6FE" transform="translate(448.2265625,338.5078125)"/>
<path d="M0 0 C7.22071956 4.05926695 13.79393104 10.06186615 16.28515625 18.203125 C17.80610699 27.12209826 17.7568638 35.84695804 12.6875 43.5625 C7.556637 50.50717897 2.09704218 55.14234155 -6.3125 57.5625 C-16.27080507 58.81633018 -24.04231968 57.31353178 -32.3125 51.5625 C-38.81084772 46.06299416 -42.62080948 39.01758503 -43.69140625 30.57421875 C-44.07187846 20.91513392 -40.93159347 13.85109829 -35.015625 6.3515625 C-25.932958 -3.18940421 -11.83034005 -5.41286788 0 0 Z " fill="#D5E6FE" transform="translate(95.3125,55.4375)"/>
<path d="M0 0 C1.15242188 0.01804688 2.30484375 0.03609375 3.4921875 0.0546875 C4.36101562 0.07789063 5.22984375 0.10109375 6.125 0.125 C6.125 0.455 6.125 0.785 6.125 1.125 C4.145 1.455 2.165 1.785 0.125 2.125 C-0.205 21.265 -0.535 40.405 -0.875 60.125 C-9.47276426 60.125 -15.43679675 57.83406986 -22.0625 52.296875 C-28.0535799 45.94426442 -31.03200963 38.77002983 -31.375 30.0625 C-31.03110225 21.10969535 -27.01373958 13.5734925 -20.875 7.125 C-14.49233271 2.09545818 -8.16748668 -0.1666834 0 0 Z " fill="#ECF6F8" transform="translate(82.875,52.875)"/>
<path d="M0 0 C0 19.47 0 38.94 0 59 C-8.57631434 59 -14.61782417 56.73267477 -21.1875 51.13671875 C-28.25987155 43.5308709 -30.84395263 35.94583784 -30.5078125 25.5703125 C-29.25724512 16.77786188 -24.91547274 9.74003552 -17.9296875 4.3359375 C-11.16187603 -0.34947044 -9.25095622 0 0 0 Z " fill="#EAF8FA" transform="translate(430,334)"/>
</svg>
