<svg xmlns="http://www.w3.org/2000/svg" viewBox="0 0 88 88" height="88" width="88">
    <defs>
        <clipPath id="a">
            <path d="M25.76 24.25v2.65l-.86 1a.81.81 0 0 1-1.44-.51V16.72A1.73 1.73 0 0 0 21.74 15h-.35a1.72 1.72 0 0 0-1.64 1.22h-2.3a1.66 1.66 0 0 0-1.6 1.22h-2a2.3 2.3 0 0 0-2.3 2.3v-.07h-1.17a2.26 2.26 0 0 0-2.26 2.26v7.28a18.25 18.25 0 0 0 1.62 7.52L11 39.45a5.75 5.75 0 0 1 .34 3.78l-.67 2.38h12.49v-2.24a3.89 3.89 0 0 1 1.38-3l1.86-1.57a7 7 0 0 0 2.41-4.23l.78-4.77v-7.91a31.38 31.38 0 0 0-3.83 2.36z" fill="none"/>
        </clipPath>
        <clipPath id="b">
            <path d="M62.24 24.25v2.65l.86 1a.81.81 0 0 0 1.44-.51V16.72A1.73 1.73 0 0 1 66.26 15h.35a1.72 1.72 0 0 1 1.64 1.22h2.3a1.66 1.66 0 0 1 1.6 1.22h2a2.3 2.3 0 0 1 2.3 2.3v-.07h1.19a2.26 2.26 0 0 1 2.26 2.26v7.28a18.25 18.25 0 0 1-1.62 7.52L77 39.45a5.75 5.75 0 0 0-.34 3.78l.67 2.38H64.84v-2.24a3.89 3.89 0 0 0-1.38-3l-1.86-1.54a7 7 0 0 1-2.41-4.23l-.78-4.77v-7.94a31.38 31.38 0 0 1 3.83 2.36z" fill="none"/>
        </clipPath>
    </defs>
    <path d="M44 18.37a31.33 31.33 0 1 1-31.33 31.34A31.37 31.37 0 0 1 44 18.37m0-7a38.29 38.29 0 1 0 38.3 38.34A38.29 38.29 0 0 0 44 11.41z"/>
    <path d="M37.51 80.47q-1-.21-2-.49a31.17 31.17 0 0 0 17 0q-1 .28-2 .49a2.36 2.36 0 0 1-2.85-2.3v-6.1a15.65 15.65 0 0 1 3.84-10.31c2.88-3.31 5-5.4 5-5.4h15.04a2.35 2.35 0 0 1 2.24 3.07 31.2 31.2 0 0 0 1.55-9.72c0-.91 0-1.81-.12-2.7a1.74 1.74 0 0 1-2.36 1.73l-8.93-3.46H24.09l-8.93 3.46A1.74 1.74 0 0 1 12.79 47c-.08.89-.12 1.79-.12 2.7a31.2 31.2 0 0 0 1.55 9.72 2.35 2.35 0 0 1 2.24-3.07h15.07s2.1 2.09 5 5.4a15.65 15.65 0 0 1 3.86 10.31v6.1a2.36 2.36 0 0 1-2.88 2.31z" style="fill: rgb(156, 192, 255);"/>
    <path d="M28.3 43.46c1.19-.51 2.41-1 3.63-1.35a39.67 39.67 0 0 1 24.14 0c1.23.39 2.44.84 3.63 1.35l4.21 1.81-5.71 15.81a6.35 6.35 0 0 1-6 4.19H35.48a6.35 6.35 0 0 1-6-4.29l-5.38-15.7z" style="fill: rgb(156, 192, 255);"/>
    <circle cx="44" cy="52.32" r="5.22" fill="#fff"/>
    <path d="M25.76 24.25v2.65l-.86 1a.81.81 0 0 1-1.44-.51V16.72A1.73 1.73 0 0 0 21.74 15h-.35a1.72 1.72 0 0 0-1.64 1.22h-2.3a1.66 1.66 0 0 0-1.6 1.22h-2a2.3 2.3 0 0 0-2.3 2.3v-.07h-1.17a2.26 2.26 0 0 0-2.26 2.26v7.28a18.25 18.25 0 0 0 1.62 7.52L11 39.45a5.75 5.75 0 0 1 .34 3.78l-.67 2.38h12.49v-2.24a3.89 3.89 0 0 1 1.38-3l1.86-1.57a7 7 0 0 0 2.41-4.23l.78-4.77v-7.91a31.38 31.38 0 0 0-3.83 2.36z" fill="#d6d6d5"/>
    <path fill="#fff" d="M23.2 48.37H10.01l.62-2.77h12.53l.04 2.77z"/>
    <path d="M24.74 88H0l10-39.63h13.19l.87 2.46a11.84 11.84 0 0 1 .68 4z" style="fill: rgb(39, 110, 241);"/>
    <g clip-path="url(#a)" fill="#a5a5a5">
        <path d="M19.56 22.6a.5.5 0 0 1-.5-.5v-7.73a.5.5 0 1 1 1 0v7.73a.5.5 0 0 1-.5.5zm-3.88 0a.5.5 0 0 1-.5-.5v-7.73a.5.5 0 1 1 1 0v7.73a.5.5 0 0 1-.5.5zm-4.1 0a.5.5 0 0 1-.5-.5v-7.73a.5.5 0 0 1 1 0v7.73a.5.5 0 0 1-.5.5z"/>
    </g>
    <path d="M62.24 24.25v2.65l.86 1a.81.81 0 0 0 1.44-.51V16.72A1.73 1.73 0 0 1 66.26 15h.35a1.72 1.72 0 0 1 1.64 1.22h2.3a1.66 1.66 0 0 1 1.6 1.22h2a2.3 2.3 0 0 1 2.3 2.3v-.07h1.19a2.26 2.26 0 0 1 2.26 2.26v7.28a18.25 18.25 0 0 1-1.62 7.52L77 39.45a5.75 5.75 0 0 0-.34 3.78l.67 2.38H64.84v-2.24a3.89 3.89 0 0 0-1.38-3l-1.86-1.54a7 7 0 0 1-2.41-4.23l-.78-4.77v-7.94a31.38 31.38 0 0 1 3.83 2.36z" fill="#d6d6d5"/>
    <path fill="#fff" d="M64.8 48.37h13.19l-.62-2.77H64.84l-.04 2.77z"/>
    <path d="M63.26 88H88L78 48.37H64.81l-.87 2.46a11.84 11.84 0 0 0-.68 4z" style="fill: rgb(39, 110, 241);"/>
    <g clip-path="url(#b)" fill="#a5a5a5">
        <path d="M68.44 22.6a.5.5 0 0 1-.5-.5v-7.73a.5.5 0 1 1 1 0v7.73a.5.5 0 0 1-.5.5zm3.88 0a.5.5 0 0 1-.5-.5v-7.73a.5.5 0 1 1 1 0v7.73a.5.5 0 0 1-.5.5zm4.1 0a.5.5 0 0 1-.5-.5v-7.73a.5.5 0 1 1 1 0v7.73a.5.5 0 0 1-.5.5z"/>
    </g>
</svg>