<?xml version="1.0" encoding="UTF-8"?>
<svg version="1.1" xmlns="http://www.w3.org/2000/svg" width="512" height="512">
<path d="M0 0 C2.16454172 -0.00436595 4.32703094 -0.04067115 6.49121094 -0.07861328 C7.8740165 -0.08448341 9.2568317 -0.08845149 10.63964844 -0.09033203 C11.89310059 -0.0985498 13.14655273 -0.10676758 14.43798828 -0.11523438 C18.38598445 0.45465627 19.99964833 1.59190883 22.80371094 4.37060547 C24.79038036 7.89436164 24.93368809 11.05452198 25.18237305 15.04370117 C25.58702978 19.6153012 25.99284872 23.73329694 29.54101562 26.94140625 C33.75592136 29.69413785 38.28715567 31.66478596 42.94921875 33.5324707 C44.80371094 34.37060547 44.80371094 34.37060547 47.00292969 36.17529297 C48.80715068 37.65103299 48.80715068 37.65103299 51.38964844 37.07763672 C52.31003906 36.78244141 53.23042969 36.48724609 54.17871094 36.18310547 C55.15324219 35.88533203 56.12777344 35.58755859 57.13183594 35.28076172 C59.08378605 34.61584304 61.01410598 33.88644745 62.92871094 33.12060547 C66.96448262 32.06779547 70.83588699 31.99739335 74.80371094 33.37060547 C79.60346831 37.3082705 82.51747353 42.3333072 85.61621094 47.62060547 C86.11830078 48.42884766 86.62039062 49.23708984 87.13769531 50.06982422 C90.35835959 55.54714442 91.83480702 59.99920989 90.80371094 66.37060547 C89.10043531 70.26380689 87.88387094 71.80643557 84.08886719 73.78857422 C80.4974192 75.88242999 77.74595569 77.67070948 75.80371094 81.37060547 C73.79385429 89.94782009 72.66937191 102.35232915 76.8671875 110.41259766 C79.60431844 113.6934195 83.10962866 115.37910301 86.80371094 117.37060547 C90.26394502 120.86614807 91.34959597 123.48886956 91.80371094 128.37060547 C92.93164062 127.72994141 94.05957031 127.08927734 95.22167969 126.42919922 C117.70247684 113.95974082 141.20440679 107.19732598 166.97924805 107.13037109 C169.20433396 107.12076468 171.42845428 107.08973044 173.65332031 107.05810547 C198.40850535 106.86997581 198.40850535 106.86997581 205.23510742 112.30712891 C207.16150031 114.84127251 207.14930433 116.26026497 206.80371094 119.37060547 C207.60035156 119.56396484 208.39699219 119.75732422 209.21777344 119.95654297 C210.27738281 120.21693359 211.33699219 120.47732422 212.42871094 120.74560547 C213.52441406 121.01373047 214.62011719 121.28185547 215.74902344 121.55810547 C218.80371094 122.37060547 218.80371094 122.37060547 222.30371094 123.74560547 C223.54121094 124.05498047 223.54121094 124.05498047 224.80371094 124.37060547 C226.84368284 123.00736803 226.84368284 123.00736803 228.80371094 121.37060547 C233.92690727 120.77488497 237.43514961 122.29109858 241.80371094 124.74560547 C242.45452637 125.10428711 243.1053418 125.46296875 243.77587891 125.83251953 C256.10608814 132.78893925 266.77234663 141.42310466 276.80371094 151.37060547 C277.73957031 152.29357422 278.67542969 153.21654297 279.63964844 154.16748047 C297.89339386 173.10116483 309.47202995 197.03303031 315.80371094 222.37060547 C316.14273437 223.63646484 316.48175781 224.90232422 316.83105469 226.20654297 C321.25681444 245.989893 321.04258285 270.80949437 315.80371094 290.37060547 C315.61566895 291.1230957 315.42762695 291.87558594 315.23388672 292.65087891 C309.72215467 314.47856558 299.84034616 333.84123197 285.56542969 351.21435547 C283.92019894 353.22803035 282.34844342 355.27927534 280.80371094 357.37060547 C282.38152344 358.14404297 282.38152344 358.14404297 283.99121094 358.93310547 C284.58289063 359.22314453 285.17457031 359.51318359 285.78417969 359.81201172 C288.51394959 360.56705446 290.10160734 360.20609753 292.80371094 359.37060547 C295.43804923 357.85582414 295.43804923 357.85582414 298.05371094 355.99560547 C302.88534241 352.80292632 307.24030423 350.92106307 312.80371094 349.37060547 C312.85269531 348.68095703 312.90167969 347.99130859 312.95214844 347.28076172 C314.22651955 331.26323513 314.22651955 331.26323513 318.30371094 326.37060547 C323.44314675 322.25905682 328.62703699 323.11327084 335.01513672 323.07543945 C337.03260178 323.05828496 339.04840187 323.01440676 341.06542969 322.97021484 C342.34546875 322.96183594 343.62550781 322.95345703 344.94433594 322.94482422 C346.70052246 322.92295044 346.70052246 322.92295044 348.4921875 322.90063477 C352.50453759 323.47006664 354.65966226 324.86216415 357.80371094 327.37060547 C358.94042969 329.52685547 358.94042969 329.52685547 359.49121094 331.87060547 C359.72839844 332.74458984 359.96558594 333.61857422 360.20996094 334.51904297 C360.80371094 337.37060547 360.80371094 337.37060547 361.08496094 340.40966797 C361.54750471 343.92322161 362.04370848 346.27248975 363.80371094 349.37060547 C368.04762393 352.61284955 373.08463526 354.58999551 378.04199219 356.48608398 C379.80371094 357.37060547 379.80371094 357.37060547 381.35058594 358.97583008 C381.83011719 359.43610596 382.30964844 359.89638184 382.80371094 360.37060547 C387.50041874 360.27067552 391.3424122 358.83961461 395.74121094 357.24560547 C401.07811276 355.42438772 404.36973694 354.74994656 409.80371094 356.37060547 C414.53918549 360.3691022 417.4912197 365.25521646 420.61621094 370.55810547 C421.11830078 371.35796875 421.62039063 372.15783203 422.13769531 372.98193359 C425.56077709 378.78021498 426.95238855 383.63869564 425.80371094 390.37060547 C424.55371094 392.85107422 424.55371094 392.85107422 422.80371094 394.55810547 C422.24683594 395.12916016 421.68996094 395.70021484 421.11621094 396.28857422 C418.80371094 398.37060547 418.80371094 398.37060547 416.81030273 399.71337891 C413.38087728 402.21322634 411.18001989 404.06313869 409.98193359 408.22583008 C409.61626553 411.6052941 409.54255938 414.84735138 409.61621094 418.24560547 C409.6268457 419.41567139 409.63748047 420.5857373 409.6484375 421.79125977 C409.88471629 428.85365767 409.88471629 428.85365767 413.14355469 434.89794922 C415.92743544 437.08394954 418.71339277 438.66575117 421.80371094 440.37060547 C424.34654145 442.60610713 425.59355916 444.23378442 426.21386719 447.58935547 C426.58405005 454.39014357 424.53681489 458.97414154 421.05371094 464.68310547 C420.61027344 465.45460938 420.16683594 466.22611328 419.70996094 467.02099609 C412.84220442 478.78707894 412.84220442 478.78707894 407.80371094 480.37060547 C401.627899 480.77520131 396.85503163 479.20727514 391.23339844 476.97216797 C388.260403 475.87557129 386.30008993 475.25094268 383.17871094 476.00341797 C379.57429887 478.07832623 376.15532691 480.37642285 372.71777344 482.71435547 C369.40369151 484.59796235 366.49036534 485.45580289 362.80371094 486.37060547 C362.63355469 487.60037109 362.46339844 488.83013672 362.28808594 490.09716797 C362.04408478 491.73009879 361.79924883 493.36290502 361.55371094 494.99560547 C361.38935547 496.20796875 361.38935547 496.20796875 361.22167969 497.44482422 C360.41897383 502.64128846 359.21791856 506.19911119 355.80371094 510.37060547 C350.95063997 513.60598611 345.28681904 512.74249645 339.60742188 512.74121094 C337.44288015 512.74557689 335.28039093 512.78188208 333.11621094 512.81982422 C331.73340538 512.82569435 330.35059018 512.82966243 328.96777344 512.83154297 C327.71432129 512.83976074 326.46086914 512.84797852 325.16943359 512.85644531 C321.22143742 512.28655467 319.60777354 511.14930211 316.80371094 508.37060547 C314.81704151 504.8468493 314.67373378 501.68668896 314.42504883 497.69750977 C314.0203921 493.12590973 313.61457316 489.007914 310.06640625 485.79980469 C305.85150051 483.04707309 301.32026621 481.07642498 296.65820312 479.20874023 C294.80371094 478.37060547 294.80371094 478.37060547 292.60449219 476.56591797 C290.8002712 475.09017794 290.8002712 475.09017794 288.21777344 475.66357422 C287.29738281 475.95876953 286.37699219 476.25396484 285.42871094 476.55810547 C284.45417969 476.85587891 283.47964844 477.15365234 282.47558594 477.46044922 C280.52363583 478.1253679 278.5933159 478.85476349 276.67871094 479.62060547 C272.64293926 480.67341547 268.77153489 480.74381758 264.80371094 479.37060547 C260.00395357 475.43294044 257.08994834 470.40790373 253.99121094 465.12060547 C253.48912109 464.31236328 252.98703125 463.50412109 252.46972656 462.67138672 C249.24906229 457.19406652 247.77261486 452.74200104 248.80371094 446.37060547 C250.50698656 442.47740404 251.72355094 440.93477537 255.51855469 438.95263672 C259.11000267 436.85878094 261.86146619 435.07050146 263.80371094 431.37060547 C265.81356758 422.79339085 266.93804997 410.38888178 262.74023438 402.32861328 C260.00310344 399.04779144 256.49779321 397.36210793 252.80371094 395.37060547 C249.34347685 391.87506287 248.25782591 389.25234138 247.80371094 384.37060547 C246.67578125 385.01126953 245.54785156 385.65193359 244.38574219 386.31201172 C212.32884936 404.09305785 171.82324984 412.01738626 135.80371094 402.37060547 C134.67497559 402.08854248 134.67497559 402.08854248 133.5234375 401.80078125 C94.30317039 391.89723048 61.26750993 366.70904364 40.45800781 332.13476562 C22.42639383 301.1902322 14.88016885 261.50291342 22.77636719 226.20654297 C23.11539063 224.94068359 23.45441406 223.67482422 23.80371094 222.37060547 C23.99175293 221.61811523 24.17979492 220.865625 24.37353516 220.09033203 C29.88526721 198.26264536 39.76707571 178.89997897 54.04199219 161.52685547 C55.68722293 159.51318059 57.25897845 157.4619356 58.80371094 155.37060547 C57.22589844 154.59716797 57.22589844 154.59716797 55.61621094 153.80810547 C55.02453125 153.51806641 54.43285156 153.22802734 53.82324219 152.92919922 C51.09347228 152.17415648 49.50581454 152.53511341 46.80371094 153.37060547 C44.16937265 154.8853868 44.16937265 154.8853868 41.55371094 156.74560547 C36.72207946 159.93828461 32.36711764 161.82014786 26.80371094 163.37060547 C26.73023437 164.40507812 26.73023437 164.40507812 26.65527344 165.46044922 C25.38090232 181.47797581 25.38090232 181.47797581 21.30371094 186.37060547 C16.16427513 190.48215412 10.98038488 189.6279401 4.59228516 189.66577148 C2.5748201 189.68292598 0.55902 189.72680417 -1.45800781 189.77099609 C-2.73804687 189.779375 -4.01808594 189.78775391 -5.33691406 189.79638672 C-7.09310059 189.8182605 -7.09310059 189.8182605 -8.88476562 189.84057617 C-12.89711571 189.2711443 -15.05224038 187.87904679 -18.19628906 185.37060547 C-19.33300781 183.21435547 -19.33300781 183.21435547 -19.88378906 180.87060547 C-20.12097656 179.99662109 -20.35816406 179.12263672 -20.60253906 178.22216797 C-21.19628906 175.37060547 -21.19628906 175.37060547 -21.47753906 172.33154297 C-21.94008283 168.81798933 -22.4362866 166.46872118 -24.19628906 163.37060547 C-28.44020205 160.12836138 -33.47721338 158.15121542 -38.43457031 156.25512695 C-40.19628906 155.37060547 -40.19628906 155.37060547 -41.74316406 153.76538086 C-42.22269531 153.30510498 -42.70222656 152.8448291 -43.19628906 152.37060547 C-47.89299687 152.47053542 -51.73499032 153.90159633 -56.13378906 155.49560547 C-61.47069088 157.31682321 -64.76231507 157.99126438 -70.19628906 156.37060547 C-74.93176362 152.37210874 -77.88379782 147.48599447 -81.00878906 142.18310547 C-81.51087891 141.38324219 -82.01296875 140.58337891 -82.53027344 139.75927734 C-85.95335522 133.96099596 -87.34496668 129.1025153 -86.19628906 122.37060547 C-84.94628906 119.89013672 -84.94628906 119.89013672 -83.19628906 118.18310547 C-82.63941406 117.61205078 -82.08253906 117.04099609 -81.50878906 116.45263672 C-79.19628906 114.37060547 -79.19628906 114.37060547 -77.20288086 113.02783203 C-73.77345541 110.52798459 -71.57259801 108.67807225 -70.37451172 104.51538086 C-70.00884365 101.13591683 -69.93513751 97.89385955 -70.00878906 94.49560547 C-70.02474121 92.74050659 -70.02474121 92.74050659 -70.04101562 90.94995117 C-70.27729441 83.88755326 -70.27729441 83.88755326 -73.53613281 77.84326172 C-76.32001356 75.6572614 -79.10597089 74.07545977 -82.19628906 72.37060547 C-84.73911957 70.13510381 -85.98613728 68.50742652 -86.60644531 65.15185547 C-86.97662818 58.35106737 -84.92939302 53.76706939 -81.44628906 48.05810547 C-81.00285156 47.28660156 -80.55941406 46.51509766 -80.10253906 45.72021484 C-73.23478255 33.95413199 -73.23478255 33.95413199 -68.19628906 32.37060547 C-62.02047712 31.96600963 -57.24760975 33.5339358 -51.62597656 35.76904297 C-48.65298113 36.86563965 -46.69266805 37.49026826 -43.57128906 36.73779297 C-39.96687699 34.66288471 -36.54790503 32.36478809 -33.11035156 30.02685547 C-29.79626964 28.14324858 -26.88294347 27.28540805 -23.19628906 26.37060547 C-23.02613281 25.14083984 -22.85597656 23.91107422 -22.68066406 22.64404297 C-22.43666291 21.01111215 -22.19182696 19.37830592 -21.94628906 17.74560547 C-21.83671875 16.93736328 -21.72714844 16.12912109 -21.61425781 15.29638672 C-20.81155195 10.09992248 -19.61049669 6.54209975 -16.19628906 2.37060547 C-11.3432181 -0.86477517 -5.67939717 -0.00128551 0 0 Z M-10.07128906 87.55810547 C-11.67815253 91.57526413 -11.86599013 95.10408292 -11.19628906 99.37060547 C-8.82921041 104.28684575 -6.33588414 106.55663074 -1.19628906 108.37060547 C3.02946368 108.89882456 5.18356459 108.68675851 8.99121094 106.74560547 C13.15035105 103.2334427 15.50826349 100.40180669 16.30371094 94.93310547 C15.5567641 89.61110928 13.72510793 86.07241423 9.61621094 82.43310547 C1.73336406 79.45514109 -4.54928235 81.11576431 -10.07128906 87.55810547 Z M325.42871094 411.18310547 C323.46722781 415.03063007 323.20427741 417.0996416 323.80371094 421.37060547 C325.19271878 424.97311245 327.07891026 427.72863915 329.99121094 430.30810547 C334.01069853 431.82657856 337.56260197 432.04379737 341.80371094 431.37060547 C346.18624648 429.1793377 348.97040909 426.95386008 350.80371094 422.37060547 C351.50970882 417.66395294 351.25687519 414.31179277 349.17871094 409.99560547 C345.58545728 406.02411458 342.60359276 404.5955907 337.30371094 403.93310547 C331.77533564 404.62415238 328.96434304 406.99617271 325.42871094 411.18310547 Z " fill="#000001" transform="translate(86.1962890625,-0.37060546875)"/>
<path d="M0 0 C0.4021875 1.670625 0.4021875 1.670625 0.8125 3.375 C1.65809019 7.21840951 1.65809019 7.21840951 5 9 C9.50850182 8.65554402 9.50850182 8.65554402 13 6 C13.39764263 4.01178687 13.73775349 2.01055661 14 0 C26.70021708 -0.14941432 39.62542202 3.31271101 51 9 C50.82210937 9.90492188 50.82210937 9.90492188 50.640625 10.828125 C49.74804486 15.92179857 49.74804486 15.92179857 51.5 20.625 C55.08935094 22.59914302 57.11587968 22.10974866 61 21 C63.19831889 19.01053039 63.19831889 19.01053039 65 17 C75.13716312 25.01499066 84.27697025 32.84768005 91 44 C90.154375 44.680625 89.30875 45.36125 88.4375 46.0625 C85.607544 48.83677515 85.607544 48.83677515 86 52.6875 C86.69383331 56.25539113 86.69383331 56.25539113 90 58 C92.29714187 58.02639829 92.29714187 58.02639829 94.6875 57.625 C95.49574219 57.51414063 96.30398438 57.40328125 97.13671875 57.2890625 C97.75160156 57.19367188 98.36648438 57.09828125 99 57 C104.26922493 68.86854547 108.36583802 80.80950679 108 94 C106.88625 94.268125 105.7725 94.53625 104.625 94.8125 C100.78159049 95.65809019 100.78159049 95.65809019 99 99 C99.34445598 103.50850182 99.34445598 103.50850182 102 107 C103.98821313 107.39764263 105.98944339 107.73775349 108 108 C108.18761679 113.32275771 107.5739616 117.96096579 106.3125 123.125 C106.05001465 124.22509399 106.05001465 124.22509399 105.78222656 125.34741211 C104.09299784 132.14044052 101.73541594 138.55383539 99 145 C97.96939453 144.82210937 97.96939453 144.82210937 96.91796875 144.640625 C95.56638672 144.44726562 95.56638672 144.44726562 94.1875 144.25 C93.29417969 144.11078125 92.40085937 143.9715625 91.48046875 143.828125 C88.87549972 143.74139369 88.87549972 143.74139369 87.171875 145.765625 C85.39246122 149.15837394 86.02808479 151.37151656 87 155 C88.98556942 157.1996252 88.98556942 157.1996252 91 159 C82.98500934 169.13716312 75.15231995 178.27697025 64 185 C63.57589844 184.35933594 63.15179688 183.71867188 62.71484375 183.05859375 C61.05072794 180.66122131 61.05072794 180.66122131 57.5625 180.0625 C54.10127252 179.75493597 54.10127252 179.75493597 51.5625 181.0625 C49.36108602 183.79225334 49.65031088 185.57304666 50 189 C50.31704274 190.33730056 50.64712665 191.67170437 51 193 C38.95072093 197.83536004 27.19398701 202.2994852 14 202 C13.731875 200.88625 13.46375 199.7725 13.1875 198.625 C12.34190981 194.78159049 12.34190981 194.78159049 9 193 C4.49149818 193.34445598 4.49149818 193.34445598 1 196 C0.60235737 197.98821313 0.26224651 199.98944339 0 202 C-13.08500609 201.55868445 -25.22999901 198.78175487 -37 193 C-36.88140625 192.31292969 -36.7628125 191.62585938 -36.640625 190.91796875 C-36.44726562 189.56638672 -36.44726562 189.56638672 -36.25 188.1875 C-36.11078125 187.29417969 -35.9715625 186.40085937 -35.828125 185.48046875 C-35.74139369 182.87549972 -35.74139369 182.87549972 -37.765625 181.171875 C-41.15837394 179.39246122 -43.37151656 180.02808479 -47 181 C-49.1996252 182.98556942 -49.1996252 182.98556942 -51 185 C-61.13716312 176.98500934 -70.27697025 169.15231995 -77 158 C-76.154375 157.319375 -75.30875 156.63875 -74.4375 155.9375 C-71.607544 153.16322485 -71.607544 153.16322485 -72 149.3125 C-72.69383331 145.74460887 -72.69383331 145.74460887 -76 144 C-79.4103976 143.78685015 -81.74531799 143.915106 -85 145 C-89.83536004 132.95072093 -94.2994852 121.19398701 -94 108 C-92.329375 107.5978125 -92.329375 107.5978125 -90.625 107.1875 C-86.78159049 106.34190981 -86.78159049 106.34190981 -85 103 C-85.34445598 98.49149818 -85.34445598 98.49149818 -88 95 C-89.98821313 94.60235737 -91.98944339 94.26224651 -94 94 C-93.9618917 81.08128516 -91.24701977 68.43778015 -85 57 C-84.39671875 57.11859375 -83.7934375 57.2371875 -83.171875 57.359375 C-78.07820143 58.25195514 -78.07820143 58.25195514 -73.375 56.5 C-71.40085698 52.91064906 -71.89025134 50.88412032 -73 47 C-74.98946961 44.80168111 -74.98946961 44.80168111 -77 43 C-68.98500934 32.86283688 -61.15231995 23.72302975 -50 17 C-49.319375 17.845625 -48.63875 18.69125 -47.9375 19.5625 C-45.16322485 22.392456 -45.16322485 22.392456 -41.3125 22 C-37.74460887 21.30616669 -37.74460887 21.30616669 -36 18 C-35.78685015 14.5896024 -35.915106 12.25468201 -37 9 C-34.64756508 8.03722741 -32.29320381 7.07971502 -29.9375 6.125 C-29.28072266 5.85558594 -28.62394531 5.58617187 -27.94726562 5.30859375 C-18.72678339 1.58406398 -9.95157215 -0.25516852 0 0 Z " fill="#F4FBFE" transform="translate(249,155)"/>
<path d="M0 0 C14.36471885 2.27916207 14.36471885 2.27916207 19 6 C19.44140625 7.9453125 19.44140625 7.9453125 19.5625 10.1875 C19.74329015 12.65766634 19.74329015 12.65766634 21 15 C24.08070186 17.1489774 27.15990013 18.84433181 30.48950195 20.55786133 C37.69568776 24.2676208 43.82426806 28.77633563 50 34 C50.51546387 34.43570313 51.03092773 34.87140625 51.56201172 35.3203125 C77.38321555 57.44584137 95.22285284 89.86187136 98 124 C100.25766679 162.6005956 89.0886299 198.27560224 63.37573242 227.40161133 C40.91492658 252.07510506 8.09138906 268.91215165 -25.34277344 271.23193359 C-63.76529745 272.93446925 -99.16089201 261.12006687 -127.75 235.125 C-152.84428026 211.59911225 -169.04398598 178.22481867 -170.28515625 143.7109375 C-171.07979753 105.30045787 -158.38104356 71.14684299 -132 43 C-107.00488218 17.54864795 -72.96394531 3.25822689 -37.46557617 2.77490234 C-36.36318604 2.76668457 -35.2607959 2.7584668 -34.125 2.75 C-33.07868408 2.74049316 -32.03236816 2.73098633 -30.9543457 2.72119141 C-25.1704101 2.74601714 -19.83001823 3.22130727 -14.19458008 4.546875 C-10.69432377 5.26958895 -7.56626169 5.25026398 -4 5 C-0.75150023 3.27773504 -0.75150023 3.27773504 0 0 Z M-67.3125 39.9375 C-68.4890918 40.33485352 -68.4890918 40.33485352 -69.68945312 40.74023438 C-73.26515427 41.96453986 -76.64016992 43.25607703 -80 45 C-79.88140625 45.60328125 -79.7628125 46.2065625 -79.640625 46.828125 C-78.59748428 53.29559748 -78.59748428 53.29559748 -80.5 56.625 C-84.08935094 58.59914302 -86.11587968 58.10974866 -90 57 C-92.21875 54.9375 -92.21875 54.9375 -94 53 C-104.13716312 61.01499066 -113.27697025 68.84768005 -120 80 C-119.154375 80.680625 -118.30875 81.36125 -117.4375 82.0625 C-115 85 -115 85 -115 88.6875 C-116 92 -116 92 -119 94 C-122.4103976 94.21314985 -124.74531799 94.084894 -128 93 C-133.49169118 105.63306035 -136.46731421 116.22364345 -137 130 C-135.88625 130.268125 -134.7725 130.53625 -133.625 130.8125 C-130 132 -130 132 -128 135 C-128.44444444 140.44444444 -128.44444444 140.44444444 -131 143 C-132.98821313 143.39764263 -134.98944339 143.73775349 -137 144 C-137.14941432 156.70021708 -133.68728899 169.62542202 -128 181 C-127.39671875 180.88140625 -126.7934375 180.7628125 -126.171875 180.640625 C-119.70440252 179.59748428 -119.70440252 179.59748428 -116.375 181.5 C-114.40085698 185.08935094 -114.89025134 187.11587968 -116 191 C-118.0625 193.21875 -118.0625 193.21875 -120 195 C-111.98500934 205.13716312 -104.15231995 214.27697025 -93 221 C-92.319375 220.154375 -91.63875 219.30875 -90.9375 218.4375 C-88 216 -88 216 -84.3125 216.0625 C-81 217 -81 217 -79 219 C-78.76703032 222.57220172 -79.07099852 225.56641053 -80 229 C-68.13145453 234.26922493 -56.19049321 238.36583802 -43 238 C-42.731875 236.88625 -42.46375 235.7725 -42.1875 234.625 C-41 231 -41 231 -38 229 C-32.55555556 229.44444444 -32.55555556 229.44444444 -30 232 C-29.60235737 233.98821313 -29.26224651 235.98944339 -29 238 C-23.67724229 238.18761679 -19.03903421 237.5739616 -13.875 236.3125 C-13.141604 236.13750977 -12.40820801 235.96251953 -11.65258789 235.78222656 C-4.85955948 234.09299784 1.55383539 231.73541594 8 229 C7.88140625 228.31292969 7.7628125 227.62585938 7.640625 226.91796875 C7.51171875 226.01691406 7.3828125 225.11585938 7.25 224.1875 C7.11078125 223.29417969 6.9715625 222.40085937 6.828125 221.48046875 C7 219 7 219 8.765625 217.171875 C12.15837394 215.39246122 14.37151656 216.02808479 18 217 C20.21875 219.05859375 20.21875 219.05859375 22 221 C32.13716312 212.98500934 41.27697025 205.15231995 48 194 C47.154375 193.319375 46.30875 192.63875 45.4375 191.9375 C43 189 43 189 43.0625 185.3125 C44 182 44 182 46 180 C49.57220172 179.76703032 52.56641053 180.07099852 56 181 C60.83536004 168.95072093 65.2994852 157.19398701 65 144 C63.88625 143.731875 62.7725 143.46375 61.625 143.1875 C58 142 58 142 56 139 C56.44444444 133.55555556 56.44444444 133.55555556 59 131 C60.98821313 130.60235737 62.98944339 130.26224651 65 130 C64.55868445 116.91499391 61.78175487 104.77000099 56 93 C55.39671875 93.11859375 54.7934375 93.2371875 54.171875 93.359375 C47.70440252 94.40251572 47.70440252 94.40251572 44.375 92.5 C42.40085698 88.91064906 42.89025134 86.88412032 44 83 C46.0625 80.78125 46.0625 80.78125 48 79 C39.98500934 68.86283688 32.15231995 59.72302975 21 53 C20.319375 53.845625 19.63875 54.69125 18.9375 55.5625 C16 58 16 58 12.3125 58 C9 57 9 57 7 54 C6.78685015 50.5896024 6.915106 48.25468201 8 45 C-4.04927907 40.16463996 -15.80601299 35.7005148 -29 36 C-29.268125 37.11375 -29.53625 38.2275 -29.8125 39.375 C-31 43 -31 43 -34 45 C-39.44444444 44.55555556 -39.44444444 44.55555556 -42 42 C-42.39764263 40.01178687 -42.73775349 38.01055661 -43 36 C-51.63072463 35.77869937 -59.19207875 37.08474881 -67.3125 39.9375 Z " fill="#3C6AC2" transform="translate(292,119)"/>
<path d="M0 0 C1.06806885 0.21744873 2.1361377 0.43489746 3.23657227 0.65893555 C22.3519068 4.77580683 40.9598737 11.44051639 58.5 20.0625 C59.19174316 20.39685059 59.88348633 20.73120117 60.59619141 21.07568359 C80.77386931 30.91947788 100.21631871 44.31364799 115.88183594 60.4597168 C117.51621642 62.07856228 119.22061142 63.54344522 121 65 C124.13513532 67.65067733 126.79877188 70.50985092 129.4453125 73.64453125 C130.97106466 75.44004568 132.53457256 77.20361809 134.1171875 78.94921875 C147.57490038 93.91388542 158.38561741 111.15621764 167.5 129.0625 C167.84095703 129.72958984 168.18191406 130.39667969 168.53320312 131.08398438 C169.47167447 132.95906131 170.36955311 134.84709034 171.25 136.75 C171.73984375 137.80574219 172.2296875 138.86148438 172.734375 139.94921875 C173.71696215 143.94473893 172.98503988 146.27198154 171.5 150.0625 C170.84 150.7225 170.18 151.3825 169.5 152.0625 C170.04140625 153.65191406 170.04140625 153.65191406 170.59375 155.2734375 C171.06265793 156.66140499 171.53139931 158.04942875 172 159.4375 C172.23847656 160.13617188 172.47695313 160.83484375 172.72265625 161.5546875 C174.5 166.8359375 174.5 166.8359375 174.5 169.0625 C175.8921875 169.2171875 175.8921875 169.2171875 177.3125 169.375 C180.73947772 170.11415206 181.42285166 170.39350666 183.5 173.0625 C187.63699859 183.5266729 189.00782601 194.9789048 190.5 206.0625 C190.70109375 207.55330078 190.70109375 207.55330078 190.90625 209.07421875 C191.63927336 215.39654522 191.59831308 221.70492101 191.5 228.0625 C192.510625 227.98 193.52125 227.8975 194.5625 227.8125 C199.51072059 228.12667274 201.47599795 229.22202796 205.5 232.0625 C207.33524866 234.95961494 207.86974631 237.404195 208 240.8125 C208.0515625 241.61171875 208.103125 242.4109375 208.15625 243.234375 C206.08468928 252.16181526 196.50176046 259.39995139 190.21362305 265.66455078 C188.42928443 267.44570089 186.65877312 269.23986915 184.88867188 271.03515625 C183.74820622 272.17789269 182.60695744 273.3198482 181.46484375 274.4609375 C180.94075424 274.99423676 180.41666473 275.52753601 179.87669373 276.07699585 C176.34755847 279.56223648 173.31678256 281.77424757 168.32421875 282.28515625 C161.41858199 281.76754911 158.21924055 278.89391266 153.5 274.0625 C152.45366083 273.03588383 151.40533014 272.01129516 150.35546875 270.98828125 C144.48120006 265.22997435 138.77101806 259.38484134 133.5 253.0625 C133.00757813 252.48628906 132.51515625 251.91007813 132.0078125 251.31640625 C128.36458112 247.02480319 127.18506823 244.84072698 127.2890625 239.08984375 C127.75182506 234.64218136 129.93660374 232.53626504 133.25 229.75 C136.99431913 227.8058343 139.34566812 227.92960076 143.5 228.0625 C137.76287845 183.15821023 124.92220565 142.20141863 93.59765625 108.3515625 C91.75981506 106.34602258 90.03772926 104.28890707 88.3125 102.1875 C61.83660047 71.92932911 20.95321316 54.38463281 -17.67871094 47.22827148 C-23.8528104 46.00829229 -27.68954252 45.22065612 -31.5 40.0625 C-36.0033761 33.30743585 -33.5639955 21.98783385 -32.8125 14.0625 C-32.75932617 13.35722168 -32.70615234 12.65194336 -32.65136719 11.92529297 C-32.04124889 6.38008363 -30.35782633 3.85819443 -26.5 0.0625 C-18.96297357 -4.61150941 -8.15679695 -1.67124205 0 0 Z " fill="#010100" transform="translate(304.5,19.9375)"/>
<path d="M0 0 C3.10364593 1.89595107 5.46677909 4.40825584 8 7 C9.12060852 8.1007808 10.24316996 9.1995754 11.3671875 10.296875 C17.00976574 15.83706623 22.56670418 21.4107557 27.671875 27.45703125 C29.11731485 29.1820154 29.11731485 29.1820154 31.375 31.3125 C34.35946757 34.41175479 34.28689969 37.86027679 34.2109375 42.0078125 C33.74212219 46.43551268 31.5473569 48.53972261 28.25 51.3125 C24.50568087 53.2566657 22.15433188 53.13289924 18 53 C20.67369058 74.0445112 20.67369058 74.0445112 25.42456055 94.69238281 C26.68930342 99.23136588 27.5682439 103.24379857 27 108 C25 110.9375 25 110.9375 23 113 C23.433125 113.98742187 23.86625 114.97484375 24.3125 115.9921875 C24.87519045 117.28637554 25.43768005 118.58065093 26 119.875 C26.28617187 120.52597656 26.57234375 121.17695313 26.8671875 121.84765625 C29 126.7734375 29 126.7734375 29 129 C30.051875 128.87625 31.10375 128.7525 32.1875 128.625 C36 129 36 129 38.41015625 131.484375 C41.37800928 135.31251617 43.79747249 139.45645297 46.25 143.625 C50.76411752 151.13209952 55.4841918 158.17829681 61 165 C61.43892578 165.54575684 61.87785156 166.09151367 62.33007812 166.65380859 C77.1371161 184.92577583 94.64816213 199.24923647 115 211 C116.1240625 211.65613281 117.248125 212.31226563 118.40625 212.98828125 C135.55230979 222.71721202 154.82580976 229.31494764 174.16796875 233.015625 C175.02696777 233.18223633 175.8859668 233.34884766 176.77099609 233.52050781 C178.41748074 233.83114142 180.06758718 234.12337326 181.72119141 234.39355469 C186.92278939 235.35478042 189.54825028 236.75169265 193 241 C197.99399966 248.49099948 194.73931608 261.80367583 193.73046875 270.50390625 C192.73666052 275.26036811 190.7497909 278.87517425 187 282 C178.87513308 284.70828897 169.6856242 282.73964845 161.5 281.0625 C160.43193115 280.84505127 159.3638623 280.62760254 158.26342773 280.40356445 C139.14650994 276.28635219 120.54431712 269.61617978 103 261 C102.07550049 260.55503174 102.07550049 260.55503174 101.13232422 260.10107422 C84.97341197 252.2487514 69.42911662 241.92702845 56 230 C54.73349609 228.87851562 54.73349609 228.87851562 53.44140625 227.734375 C51.75701129 226.22687997 50.07965288 224.7114779 48.41015625 223.1875 C46.07418746 221.06733383 43.69673125 219.0030269 41.3125 216.9375 C37.93251387 213.92848796 34.89384263 210.81099042 31.984375 207.34765625 C30.48705607 205.57622184 28.94831459 203.83968241 27.390625 202.12109375 C-7.02558481 163.86017975 -31.66128172 106.89909743 -30.10546875 54.81640625 C-30.07066406 54.21699219 -30.03585938 53.61757813 -30 53 C-31.010625 53.0825 -32.02125 53.165 -33.0625 53.25 C-38.01072059 52.93582726 -39.97599795 51.84047204 -44 49 C-45.83524866 46.10288506 -46.36974631 43.658305 -46.5 40.25 C-46.57734375 39.05117187 -46.57734375 39.05117187 -46.65625 37.828125 C-44.58468928 28.90068474 -35.00176046 21.66254861 -28.71362305 15.39794922 C-26.92928443 13.61679911 -25.15877312 11.82263085 -23.38867188 10.02734375 C-22.24820622 8.88460731 -21.10695744 7.7426518 -19.96484375 6.6015625 C-19.44075424 6.06826324 -18.91666473 5.53496399 -18.37669373 4.98550415 C-12.72816519 -0.5927692 -7.61513127 -2.32326039 0 0 Z " fill="#010000" transform="translate(46,211)"/>
<path d="M0 0 C4.95 0 9.9 0 15 0 C15.24234375 1.24136719 15.4846875 2.48273437 15.734375 3.76171875 C16.07217431 5.40379872 16.41075738 7.0457176 16.75 8.6875 C16.90726562 9.50412109 17.06453125 10.32074219 17.2265625 11.16210938 C18.24897642 16.01857548 19.25396602 19.49928152 23 23 C25.63031514 24.3707654 25.63031514 24.3707654 28.5625 25.3125 C35.22770342 27.87729641 40.39679299 31.64622165 46 36 C49.78515514 38.52343676 52.62196224 38.6065116 57 38 C60.10923467 37.03742605 63.13498925 35.95793996 66.16796875 34.77734375 C69.33709503 33.90747322 70.93748867 33.82250829 74 35 C75.6171875 36.92578125 75.6171875 36.92578125 76.875 39.3125 C77.30554688 40.09238281 77.73609375 40.87226562 78.1796875 41.67578125 C79 44 79 44 79.0078125 45.94140625 C77.41264652 49.19974916 74.70348005 51.29527295 72 53.625 C67.98157601 56.88512904 67.98157601 56.88512904 65 61 C64.69165365 66.18851336 64.64350194 71.3776983 64.5949707 76.57446289 C64.57343228 78.307739 64.53937832 80.04090757 64.49243164 81.77368164 C64.42515588 84.28060159 64.39792685 86.78527131 64.37890625 89.29296875 C64.35107559 90.05989548 64.32324493 90.8268222 64.29457092 91.61698914 C64.31494736 97.00602069 65.75764638 99.68400718 69.48121643 103.55856323 C71.41618179 105.39498698 73.33650302 107.21532151 75.375 108.9375 C76.06335938 109.52402344 76.75171875 110.11054687 77.4609375 110.71484375 C77.96882812 111.13894531 78.47671875 111.56304687 79 112 C78.43957711 115.67817783 77.4857904 118.21380426 75.4375 121.3125 C74.98246094 122.00988281 74.52742187 122.70726562 74.05859375 123.42578125 C73.70925781 123.94527344 73.35992187 124.46476562 73 125 C69.36672391 124.53419537 66.16016944 123.72161354 62.75 122.4375 C57.76317742 120.78357894 53.19488077 119.73334697 48 121 C45.30118598 122.76789399 42.98945124 124.75261118 40.58203125 126.8984375 C36.4938475 130.22588509 31.85056851 132.03231655 27 134 C21.65620401 136.19477335 20.24512297 137.69279556 18 143 C17.27757416 145.7683929 16.77934382 148.55352862 16.3125 151.375 C16.11817383 152.47908203 16.11817383 152.47908203 15.91992188 153.60546875 C15.60491084 155.40219837 15.30127185 157.20091563 15 159 C10.05 159 5.1 159 0 159 C-0.24234375 157.75863281 -0.4846875 156.51726562 -0.734375 155.23828125 C-1.07217431 153.59620128 -1.41075738 151.9542824 -1.75 150.3125 C-1.90726563 149.49587891 -2.06453125 148.67925781 -2.2265625 147.83789062 C-3.25198369 142.96713999 -4.2292689 139.48698043 -8 136 C-10.45456297 134.50163369 -13.00657744 133.30802592 -15.625 132.125 C-20.61259581 129.78688882 -25.02011544 127.4256576 -29.375 124 C-33.45713655 121.02188034 -36.36682402 120.13381162 -41.41015625 120.484375 C-45.31957339 121.26272049 -48.90344919 122.64187232 -52.5546875 124.22265625 C-55.32273689 125.10259527 -56.39698865 125.27725402 -59 124 C-60.73828125 121.8203125 -60.73828125 121.8203125 -62.3125 119.125 C-62.84488281 118.24070312 -63.37726562 117.35640625 -63.92578125 116.4453125 C-65 114 -65 114 -64 111 C-61.30892424 108.659553 -58.49246812 106.52324069 -55.6640625 104.3515625 C-51.76439869 100.90933726 -50.17100247 98.47589019 -49.56420898 93.23876953 C-49.52439201 91.78715232 -49.50264778 90.3349609 -49.49609375 88.8828125 C-49.48610855 88.10743134 -49.47612335 87.33205017 -49.46583557 86.53317261 C-49.45069363 84.89765739 -49.44360856 83.26205009 -49.4440918 81.62646484 C-49.43753618 79.13872788 -49.3830422 76.65499907 -49.32617188 74.16796875 C-48.92353592 64.80999227 -48.92353592 64.80999227 -52.73046875 56.61328125 C-54.33130604 55.16430971 -54.33130604 55.16430971 -56 54 C-56.84304687 53.26910156 -57.68609375 52.53820312 -58.5546875 51.78515625 C-59.32039063 51.21667969 -60.08609375 50.64820313 -60.875 50.0625 C-61.65617187 49.47597656 -62.43734375 48.88945313 -63.2421875 48.28515625 C-63.82226562 47.86105469 -64.40234375 47.43695313 -65 47 C-63.74361009 43.6476699 -62.31266112 40.69597385 -60.375 37.6875 C-59.92898437 36.99011719 -59.48296875 36.29273438 -59.0234375 35.57421875 C-58.51683594 34.79498047 -58.51683594 34.79498047 -58 34 C-49.75729823 35.72180882 -49.75729823 35.72180882 -45.9375 37.125 C-42.17817479 38.244799 -38.88791711 38.62301309 -35 38 C-32.76182919 36.75657177 -31.0094491 35.54087801 -29 34 C-22.66589957 29.70258781 -16.46395051 26.10088784 -9.3125 23.3359375 C-5.79742163 21.30526723 -4.55801383 18.84799723 -3.39697266 15.00292969 C-2.81840672 12.73967175 -2.30443916 10.47109308 -1.8125 8.1875 C-1.63525391 7.39923828 -1.45800781 6.61097656 -1.27539062 5.79882812 C-0.84233745 3.86764503 -0.42007432 1.93404777 0 0 Z M-4.875 72.1875 C-6.48186346 76.20465866 -6.66970107 79.73347745 -6 84 C-3.63292134 88.91624028 -1.13959507 91.18602527 4 93 C8.22575274 93.52821909 10.37985365 93.31615304 14.1875 91.375 C18.34664012 87.86283724 20.70455255 85.03120122 21.5 79.5625 C20.75305317 74.24050382 18.92139699 70.70180877 14.8125 67.0625 C6.92965312 64.08453562 0.64700671 65.74515884 -4.875 72.1875 Z " fill="#FCDE7B" transform="translate(81,15)"/>
<path d="M0 0 C4.95 0 9.9 0 15 0 C15.24234375 1.24136719 15.4846875 2.48273438 15.734375 3.76171875 C16.07217431 5.40379872 16.41075738 7.0457176 16.75 8.6875 C16.90726562 9.50412109 17.06453125 10.32074219 17.2265625 11.16210938 C18.25198369 16.03286001 19.2292689 19.51301957 23 23 C25.45456687 24.49836869 28.0066289 25.69185927 30.625 26.875 C35.61884375 29.21841681 40.0588518 31.59361856 44.4375 35 C48.24562539 37.76896971 50.84403509 38.88600705 55.56640625 38.515625 C59.61470274 37.65788 63.44807687 36.27309957 67.30078125 34.77734375 C70.18008462 33.94813771 71.33244044 33.66622022 74 35 C75.73828125 37.1796875 75.73828125 37.1796875 77.3125 39.875 C77.84488281 40.75929688 78.37726563 41.64359375 78.92578125 42.5546875 C80 45 80 45 79 48 C77.25959466 49.53915325 75.4585609 51.01059499 73.625 52.4375 C68.69842575 56.17004686 68.69842575 56.17004686 65 61 C64.70729931 63.77439758 64.57915028 66.31769731 64.6015625 69.08984375 C64.59869232 69.87138321 64.59582214 70.65292267 64.59286499 71.45814514 C64.59082714 73.10809047 64.59633751 74.75806012 64.60888672 76.40795898 C64.62492369 78.92552104 64.60904073 81.44147258 64.58984375 83.95898438 C64.59182666 85.56510769 64.59567131 87.17123001 64.6015625 88.77734375 C64.59245346 89.90099586 64.59245346 89.90099586 64.5831604 91.04734802 C64.66415264 97.10654201 66.20483032 100.19610178 70.41015625 104.421875 C71.72306641 105.57429688 71.72306641 105.57429688 73.0625 106.75 C73.94035156 107.52859375 74.81820312 108.3071875 75.72265625 109.109375 C77.8455126 111.01743531 77.8455126 111.01743531 80 112 C78.35821735 116.77609498 75.73453298 120.79382904 73 125 C69.05086621 124.5886319 65.782862 123.99466213 62.125 122.4375 C57.54649648 120.72492998 53.81880908 119.61287655 49 121 C45.99520947 122.90003521 43.19547952 124.90828373 40.38671875 127.07958984 C35.71257644 130.65728156 31.13221519 132.88713326 25.5234375 134.76953125 C22.20582775 136.38725117 20.93482115 137.84230488 19 141 C17.99893133 144.06072637 17.35843458 147.15312864 16.75 150.3125 C16.57726562 151.14845703 16.40453125 151.98441406 16.2265625 152.84570312 C15.80507966 154.89457803 15.40079756 156.94697845 15 159 C10.05 159 5.1 159 0 159 C-0.17015625 157.91460937 -0.3403125 156.82921875 -0.515625 155.7109375 C-0.75966039 154.26549711 -1.00449462 152.82019144 -1.25 151.375 C-1.35957031 150.66214844 -1.46914063 149.94929687 -1.58203125 149.21484375 C-2.43266917 144.33486831 -3.77914188 140.911042 -7 137 C-8.82151833 135.78638688 -8.82151833 135.78638688 -10.875 135.1875 C-15.38472613 133.41662585 -19.26924005 131.07040607 -23.3125 128.4375 C-23.9111084 128.04908936 -24.5097168 127.66067871 -25.12646484 127.26049805 C-27.55052852 125.67023867 -29.91097987 124.07185769 -32.16796875 122.25 C-35.55577536 119.93849016 -39.06632859 120.44219726 -43 121 C-46.16023082 121.95163789 -49.2243592 123.02828063 -52.30078125 124.22265625 C-55.1577568 125.04543213 -56.34294222 125.30001968 -59 124 C-60.51953125 122.07421875 -60.51953125 122.07421875 -61.8125 119.6875 C-62.25207031 118.90761719 -62.69164062 118.12773437 -63.14453125 117.32421875 C-64 115 -64 115 -64.01171875 113.05859375 C-62.41146448 109.80247791 -59.70395364 107.70513517 -57 105.375 C-52.98157601 102.11487096 -52.98157601 102.11487096 -50 98 C-49.69165365 92.81148664 -49.64350194 87.6223017 -49.5949707 82.42553711 C-49.57343228 80.692261 -49.53937832 78.95909243 -49.49243164 77.22631836 C-49.42515588 74.71939841 -49.39792685 72.21472869 -49.37890625 69.70703125 C-49.33716026 68.55664116 -49.33716026 68.55664116 -49.29457092 67.38301086 C-49.31494736 61.99397931 -50.75764638 59.31599282 -54.48121643 55.44143677 C-56.41618179 53.60501302 -58.33650302 51.78467849 -60.375 50.0625 C-61.06335938 49.47597656 -61.75171875 48.88945312 -62.4609375 48.28515625 C-62.96882813 47.86105469 -63.47671875 47.43695313 -64 47 C-63.43957711 43.32182217 -62.4857904 40.78619574 -60.4375 37.6875 C-59.98246094 36.99011719 -59.52742188 36.29273438 -59.05859375 35.57421875 C-58.53458984 34.79498047 -58.53458984 34.79498047 -58 34 C-54.48461163 34.43942355 -51.48353387 35.16918866 -48.25 36.5625 C-43.37614869 38.37752591 -39.13121703 39.26093828 -34 38 C-31.25846574 36.38292315 -28.71951624 34.6304981 -26.19116211 32.69873047 C-21.43893042 29.10753558 -16.50707382 26.73697049 -10.93676758 24.64819336 C-7.41059801 23.19523928 -6.077994 22.13744981 -4.17578125 18.78515625 C-2.96515661 14.88782974 -2.0333807 11.07293225 -1.3125 7.0625 C-0.879375 4.731875 -0.44625 2.40125 0 0 Z M-4.375 72.8125 C-6.33648313 76.66002461 -6.59943353 78.72903613 -6 83 C-4.61099215 86.60250698 -2.72480068 89.35803369 0.1875 91.9375 C4.2069876 93.45597309 7.75889103 93.6731919 12 93 C16.38253554 90.80873223 19.16669816 88.58325461 21 84 C21.70599788 79.29334747 21.45316426 75.9411873 19.375 71.625 C15.78174634 67.65350911 12.79988182 66.22498523 7.5 65.5625 C1.9716247 66.25354691 -0.83936789 68.62556724 -4.375 72.8125 Z " fill="#9A9A9A" transform="translate(416,338)"/>
<path d="M0 0 C3.87377877 3.34816428 7.52513401 6.89518389 11.16259766 10.49658203 C11.82517578 11.09857422 12.48775391 11.70056641 13.17041016 12.32080078 C31.48589069 29.23067467 40.61434769 54.49794544 44.16259766 78.49658203 C44.34822266 79.67865234 44.53384766 80.86072266 44.72509766 82.07861328 C47.53479994 104.02941238 41.90964276 125.95351169 32.16259766 145.49658203 C31.71142578 146.42212891 31.26025391 147.34767578 30.79541016 148.30126953 C18.38459246 172.49184639 -2.51436029 189.36616133 -26.83740234 200.49658203 C-27.69591797 200.90650391 -28.55443359 201.31642578 -29.43896484 201.73876953 C-40.16642299 206.49424067 -53.13744676 209.04873684 -64.83740234 209.49658203 C-65.84158203 209.54814453 -66.84576172 209.59970703 -67.88037109 209.65283203 C-78.09277647 209.93487775 -87.84120278 208.38161898 -97.83740234 206.49658203 C-99.44421875 206.20654297 -99.44421875 206.20654297 -101.08349609 205.91064453 C-122.03889027 201.43473509 -139.7619066 189.20550037 -154.83740234 174.49658203 C-155.47935547 173.91650391 -156.12130859 173.33642578 -156.78271484 172.73876953 C-166.7365163 163.52571609 -173.4467727 151.41800099 -179.04150391 139.22705078 C-179.69948398 137.7964487 -180.38587033 136.37894915 -181.07958984 134.96533203 C-187.12181277 121.6630738 -188.19404536 106.89304859 -188.21240234 92.49658203 C-188.21401367 91.29283936 -188.215625 90.08909668 -188.21728516 88.84887695 C-188.1226257 81.22405801 -187.32603568 73.97104542 -185.83740234 66.49658203 C-185.64637939 65.51713623 -185.45535645 64.53769043 -185.25854492 63.52856445 C-180.92551512 42.44838414 -168.5985978 24.62565775 -153.83740234 9.49658203 C-153.25732422 8.85462891 -152.67724609 8.21267578 -152.07958984 7.55126953 C-114.32510922 -33.23874722 -41.91961009 -34.29988824 0 0 Z M-103.14990234 -4.56591797 C-104.32649414 -4.16856445 -104.32649414 -4.16856445 -105.52685547 -3.76318359 C-109.10255661 -2.5388781 -112.47757227 -1.24734094 -115.83740234 0.49658203 C-115.71880859 1.09986328 -115.60021484 1.70314453 -115.47802734 2.32470703 C-114.43488662 8.79217952 -114.43488662 8.79217952 -116.33740234 12.12158203 C-119.92675328 14.09572505 -121.95328203 13.60633069 -125.83740234 12.49658203 C-128.05615234 10.43408203 -128.05615234 10.43408203 -129.83740234 8.49658203 C-139.97456547 16.51157269 -149.11437259 24.34426209 -155.83740234 35.49658203 C-154.99177734 36.17720703 -154.14615234 36.85783203 -153.27490234 37.55908203 C-150.83740234 40.49658203 -150.83740234 40.49658203 -150.83740234 44.18408203 C-151.83740234 47.49658203 -151.83740234 47.49658203 -154.83740234 49.49658203 C-158.24779994 49.70973188 -160.58272034 49.58147603 -163.83740234 48.49658203 C-169.32909353 61.12964238 -172.30471656 71.72022548 -172.83740234 85.49658203 C-171.72365234 85.76470703 -170.60990234 86.03283203 -169.46240234 86.30908203 C-165.83740234 87.49658203 -165.83740234 87.49658203 -163.83740234 90.49658203 C-164.28184679 95.94102648 -164.28184679 95.94102648 -166.83740234 98.49658203 C-168.82561547 98.89422466 -170.82684574 99.23433552 -172.83740234 99.49658203 C-172.98681666 112.19679911 -169.52469134 125.12200405 -163.83740234 136.49658203 C-163.23412109 136.37798828 -162.63083984 136.25939453 -162.00927734 136.13720703 C-155.54180486 135.09406631 -155.54180486 135.09406631 -152.21240234 136.99658203 C-150.23825933 140.58593297 -150.72765368 142.61246171 -151.83740234 146.49658203 C-153.89990234 148.71533203 -153.89990234 148.71533203 -155.83740234 150.49658203 C-147.82241169 160.63374516 -139.98972229 169.77355228 -128.83740234 176.49658203 C-128.15677734 175.65095703 -127.47615234 174.80533203 -126.77490234 173.93408203 C-123.83740234 171.49658203 -123.83740234 171.49658203 -120.14990234 171.55908203 C-116.83740234 172.49658203 -116.83740234 172.49658203 -114.83740234 174.49658203 C-114.60443267 178.06878376 -114.90840086 181.06299256 -115.83740234 184.49658203 C-103.96885688 189.76580696 -92.02789555 193.86242006 -78.83740234 193.49658203 C-78.56927734 192.38283203 -78.30115234 191.26908203 -78.02490234 190.12158203 C-76.83740234 186.49658203 -76.83740234 186.49658203 -73.83740234 184.49658203 C-68.3929579 184.94102648 -68.3929579 184.94102648 -65.83740234 187.49658203 C-65.43975972 189.48479516 -65.09964886 191.48602542 -64.83740234 193.49658203 C-59.51464463 193.68419882 -54.87643655 193.07054364 -49.71240234 191.80908203 C-48.97900635 191.6340918 -48.24561035 191.45910156 -47.48999023 191.27880859 C-40.69696183 189.58957987 -34.28356695 187.23199797 -27.83740234 184.49658203 C-27.95599609 183.80951172 -28.07458984 183.12244141 -28.19677734 182.41455078 C-28.32568359 181.51349609 -28.45458984 180.61244141 -28.58740234 179.68408203 C-28.72662109 178.79076172 -28.86583984 177.89744141 -29.00927734 176.97705078 C-28.83740234 174.49658203 -28.83740234 174.49658203 -27.07177734 172.66845703 C-23.6790284 170.88904325 -21.46588578 171.52466682 -17.83740234 172.49658203 C-15.61865234 174.55517578 -15.61865234 174.55517578 -13.83740234 176.49658203 C-3.70023922 168.48159137 5.4395679 160.64890198 12.16259766 149.49658203 C11.31697266 148.81595703 10.47134766 148.13533203 9.60009766 147.43408203 C7.16259766 144.49658203 7.16259766 144.49658203 7.22509766 140.80908203 C8.16259766 137.49658203 8.16259766 137.49658203 10.16259766 135.49658203 C13.73479938 135.26361235 16.72900819 135.56758055 20.16259766 136.49658203 C24.9979577 124.44730296 29.46208286 112.69056904 29.16259766 99.49658203 C28.04884766 99.22845703 26.93509766 98.96033203 25.78759766 98.68408203 C22.16259766 97.49658203 22.16259766 97.49658203 20.16259766 94.49658203 C20.6070421 89.05213759 20.6070421 89.05213759 23.16259766 86.49658203 C25.15081079 86.09893941 27.15204105 85.75882855 29.16259766 85.49658203 C28.72128211 72.41157594 25.94435253 60.26658302 20.16259766 48.49658203 C19.55931641 48.61517578 18.95603516 48.73376953 18.33447266 48.85595703 C11.86700017 49.89909775 11.86700017 49.89909775 8.53759766 47.99658203 C6.56345464 44.40723109 7.05284899 42.38070235 8.16259766 38.49658203 C10.22509766 36.27783203 10.22509766 36.27783203 12.16259766 34.49658203 C4.147607 24.35941891 -3.6850824 15.21961179 -14.83740234 8.49658203 C-15.51802734 9.34220703 -16.19865234 10.18783203 -16.89990234 11.05908203 C-19.83740234 13.49658203 -19.83740234 13.49658203 -23.52490234 13.49658203 C-26.83740234 12.49658203 -26.83740234 12.49658203 -28.83740234 9.49658203 C-29.05055219 6.08618443 -28.92229635 3.75126404 -27.83740234 0.49658203 C-39.88668141 -4.33877801 -51.64341534 -8.80290317 -64.83740234 -8.50341797 C-65.10552734 -7.38966797 -65.37365234 -6.27591797 -65.64990234 -5.12841797 C-66.83740234 -1.50341797 -66.83740234 -1.50341797 -69.83740234 0.49658203 C-75.28184679 0.05213759 -75.28184679 0.05213759 -77.83740234 -2.50341797 C-78.23504497 -4.4916311 -78.57515583 -6.49286136 -78.83740234 -8.50341797 C-87.46812697 -8.7247186 -95.02948109 -7.41866916 -103.14990234 -4.56591797 Z " fill="#020303" transform="translate(327.83740234375,163.50341796875)"/>
<path d="M0 0 C7.67963761 3.62752716 13.20769181 11.05597322 18.58984375 17.46875 C19.94214631 19.11898278 19.94214631 19.11898278 22 20 C22 20.66 22 21.32 22 22 C21.37351563 22.04898438 20.74703125 22.09796875 20.1015625 22.1484375 C19.28429688 22.22320312 18.46703125 22.29796875 17.625 22.375 C16.40683594 22.47941406 16.40683594 22.47941406 15.1640625 22.5859375 C12.79665809 22.82892588 12.79665809 22.82892588 11 25 C10.53112077 28.57973664 10.66861233 32.20578925 10.6875 35.8125 C10.69168945 36.88894775 10.69587891 37.96539551 10.70019531 39.07446289 C10.95960981 57.86131618 14.77212769 76.01611926 20 94 C20.56847656 93.97035156 21.13695312 93.94070313 21.72265625 93.91015625 C24.69726625 94.10382869 26.39346826 94.49464544 29 96 C32.71733275 101.74435659 36 108.07193153 36 115 C35.505 115.45375 35.01 115.9075 34.5 116.375 C32.76459466 117.95123691 32.76459466 117.95123691 32.609375 120.546875 C33.15734249 125.39090757 35.26015412 128.74370949 37.75 132.875 C38.24443604 133.70926514 38.73887207 134.54353027 39.24829102 135.40307617 C51.81429896 156.20150888 67.9594921 174.93773225 87 190 C88.51787109 191.22589844 88.51787109 191.22589844 90.06640625 192.4765625 C97.95216647 198.77222518 106.21599112 204.05003948 115 209 C115.65452148 209.37511719 116.30904297 209.75023437 116.98339844 210.13671875 C138.35058419 222.31092473 161.79330614 229.90668917 186 234 C186.08504673 239.78652578 185.99302065 245.29013125 185 251 C143.78870008 252.78936445 97.55172122 224.29814198 68.0625 197.75 C66.02234241 195.85316776 64.00857157 193.93019718 62 192 C61.40541992 191.43265137 60.81083984 190.86530273 60.19824219 190.28076172 C51.30787597 181.7549051 43.2590445 172.95468008 36 163 C35.23300781 161.95457031 34.46601562 160.90914062 33.67578125 159.83203125 C27.55011913 151.22617085 22.09373242 142.24970657 17 133 C16.65614258 132.37802734 16.31228516 131.75605469 15.95800781 131.11523438 C4.93792036 110.69791811 -2.81440629 85.93016817 -6 63 C-6.15903809 61.87996582 -6.15903809 61.87996582 -6.32128906 60.73730469 C-7.27627847 53.75899654 -7.95024923 46.79638279 -8.234375 39.7578125 C-8.27022705 38.890354 -8.3060791 38.02289551 -8.34301758 37.12915039 C-8.40466995 35.45434069 -8.45204663 33.77892684 -8.4831543 32.10327148 C-8.4981279 27.89057198 -8.4981279 27.89057198 -10.39990234 24.29345703 C-12.37713105 22.69514185 -13.67459688 22.51847567 -16.1875 22.3125 C-17.445625 22.209375 -18.70375 22.10625 -20 22 C-18.51346494 18.53370165 -16.54277649 16.30977964 -13.8671875 13.671875 C-12.65869141 12.47304687 -12.65869141 12.47304687 -11.42578125 11.25 C-10.58402344 10.425 -9.74226563 9.6 -8.875 8.75 C-8.02550781 7.90953125 -7.17601562 7.0690625 -6.30078125 6.203125 C-4.20495077 4.13084317 -2.10459287 2.06337607 0 0 Z " fill="#DB626C" transform="translate(39,227)"/>
<path d="M0 0 C13.88419236 0.83709268 26.90955607 3.91012584 40 8.5 C40.61840759 8.71553528 41.23681519 8.93107056 41.8739624 9.15313721 C72.741423 19.97079925 99.4341578 36.39489228 123 59 C123.61633301 59.58378418 124.23266602 60.16756836 124.86767578 60.76904297 C135.0323172 70.43735911 143.86314787 80.57748312 152 92 C152.44005371 92.60602051 152.88010742 93.21204102 153.33349609 93.83642578 C161.82857407 105.59909229 170.04788048 119.01590215 174.96679688 132.68701172 C175.89378968 135.31447261 175.89378968 135.31447261 179 137 C182.12521833 137.16699232 182.12521833 137.16699232 185 137 C187.70071112 143.27980887 189.70024676 149.28460827 191 156 C190.34 156.309375 189.68 156.61875 189 156.9375 C186.58834118 158.98205608 186.58834118 158.98205608 186.7265625 162.83203125 C186.86516475 168.93113802 188.17519816 174.78746276 189.375 180.75 C191.63879085 192.48505757 192.79372093 203.91618983 193.27880859 215.84472656 C193.33375488 217.00069336 193.38870117 218.15666016 193.4453125 219.34765625 C193.48156738 220.36867432 193.51782227 221.38969238 193.55517578 222.44165039 C194.05936791 225.34144695 194.66197465 226.2700404 197 228 C199.04100238 228.57017808 199.04100238 228.57017808 201.1875 228.6875 C203.0746875 228.8421875 203.0746875 228.8421875 205 229 C203.51346494 232.46629835 201.54277649 234.69022036 198.8671875 237.328125 C197.65869141 238.52695312 197.65869141 238.52695312 196.42578125 239.75 C195.16314453 240.9875 195.16314453 240.9875 193.875 242.25 C193.02550781 243.09046875 192.17601562 243.9309375 191.30078125 244.796875 C189.20495077 246.86915683 187.10459287 248.93662393 185 251 C176.13887539 246.81438971 168.39178594 237.08767891 163 229 C163.62648438 228.95101562 164.25296875 228.90203125 164.8984375 228.8515625 C166.12433594 228.73941406 166.12433594 228.73941406 167.375 228.625 C168.18710937 228.55539062 168.99921875 228.48578125 169.8359375 228.4140625 C172.20334191 228.17107412 172.20334191 228.17107412 174 226 C179.79971758 182.89723837 160.52150492 133.83050747 135.21264648 99.70654297 C133.20343717 97.08611657 131.1166507 94.53356675 129 92 C128.51499023 91.41492676 128.02998047 90.82985352 127.53027344 90.22705078 C118.48508627 79.35846875 109.11694353 69.79421814 98 61 C96.98808594 60.18273437 95.97617187 59.36546875 94.93359375 58.5234375 C87.04679503 52.22767435 78.77173722 46.97110653 70 42 C69.41025391 41.65727051 68.82050781 41.31454102 68.21289062 40.96142578 C58.0164972 35.05125212 47.36558592 30.80171271 36.28662109 26.82373047 C34.45128756 26.16257145 32.62451004 25.4776833 30.80078125 24.78515625 C20.54422265 21.05685977 9.66568423 19.19603565 -1 17 C-1.02709444 14.91673869 -1.04643873 12.83337559 -1.0625 10.75 C-1.07410156 9.58984375 -1.08570313 8.4296875 -1.09765625 7.234375 C-1.01782092 4.59022872 -0.78643778 2.50173909 0 0 Z " fill="#A8D240" transform="translate(288,34)"/>
<path d="M0 0 C5.26922493 11.86854547 9.36583802 23.80950679 9 37 C7.88625 37.268125 6.7725 37.53625 5.625 37.8125 C1.78159049 38.65809019 1.78159049 38.65809019 0 42 C0.34445598 46.50850182 0.34445598 46.50850182 3 50 C4.98821313 50.39764263 6.98944339 50.73775349 9 51 C9.18761679 56.32275771 8.5739616 60.96096579 7.3125 66.125 C7.05001465 67.22509399 7.05001465 67.22509399 6.78222656 68.34741211 C5.09299784 75.14044052 2.73541594 81.55383539 0 88 C-1.03060547 87.82210937 -1.03060547 87.82210937 -2.08203125 87.640625 C-3.43361328 87.44726562 -3.43361328 87.44726562 -4.8125 87.25 C-5.70582031 87.11078125 -6.59914063 86.9715625 -7.51953125 86.828125 C-10.12450028 86.74139369 -10.12450028 86.74139369 -11.828125 88.765625 C-13.60753878 92.15837394 -12.97191521 94.37151656 -12 98 C-10.01443058 100.1996252 -10.01443058 100.1996252 -8 102 C-16.01499066 112.13716312 -23.84768005 121.27697025 -35 128 C-35.42410156 127.35933594 -35.84820312 126.71867187 -36.28515625 126.05859375 C-37.94927206 123.66122131 -37.94927206 123.66122131 -41.4375 123.0625 C-44.89872748 122.75493597 -44.89872748 122.75493597 -47.4375 124.0625 C-49.63891398 126.79225334 -49.34968912 128.57304666 -49 132 C-48.68295726 133.33730056 -48.35287335 134.67170437 -48 136 C-60.04927907 140.83536004 -71.80601299 145.2994852 -85 145 C-85.268125 143.88625 -85.53625 142.7725 -85.8125 141.625 C-86.65809019 137.78159049 -86.65809019 137.78159049 -90 136 C-94.50850182 136.34445598 -94.50850182 136.34445598 -98 139 C-98.39764263 140.98821313 -98.73775349 142.98944339 -99 145 C-112.08500609 144.55868445 -124.22999901 141.78175487 -136 136 C-135.01 134.02 -135.01 134.02 -134 132 C-134 132.66 -134 133.32 -134 134 C-133.34 133.67 -132.68 133.34 -132 133 C-130.68133822 132.77235355 -129.35546623 132.58552849 -128.02734375 132.421875 C-98.69104188 128.57506619 -73.89242272 117.7412634 -51 99 C-50.17757812 98.33226562 -49.35515625 97.66453125 -48.5078125 96.9765625 C-42.55434258 91.92950322 -37.75203098 86.17168961 -33 80 C-31.99646484 78.71996094 -31.99646484 78.71996094 -30.97265625 77.4140625 C-13.8655077 54.85295174 -6.50051587 29.5486123 -2 2 C-2.99 1.505 -2.99 1.505 -4 1 C-2 0 -2 0 0 0 Z " fill="#E4F5FB" transform="translate(348,212)"/>
<path d="M0 0 C4.19459212 0.87387336 5.43084289 2.18848132 8 5.625 C8.68977285 9.22109577 8.58226378 12.74446986 8.48828125 16.39453125 C8.48120651 17.43067062 8.47413177 18.46681 8.46684265 19.53434753 C8.43890607 22.83613997 8.3761663 26.13622216 8.3125 29.4375 C8.2874163 31.67901193 8.26460326 33.9205505 8.24414062 36.16210938 C8.18908206 41.6503208 8.10546281 47.13753821 8 52.625 C8.763125 52.91375 9.52625 53.2025 10.3125 53.5 C17.00212144 56.30030665 20.13661144 60.64669141 23.0859375 67.078125 C25.56891537 73.99650779 23.58226515 80.02719408 21 86.625 C20.5970874 87.39062256 20.1941748 88.15624512 19.77905273 88.94506836 C18.70456393 91.6189409 18.70456393 91.6189409 19.98217773 94.10107422 C20.54364502 94.9520166 21.1051123 95.80295898 21.68359375 96.6796875 C22.28107422 97.62457031 22.87855469 98.56945312 23.49414062 99.54296875 C24.78494974 101.50707427 26.0766103 103.47062049 27.36914062 105.43359375 C32.51929773 113.58292739 32.51929773 113.58292739 31.98046875 117.69921875 C30.4622315 122.22973548 30.4622315 122.22973548 28 123.625 C24.625 124.125 24.625 124.125 21 123.625 C16.55672405 120.14515282 14.67720146 116.17620852 12.31005859 111.12353516 C8.65357784 102.63635956 8.65357784 102.63635956 1.7109375 97.3046875 C-1.62062822 97.19622337 -1.62062822 97.19622337 -4.9140625 97.515625 C-10.10679045 97.69967105 -13.31607313 95.04743728 -17 91.625 C-22.17865469 86.06462629 -24.61378444 79.48665547 -24.375 71.80078125 C-23.15373442 64.71489658 -19.22180124 59.14762318 -13.74609375 54.68359375 C-11.84238227 53.52944205 -10.15716064 53.11993537 -8 52.625 C-8.01110306 52.04728348 -8.02220612 51.46956696 -8.03364563 50.87434387 C-8.14434811 44.85608394 -8.21971205 38.83811364 -8.2746582 32.8190918 C-8.29978723 30.57352956 -8.33389615 28.328049 -8.37719727 26.08276367 C-8.43791776 22.85314782 -8.46622631 19.62461416 -8.48828125 16.39453125 C-8.51408768 15.39227005 -8.5398941 14.39000885 -8.56648254 13.3573761 C-8.56838306 8.62389184 -8.5608952 6.37525651 -5.65698242 2.4909668 C-3 0.625 -3 0.625 0 0 Z " fill="#070708" transform="translate(256,181.375)"/>
<path d="M0 0 C1.6171875 1.92578125 1.6171875 1.92578125 2.875 4.3125 C3.30554688 5.09238281 3.73609375 5.87226562 4.1796875 6.67578125 C5 9 5 9 5.0078125 10.94140625 C3.41264652 14.19974916 0.70348005 16.29527295 -2 18.625 C-6.01842399 21.88512904 -6.01842399 21.88512904 -9 26 C-9.30834635 31.18851336 -9.35649806 36.3776983 -9.4050293 41.57446289 C-9.42656772 43.307739 -9.46062168 45.04090757 -9.50756836 46.77368164 C-9.57484412 49.28060159 -9.60207315 51.78527131 -9.62109375 54.29296875 C-9.66283974 55.44335884 -9.66283974 55.44335884 -9.70542908 56.61698914 C-9.68505264 62.00602069 -8.24235362 64.68400718 -4.51878357 68.55856323 C-2.58381821 70.39498698 -0.66349698 72.21532151 1.375 73.9375 C2.06335938 74.52402344 2.75171875 75.11054687 3.4609375 75.71484375 C3.96882813 76.13894531 4.47671875 76.56304687 5 77 C4.43957711 80.67817783 3.4857904 83.21380426 1.4375 86.3125 C0.98246094 87.00988281 0.52742188 87.70726562 0.05859375 88.42578125 C-0.29074219 88.94527344 -0.64007813 89.46476562 -1 90 C-4.63327609 89.53419537 -7.83983056 88.72161354 -11.25 87.4375 C-16.23682258 85.78357894 -20.80511923 84.73334697 -26 86 C-28.69881402 87.76789399 -31.01054876 89.75261118 -33.41796875 91.8984375 C-37.5061525 95.22588509 -42.14943149 97.03231655 -47 99 C-52.34379599 101.19477335 -53.75487703 102.69279556 -56 108 C-56.72242584 110.7683929 -57.22065618 113.55352862 -57.6875 116.375 C-57.81705078 117.11105469 -57.94660156 117.84710938 -58.08007812 118.60546875 C-58.39508916 120.40219837 -58.69872815 122.20091563 -59 124 C-63.95 124 -68.9 124 -74 124 C-74.24234375 122.77023438 -74.4846875 121.54046875 -74.734375 120.2734375 C-75.0722278 118.64048232 -75.41080808 117.00767754 -75.75 115.375 C-75.90726562 114.56675781 -76.06453125 113.75851563 -76.2265625 112.92578125 C-77.31942638 107.75569442 -78.76904687 104.19480889 -82 100 C-80.60201172 99.30777344 -80.60201172 99.30777344 -79.17578125 98.6015625 C-50.23630828 83.94068022 -30.24385493 60.36395188 -19.70068359 29.73046875 C-17.13895127 21.78067052 -15.19093742 13.37878332 -15 5 C-15.99 4.01 -15.99 4.01 -17 3 C-15.1096624 2.29753005 -13.21243172 1.61359151 -11.3125 0.9375 C-9.72888672 0.36322266 -9.72888672 0.36322266 -8.11328125 -0.22265625 C-4.82161925 -1.04453923 -3.1502531 -1.22779095 0 0 Z " fill="#FBCD62" transform="translate(155,50)"/>
<path d="M0 0 C1.73828125 2.1796875 1.73828125 2.1796875 3.3125 4.875 C3.84488281 5.75929688 4.37726563 6.64359375 4.92578125 7.5546875 C6 10 6 10 5 13 C3.25959466 14.53915325 1.4585609 16.01059499 -0.375 17.4375 C-5.30157425 21.17004686 -5.30157425 21.17004686 -9 26 C-9.29270069 28.77439758 -9.42084972 31.31769731 -9.3984375 34.08984375 C-9.40130768 34.87138321 -9.40417786 35.65292267 -9.40713501 36.45814514 C-9.40917286 38.10809047 -9.40366249 39.75806012 -9.39111328 41.40795898 C-9.37507631 43.92552104 -9.39095927 46.44147258 -9.41015625 48.95898438 C-9.40817334 50.56510769 -9.40432869 52.17123001 -9.3984375 53.77734375 C-9.40451019 54.52644516 -9.41058289 55.27554657 -9.4168396 56.04734802 C-9.33584736 62.10654201 -7.79516968 65.19610178 -3.58984375 69.421875 C-2.27693359 70.57429688 -2.27693359 70.57429688 -0.9375 71.75 C-0.05964844 72.52859375 0.81820312 73.3071875 1.72265625 74.109375 C3.8455126 76.01743531 3.8455126 76.01743531 6 77 C4.35821735 81.77609498 1.73453298 85.79382904 -1 90 C-4.94913379 89.5886319 -8.217138 88.99466213 -11.875 87.4375 C-16.45350352 85.72492998 -20.18119092 84.61287655 -25 86 C-28.00479053 87.90003521 -30.80452048 89.90828373 -33.61328125 92.07958984 C-38.28742356 95.65728156 -42.86778481 97.88713326 -48.4765625 99.76953125 C-51.79417225 101.38725117 -53.06517885 102.84230488 -55 106 C-56.00106867 109.06072637 -56.64156542 112.15312864 -57.25 115.3125 C-57.42273438 116.14845703 -57.59546875 116.98441406 -57.7734375 117.84570312 C-58.19492034 119.89457803 -58.59920244 121.94697845 -59 124 C-63.95 124 -68.9 124 -74 124 C-74.25523437 122.37191406 -74.25523437 122.37191406 -74.515625 120.7109375 C-74.75966039 119.26549711 -75.00449462 117.82019144 -75.25 116.375 C-75.35957031 115.66214844 -75.46914063 114.94929688 -75.58203125 114.21484375 C-76.43912035 109.2978589 -77.95003095 106.06255877 -81 102 C-81.33 101.34 -81.66 100.68 -82 100 C-81.12859375 99.59910156 -80.2571875 99.19820313 -79.359375 98.78515625 C-70.78939322 94.69493767 -63.36809389 90.0648238 -56 84 C-55.13632812 83.28972656 -54.27265625 82.57945312 -53.3828125 81.84765625 C-29.86965759 61.59411316 -18.75155153 34.05716309 -14 4 C-14.99 3.505 -14.99 3.505 -16 3 C-14.08802961 2.29954544 -12.17019565 1.615081 -10.25 0.9375 C-9.18265625 0.55464844 -8.1153125 0.17179687 -7.015625 -0.22265625 C-2.64654318 -1.3488833 -2.64654318 -1.3488833 0 0 Z " fill="#818181" transform="translate(490,373)"/>
<path d="M0 0 C6.26140641 4.13350658 10.62680459 9.88041377 13 17 C13.86755169 28.72434137 13.46251193 36.50403986 5.6875 45.75 C-3.29140687 53.26722436 -10.5251238 54.68571863 -22.01123047 54.18359375 C-26.00406801 53.81499397 -28.85399242 52.38907343 -32 50 C-33.546875 48.948125 -33.546875 48.948125 -35.125 47.875 C-40.76482901 42.91504079 -44.42982944 35.79231962 -45.30859375 28.40625 C-45.71964978 19.13880498 -43.22375879 11.91443633 -37.13671875 4.83203125 C-26.45683673 -5.20577369 -12.94911888 -7.23891715 0 0 Z M-27.875 18.1875 C-29.48186346 22.20465866 -29.66970107 25.73347745 -29 30 C-26.63292134 34.91624028 -24.13959507 37.18602527 -19 39 C-14.77424726 39.52821909 -12.62014635 39.31615304 -8.8125 37.375 C-4.65335988 33.86283724 -2.29544745 31.03120122 -1.5 25.5625 C-2.24694683 20.24050382 -4.07860301 16.70180877 -8.1875 13.0625 C-16.07034688 10.08453562 -22.35299329 11.74515884 -27.875 18.1875 Z " fill="#030301" transform="translate(104,69)"/>
<path d="M0 0 C7.95307036 4.36136117 13.65771271 10.51370946 16.5234375 19.30078125 C18.15560473 28.64040487 16.62600899 36.6412132 11.40234375 44.5390625 C6.49084211 50.73939791 0.27917434 53.84444189 -7.125 56.3125 C-16.5058533 57.2646332 -24.42821059 55.44753757 -31.9375 49.625 C-37.16877904 44.77710075 -40.87995586 37.9238883 -41.36328125 30.80078125 C-41.61144502 21.43680999 -41.11273957 14.96486284 -34.875 7.6875 C-24.84846891 -0.97177685 -13.07525301 -5.5525047 0 0 Z M-24.5 20.125 C-26.46148313 23.97252461 -26.72443353 26.04153613 -26.125 30.3125 C-24.73599215 33.91500698 -22.84980068 36.67053369 -19.9375 39.25 C-15.9180124 40.76847309 -12.36610897 40.9856919 -8.125 40.3125 C-3.74246446 38.12123223 -0.95830184 35.89575461 0.875 31.3125 C1.58099788 26.60584747 1.32816426 23.2536873 -0.75 18.9375 C-4.34325366 14.96600911 -7.32511818 13.53748523 -12.625 12.875 C-18.1533753 13.56604691 -20.96436789 15.93806724 -24.5 20.125 Z " fill="#020202" transform="translate(436.125,390.6875)"/>
<path d="M0 0 C2.5 1.5 2.5 1.5 4 4 C4.791013 8.02098277 4.62153384 10.96411027 2.5 14.5 C-1.03588973 16.62153384 -3.97901723 16.791013 -8 16 C-10.5 14.5 -10.5 14.5 -12 12 C-12.791013 7.97901723 -12.62153384 5.03588973 -10.5 1.5 C-6.96411027 -0.62153384 -4.02098277 -0.791013 0 0 Z " fill="#3F70C6" transform="translate(260,248)"/>
</svg>
