<?xml version="1.0" encoding="UTF-8"?>
<svg version="1.1" xmlns="http://www.w3.org/2000/svg" width="500" height="500">
<path d="M0 0 C165 0 330 0 500 0 C500 165 500 330 500 500 C335 500 170 500 0 500 C0 335 0 170 0 0 Z " fill="#FFFFFF" transform="translate(0,0)"/>
<path d="M0 0 C1.32 0 2.64 0 4 0 C4 1.65 4 3.3 4 5 C12.25 5 20.5 5 29 5 C29 3.35 29 1.7 29 0 C30.32 0 31.64 0 33 0 C33 1.65 33 3.3 33 5 C33.85996582 4.96072388 33.85996582 4.96072388 34.73730469 4.9206543 C58.36008556 3.98493444 58.36008556 3.98493444 67.91015625 11.50390625 C76.40664336 20.16740048 80 38.13017361 80 50 C83.3 50 86.6 50 90 50 C90 43.73 90 37.46 90 31 C93.96 31 97.92 31 102 31 C102.33 39.58 102.66 48.16 103 57 C104.98 56.01 106.96 55.02 109 54 C114.56492436 53.05396286 119.29286549 53.79059011 124 57 C128.30115102 61.2653081 131.2748701 65.47702425 131.375 71.625 C131.28360541 76.43376141 130.03718804 79.99376086 128.07421875 84.33984375 C126.49309602 88.25527858 125.72529611 92.30064395 124.90625 96.43359375 C123.78909512 99.59726081 122.88068063 100.32612352 120 102 C117.06738281 102.34057617 117.06738281 102.34057617 113.703125 102.29296875 C112.49785156 102.28330078 111.29257812 102.27363281 110.05078125 102.26367188 C108.79652344 102.23853516 107.54226563 102.21339844 106.25 102.1875 C104.98027344 102.17396484 103.71054687 102.16042969 102.40234375 102.14648438 C99.26780156 102.1111324 96.13411455 102.06178248 93 102 C92.814375 103.6396875 92.814375 103.6396875 92.625 105.3125 C92 109 92 109 90 112 C88.68 111.67 87.36 111.34 86 111 C86.7425 109.824375 86.7425 109.824375 87.5 108.625 C89.65436723 103.41861252 89.9413587 98.17434912 88.328125 92.734375 C87.0905765 90.72782947 87.0905765 90.72782947 84.43359375 90.4609375 C83.44488281 90.43257813 82.45617187 90.40421875 81.4375 90.375 C78.43359375 90.2734375 78.43359375 90.2734375 76 90 C75.67 89.34 75.34 88.68 75 88 C74.319375 88.495 73.63875 88.99 72.9375 89.5 C67.83679545 92.10461509 63.52719126 91.30410631 58.25 89.625 C55.42052161 88.64556517 53.53850986 87.69233991 51 86 C50.278125 86.45375 49.55625 86.9075 48.8125 87.375 C41.40749609 91.6534467 34.35212912 91.93722998 26 91 C18.33874788 88.52834461 12.02216305 84.30614649 7 78 C6.67 77.34 6.34 76.68 6 76 C5.78085938 76.51949219 5.56171875 77.03898437 5.3359375 77.57421875 C2.40058444 84.02960902 -0.56091667 87.6625787 -7.375 90.3125 C-14.61883293 91.68633038 -22.63245209 91.91741903 -28.98828125 87.671875 C-32.1990394 85.03945217 -34.29368569 82.82678258 -36 79 C-36.3403125 79.45890625 -36.680625 79.9178125 -37.03125 80.390625 C-41.62192285 86.20222147 -46.70329034 89.51002303 -54 91 C-62.34423351 91.89297938 -69.52510531 90.4178937 -76.265625 85.26953125 C-83.02967938 78.99399191 -86.06147995 72.98208723 -86.51953125 63.80981445 C-86.6925769 54.75933036 -85.44994515 47.7971688 -79.09765625 40.94921875 C-72.94308993 35.24354594 -67.51031783 32.49405059 -59 32.75 C-58.31421875 32.75515625 -57.6284375 32.7603125 -56.921875 32.765625 C-52.86023154 32.82763482 -48.98555995 33.22779776 -45 34 C-44.85304687 33.24976563 -44.70609375 32.49953125 -44.5546875 31.7265625 C-42.73159989 23.40741561 -40.51245141 15.45111159 -33.4921875 10.08203125 C-28.18066181 6.82233399 -23.96468054 4.86759845 -17.67578125 4.90234375 C-16.64775391 4.90556641 -15.61972656 4.90878906 -14.56054688 4.91210938 C-12.95276367 4.92467773 -12.95276367 4.92467773 -11.3125 4.9375 C-9.68731445 4.94426758 -9.68731445 4.94426758 -8.02929688 4.95117188 C-5.35280915 4.96296257 -2.67643223 4.97941937 0 5 C0 3.35 0 1.7 0 0 Z " fill="#EBECE1" transform="translate(219,194)"/>
<path d="M0 0 C0.70084717 0.00281982 1.40169434 0.00563965 2.1237793 0.00854492 C9.21795748 0.22807028 14.49471619 2.58101066 20.07421875 6.91796875 C21.25 8.5 21.25 8.5 21.16015625 10.484375 C20.05247559 12.93743603 18.7814753 14.07481976 16.6875 15.75 C16.04683594 16.27078125 15.40617187 16.7915625 14.74609375 17.328125 C14.25238281 17.71484375 13.75867188 18.1015625 13.25 18.5 C11.75260417 17.23046875 10.25520833 15.9609375 8.7578125 14.69140625 C5.75294054 12.31709032 3.14732621 12.16059268 -0.65234375 12.22265625 C-5.23375555 12.82839226 -7.90485349 15.40130954 -10.625 18.9375 C-12.70032815 25.50937248 -12.74407032 32.51778903 -10.5625 39.0625 C-7.89179889 42.65413253 -5.99536456 45.13748645 -1.37890625 45.8828125 C2.80769648 46.06943669 5.52628794 45.8920107 9.25 43.875 C11.76533422 41.18464622 11.76533422 41.18464622 13.25 35.5 C8.96 35.5 4.67 35.5 0.25 35.5 C0.25 32.2 0.25 28.9 0.25 25.5 C8.83 25.5 17.41 25.5 26.25 25.5 C26.745 26.49 26.745 26.49 27.25 27.5 C27.84425781 27.066875 28.43851563 26.63375 29.05078125 26.1875 C35.52725521 21.83627644 40.47943187 20.17735011 48.25 21.5 C52.73783946 22.82973021 56.90249329 24.15249329 60.25 27.5 C60.54132813 26.64277344 60.83265625 25.78554687 61.1328125 24.90234375 C65.30096973 13.27606872 69.91015441 6.85542629 81.25 1.5 C91.16974169 -1.17444016 101.18574368 -0.17832584 110.25 4.5 C109.35950811 8.73686665 107.45552339 11.80041239 105.25 15.5 C104.095 15.17 102.94 14.84 101.75 14.5 C94.7237176 12.79291026 89.45393131 12.71989955 83.01171875 16.2890625 C79.44562791 18.74025576 77.60012947 21.44961159 76.25 25.5 C75.66161429 31.50153423 76.99471179 35.56132645 80.25 40.5 C84.36230102 44.48379161 88.64291057 44.65254042 94.1875 44.6875 C95.20714844 44.70167969 96.22679687 44.71585937 97.27734375 44.73046875 C100.4594714 44.48375977 102.51578082 44.16367834 105.25 42.5 C106.32614657 39.85034544 106.32614657 39.85034544 106.75 36.75 C108.19782035 29.95825849 110.17742346 27.13363703 115.4375 22.625 C120.99441742 20.40223303 126.4009557 20.73487822 131.875 23 C132.65875 23.495 133.4425 23.99 134.25 24.5 C134.58 23.84 134.91 23.18 135.25 22.5 C139.21 22.5 143.17 22.5 147.25 22.5 C147.25 34.05 147.25 45.6 147.25 57.5 C143.29 57.5 139.33 57.5 135.25 57.5 C134.92 56.84 134.59 56.18 134.25 55.5 C133.569375 55.995 132.88875 56.49 132.1875 57 C127.08679545 59.60461509 122.77719126 58.80410631 117.5 57.125 C114.67052161 56.14556517 112.78850986 55.19233991 110.25 53.5 C109.528125 53.95375 108.80625 54.4075 108.0625 54.875 C100.65749609 59.1534467 93.60212912 59.43722998 85.25 58.5 C77.58874788 56.02834461 71.27216305 51.80614649 66.25 45.5 C65.92 44.84 65.59 44.18 65.25 43.5 C65.03085938 44.01949219 64.81171875 44.53898437 64.5859375 45.07421875 C61.65058444 51.52960902 58.68908333 55.1625787 51.875 57.8125 C44.63116707 59.18633038 36.61754791 59.41741903 30.26171875 55.171875 C27.0509606 52.53945217 24.95631431 50.32678258 23.25 46.5 C22.9096875 46.95890625 22.569375 47.4178125 22.21875 47.890625 C17.62807715 53.70222147 12.54670966 57.01002303 5.25 58.5 C-3.09423351 59.39297938 -10.27510531 57.9178937 -17.015625 52.76953125 C-23.77967938 46.49399191 -26.81147995 40.48208723 -27.26953125 31.30981445 C-27.4425769 22.25933036 -26.19994515 15.2971688 -19.84765625 8.44921875 C-13.86476773 2.90270214 -8.29574934 -0.07446813 0 0 Z " fill="#040504" transform="translate(159.75,226.5)"/>
<path d="M0 0 C3.96 0 7.92 0 12 0 C12.33 8.58 12.66 17.16 13 26 C14.98 25.01 16.96 24.02 19 23 C24.56492436 22.05396286 29.29286549 22.79059011 34 26 C38.35845954 30.32213905 41.27595821 34.53017587 41.375 40.75 C41.23532439 46.67748364 39.62495855 51.24482157 35.50390625 55.5703125 C30.93222445 59.56055846 27.15155738 60.32948067 21.296875 60.30078125 C17.70262686 59.8301059 15.77091299 58.27356963 13 56 C12.67 56.99 12.34 57.98 12 59 C8.04 59 4.08 59 0 59 C0 39.53 0 20.06 0 0 Z " fill="#030303" transform="translate(309,225)"/>
<path d="M0 0 C0.78375 0.495 1.5675 0.99 2.375 1.5 C2.705 0.84 3.035 0.18 3.375 -0.5 C7.335 -0.5 11.295 -0.5 15.375 -0.5 C15.375 11.05 15.375 22.6 15.375 34.5 C11.415 34.5 7.455 34.5 3.375 34.5 C3.045 33.84 2.715 33.18 2.375 32.5 C1.694375 32.995 1.01375 33.49 0.3125 34 C-4.6393029 36.52858021 -9.03320346 35.83268977 -14.25 34.4375 C-19.09500359 32.66292458 -21.46634845 30.14110084 -23.625 25.5 C-25.9788722 19.29845208 -26.09716148 13.69206484 -23.625 7.5 C-18.18101345 -1.55358633 -9.59190506 -3.96906416 0 0 Z " fill="#030403" transform="translate(291.625,249.5)"/>
<path d="M0 0 C1.15628906 0.00607269 1.15628906 0.00607269 2.3359375 0.01226807 C3.12742188 0.01035461 3.91890625 0.00844116 4.734375 0.00646973 C6.4088574 0.00510789 8.08335035 0.00880425 9.7578125 0.01715088 C12.32576131 0.02785067 14.89301053 0.01725582 17.4609375 0.00445557 C19.08593905 0.00577716 20.71094016 0.00833956 22.3359375 0.01226807 C23.10679687 0.0082196 23.87765625 0.00417114 24.671875 0 C30.10601618 0.04797174 30.10601618 0.04797174 32.3359375 2.27789307 C32.61533892 5.1189644 32.75218281 7.80948812 32.7734375 10.65289307 C32.80630859 11.42117432 32.83917969 12.18945557 32.87304688 12.98101807 C32.89404133 15.18734431 32.83023502 17.12637735 32.3359375 19.27789307 C30.05859375 21.44195557 30.05859375 21.44195557 27.3359375 23.27789307 C26.78429932 24.29222412 26.23266113 25.30655518 25.66430664 26.35162354 C23.3359375 29.27789307 23.3359375 29.27789307 19.70068359 29.99078369 C18.2535117 30.00330041 16.80579301 29.98249701 15.359375 29.93414307 C14.20968735 29.92852356 14.20968735 29.92852356 13.03677368 29.92279053 C11.42114792 29.90937448 9.80558578 29.88159274 8.19042969 29.84039307 C5.7122799 29.7779269 3.23667243 29.7584378 0.7578125 29.74664307 C-0.81253115 29.72830761 -2.38284886 29.70755749 -3.953125 29.68414307 C-5.06719223 29.67139343 -5.06719223 29.67139343 -6.20376587 29.65838623 C-11.42959216 29.51236341 -11.42959216 29.51236341 -13.6640625 27.27789307 C-13.29831619 21.41311888 -11.91412052 16.01168649 -10.2265625 10.40289307 C-10.00935547 9.64492432 -9.79214844 8.88695557 -9.56835938 8.10601807 C-7.67715537 1.72249463 -6.79772514 0.06000925 0 0 Z " fill="#EEEEE4" transform="translate(201.6640625,213.72210693359375)"/>
<path d="M0 0 C1.0209375 1.051875 1.0209375 1.051875 2.0625 2.125 C3.0367486 3.08833265 4.01636797 4.04625047 5 5 C5.77923828 5.75603516 5.77923828 5.75603516 6.57421875 6.52734375 C14.51405529 13.8009003 21.61745852 15.66584437 32.390625 15.40625 C36.53706407 14.93955123 39.64292515 13.89697201 43.265625 11.875 C45 11 45 11 48 11 C50.6875 13 50.6875 13 53 15 C52.34 15 51.68 15 51 15 C49.34152116 22.3371104 48.96775742 29.98793903 52 37 C50.68 37 49.36 37 48 37 C47.49596232 35.70990357 46.99690074 34.41786211 46.5 33.125 C46.2215625 32.40570313 45.943125 31.68640625 45.65625 30.9453125 C45 29 45 29 45 27 C27.18 27 9.36 27 -9 27 C-9.33 29.31 -9.66 31.62 -10 34 C-10.66 34.99 -11.32 35.98 -12 37 C-13.32 36.67 -14.64 36.34 -16 36 C-15.505 35.21625 -15.01 34.4325 -14.5 33.625 C-12.21528032 28.10359411 -12.01654409 21.72150744 -14 16 C-14.66 15.67 -15.32 15.34 -16 15 C-14.1746875 14.38125 -14.1746875 14.38125 -12.3125 13.75 C-7.88730985 12.0534165 -4.17125447 10.46057895 -2.03125 5.96484375 C-1.28351538 4.00204037 -0.63409506 2.00240546 0 0 Z " fill="#EEECE4" transform="translate(224,269)"/>
<path d="M0 0 C1.32 0 2.64 0 4 0 C4 1.65 4 3.3 4 5 C12.25 5 20.5 5 29 5 C29 3.35 29 1.7 29 0 C30.32 0 31.64 0 33 0 C33 1.65 33 3.3 33 5 C33.85996582 4.96072388 33.85996582 4.96072388 34.73730469 4.9206543 C58.36008556 3.98493444 58.36008556 3.98493444 67.91015625 11.50390625 C76.40664336 20.16740048 80 38.13017361 80 50 C83.3 50 86.6 50 90 50 C90 51.32 90 52.64 90 54 C86.37 54 82.74 54 79 54 C75.60937247 46.9278331 74.10845697 39.5210214 72.42578125 31.89257812 C70.5824923 24.0512072 68.37342215 17.68496865 61.9375 12.5625 C57.07398858 9.97552584 52.83221923 9.84737826 47.38916016 9.83886719 C46.24694252 9.83141983 46.24694252 9.83141983 45.08164978 9.82382202 C42.56744476 9.80924032 40.05330282 9.80240546 37.5390625 9.796875 C35.78795368 9.79112075 34.03684488 9.78536305 32.28573608 9.77960205 C28.61561795 9.76910376 24.94552165 9.76325327 21.27539062 9.75976562 C16.57896768 9.75427998 11.88283452 9.73024556 7.18650246 9.70179367 C3.56962242 9.68314638 -0.04718805 9.6779606 -3.66411209 9.67642975 C-5.39522513 9.67340798 -7.12633708 9.66539551 -8.8574028 9.65224457 C-11.28194849 9.63513829 -13.7057891 9.63707513 -16.13037109 9.64355469 C-17.19664986 9.62973251 -17.19664986 9.62973251 -18.2844696 9.6156311 C-24.31406244 9.66596152 -28.16469288 11.42078225 -32.6875 15.3125 C-36.67218827 19.94335393 -38.47023925 25.07184299 -40.1875 30.875 C-40.53167969 32.02742188 -40.87585938 33.17984375 -41.23046875 34.3671875 C-41.48441406 35.23601562 -41.73835937 36.10484375 -42 37 C-43.32 36.34 -44.64 35.68 -46 35 C-45.34961499 32.99464622 -44.67681023 30.99659018 -44 29 C-43.70867187 28.12988281 -43.41734375 27.25976562 -43.1171875 26.36328125 C-39.54434435 16.05267485 -35.79130705 11.01824919 -26 6 C-22.94080612 4.98026871 -20.87581975 4.88466398 -17.67578125 4.90234375 C-16.64775391 4.90556641 -15.61972656 4.90878906 -14.56054688 4.91210938 C-12.95276367 4.92467773 -12.95276367 4.92467773 -11.3125 4.9375 C-10.22904297 4.94201172 -9.14558594 4.94652344 -8.02929688 4.95117188 C-5.35280915 4.96296257 -2.67643223 4.97941937 0 5 C0 3.35 0 1.7 0 0 Z " fill="#89DB65" transform="translate(219,194)"/>
<path d="M0 0 C1.53333984 -0.00386719 1.53333984 -0.00386719 3.09765625 -0.0078125 C4.16886719 -0.00007812 5.24007813 0.00765625 6.34375 0.015625 C7.95056641 0.00402344 7.95056641 0.00402344 9.58984375 -0.0078125 C10.61207031 -0.00523437 11.63429688 -0.00265625 12.6875 0 C13.62787109 0.00225586 14.56824219 0.00451172 15.53710938 0.00683594 C17.84375 0.265625 17.84375 0.265625 19.84375 2.265625 C21.13047728 5.63027237 22.04539565 9.11487666 23.03125 12.578125 C23.31677734 13.52880859 23.60230469 14.47949219 23.89648438 15.45898438 C24.16138672 16.38130859 24.42628906 17.30363281 24.69921875 18.25390625 C25.06503052 19.51521362 25.06503052 19.51521362 25.43823242 20.80200195 C25.89737732 23.59142469 25.60710753 25.55757226 24.84375 28.265625 C23.84375 29.265625 23.84375 29.265625 20.68359375 29.36328125 C19.39582031 29.35167969 18.10804688 29.34007812 16.78125 29.328125 C15.49089844 29.31910156 14.20054687 29.31007812 12.87109375 29.30078125 C11.87207031 29.28917969 10.87304688 29.27757812 9.84375 29.265625 C10.501325 24.70728956 11.62325983 21.32043313 13.84375 17.265625 C6.91349434 15.01066112 0.03690625 13.42801717 -7.15625 12.265625 C-7.21020478 10.64098658 -7.24902195 9.01583959 -7.28125 7.390625 C-7.30445313 6.48570312 -7.32765625 5.58078125 -7.3515625 4.6484375 C-6.95646229 -0.17178504 -4.10520792 0.009848 0 0 Z " fill="#EDECE2" transform="translate(256.15625,213.734375)"/>
<path d="M0 0 C0.33 0 0.66 0 1 0 C1.99140649 11.68443367 2.10709533 23.27901152 2 35 C5.96 35 9.92 35 14 35 C14.33 33.68 14.66 32.36 15 31 C15.804375 31.66 16.60875 32.32 17.4375 33 C21.4675841 35.67719535 25.30523385 35.71515255 30 35 C33.36123058 33.63060976 35.98493949 32.01004034 39 30 C38.7970954 31.89882361 38.56144311 33.79416202 38.3125 35.6875 C38.18488281 36.74324219 38.05726563 37.79898438 37.92578125 38.88671875 C36.65936547 43.14550939 35.77837637 44.55305149 32 47 C27.38058609 47.60980715 22.83635831 47.46882477 18.1875 47.3125 C16.92228516 47.28994141 15.65707031 47.26738281 14.35351562 47.24414062 C11.23447381 47.18529078 8.11784098 47.1031137 5 47 C4.814375 48.6396875 4.814375 48.6396875 4.625 50.3125 C4 54 4 54 2 57 C0.68 56.67 -0.64 56.34 -2 56 C-1.505 55.21625 -1.01 54.4325 -0.5 53.625 C1.41428041 48.99882233 1.6040271 44.9498844 1 40 C0.49496948 38.93821533 0.49496948 38.93821533 -0.02026367 37.85498047 C-1.29556376 34.13871852 -1.14484149 30.72201676 -0.9765625 26.85546875 C-0.95153656 26.08568192 -0.92651062 25.31589508 -0.90072632 24.52278137 C-0.81890984 22.07721375 -0.72217465 19.63250072 -0.625 17.1875 C-0.56672109 15.52412284 -0.50941868 13.86071116 -0.453125 12.19726562 C-0.31338876 8.13102372 -0.16027533 4.06548204 0 0 Z " fill="#88D367" transform="translate(307,249)"/>
<path d="M0 0 C2.2926193 1.14423676 4.13743751 1.4652682 6.66015625 1.828125 C10.27070164 2.59544025 11.04450502 2.95683224 13.72265625 5.765625 C15.42335216 9.68461993 15.82792581 11.84891781 15.16015625 16.078125 C13.39074123 19.36231598 11.54921012 22.38359806 8.16015625 24.078125 C-2.89063693 25.13345313 -2.89063693 25.13345313 -6.7734375 23.03125 C-10.05246691 19.72303042 -11.03685442 16.84631581 -11.21484375 12.328125 C-11.18313392 8.67092482 -10.90776152 6.45063659 -8.58984375 3.578125 C-3.00025985 -1.50331491 -3.00025985 -1.50331491 0 0 Z " fill="#EDEEE3" transform="translate(191.83984375,281.921875)"/>
<path d="M0 0 C0.33 0.99 0.66 1.98 1 3 C2.1446875 3.1546875 2.1446875 3.1546875 3.3125 3.3125 C6.2888899 4.07390207 7.11201339 4.64932372 9 7 C10.32491957 11.40242261 10.34330835 15.07306746 8.75 19.375 C6.00286533 23.49570201 6.00286533 23.49570201 4 25 C-1.1004684 25.7519118 -7.31484933 26.41876845 -11.99609375 23.9453125 C-15.37260387 20.55878306 -16.15365919 17.67161786 -16.1875 13.0625 C-16.20167969 12.18722656 -16.21585937 11.31195313 -16.23046875 10.41015625 C-16 8 -16 8 -14 5 C-14.66 4.34 -15.32 3.68 -16 3 C-15.26394531 3.03480469 -14.52789062 3.06960938 -13.76953125 3.10546875 C-6.37520524 3.42963774 -6.37520524 3.42963774 0 0 Z " fill="#EDEEE2" transform="translate(294,281)"/>
<path d="M0 0 C4.12909332 2.14101135 6.11945033 3.81709513 8 8 C6.86820313 8.13277344 5.73640625 8.26554688 4.5703125 8.40234375 C3.08851821 8.5805342 1.60674864 8.75893029 0.125 8.9375 C-0.62136719 9.02451172 -1.36773437 9.11152344 -2.13671875 9.20117188 C-6.1953231 9.63326063 -6.1953231 9.63326063 -10 11 C-10.31341426 13.55757859 -10.51228239 15.99643821 -10.625 18.5625 C-10.810625 22.2440625 -10.810625 22.2440625 -11 26 C-4.73 26 1.54 26 8 26 C5.38709677 32.53225806 5.38709677 32.53225806 1 35 C-3.32631535 35.85793033 -7.19942687 35.99262365 -11.1328125 33.82421875 C-15.63092758 30.18243938 -17.66239589 26.7754612 -18.37109375 20.94921875 C-18.51971641 13.64922346 -18.09245858 8.4863504 -13 3 C-9.12173868 -0.35417196 -4.97963473 -0.88678427 0 0 Z " fill="#88D964" transform="translate(165,238)"/>
<path d="M0 0 C1.18722656 -0.00644531 2.37445313 -0.01289063 3.59765625 -0.01953125 C4.83386719 -0.00019531 6.07007813 0.01914063 7.34375 0.0390625 C9.19806641 0.01005859 9.19806641 0.01005859 11.08984375 -0.01953125 C12.87068359 -0.00986328 12.87068359 -0.00986328 14.6875 0 C15.77224609 0.00563965 16.85699219 0.0112793 17.97460938 0.01708984 C20.84375 0.6640625 20.84375 0.6640625 23.13574219 2.93066406 C24.67082285 5.38731974 25.60576718 7.28358331 26.328125 10.0625 C26.54082031 10.87203125 26.75351562 11.6815625 26.97265625 12.515625 C27.17761719 13.34835938 27.38257813 14.18109375 27.59375 15.0390625 C27.81417969 15.8640625 28.03460938 16.6890625 28.26171875 17.5390625 C29.47752749 22.29657498 30.45579007 26.73101956 29.84375 31.6640625 C28.2746582 33.82983398 28.2746582 33.82983398 25.84375 35.6640625 C22.49975586 36.16577148 22.49975586 36.16577148 18.55859375 36.16015625 C17.86109512 36.16161148 17.1635965 36.16306671 16.44496155 36.16456604 C14.97490244 36.16291039 13.5048254 36.15138627 12.03491211 36.13061523 C9.78489685 36.10160951 7.53723197 36.1100205 5.28710938 36.12304688 C3.85675939 36.11681042 2.42641683 36.1084202 0.99609375 36.09765625 C-0.30336182 36.08790771 -1.60281738 36.07815918 -2.94165039 36.06811523 C-6.15625 35.6640625 -6.15625 35.6640625 -8.10327148 34.13696289 C-8.45075439 33.65090576 -8.7982373 33.16484863 -9.15625 32.6640625 C-8.82625 31.6740625 -8.49625 30.6840625 -8.15625 29.6640625 C-2.45234632 26.81211066 4.99709286 29.1482625 10.84375 30.6640625 C10.84375 31.3240625 10.84375 31.9840625 10.84375 32.6640625 C15.46375 32.3340625 20.08375 32.0040625 24.84375 31.6640625 C25.76884255 27.03859977 25.90341716 25.81327687 24.6640625 21.6171875 C24.39464844 20.69035156 24.12523437 19.76351562 23.84765625 18.80859375 C23.55761719 17.85339844 23.26757812 16.89820313 22.96875 15.9140625 C22.68644531 14.94339844 22.40414062 13.97273437 22.11328125 12.97265625 C21.10731973 8.48149672 21.10731973 8.48149672 18.84375 4.6640625 C17.14816274 4.56474097 15.44849253 4.53326243 13.75 4.53125 C12.72003906 4.52996094 11.69007813 4.52867187 10.62890625 4.52734375 C9.54480469 4.53121094 8.46070313 4.53507813 7.34375 4.5390625 C5.71759766 4.53326172 5.71759766 4.53326172 4.05859375 4.52734375 C3.02863281 4.52863281 1.99867188 4.52992188 0.9375 4.53125 C-0.49045898 4.53294189 -0.49045898 4.53294189 -1.94726562 4.53466797 C-4.13077138 4.41706794 -4.13077138 4.41706794 -5.15625 5.6640625 C-5.38912008 7.34590198 -5.56889166 9.0353041 -5.71875 10.7265625 C-5.84443359 12.10521484 -5.84443359 12.10521484 -5.97265625 13.51171875 C-6.03324219 14.22199219 -6.09382812 14.93226563 -6.15625 15.6640625 C-4.17625 15.6640625 -2.19625 15.6640625 -0.15625 15.6640625 C-0.15625 15.9940625 -0.15625 16.3240625 -0.15625 16.6640625 C-3.78625 16.9940625 -7.41625 17.3240625 -11.15625 17.6640625 C-11.09574923 15.76736323 -11.00682883 13.87155917 -10.90625 11.9765625 C-10.85984375 10.92082031 -10.8134375 9.86507812 -10.765625 8.77734375 C-9.50195933 2.32130825 -6.41185839 0.03333557 0 0 Z " fill="#84D85F" transform="translate(255.15625,210.3359375)"/>
<path d="M0 0 C2.1385485 2.1385485 2.42655063 3.13275314 3 6 C2.51789063 6.39832031 2.03578125 6.79664063 1.5390625 7.20703125 C0.90742188 7.73683594 0.27578125 8.26664062 -0.375 8.8125 C-1.00148437 9.33457031 -1.62796875 9.85664063 -2.2734375 10.39453125 C-4.95972362 12.89241268 -5.95836736 14.50163282 -6.265625 18.1796875 C-6.26046875 19.39914062 -6.2553125 20.61859375 -6.25 21.875 C-6.25515625 23.08929688 -6.2603125 24.30359375 -6.265625 25.5546875 C-6.01353508 28.82444211 -5.40602799 31.06519555 -4 34 C-6.375 33.8125 -6.375 33.8125 -9 33 C-10.86007925 29.72271751 -11 27.8340246 -11 24 C-12.16917969 24.05800781 -13.33835938 24.11601562 -14.54296875 24.17578125 C-16.0911058 24.22269449 -17.63928617 24.26819298 -19.1875 24.3125 C-19.95642578 24.35439453 -20.72535156 24.39628906 -21.51757812 24.43945312 C-25.77903093 24.53090061 -27.49624385 24.37392209 -31.03125 21.75 C-33.8926269 17.75315608 -33.40477817 15.77638243 -33 11 C-32.38125 11.165 -31.7625 11.33 -31.125 11.5 C-22.64446207 12.85688607 -14.20351175 12.63451393 -6.953125 7.5703125 C-4.10190967 5.20215431 -2.07101135 3.10651702 0 0 Z " fill="#89D767" transform="translate(183,272)"/>
<path d="M0 0 C0.85191422 -0.00287018 1.70382843 -0.00574036 2.58155823 -0.00869751 C4.38291081 -0.01073852 6.18428554 -0.00520608 7.9855957 0.00732422 C10.740252 0.02335802 13.49343668 0.00748744 16.24804688 -0.01171875 C17.99870115 -0.00973594 19.74935451 -0.00589147 21.5 0 C22.32302109 -0.00607269 23.14604218 -0.01214539 23.9940033 -0.0184021 C27.4182163 0.0236062 29.74276748 0.10757762 32.8293457 1.67260742 C34.6000696 3.72764719 34.84496204 4.72291743 34.92578125 7.41015625 C34.95800781 8.16748047 34.99023438 8.92480469 35.0234375 9.70507812 C35.03761719 10.49076172 35.05179688 11.27644531 35.06640625 12.0859375 C35.09605469 12.88322266 35.12570313 13.68050781 35.15625 14.50195312 C35.22684707 16.46690499 35.27390333 18.43267727 35.31640625 20.3984375 C33.99640625 20.7284375 32.67640625 21.0584375 31.31640625 21.3984375 C31.25582031 20.25503906 31.19523437 19.11164063 31.1328125 17.93359375 C31.04842197 16.44269445 30.96377323 14.95180975 30.87890625 13.4609375 C30.83958984 12.70619141 30.80027344 11.95144531 30.75976562 11.17382812 C30.87602601 7.47899563 30.87602601 7.47899563 29.31640625 4.3984375 C26.65014595 4.30988589 24.00993511 4.28319077 21.34375 4.30078125 C20.147286 4.30290367 20.147286 4.30290367 18.926651 4.30506897 C16.3690319 4.31068434 13.81149907 4.32323938 11.25390625 4.3359375 C9.5240898 4.34095052 7.79427199 4.34551377 6.06445312 4.34960938 C1.81507072 4.36065875 -2.43424687 4.37793364 -6.68359375 4.3984375 C-7.15450439 5.4797998 -7.62541504 6.56116211 -8.1105957 7.67529297 C-8.50792656 8.58769241 -8.50792656 8.58769241 -8.9132843 9.51852417 C-10.11846949 12.45973658 -10.99538749 15.47020877 -11.87109375 18.5234375 C-12.21527344 19.70164063 -12.55945313 20.87984375 -12.9140625 22.09375 C-13.59852335 25.03310978 -13.93045365 27.40320403 -13.68359375 30.3984375 C-11.70530303 32.37672822 -7.86032348 31.65347682 -5.1484375 31.71484375 C-4.01856163 31.7460154 -4.01856163 31.7460154 -2.86585999 31.77781677 C-0.45103385 31.84339175 1.96390423 31.90223371 4.37890625 31.9609375 C6.01238154 32.0041152 7.64584535 32.04772923 9.27929688 32.09179688 C13.29155089 32.19908112 17.30391789 32.30032571 21.31640625 32.3984375 C20.98640625 33.3884375 20.65640625 34.3784375 20.31640625 35.3984375 C15.54758749 35.49743885 10.77936895 35.56996678 6.00976562 35.61816406 C4.38791482 35.63825894 2.76613628 35.66554004 1.14453125 35.70019531 C-1.18898355 35.7488102 -3.52153932 35.77142639 -5.85546875 35.7890625 C-6.94006378 35.82003021 -6.94006378 35.82003021 -8.04656982 35.85162354 C-11.48788074 35.8531516 -13.35040281 35.64630751 -16.14624023 33.56640625 C-18.44578032 30.32360555 -18.11109414 28.33614747 -17.68359375 24.3984375 C-16.90783282 20.76344341 -15.9170217 17.21398856 -14.87109375 13.6484375 C-14.47954102 12.23111328 -14.47954102 12.23111328 -14.08007812 10.78515625 C-13.81904297 9.87894531 -13.55800781 8.97273437 -13.2890625 8.0390625 C-13.05340576 7.21954102 -12.81774902 6.40001953 -12.57495117 5.55566406 C-10.09803027 -0.438878 -5.84601937 -0.04302925 0 0 Z " fill="#80D85A" transform="translate(202.68359375,210.6015625)"/>
<path d="M0 0 C1.65 0.33 3.3 0.66 5 1 C4.34 1.33 3.68 1.66 3 2 C1.04254247 9.09422506 1.0699033 17.22415139 4 24 C2.68 24 1.36 24 0 24 C-0.50403768 22.70990357 -1.00309926 21.41786211 -1.5 20.125 C-1.7784375 19.40570313 -2.056875 18.68640625 -2.34375 17.9453125 C-3 16 -3 16 -3 14 C-20.82 14 -38.64 14 -57 14 C-57.33 16.31 -57.66 18.62 -58 21 C-58.66 21.99 -59.32 22.98 -60 24 C-61.32 23.67 -62.64 23.34 -64 23 C-63.505 22.21625 -63.01 21.4325 -62.5 20.625 C-60.21528032 15.10359411 -60.01654409 8.72150744 -62 3 C-62.66 2.67 -63.32 2.34 -64 2 C-62.35 1.67 -60.7 1.34 -59 1 C-56.94835763 4.46214649 -57 5.59389235 -57 10 C-39.18 10 -21.36 10 -3 10 C-2.67 8.02 -2.34 6.04 -2 4 C-0.9375 1.625 -0.9375 1.625 0 0 Z " fill="#89D965" transform="translate(272,282)"/>
<path d="M0 0 C0.886875 0.66 1.77375 1.32 2.6875 2 C8.033296 5.13678939 14.01137726 4.32419612 20 4 C19.6875 7.375 19.6875 7.375 19 11 C15.60102327 13.26598448 14.43680827 13.23742654 10.45703125 13.1953125 C8.84731445 13.18564453 8.84731445 13.18564453 7.20507812 13.17578125 C5.52575195 13.15064453 5.52575195 13.15064453 3.8125 13.125 C2.68134766 13.11597656 1.55019531 13.10695313 0.38476562 13.09765625 C-2.41036828 13.07406862 -5.20507845 13.041153 -8 13 C-8.99 10.03 -9.98 7.06 -11 4 C-7.37 4 -3.74 4 0 4 C0 2.68 0 1.36 0 0 Z " fill="#E9EBDD" transform="translate(321,280)"/>
<path d="M0 0 C2.4375 1.625 2.4375 1.625 4 4 C4.625 7.4375 4.625 7.4375 4 11 C1.4375 14 1.4375 14 -2 16 C-6.32249312 16.14905149 -8.20063519 15.67946009 -11.5 12.875 C-13.50686067 9.02851705 -13.27176524 7.11453459 -12 3 C-8.25027671 -1.41143916 -5.44353178 -1.58357288 0 0 Z " fill="#DCE2D0" transform="translate(208,259)"/>
<path d="M0 0 C4.10703441 0.85563217 5.55401113 2.24378009 8 5.625 C8.625 9.125 8.625 9.125 8 12.625 C5.55401113 16.00621991 4.10703441 17.39436783 0 18.25 C-4.10703441 17.39436783 -5.55401113 16.00621991 -8 12.625 C-8.625 9.125 -8.625 9.125 -8 5.625 C-5.55401113 2.24378009 -4.10703441 0.85563217 0 0 Z " fill="#7DCF59" transform="translate(329,257.375)"/>
<path d="M0 0 C2.2926193 1.14423676 4.13743751 1.4652682 6.66015625 1.828125 C10.27070164 2.59544025 11.04450502 2.95683224 13.72265625 5.765625 C15.42335216 9.68461993 15.82792581 11.84891781 15.16015625 16.078125 C13.39074123 19.36231598 11.54921012 22.38359806 8.16015625 24.078125 C-2.89063693 25.13345313 -2.89063693 25.13345313 -6.7734375 23.03125 C-10.05246691 19.72303042 -11.03685442 16.84631581 -11.21484375 12.328125 C-11.18313392 8.67092482 -10.90776152 6.45063659 -8.58984375 3.578125 C-3.00025985 -1.50331491 -3.00025985 -1.50331491 0 0 Z M-5.90234375 5.640625 C-8.15395746 9.63542352 -8.65914623 11.57196135 -7.83984375 16.078125 C-5.29838153 19.62076931 -3.56915469 20.85270162 0.59765625 22.140625 C4.99173214 22.06353595 6.82345622 20.85870836 10.16015625 18.078125 C11.77723583 14.84396584 11.72838001 11.57437235 11.16015625 8.078125 C9.13063077 4.93563393 7.69059994 3.44067134 4 2.56640625 C-0.54479882 2.22497729 -2.32326546 2.64588602 -5.90234375 5.640625 Z " fill="#84D75F" transform="translate(191.83984375,281.921875)"/>
<path d="M0 0 C3.8425303 0.72047443 5.45767292 1.57152696 8 4.5625 C8.81766016 8.32682223 8.40537753 11.48149326 7.0625 15.0625 C4.1382317 17.18924058 1.71535147 17.12070586 -1.8359375 16.94140625 C-4 16.5625 -4 16.5625 -6.5625 15 C-8.58925458 11.56332919 -8.6198676 9.48832814 -8 5.5625 C-5.54999553 2.17572911 -4.13607554 0.77551416 0 0 Z " fill="#DAE0CE" transform="translate(287,257.4375)"/>
<path d="M0 0 C0.33 0.99 0.66 1.98 1 3 C2.1446875 3.1546875 2.1446875 3.1546875 3.3125 3.3125 C6.2888899 4.07390207 7.11201339 4.64932372 9 7 C10.32491957 11.40242261 10.34330835 15.07306746 8.75 19.375 C6.00286533 23.49570201 6.00286533 23.49570201 4 25 C-1.1004684 25.7519118 -7.31484933 26.41876845 -11.99609375 23.9453125 C-15.37260387 20.55878306 -16.15365919 17.67161786 -16.1875 13.0625 C-16.20167969 12.18722656 -16.21585937 11.31195313 -16.23046875 10.41015625 C-16 8 -16 8 -14 5 C-14.66 4.34 -15.32 3.68 -16 3 C-13.03 3.33 -10.06 3.66 -7 4 C-7.825 4.86625 -8.65 5.7325 -9.5 6.625 C-11.5152036 9.04552783 -11.98320653 9.88004667 -12.4375 13.125 C-12.01236223 15.91876249 -11.57899473 17.6730604 -10 20 C-6.24952518 22.50031654 -4.44143734 22.53603554 0 22 C2.93052231 20.00475077 4.64521503 18.57163515 5.4453125 15.02734375 C5.63624174 11.62243903 5.2680298 9.4020447 3.375 6.5625 C0.5627594 4.71234171 -1.67260127 4.30249079 -5 4 C-3.35 2.68 -1.7 1.36 0 0 Z " fill="#84D760" transform="translate(294,281)"/>
<path d="M0 0 C3.39470755 1.15564512 4.87501175 2.06492057 6.9375 5 C7.5 7.9375 7.5 7.9375 6.9375 11 C4.45147551 14.36344489 3.02324477 15.80057749 -1.125 16.5625 C-4.0625 16 -4.0625 16 -6.4375 14.5 C-8.40938753 11.46632688 -8.70525043 9.48048199 -8.51171875 5.91015625 C-8.0625 4 -8.0625 4 -5.9375 1.4375 C-3.0625 0 -3.0625 0 0 0 Z " fill="#090808" transform="translate(358.0625,269)"/>
<path d="M0 0 C3.72890255 -0.1164862 7.45733514 -0.18734576 11.1875 -0.25 C12.77014648 -0.30027344 12.77014648 -0.30027344 14.38476562 -0.3515625 C22.12691897 -0.44925529 22.12691897 -0.44925529 26.21875 1.65625 C28.44624705 4.58716717 28.52920587 6.10934136 28.3125 9.75 C28.24482422 11.22726563 28.24482422 11.22726563 28.17578125 12.734375 C28.11777344 13.48203125 28.05976563 14.2296875 28 15 C27.443125 14.2575 26.88625 13.515 26.3125 12.75 C22.84539439 8.62695549 19.54009344 5.3567536 13.984375 4.796875 C8.5128901 4.6820886 4.87749092 5.50936634 0 8 C0 5.36 0 2.72 0 0 Z " fill="#7ED658" transform="translate(321,244)"/>
<path d="M0 0 C0.85178626 2.38500154 1.09806909 3.6665651 0.375 6.125 C-1.46740526 8.63737081 -3.05032887 9.043014 -6 10 C-12.85142527 10.71874625 -19.03851627 10.62872923 -25 7 C-25.66 5.68 -26.32 4.36 -27 3 C-18.09 3 -9.18 3 0 3 C0 2.01 0 1.02 0 0 Z " fill="#7CD157" transform="translate(266,262)"/>
<path d="M0 0 C0.66 0.33 1.32 0.66 2 1 C0.68 4.3 -0.64 7.6 -2 11 C-4.81256281 11.02684312 -7.62487241 11.04676188 -10.4375 11.0625 C-11.23994141 11.07087891 -12.04238281 11.07925781 -12.86914062 11.08789062 C-14.91295221 11.0965143 -16.95683902 11.0522815 -19 11 C-20 10 -20 10 -20.0625 6.9375 C-20.041875 5.968125 -20.02125 4.99875 -20 4 C-18.97519531 3.87882812 -17.95039063 3.75765625 -16.89453125 3.6328125 C-15.53381021 3.46389541 -14.1731355 3.2946048 -12.8125 3.125 C-12.13896484 3.04636719 -11.46542969 2.96773438 -10.77148438 2.88671875 C-6.86915634 2.39178934 -3.62472411 1.47109461 0 0 Z " fill="#EDEBE3" transform="translate(174,281)"/>
<path d="M0 0 C3 1.375 3 1.375 5 3 C5 3.66 5 4.32 5 5 C3.44539063 5.14695313 3.44539063 5.14695313 1.859375 5.296875 C0.48948259 5.4470002 -0.88030404 5.59809287 -2.25 5.75 C-2.93191406 5.811875 -3.61382812 5.87375 -4.31640625 5.9375 C-7.44180913 6.30162461 -9.76316154 6.85121687 -12.4375 8.53125 C-14.74003353 12.16925297 -14.67285699 15.52116038 -14.75 19.75 C-14.77964844 20.54277344 -14.80929688 21.33554687 -14.83984375 22.15234375 C-14.91027787 24.10102094 -14.95743482 26.05051495 -15 28 C-17 27 -17 27 -18 24 C-18.69427083 16.74982893 -18.93858734 10.5140095 -14.4140625 4.5234375 C-10.20165181 -0.01479501 -5.9754789 -0.91559757 0 0 Z " fill="#DDDDD4" transform="translate(165,238)"/>
<path d="M0 0 C4.95 0 9.9 0 15 0 C14 4 14 4 12.375 5.8125 C8.92246609 7.53876696 6.67500368 6.93545548 3 6 C1.0625 4.625 1.0625 4.625 0 3 C0 2.01 0 1.02 0 0 Z " fill="#E4E5D9" transform="translate(196,268)"/>
<path d="M0 0 C4.95 0 9.9 0 15 0 C13 5 13 5 12 6 C10.0390625 6.203125 10.0390625 6.203125 7.625 6.25 C6.43777344 6.28867187 6.43777344 6.28867187 5.2265625 6.328125 C3 6 3 6 1.2109375 4.671875 C0 3 0 3 0 0 Z " fill="#DDE9CF" transform="translate(280,268)"/>
<path d="M0 0 C7.92 0 15.84 0 24 0 C23 2 23 2 20.8125 3.109375 C17.72679514 4.08651487 15.23112976 4.26648536 12 4.25 C10.4840625 4.25773437 10.4840625 4.25773437 8.9375 4.265625 C5.8953078 3.99053315 3.71779117 3.37830838 1 2 C0.67 1.34 0.34 0.68 0 0 Z " fill="#EAE8E0" transform="translate(242,268)"/>
<path d="M0 0 C5.61 0 11.22 0 17 0 C12 5 12 5 9.39453125 5.5234375 C8.54246094 5.47445313 7.69039062 5.42546875 6.8125 5.375 C5.95269531 5.34148437 5.09289062 5.30796875 4.20703125 5.2734375 C2 5 2 5 0 4 C0 2.68 0 1.36 0 0 Z " fill="#E7E6DE" transform="translate(154,268)"/>
<path d="M0 0 C0.66 1.32 1.32 2.64 2 4 C0.22555028 6.24606427 -0.58352485 6.95081002 -3.48046875 7.29296875 C-4.82044922 7.24076172 -4.82044922 7.24076172 -6.1875 7.1875 C-7.53908203 7.14689453 -7.53908203 7.14689453 -8.91796875 7.10546875 C-9.60503906 7.07066406 -10.29210937 7.03585937 -11 7 C-8.87296567 0.78251503 -6.45381515 -0.28683623 0 0 Z " fill="#D8DDCC" transform="translate(332,258)"/>
<path d="M0 0 C3.30166782 3.20995482 6.1019433 6.37742913 9 10 C4.71 10 0.42 10 -4 10 C-2.68 6.7 -1.36 3.4 0 0 Z " fill="#79CE55" transform="translate(224,269)"/>
<path d="M0 0 C3.60401481 -0.08701039 7.20776012 -0.14039388 10.8125 -0.1875 C12.34874023 -0.22520508 12.34874023 -0.22520508 13.91601562 -0.26367188 C15.39038086 -0.27817383 15.39038086 -0.27817383 16.89453125 -0.29296875 C18.25348511 -0.31653442 18.25348511 -0.31653442 19.63989258 -0.34057617 C22 0 22 0 23.83862305 1.3815918 C25 3 25 3 24.6875 5.1875 C24.3471875 6.0846875 24.3471875 6.0846875 24 7 C23.236875 6.360625 22.47375 5.72125 21.6875 5.0625 C17.06416065 1.51435585 12.62289341 1.44235768 7 2 C4.47874397 2.78990171 2.36583739 3.79191282 0 5 C0 3.35 0 1.7 0 0 Z " fill="#C2DCB0" transform="translate(321,247)"/>
<path d="M0 0 C0.33 0 0.66 0 1 0 C1 2.31 1 4.62 1 7 C0.67 6.34 0.34 5.68 0 5 C-7.92 5.495 -7.92 5.495 -16 6 C-16 4.35 -16 2.7 -16 1 C-10.72 1.33 -5.44 1.66 0 2 C0 1.34 0 0.68 0 0 Z " fill="#73C252" transform="translate(211,263)"/>
<path d="M0 0 C0.33 0.66 0.66 1.32 1 2 C5.95 2 10.9 2 16 2 C16 2.99 16 3.98 16 5 C11.05 5 6.1 5 1 5 C0.67 5.66 0.34 6.32 0 7 C0 4.69 0 2.38 0 0 Z " fill="#7BCE57" transform="translate(279,263)"/>
<path d="M0 0 C0 5.94 0 11.88 0 18 C-2 17 -2 17 -3 14 C-3.06937062 11.77181559 -3.08457084 9.54165476 -3.0625 7.3125 C-3.05347656 6.13300781 -3.04445312 4.95351562 -3.03515625 3.73828125 C-3.02355469 2.83464844 -3.01195312 1.93101562 -3 1 C-1 0 -1 0 0 0 Z " fill="#ECEAE2" transform="translate(150,248)"/>
<path d="M0 0 C5.98993047 -0.3152595 9.63560356 0.31780178 15 3 C15 3.33 15 3.66 15 4 C10.71 4 6.42 4 2 4 C1.34 2.68 0.68 1.36 0 0 Z " fill="#D1D7C6" transform="translate(249,239)"/>
<path d="M0 0 C0.22692276 3.32820054 0.32162419 5.41801336 -1.3125 8.375 C-3 10 -3 10 -6 10 C-5.50890585 3.49300254 -5.50890585 3.49300254 -3 1.0625 C-1 0 -1 0 0 0 Z " fill="#DFE5D2" transform="translate(337,264)"/>
<path d="M0 0 C3.63 0 7.26 0 11 0 C11 0.99 11 1.98 11 3 C7.04 3 3.08 3 -1 3 C-0.67 2.01 -0.34 1.02 0 0 Z " fill="#88DB63" transform="translate(246,254)"/>
<path d="M0 0 C2.31 0 4.62 0 7 0 C7 1.98 7 3.96 7 6 C4.625 5.8125 4.625 5.8125 2 5 C0.6875 2.4375 0.6875 2.4375 0 0 Z " fill="#E5E4DB" transform="translate(321,268)"/>
<path d="M0 0 C1.70884005 1.62339805 3.37446717 3.29319053 5 5 C5 5.66 5 6.32 5 7 C3.02 7 1.04 7 -1 7 C-0.67 4.69 -0.34 2.38 0 0 Z " fill="#CDD6C1" transform="translate(224,269)"/>
<path d="M0 0 C2.31 0 4.62 0 7 0 C7.33 1.98 7.66 3.96 8 6 C6.66402348 5.19185349 5.331275 4.37836819 4 3.5625 C3.2575 3.11003906 2.515 2.65757812 1.75 2.19140625 C1.1725 1.79824219 0.595 1.40507812 0 1 C0 0.67 0 0.34 0 0 Z " fill="#E0E1D6" transform="translate(338,248)"/>
</svg>
