<?xml version="1.0" encoding="UTF-8"?>
<svg version="1.1" xmlns="http://www.w3.org/2000/svg" width="500" height="500">
<path d="M0 0 C0 1.98 0 3.96 0 6 C8.25 6 16.5 6 25 6 C25 4.35 25 2.7 25 1 C26.32 0.67 27.64 0.34 29 0 C29 1.98 29 3.96 29 6 C29.9744104 5.9685791 29.9744104 5.9685791 30.96850586 5.93652344 C33.95800833 5.85254417 36.94726158 5.801084 39.9375 5.75 C41.46987305 5.69972656 41.46987305 5.69972656 43.03320312 5.6484375 C51.27695561 5.54308603 57.44121691 6.99480539 63.8125 12.375 C69.68648363 19.42378035 71.5619057 25.77078096 73.75 34.6875 C74.22373047 36.54084961 74.22373047 36.54084961 74.70703125 38.43164062 C77 47.52906859 77 47.52906859 77 51 C79.97 51 82.94 51 86 51 C86 44.73 86 38.46 86 32 C90.29 32 94.58 32 99 32 C99 38.27 99 44.54 99 51 C100.68609375 50.94199219 102.3721875 50.88398438 104.109375 50.82421875 C106.32288902 50.77732227 108.53643293 50.731822 110.75 50.6875 C112.41675781 50.6246582 112.41675781 50.6246582 114.1171875 50.56054688 C122.2954757 50.43737988 122.2954757 50.43737988 125.75390625 53.19921875 C127.0814036 56.18296671 127.39514274 57.88963638 127.1875 61.125 C126.96236356 66.83104437 127.38572397 72.32891594 128 78 C128.99 77.34 129.98 76.68 131 76 C134.68722891 75.5190571 136.56074794 75.77082501 139.875 77.5 C142.4599138 80.54107505 142.69344392 82.20036045 142.41015625 86.09375 C142 88 142 88 140.5 90.5 C136.99458283 92.6032503 133.98466935 92.96548457 130 92 C127.2672576 89.40739824 126.18688331 87.56064994 125 84 C123.47070253 88.26018581 122.49194691 92.39989639 121.7578125 96.8515625 C120.72471444 99.78044875 119.41813032 101.05190791 117 103 C114.06738281 103.45410156 114.06738281 103.45410156 110.703125 103.390625 C109.49785156 103.37773437 108.29257812 103.36484375 107.05078125 103.3515625 C105.79652344 103.31804687 104.54226563 103.28453125 103.25 103.25 C101.98027344 103.23195313 100.71054687 103.21390625 99.40234375 103.1953125 C96.26746923 103.14817153 93.1341144 103.08237664 90 103 C89.87882813 103.62648438 89.75765625 104.25296875 89.6328125 104.8984375 C89.38144531 106.12433594 89.38144531 106.12433594 89.125 107.375 C88.88136719 108.59316406 88.88136719 108.59316406 88.6328125 109.8359375 C88 112 88 112 86 114 C84.68 114 83.36 114 82 114 C82.5961923 111.51586542 83.28676181 109.171577 84.125 106.75 C85.40707485 101.25539352 84.58039602 96.41850065 83 91 C80.525 91.495 80.525 91.495 78 92 C78.495 92.639375 78.99 93.27875 79.5 93.9375 C81.51982993 98.06131943 81.72350667 101.48404628 81 106 C78.91905127 110.08757786 77.2434261 112.31792119 73 114 C68.4411442 114.57078357 64.31126577 114.55798544 60.0625 112.75 C55.61286071 108.97454848 54.42316226 106.02855029 53.91796875 100.26171875 C54.03651888 96.99312244 55.25888706 94.71613619 57 92 C55.68 92 54.36 92 53 92 C50.64117633 96.57022086 50.38872825 100.9680818 51 106 C52.38214122 109.35161246 52.38214122 109.35161246 54 112 C54 112.66 54 113.32 54 114 C52.35 114 50.7 114 49 114 C47.22742965 110.60899585 45.93411993 107.7364797 45 104 C27.84 103.67 10.68 103.34 -7 103 C-7.66 105.64 -8.32 108.28 -9 111 C-9.66 111.99 -10.32 112.98 -11 114 C-13.625 114.1875 -13.625 114.1875 -16 114 C-15.68804687 113.32195312 -15.37609375 112.64390625 -15.0546875 111.9453125 C-12.1133123 104.91328306 -11.66630368 100.26914868 -14 93 C-15.32 93 -16.64 93 -18 93 C-17.51660156 93.85464844 -17.51660156 93.85464844 -17.0234375 94.7265625 C-15.35004196 98.44379992 -15.42501799 102.00283588 -16 106 C-18.0050088 109.8026029 -19.42686262 111.61790841 -23 114 C-28.06148852 114.583358 -33.567415 114.73777309 -38 112 C-41.82788275 108.49110748 -42.75591791 105.2286565 -43.09765625 100.2109375 C-42.94806533 96.82419915 -41.92524816 94.75952236 -40 92 C-37.3125 89.625 -37.3125 89.625 -35 88 C-35.99 87.34 -36.98 86.68 -38 86 C-42.53778675 89.06607213 -44.37172175 91.77236982 -46 97 C-46.74648852 102.86964946 -46.02938947 106.82479298 -43 112 C-43 112.66 -43 113.32 -43 114 C-44.65 114 -46.3 114 -48 114 C-49.73565302 110.6796203 -51.18174726 107.65433265 -52 104 C-53.18078125 103.97421875 -54.3615625 103.9484375 -55.578125 103.921875 C-57.13545323 103.86558603 -58.69274347 103.80823886 -60.25 103.75 C-61.02730469 103.73582031 -61.80460937 103.72164063 -62.60546875 103.70703125 C-66.31060293 103.54869218 -68.42597721 103.39685526 -71.53125 101.25 C-73.23454572 98.64069591 -73.43118338 97.33011749 -73.25 94.25 C-73.21390625 93.45078125 -73.1778125 92.6515625 -73.140625 91.828125 C-73.09421875 91.22484375 -73.0478125 90.6215625 -73 90 C-73.845625 89.814375 -74.69125 89.62875 -75.5625 89.4375 C-81.79749697 86.83013763 -85.59488098 82.41667438 -88.375 76.3125 C-91.87340677 67.74900864 -92.0732711 59.25540893 -89.09765625 50.453125 C-85.55778784 42.54196 -80.05295146 37.18703379 -72 34 C-63.7143362 31.98666113 -56.86870427 32.87484086 -49 36 C-48.91363281 35.32195312 -48.82726562 34.64390625 -48.73828125 33.9453125 C-47.31355791 24.50815423 -44.58880441 16.54219012 -37.13671875 10.25390625 C-29.74249396 5.91469938 -23.40050349 5.60748145 -15 5.8125 C-13.93910156 5.82603516 -12.87820312 5.83957031 -11.78515625 5.85351562 C-9.18956313 5.88859121 -6.59505933 5.93774156 -4 6 C-4 4.35 -4 2.7 -4 1 C-1 0 -1 0 0 0 Z M-38.94921875 17.7265625 C-41.51320506 21.81917303 -42.67885192 25.71403378 -43.8125 30.375 C-44.02841797 31.20644531 -44.24433594 32.03789062 -44.46679688 32.89453125 C-44.99218638 34.92603735 -45.49811484 36.96255983 -46 39 C-44.68 39.99 -43.36 40.98 -42 42 C-43.7965512 46.24639375 -46.81623183 50.90811592 -51 53 C-54.40831877 53.43705812 -57.81564859 53.8184437 -61.234375 54.16210938 C-65.57207363 54.52939922 -65.57207363 54.52939922 -69 57 C-69.24377883 60.35744112 -69.24377883 60.35744112 -69.125 64.125 C-69.08375 66.39375 -69.0425 68.6625 -69 71 C-63.06 71 -57.12 71 -51 71 C-51 70.67 -51 70.34 -51 70 C-54.96 70 -58.92 70 -63 70 C-63 66.37 -63 62.74 -63 59 C-50.13 59.495 -50.13 59.495 -37 60 C-36.67 60.66 -36.34 61.32 -36 62 C-34.88625 61.071875 -34.88625 61.071875 -33.75 60.125 C-28.36920327 55.96711162 -23.23844876 54.53551246 -16.43359375 55.28125 C-10.6251658 56.32001506 -6.25445666 57.74554334 -2 62 C-1.67 59.03 -1.34 56.06 -1 53 C-2.01425049 52.9906543 -3.02850098 52.98130859 -4.07348633 52.97167969 C-7.83662842 52.93180638 -11.5989506 52.86605658 -15.36157227 52.79248047 C-16.99004585 52.76425511 -18.61865683 52.74304828 -20.24731445 52.72900391 C-22.58876971 52.70759468 -24.92857045 52.66096036 -27.26953125 52.609375 C-27.99775589 52.60814636 -28.72598053 52.60691772 -29.47627258 52.60565186 C-32.72061032 52.51163883 -34.54482176 52.41438686 -36.99145508 50.18701172 C-39.75815344 44.18747556 -35.92475581 35.60370102 -34.125 29.625 C-33.86847656 28.72394531 -33.61195313 27.82289063 -33.34765625 26.89453125 C-33.09113281 26.03472656 -32.83460938 25.17492187 -32.5703125 24.2890625 C-32.34102051 23.51256348 -32.11172852 22.73606445 -31.87548828 21.93603516 C-31 20 -31 20 -28 18 C-25.21704171 17.8039519 -22.53665793 17.71995558 -19.75390625 17.734375 C-18.94638412 17.73246155 -18.138862 17.7305481 -17.30686951 17.72857666 C-15.59967741 17.72721624 -13.89247493 17.73090271 -12.18530273 17.73925781 C-9.57577171 17.74994564 -6.96693128 17.73936507 -4.35742188 17.7265625 C-2.69791515 17.72788439 -1.03840885 17.7304474 0.62109375 17.734375 C1.40036728 17.73032654 2.17964081 17.72627808 2.98252869 17.72210693 C10.21210894 17.78447513 10.21210894 17.78447513 13 20 C13.62835477 22.80388496 14.0148322 25.28828843 14.25 28.125 C14.36601562 29.25615234 14.36601562 29.25615234 14.484375 30.41015625 C14.67289859 32.27182671 14.83863238 34.13577938 15 36 C17.31 35.34 19.62 34.68 22 34 C22.02578125 33.18015625 22.0515625 32.3603125 22.078125 31.515625 C22.16320312 29.89914063 22.16320312 29.89914063 22.25 28.25 C22.29640625 27.18265625 22.3428125 26.1153125 22.390625 25.015625 C23.13378513 21.33793513 24.09081098 20.31387708 27 18 C29.68554688 17.48242188 29.68554688 17.48242188 32.71875 17.46875 C34.36423828 17.46101563 34.36423828 17.46101563 36.04296875 17.453125 C37.18378906 17.46859375 38.32460938 17.4840625 39.5 17.5 C41.21123047 17.47679687 41.21123047 17.47679687 42.95703125 17.453125 C44.05402344 17.45828125 45.15101563 17.4634375 46.28125 17.46875 C47.78268555 17.47551758 47.78268555 17.47551758 49.31445312 17.48242188 C52.76660678 18.14774603 53.88061961 19.22822983 56 22 C57.02075195 24.4543457 57.02075195 24.4543457 57.73828125 27.17578125 C58.00060547 28.16900391 58.26292969 29.16222656 58.53320312 30.18554688 C58.91895508 31.73338867 58.91895508 31.73338867 59.3125 33.3125 C59.58900391 34.33279297 59.86550781 35.35308594 60.15039062 36.40429688 C61.70882242 42.4770777 61.93692593 45.44151847 61 52 C48.79 52 36.58 52 24 52 C23.01 50.02 23.01 50.02 22 48 C20.86800647 48.9080162 19.74467637 49.82683826 18.625 50.75 C17.99851562 51.26046875 17.37203125 51.7709375 16.7265625 52.296875 C14.15326596 54.83523991 13.12115821 56.87215957 12.734375 60.47265625 C12.74210937 61.75462891 12.74210937 61.75462891 12.75 63.0625 C12.74484375 63.91972656 12.7396875 64.77695312 12.734375 65.66015625 C12.85007512 68.27052798 12.85007512 68.27052798 15 71 C17.91064379 71.41789089 17.91064379 71.41789089 21.3203125 71.29296875 C22.57714844 71.28330078 23.83398438 71.27363281 25.12890625 71.26367188 C26.44761719 71.23853516 27.76632813 71.21339844 29.125 71.1875 C30.46482903 71.17245483 31.80467404 71.15876613 33.14453125 71.14648438 C36.43008842 71.11102872 39.71484582 71.06160849 43 71 C43.26337158 70.38439209 43.52674316 69.76878418 43.7980957 69.13452148 C44.14960693 68.32571533 44.50111816 67.51690918 44.86328125 66.68359375 C45.20915283 65.88236084 45.55502441 65.08112793 45.91137695 64.25561523 C47.79913087 60.34420944 49.95072 57.81657134 54.0390625 56.1875 C60.79843267 54.3292539 65.46371547 55.82123849 72 58 C72 57.34 72 56.68 72 56 C72.99 55.67 73.98 55.34 75 55 C74.81099121 54.472854 74.62198242 53.94570801 74.42724609 53.40258789 C72.07082039 46.61770697 70.50968982 39.75815062 69.0703125 32.72851562 C67.09976712 23.86754349 63.53199724 17.2262838 56 12 C51.39881898 10.11799639 47.45319549 9.73392861 42.50097656 9.69360352 C41.41184967 9.68111824 41.41184967 9.68111824 40.30072021 9.66838074 C37.91396629 9.64439975 35.52748641 9.6355226 33.140625 9.62890625 C31.46921716 9.61992963 29.7978101 9.61080761 28.12640381 9.60154724 C24.6262416 9.58508612 21.1261747 9.57736261 17.62597656 9.57446289 C13.16291262 9.56908742 8.7007573 9.53143019 4.23794937 9.48571873 C0.78559176 9.45582525 -2.66655046 9.44873666 -6.11902618 9.44773674 C-7.76312666 9.44355742 -9.40722916 9.43121604 -11.05120087 9.41021919 C-21.55211441 9.28679209 -31.2003222 9.6528088 -38.94921875 17.7265625 Z M-27.8762207 22.26928711 C-29.11740677 24.18081612 -29.77885047 25.82286464 -30.38671875 28.01953125 C-30.60263672 28.79490234 -30.81855469 29.57027344 -31.04101562 30.36914062 C-31.25435547 31.17544922 -31.46769531 31.98175781 -31.6875 32.8125 C-31.91244141 33.60720703 -32.13738281 34.40191406 -32.36914062 35.22070312 C-33.55071011 39.56270164 -34.37791566 43.45788159 -34 48 C-31.25682147 50.74317853 -22.2040907 49.45791278 -18.35546875 49.51489258 C-16.71217103 49.54643225 -15.06909745 49.59408354 -13.42675781 49.65844727 C-3.95871332 50.32928243 -3.95871332 50.32928243 4.64355469 47.21435547 C6.38687154 45.21938454 7.73127602 43.31794447 9 41 C9.495 40.505 9.495 40.505 10 40 C10.08631874 38.65732587 10.10706473 37.31025678 10.09765625 35.96484375 C10.09443359 35.15595703 10.09121094 34.34707031 10.08789062 33.51367188 C10.07951172 32.66353516 10.07113281 31.81339844 10.0625 30.9375 C10.05798828 30.08349609 10.05347656 29.22949219 10.04882812 28.34960938 C10.03700373 26.23304337 10.01906769 24.11651315 10 22 C6.47574267 20.82524756 3.26283054 20.81924874 -0.40625 20.796875 C-1.12735962 20.79117493 -1.84846924 20.78547485 -2.59143066 20.77960205 C-4.11448708 20.7701669 -5.63756378 20.76362397 -7.16064453 20.75976562 C-9.49157056 20.75003519 -11.82162365 20.71898957 -14.15234375 20.6875 C-15.63280727 20.68097196 -17.11327708 20.67572071 -18.59375 20.671875 C-19.2906897 20.6595282 -19.98762939 20.6471814 -20.70568848 20.63446045 C-23.51954346 20.64743675 -25.50645587 20.66611113 -27.8762207 22.26928711 Z M26 24 C25.63853543 26.28330101 25.63853543 26.28330101 25.8125 28.6875 C25.83957031 29.49574219 25.86664063 30.30398437 25.89453125 31.13671875 C25.92933594 31.75160156 25.96414062 32.36648437 26 33 C27.08539063 33.19335938 28.17078125 33.38671875 29.2890625 33.5859375 C30.73441668 33.84872917 32.17972688 34.11176286 33.625 34.375 C34.33785156 34.50132812 35.05070312 34.62765625 35.78515625 34.7578125 C39.99905953 35.53100576 43.95880171 36.53395015 48 38 C47.6390625 38.71027344 47.278125 39.42054688 46.90625 40.15234375 C46.21015625 41.53099609 46.21015625 41.53099609 45.5 42.9375 C44.80390625 44.31228516 44.80390625 44.31228516 44.09375 45.71484375 C42.92804529 47.72809692 42.92804529 47.72809692 43 49 C45.31243792 49.02685412 47.6249627 49.04632841 49.9375 49.0625 C51.22527344 49.07410156 52.51304687 49.08570313 53.83984375 49.09765625 C56.86298403 49.36532549 56.86298403 49.36532549 58 48 C57.77606756 41.72989163 56.2920514 35.99644611 54.5625 30 C54.23644775 28.85047852 54.23644775 28.85047852 53.90380859 27.67773438 C53.33297697 25.76495524 52.67323408 23.87918297 52 22 C48.23845432 20.11922716 43.70176726 20.77197355 39.5625 20.75 C38.59505859 20.729375 37.62761719 20.70875 36.63085938 20.6875 C35.70208984 20.68234375 34.77332031 20.6771875 33.81640625 20.671875 C32.96506104 20.6625293 32.11371582 20.65318359 31.23657227 20.64355469 C28.51349653 21.07753466 27.63811376 21.81880521 26 24 Z M-72 50 C-76.07057162 55.48642262 -76.98050336 61.2960933 -76 68 C-75.05185629 70.23218627 -75.05185629 70.23218627 -74 72 C-73.67 72 -73.34 72 -73 72 C-72.96261719 70.80761719 -72.92523438 69.61523438 -72.88671875 68.38671875 C-72.82105968 66.820281 -72.75461232 65.25387616 -72.6875 63.6875 C-72.66494141 62.90181641 -72.64238281 62.11613281 -72.61914062 61.30664062 C-72.5659668 60.1706543 -72.5659668 60.1706543 -72.51171875 59.01171875 C-72.48553467 58.31522217 -72.45935059 57.61872559 -72.43237305 56.90112305 C-71.87154021 54.43516861 -70.98676731 53.53344206 -69 52 C-65.64453125 51.26953125 -65.64453125 51.26953125 -61.8125 50.8125 C-60.54019531 50.65394531 -59.26789063 50.49539062 -57.95703125 50.33203125 C-56.98121094 50.22246094 -56.00539063 50.11289063 -55 50 C-55 49.01 -55 48.02 -55 47 C-61.67943859 44.77352047 -66.74605628 45.22368752 -72 50 Z M27 47 C27.33 47.66 27.66 48.32 28 49 C31.63 49 35.26 49 39 49 C35.79619983 46.86413322 34.98060033 46.76867825 31.3125 46.875 C30.50425781 46.89304688 29.69601563 46.91109375 28.86328125 46.9296875 C28.24839844 46.95289063 27.63351563 46.97609375 27 47 Z M80 55 C80 55.33 80 55.66 80 56 C81.65 56 83.3 56 85 56 C85 60.95 85 65.9 85 71 C85.33 71 85.66 71 86 71 C86 65.72 86 60.44 86 55 C84.02 55 82.04 55 80 55 Z M99 55 C99.33 55.99 99.66 56.98 100 58 C100.99 57.01 101.98 56.02 103 55 C101.68 55 100.36 55 99 55 Z M116 55 C119.32086771 57.77000825 119.32086771 57.77000825 123 60 C122.50243908 57.24358584 122.50243908 57.24358584 121 55 C119.33382885 54.95936168 117.66611905 54.957279 116 55 Z M-27 71 C-22.05 71 -17.1 71 -12 71 C-15.31960121 65.72488919 -15.31960121 65.72488919 -19.5 65.375 C-23.68039879 65.72488919 -23.68039879 65.72488919 -27 71 Z M58.5625 67.9375 C56.89935705 69.70159366 56.89935705 69.70159366 57 71 C61.62 71 66.24 71 71 71 C69.42163702 67.31622777 69.42163702 67.31622777 68 66 C62.8817603 65.48246393 62.8817603 65.48246393 58.5625 67.9375 Z M99 69 C99 69.66 99 70.32 99 71 C102.03336186 71.22893297 104.97465051 71.36475845 108 71 C110.12355567 69.17728073 110.12355567 69.17728073 111 67 C109.84354174 65.62624631 109.84354174 65.62624631 106.6875 65.75 C102.91619093 66.00568197 101.57543228 66.32155043 99 69 Z M110.375 73.1875 C108.57850533 75.55560662 108.76478155 77.09897251 109 80 C111.04836882 79.43637698 111.04836882 79.43637698 113 78 C113.81584568 74.94091587 113.81584568 74.94091587 114 72 C111.93368783 71.8033278 111.93368783 71.8033278 110.375 73.1875 Z M-69 75 C-69 75.99 -69 76.98 -69 78 C-64.67437961 80.2283499 -61.69542622 80.1951994 -57 79 C-55.68 77.68 -54.36 76.36 -53 75 C-58.28 75 -63.56 75 -69 75 Z M-27 75 C-24.94960518 79.32062112 -24.94960518 79.32062112 -21 81 C-18.5 81.5 -18.5 81.5 -16 81 C-13.64477775 79.2287382 -13.64477775 79.2287382 -12 77 C-12 76.34 -12 75.68 -12 75 C-16.95 75 -21.9 75 -27 75 Z M20 75 C23.49148236 78.49148236 24.77922386 78.91580854 29.625 79.25 C34.4224788 79.21433101 38.5680903 77.72352044 43 76 C43 75.67 43 75.34 43 75 C35.41 75 27.82 75 20 75 Z M57 75 C57.66 76.65 58.32 78.3 59 80 C60.79260132 79.94004678 62.58425795 79.8512759 64.375 79.75 C65.37273437 79.70359375 66.37046875 79.6571875 67.3984375 79.609375 C68.25695312 79.40828125 69.11546875 79.2071875 70 79 C70.66 77.68 71.32 76.36 72 75 C67.05 75 62.1 75 57 75 Z M85 75 C85 77.31 85 79.62 85 82 C85.33 82 85.66 82 86 82 C86 79.69 86 77.38 86 75 C85.67 75 85.34 75 85 75 Z M99 75 C99.11306697 76.95894361 99.11306697 76.95894361 100 79 C102.49034386 80.29660434 102.49034386 80.29660434 105 81 C105 79.35 105 77.7 105 76 C102.02425724 75.29733387 102.02425724 75.29733387 99 75 Z M1 78 C0.67 79.32 0.34 80.64 0 82 C1.65 82 3.3 82 5 82 C4.34 80.68 3.68 79.36 3 78 C2.34 78 1.68 78 1 78 Z M-9 90 C-8.51515724 94.64586892 -8.51515724 94.64586892 -7 99 C10.49 99 27.98 99 46 99 C47.485 93.555 47.485 93.555 49 88 C45.8730355 87.78363447 45.8730355 87.78363447 42.875 89.5 C35.43405028 92.38526622 25.59167106 92.31359662 17.96875 90.1328125 C15.87351826 89.20084254 13.94561832 88.20812709 12 87 C5.36488153 83.68244077 -3.66718002 85.12427887 -9 90 Z M85 86 C86 88 86 88 86 88 Z M99 89 C99 89.66 99 90.32 99 91 C95.37 91 91.74 91 88 91 C88.66 93.64 89.32 96.28 90 99 C94.10379698 99.14489234 98.20693967 99.23393542 102.3125 99.3125 C104.06336914 99.3753418 104.06336914 99.3753418 105.84960938 99.43945312 C106.96787109 99.45556641 108.08613281 99.47167969 109.23828125 99.48828125 C110.26993408 99.51446533 111.30158691 99.54064941 112.36450195 99.56762695 C115.20804757 99.246927 115.20804757 99.246927 116.86010742 96.65698242 C118.19713289 94.02236478 118.19713289 94.02236478 118 91 C116.57107422 91.03480469 116.57107422 91.03480469 115.11328125 91.0703125 C113.85902344 91.08835937 112.60476563 91.10640625 111.3125 91.125 C109.45044922 91.15980469 109.45044922 91.15980469 107.55078125 91.1953125 C104.18762143 91.01032021 102.0014413 90.45767895 99 89 Z M-52.16796875 89.9609375 C-55.60523831 91.22205985 -58.66233232 91.4203177 -62.3125 91.625 C-63.56675781 91.69976562 -64.82101563 91.77453125 -66.11328125 91.8515625 C-67.06589844 91.90054688 -68.01851562 91.94953125 -69 92 C-69.16687448 94.41645782 -69.16687448 94.41645782 -69 97 C-67.03464283 99.41122368 -67.03464283 99.41122368 -63.3046875 99.1953125 C-61.82799892 99.182009 -60.35137642 99.15814835 -58.875 99.125 C-57.74384766 99.11146484 -57.74384766 99.11146484 -56.58984375 99.09765625 C-54.72642746 99.0740687 -52.86317407 99.03819719 -51 99 C-50.01 95.7 -49.02 92.4 -48 89 C-50.09049208 88.86492625 -50.09049208 88.86492625 -52.16796875 89.9609375 Z M-35.875 94.1875 C-38.0644789 97.08533973 -39 98.39503935 -39 102 C-37.45641562 105.93614016 -36.55160136 107.63226576 -33 110 C-28.93171082 110.52766328 -28.93171082 110.52766328 -25 110 C-21.70579213 107.11756811 -20.23115592 105.25851556 -19.4375 100.9375 C-20.12979361 97.32218892 -21.45591033 95.61891584 -24 93 C-28.40050262 90.79974869 -32.04131728 91.27056749 -35.875 94.1875 Z M59 97 C58.07795162 100.78564577 58.44543495 103.97009349 60.3125 107.4375 C62.81601407 109.75556859 65.02982139 110.00386574 68.375 110.4375 C72.19808065 110.32682473 72.19808065 110.32682473 74.9375 107.375 C77.18591175 103.69578077 77.80478766 102.20277998 77 98 C75.20006226 95.30009338 73.916227 93.4581135 71 92 C65.37502902 91.2329585 62.70711002 92.76330283 59 97 Z " fill="#F0F0E6" transform="translate(223,193)"/>
<path d="M0 0 C0.72703125 0.68255859 0.72703125 0.68255859 1.46875 1.37890625 C1.46875 5.91344012 1.01490565 6.38890428 -1.90625 9.56640625 C-2.53273437 10.26121094 -3.15921875 10.95601562 -3.8046875 11.671875 C-7.60255656 15.42678174 -12.79872283 15.06968976 -17.85351562 15.62890625 C-21.49879441 15.74889397 -21.49879441 15.74889397 -24.53125 17.37890625 C-24.76652773 19.72877887 -24.94511417 22.08446664 -25.09375 24.44140625 C-25.17753906 25.73175781 -25.26132813 27.02210938 -25.34765625 28.3515625 C-25.43853516 29.85009766 -25.43853516 29.85009766 -25.53125 31.37890625 C-22.56125 30.88390625 -22.56125 30.88390625 -19.53125 30.37890625 C-19.53125 26.74890625 -19.53125 23.11890625 -19.53125 19.37890625 C-15.05209672 19.35004287 -10.57296709 19.33215438 -6.09375 19.31640625 C-4.81435547 19.30802734 -3.53496094 19.29964844 -2.21679688 19.29101562 C-0.39438477 19.28618164 -0.39438477 19.28618164 1.46484375 19.28125 C2.59075928 19.27601318 3.7166748 19.27077637 4.87670898 19.26538086 C7.46875 19.37890625 7.46875 19.37890625 8.46875 20.37890625 C8.9534375 20.02957031 9.438125 19.68023437 9.9375 19.3203125 C16.65352899 14.76116205 21.93740033 13.76578584 29.84375 15.25390625 C32.26266776 15.78561882 34.25422116 16.27164183 36.46875 17.37890625 C36.13875 18.69890625 35.80875 20.01890625 35.46875 21.37890625 C31.71875 22.50390625 31.71875 22.50390625 29.46875 21.37890625 C29.46875 22.03890625 29.46875 22.69890625 29.46875 23.37890625 C26.96513331 26.91342393 23.47421302 27.28650724 19.46875 28.37890625 C17.07310072 30.32857904 17.07310072 30.32857904 17.28125 33.94140625 C17.07587194 37.2085432 17.07587194 37.2085432 18.46875 38.37890625 C18.50967937 40.71188058 18.51116723 43.0459585 18.46875 45.37890625 C17.14875 45.37890625 15.82875 45.37890625 14.46875 45.37890625 C14.46875 44.71890625 14.46875 44.05890625 14.46875 43.37890625 C11.19920798 43.94262039 9.64299117 44.87852891 7.46875 47.37890625 C6.47875 46.88390625 6.47875 46.88390625 5.46875 46.37890625 C0.93096325 49.44497838 -0.90297175 52.15127607 -2.53125 57.37890625 C-3.27773852 63.24855571 -2.56063947 67.20369923 0.46875 72.37890625 C0.46875 73.03890625 0.46875 73.69890625 0.46875 74.37890625 C-1.18125 74.37890625 -2.83125 74.37890625 -4.53125 74.37890625 C-6.26690302 71.05852655 -7.71299726 68.0332389 -8.53125 64.37890625 C-9.71203125 64.353125 -10.8928125 64.32734375 -12.109375 64.30078125 C-13.66670323 64.24449228 -15.22399347 64.18714511 -16.78125 64.12890625 C-17.55855469 64.11472656 -18.33585937 64.10054688 -19.13671875 64.0859375 C-22.84185293 63.92759843 -24.95722721 63.77576151 -28.0625 61.62890625 C-29.76579572 59.01960216 -29.96243338 57.70902374 -29.78125 54.62890625 C-29.74515625 53.8296875 -29.7090625 53.03046875 -29.671875 52.20703125 C-29.60226563 51.30210937 -29.60226563 51.30210937 -29.53125 50.37890625 C-30.376875 50.19328125 -31.2225 50.00765625 -32.09375 49.81640625 C-38.32874697 47.20904388 -42.12613098 42.79558063 -44.90625 36.69140625 C-48.40465677 28.12791489 -48.6045211 19.63431518 -45.62890625 10.83203125 C-42.08903784 2.92086625 -36.58420146 -2.43405996 -28.53125 -5.62109375 C-17.46981006 -8.31311346 -9.55417639 -5.56714509 0 0 Z M-28.53125 10.37890625 C-32.60182162 15.86532887 -33.51175336 21.67499955 -32.53125 28.37890625 C-31.58310629 30.61109252 -31.58310629 30.61109252 -30.53125 32.37890625 C-30.20125 32.37890625 -29.87125 32.37890625 -29.53125 32.37890625 C-29.49386719 31.18652344 -29.45648438 29.99414062 -29.41796875 28.765625 C-29.35230968 27.19918725 -29.28586232 25.63278241 -29.21875 24.06640625 C-29.19619141 23.28072266 -29.17363281 22.49503906 -29.15039062 21.68554688 C-29.0972168 20.54956055 -29.0972168 20.54956055 -29.04296875 19.390625 C-29.01678467 18.69412842 -28.99060059 17.99763184 -28.96362305 17.2800293 C-28.40279021 14.81407486 -27.51801731 13.91234831 -25.53125 12.37890625 C-22.17578125 11.6484375 -22.17578125 11.6484375 -18.34375 11.19140625 C-17.07144531 11.03285156 -15.79914063 10.87429687 -14.48828125 10.7109375 C-13.51246094 10.60136719 -12.53664063 10.49179688 -11.53125 10.37890625 C-11.53125 9.38890625 -11.53125 8.39890625 -11.53125 7.37890625 C-18.21068859 5.15242672 -23.27730628 5.60259377 -28.53125 10.37890625 Z M-25.53125 35.37890625 C-25.53125 36.36890625 -25.53125 37.35890625 -25.53125 38.37890625 C-21.20562961 40.60725615 -18.22667622 40.57410565 -13.53125 39.37890625 C-12.21125 38.05890625 -10.89125 36.73890625 -9.53125 35.37890625 C-14.81125 35.37890625 -20.09125 35.37890625 -25.53125 35.37890625 Z M-8.69921875 50.33984375 C-12.13648831 51.6009661 -15.19358232 51.79922395 -18.84375 52.00390625 C-20.09800781 52.07867187 -21.35226563 52.1534375 -22.64453125 52.23046875 C-23.59714844 52.27945313 -24.54976562 52.3284375 -25.53125 52.37890625 C-25.69812448 54.79536407 -25.69812448 54.79536407 -25.53125 57.37890625 C-23.56589283 59.79012993 -23.56589283 59.79012993 -19.8359375 59.57421875 C-18.35924892 59.56091525 -16.88262642 59.5370546 -15.40625 59.50390625 C-14.27509766 59.49037109 -14.27509766 59.49037109 -13.12109375 59.4765625 C-11.25767746 59.45297495 -9.39442407 59.41710344 -7.53125 59.37890625 C-6.54125 56.07890625 -5.55125 52.77890625 -4.53125 49.37890625 C-6.62174208 49.2438325 -6.62174208 49.2438325 -8.69921875 50.33984375 Z " fill="#F1F0E8" transform="translate(179.53125,232.62109375)"/>
<path d="M0 0 C4.29 0 8.58 0 13 0 C13 6.27 13 12.54 13 19 C15.52914063 18.91298828 15.52914063 18.91298828 18.109375 18.82421875 C20.32288902 18.77732227 22.53643293 18.731822 24.75 18.6875 C25.86117188 18.64560547 26.97234375 18.60371094 28.1171875 18.56054688 C36.2954757 18.43737988 36.2954757 18.43737988 39.75390625 21.19921875 C41.0814036 24.18296671 41.39514274 25.88963638 41.1875 29.125 C40.96236356 34.83104437 41.38572397 40.32891594 42 46 C42.99 45.34 43.98 44.68 45 44 C48.68722891 43.5190571 50.56074794 43.77082501 53.875 45.5 C56.4599138 48.54107505 56.69344392 50.20036045 56.41015625 54.09375 C56 56 56 56 54.5 58.5 C50.99458283 60.6032503 47.98466935 60.96548457 44 60 C41.2672576 57.40739824 40.18688331 55.56064994 39 52 C38.2575 52.763125 37.515 53.52625 36.75 54.3125 C31.06836987 59.86500218 31.06836987 59.86500218 27.125 60.36328125 C26.09375 60.34652344 25.0625 60.32976562 24 60.3125 C22.96875 60.30863281 21.9375 60.30476563 20.875 60.30078125 C18.07366814 60.00770713 16.38829797 59.44101632 14 58 C13.67 58.33 13.34 58.66 13 59 C10.81360547 59.07258946 8.62499611 59.08373783 6.4375 59.0625 C4.64119141 59.04896484 4.64119141 59.04896484 2.80859375 59.03515625 C1.88175781 59.02355469 0.95492188 59.01195312 0 59 C0 56.36 0 53.72 0 51 C0.66 51 1.32 51 2 51 C1.34 50.34 0.68 49.68 0 49 C-0.56520003 46.34462628 -0.73788198 43.70855287 -1 41 C-1.99 41.495 -1.99 41.495 -3 42 C-3 41.01 -3 40.02 -3 39 C-2.01 39 -1.02 39 0 39 C0 26.13 0 13.26 0 0 Z M13 23 C13.33 23.99 13.66 24.98 14 26 C14.99 25.01 15.98 24.02 17 23 C15.68 23 14.36 23 13 23 Z M30 23 C33.32086771 25.77000825 33.32086771 25.77000825 37 28 C36.50243908 25.24358584 36.50243908 25.24358584 35 23 C33.33382885 22.95936168 31.66611905 22.957279 30 23 Z M13 37 C13 37.66 13 38.32 13 39 C16.03336186 39.22893297 18.97465051 39.36475845 22 39 C24.12355567 37.17728073 24.12355567 37.17728073 25 35 C23.84354174 33.62624631 23.84354174 33.62624631 20.6875 33.75 C16.91619093 34.00568197 15.57543228 34.32155043 13 37 Z M24.375 41.1875 C22.57850533 43.55560662 22.76478155 45.09897251 23 48 C25.04836882 47.43637698 25.04836882 47.43637698 27 46 C27.81584568 42.94091587 27.81584568 42.94091587 28 40 C25.93368783 39.8033278 25.93368783 39.8033278 24.375 41.1875 Z M13 43 C13.11306697 44.95894361 13.11306697 44.95894361 14 47 C16.49034386 48.29660434 16.49034386 48.29660434 19 49 C19 47.35 19 45.7 19 44 C16.02425724 43.29733387 16.02425724 43.29733387 13 43 Z " fill="#F2F0E8" transform="translate(309,225)"/>
<path d="M0 0 C0 1.98 0 3.96 0 6 C8.25 6 16.5 6 25 6 C25 4.35 25 2.7 25 1 C26.32 0.67 27.64 0.34 29 0 C29 1.98 29 3.96 29 6 C29.9744104 5.9685791 29.9744104 5.9685791 30.96850586 5.93652344 C33.95800833 5.85254417 36.94726158 5.801084 39.9375 5.75 C40.95908203 5.71648437 41.98066406 5.68296875 43.03320312 5.6484375 C51.27695561 5.54308603 57.44121691 6.99480539 63.8125 12.375 C69.68648363 19.42378035 71.5619057 25.77078096 73.75 34.6875 C74.06582031 35.92306641 74.38164062 37.15863281 74.70703125 38.43164062 C77 47.52906859 77 47.52906859 77 51 C79.97 51 82.94 51 86 51 C86 52.32 86 53.64 86 55 C84.20991533 55.22151549 82.41781838 55.42682213 80.625 55.625 C79.62726563 55.74101562 78.62953125 55.85703125 77.6015625 55.9765625 C76.31378906 55.98816406 76.31378906 55.98816406 75 56 C72.37661912 53.37661912 72.23621579 51.35959474 71.44921875 47.7421875 C71.01899414 45.84339844 71.01899414 45.84339844 70.58007812 43.90625 C70.13340291 41.89999277 69.69137662 39.8929748 69.25805664 37.88378906 C67.27701582 28.76625491 65.35837676 21.24662351 58.5625 14.625 C53.36461729 11.3287817 48.58032944 10.74310667 42.50097656 10.69360352 C41.41184967 10.68111824 41.41184967 10.68111824 40.30072021 10.66838074 C37.91396629 10.64439975 35.52748641 10.6355226 33.140625 10.62890625 C31.46921716 10.61992963 29.7978101 10.61080761 28.12640381 10.60154724 C24.6262416 10.58508612 21.1261747 10.57736261 17.62597656 10.57446289 C13.16291262 10.56908742 8.7007573 10.53143019 4.23794937 10.48571873 C0.78559176 10.45582525 -2.66655046 10.44873666 -6.11902618 10.44773674 C-7.76312666 10.44355742 -9.40722916 10.43121604 -11.05120087 10.41021919 C-21.56924497 10.28659073 -30.33601499 10.77795012 -38.453125 18.26171875 C-40.54748286 21.96915527 -41.65736932 25.71341696 -42.75 29.8125 C-43.08064453 30.99489258 -43.08064453 30.99489258 -43.41796875 32.20117188 C-43.95602599 34.13115979 -44.47950317 36.06520234 -45 38 C-46.65 37.67 -48.3 37.34 -50 37 C-45.08746923 15.922773 -45.08746923 15.922773 -35 9 C-28.2200145 5.80580525 -22.42393966 5.63131499 -15 5.8125 C-13.93910156 5.82603516 -12.87820312 5.83957031 -11.78515625 5.85351562 C-9.18956313 5.88859121 -6.59505933 5.93774156 -4 6 C-4 4.35 -4 2.7 -4 1 C-1 0 -1 0 0 0 Z " fill="#85CE64" transform="translate(223,193)"/>
<path d="M0 0 C2.12404458 0.63200018 2.12404458 0.63200018 4.98046875 0.5078125 C9.31380208 0.5078125 13.64713542 0.5078125 17.98046875 0.5078125 C17.65046875 1.4978125 17.32046875 2.4878125 16.98046875 3.5078125 C15.99046875 3.8378125 15.00046875 4.1678125 13.98046875 4.5078125 C13.48546875 3.5178125 13.48546875 3.5178125 12.98046875 2.5078125 C11.99046875 2.8378125 11.00046875 3.1678125 9.98046875 3.5078125 C9.32046875 3.5078125 8.66046875 3.5078125 7.98046875 3.5078125 C4.99196705 4.8028299 2.53577046 6.50007545 -0.01953125 8.5078125 C-0.67953125 8.1778125 -1.33953125 7.8478125 -2.01953125 7.5078125 C-2.34953125 8.1678125 -2.67953125 8.8278125 -3.01953125 9.5078125 C-2.35953125 9.8378125 -1.69953125 10.1678125 -1.01953125 10.5078125 C-2.13328125 10.7553125 -3.24703125 11.0028125 -4.39453125 11.2578125 C-7.98277115 12.14329668 -7.98277115 12.14329668 -9.51953125 14.3203125 C-10.30490008 17.75630112 -9.57386714 20.39914071 -8.01953125 23.5078125 C-5.44001251 24.19875146 -5.44001251 24.19875146 -2.45703125 24.6328125 C-1.44511719 24.80039062 -0.43320312 24.96796875 0.609375 25.140625 C1.39183594 25.26179688 2.17429687 25.38296875 2.98046875 25.5078125 C3.64046875 27.8178125 4.30046875 30.1278125 4.98046875 32.5078125 C0.17260526 35.612891 -4.14637286 38.0296243 -10.01953125 37.5078125 C-12.87654564 36.45779866 -15.43539879 35.1091499 -18.01953125 33.5078125 C-18.01953125 32.8478125 -18.01953125 32.1878125 -18.01953125 31.5078125 C-19.00953125 31.1778125 -19.99953125 30.8478125 -21.01953125 30.5078125 C-21.75 28.66015625 -21.75 28.66015625 -22.20703125 26.4453125 C-22.36558594 25.71183594 -22.52414062 24.97835938 -22.6875 24.22265625 C-22.79707031 23.65675781 -22.90664063 23.09085937 -23.01953125 22.5078125 C-24.66953125 22.8378125 -26.31953125 23.1678125 -28.01953125 23.5078125 C-27.52453125 22.0228125 -27.52453125 22.0228125 -27.01953125 20.5078125 C-26.02953125 20.5078125 -25.03953125 20.5078125 -24.01953125 20.5078125 C-24.10203125 19.3528125 -24.18453125 18.1978125 -24.26953125 17.0078125 C-24.2587778 10.94286868 -21.88939078 6.48155312 -17.76953125 2.1328125 C-11.49533269 -1.57466847 -6.84053448 -1.91292823 0 0 Z " fill="#F1F1E6" transform="translate(290.01953125,248.4921875)"/>
<path d="M0 0 C5.46173631 2.38330312 8.77071773 6.54365187 11 12 C11.65766922 15.67037452 11.92467397 19.27478543 12 23 C12.99 22.34 13.98 21.68 15 21 C18.68722891 20.5190571 20.56074794 20.77082501 23.875 22.5 C26.4599138 25.54107505 26.69344392 27.20036045 26.41015625 31.09375 C26 33 26 33 24.5 35.5 C20.99458283 37.6032503 17.98466935 37.96548457 14 37 C11.2672576 34.40739824 10.18688331 32.56064994 9 29 C8.401875 29.33 7.80375 29.66 7.1875 30 C5 31 5 31 2 31 C2.33 29.35 2.66 27.7 3 26 C3.61875 25.896875 4.2375 25.79375 4.875 25.6875 C7.36526484 25.12474627 7.36526484 25.12474627 9 22 C8.34 21.67 7.68 21.34 7 21 C6.67 20.67 6.34 20.34 6 20 C5.34 20.66 4.68 21.32 4 22 C3.01 21.34 2.02 20.68 1 20 C-0.98 20.99 -0.98 20.99 -3 22 C-3 19.03 -3 16.06 -3 13 C-4.04800781 12.76216797 -4.04800781 12.76216797 -5.1171875 12.51953125 C-12.62892684 10.59371706 -12.62892684 10.59371706 -14.5625 7.5 C-14.706875 6.675 -14.85125 5.85 -15 5 C-15.33 4.01 -15.66 3.02 -16 2 C-10.99259537 -0.99485923 -5.65271982 -0.59182838 0 0 Z " fill="#F2F1EA" transform="translate(339,248)"/>
<path d="M0 0 C0.8037355 -0.00287018 1.60747101 -0.00574036 2.43556213 -0.00869751 C4.13258571 -0.01073563 5.82963291 -0.00522335 7.52661133 0.00732422 C10.11658626 0.02336122 12.70499581 0.00747865 15.29492188 -0.01171875 C16.94661801 -0.00973586 18.59831318 -0.00589124 20.25 0 C21.40646278 -0.00910904 21.40646278 -0.00910904 22.58628845 -0.0184021 C27.11922942 0.04052146 30.09124997 0.57688127 33.69140625 3.3984375 C35.22396834 6.74490157 34.79014984 10.52407874 34.75390625 14.1484375 C34.74488281 15.31890625 34.73585937 16.489375 34.7265625 17.6953125 C34.71496094 18.58734375 34.70335937 19.479375 34.69140625 20.3984375 C33.04140625 21.0584375 31.39140625 21.7184375 29.69140625 22.3984375 C29.69140625 16.7884375 29.69140625 11.1784375 29.69140625 5.3984375 C17.15140625 5.3984375 4.61140625 5.3984375 -8.30859375 5.3984375 C-12.33283303 20.97464319 -12.33283303 20.97464319 -13.30859375 31.3984375 C3.02640625 31.8934375 3.02640625 31.8934375 19.69140625 32.3984375 C19.69140625 33.7184375 19.69140625 35.0384375 19.69140625 36.3984375 C14.78020402 36.52216934 9.8699114 36.61283574 4.95751953 36.6730957 C3.28711136 36.69821828 1.61681288 36.73232302 -0.05322266 36.77563477 C-2.45632995 36.83639149 -4.85798279 36.86466771 -7.26171875 36.88671875 C-8.00665588 36.91252518 -8.75159302 36.9383316 -9.519104 36.96492004 C-13.32612429 36.96697271 -14.96898582 36.71010573 -17.81616211 34.09716797 C-20.62999487 29.00897767 -18.42658724 23.67136431 -17.0390625 18.34765625 C-16.53157081 16.59176121 -16.01714431 14.83785688 -15.49609375 13.0859375 C-15.12387695 11.74692383 -15.12387695 11.74692383 -14.74414062 10.38085938 C-14.49083984 9.52427734 -14.23753906 8.66769531 -13.9765625 7.78515625 C-13.75250732 7.01389404 -13.52845215 6.24263184 -13.29760742 5.44799805 C-10.51992054 -0.30827975 -5.75550718 -0.04521533 0 0 Z " fill="#83D161" transform="translate(203.30859375,209.6015625)"/>
<path d="M0 0 C1.12792969 -0.01933594 2.25585938 -0.03867188 3.41796875 -0.05859375 C8.13357177 -0.03069077 11.46981241 0.01422721 15.5703125 2.4453125 C18.39414696 7.09835146 19.60694963 11.86226243 20.875 17.125 C21.14699219 18.15753906 21.41898437 19.19007813 21.69921875 20.25390625 C23.93455611 29.13793935 23.93455611 29.13793935 22.5 33.625 C21.40039062 35.41259766 21.40039062 35.41259766 19.5 36.625 C16.94812856 36.9231684 14.64497493 37.04566726 12.09375 37.0234375 C11.37264038 37.02630768 10.65153076 37.02917786 9.90856934 37.03213501 C8.38549005 37.03417452 6.8623845 37.02865247 5.33935547 37.01611328 C3.00819322 37.00005643 0.67876458 37.0159641 -1.65234375 37.03515625 C-3.13281633 37.0331738 -4.61328782 37.02933007 -6.09375 37.0234375 C-6.7906897 37.02951019 -7.48762939 37.03558289 -8.20568848 37.0418396 C-11.0824048 37.00003773 -13.04912505 36.93220062 -15.46289062 35.28759766 C-16.5 33.625 -16.5 33.625 -16.5 30.625 C-15.38625 30.78097656 -14.2725 30.93695313 -13.125 31.09765625 C-2.70794272 32.45919801 7.0512742 32.67841377 17.5 31.625 C16.85121306 22.70417964 14.61722918 14.29880989 12.5 5.625 C4.25 5.625 -4 5.625 -12.5 5.625 C-12.83 9.585 -13.16 13.545 -13.5 17.625 C-14.82 17.625 -16.14 17.625 -17.5 17.625 C-17.63592021 15.73117836 -17.7324094 13.83450296 -17.8125 11.9375 C-17.87050781 10.88175781 -17.92851562 9.82601562 -17.98828125 8.73828125 C-17.5 5.625 -17.5 5.625 -15.76171875 2.76953125 C-10.71608623 -0.5478966 -5.90564495 -0.10123963 0 0 Z " fill="#87D06A" transform="translate(262.5,209.375)"/>
<path d="M0 0 C1.32 0.33 2.64 0.66 4 1 C3.67 1.969375 3.34 2.93875 3 3.9375 C1.38063443 9.69265533 1.08869636 14.91159583 3.5 20.4375 C3.995 21.283125 4.49 22.12875 5 23 C5 23.66 5 24.32 5 25 C3.35 25 1.7 25 0 25 C-1.77257035 21.60899585 -3.06588007 18.7364797 -4 15 C-21.16 14.67 -38.32 14.34 -56 14 C-56.66 16.64 -57.32 19.28 -58 22 C-58.66 22.99 -59.32 23.98 -60 25 C-62.625 25.1875 -62.625 25.1875 -65 25 C-64.68804687 24.34515625 -64.37609375 23.6903125 -64.0546875 23.015625 C-60.79541979 15.37469276 -60.93793625 9.9835306 -63 2 C-61.35 2.33 -59.7 2.66 -58 3 C-57.34 5.31 -56.68 7.62 -56 10 C-38.51 10 -21.02 10 -3 10 C-2.67 7.69 -2.34 5.38 -2 3 C-1.34 2.01 -0.68 1.02 0 0 Z " fill="#81D05F" transform="translate(272,282)"/>
<path d="M0 0 C0.99 0 1.98 0 3 0 C2.25 4.75 2.25 4.75 0 7 C-0.64767793 9.57061311 -0.64767793 9.57061311 -1 12 C3.22104999 9.27809315 3.22104999 9.27809315 7 6 C8.32 6.66 9.64 7.32 11 8 C11 7.34 11 6.68 11 6 C12.9375 6.3125 12.9375 6.3125 15 7 C15.33 7.99 15.66 8.98 16 10 C15.34 10 14.68 10 14 10 C13.34 11.32 12.68 12.64 12 14 C11.01 14 10.02 14 9 14 C8.67 15.32 8.34 16.64 8 18 C9.98 17.34 11.96 16.68 14 16 C14 16.66 14 17.32 14 18 C12.46875 19.2890625 12.46875 19.2890625 10.5 20.625 C9.8503125 21.07101562 9.200625 21.51703125 8.53125 21.9765625 C8.0259375 22.31429688 7.520625 22.65203125 7 23 C6.67 22.67 6.34 22.34 6 22 C4.47480724 22.08937803 2.95318071 22.24537146 1.4375 22.4375 C0.61121094 22.53933594 -0.21507812 22.64117187 -1.06640625 22.74609375 C-2.02353516 22.87177734 -2.02353516 22.87177734 -3 23 C-3 22.34 -3 21.68 -3 21 C-3.66 21 -4.32 21 -5 21 C-5 20.34 -5 19.68 -5 19 C-4.360625 18.71125 -3.72125 18.4225 -3.0625 18.125 C-0.84793921 17.17176549 -0.84793921 17.17176549 0 15 C-1.65 15 -3.3 15 -5 15 C-5.33 12.69 -5.66 10.38 -6 8 C-7.98 8 -9.96 8 -12 8 C-12 6.35 -12 4.7 -12 3 C-10.95199219 2.92652344 -10.95199219 2.92652344 -9.8828125 2.8515625 C-8.97273438 2.77679688 -8.06265625 2.70203125 -7.125 2.625 C-6.22007812 2.55539062 -5.31515625 2.48578125 -4.3828125 2.4140625 C-1.82058097 2.20431868 -1.82058097 2.20431868 0 0 Z " fill="#F2EEE6" transform="translate(333,261)"/>
<path d="M0 0 C0.98649168 3.12270749 0.99630937 5.3052426 0.3125 8.5 C0.16425781 9.2528125 0.01601563 10.005625 -0.13671875 10.78125 C-1.27194008 13.69892291 -2.5593704 15.03282656 -5 17 C-7.93261719 17.45410156 -7.93261719 17.45410156 -11.296875 17.390625 C-12.50214844 17.37773437 -13.70742188 17.36484375 -14.94921875 17.3515625 C-16.20347656 17.31804687 -17.45773437 17.28453125 -18.75 17.25 C-20.01972656 17.23195313 -21.28945313 17.21390625 -22.59765625 17.1953125 C-25.73253077 17.14817153 -28.8658856 17.08237664 -32 17 C-32.12117188 17.62648438 -32.24234375 18.25296875 -32.3671875 18.8984375 C-32.61855469 20.12433594 -32.61855469 20.12433594 -32.875 21.375 C-33.03742188 22.18710937 -33.19984375 22.99921875 -33.3671875 23.8359375 C-34 26 -34 26 -36 28 C-37.32 28 -38.64 28 -40 28 C-39.4038077 25.51586542 -38.71323819 23.171577 -37.875 20.75 C-36.69345197 15.68622273 -37.26235152 11.72929936 -38.625 6.6875 C-39 5 -39 5 -38 2 C-37.34 2 -36.68 2 -36 2 C-36 2.99 -36 3.98 -36 5 C-35.34 5 -34.68 5 -34 5 C-33.34 7.64 -32.68 10.28 -32 13 C-19.625 12.505 -19.625 12.505 -7 12 C-5.68 9.03 -4.36 6.06 -3 3 C-2.01 2.01 -1.02 1.02 0 0 Z " fill="#7DCB5B" transform="translate(345,279)"/>
<path d="M0 0 C1.52109307 0.6243676 3.0419338 1.24935037 4.5625 1.875 C5.87082104 2.20455814 7.18313254 2.5189483 8.5 2.8125 C11.5625 3.875 11.5625 3.875 12.73046875 5.66796875 C14.13893834 9.40405006 14.12759081 12.94659761 13.5625 16.875 C11.5574912 20.6776029 10.13563738 22.49290841 6.5625 24.875 C1.50101148 25.458358 -4.004915 25.61277309 -8.4375 22.875 C-12.26413763 19.36724883 -13.1978249 16.10398521 -13.53125 11.0859375 C-13.32413934 6.20157788 -11.20252585 3.62181095 -7.8125 0.3125 C-4.11173852 -1.26375026 -3.60283033 -1.20912704 0 0 Z M-6.3125 5.0625 C-8.5019789 7.96033973 -9.4375 9.27003935 -9.4375 12.875 C-7.89391562 16.81114016 -6.98910136 18.50726576 -3.4375 20.875 C0.63078918 21.40266328 0.63078918 21.40266328 4.5625 20.875 C7.85670787 17.99256811 9.33134408 16.13351556 10.125 11.8125 C9.43270639 8.19718892 8.10658967 6.49391584 5.5625 3.875 C1.16199738 1.67474869 -2.47881728 2.14556749 -6.3125 5.0625 Z " fill="#84CB63" transform="translate(193.4375,282.125)"/>
<path d="M0 0 C6.7444571 2.4354984 10.21387351 6.57312625 13.25 12.8125 C14.78256824 17.35639313 15.9356941 21.96604314 17.0625 26.625 C17.37380859 27.85154297 17.68511719 29.07808594 18.00585938 30.34179688 C20.25 39.3134272 20.25 39.3134272 20.25 42.8125 C23.22 42.8125 26.19 42.8125 29.25 42.8125 C29.25 44.1325 29.25 45.4525 29.25 46.8125 C27.45991533 47.03401549 25.66781838 47.23932213 23.875 47.4375 C22.87726563 47.55351562 21.87953125 47.66953125 20.8515625 47.7890625 C19.56378906 47.80066406 19.56378906 47.80066406 18.25 47.8125 C15.62661912 45.18911912 15.48621579 43.17209474 14.69921875 39.5546875 C14.41240234 38.28882813 14.12558594 37.02296875 13.83007812 35.71875 C13.38340291 33.71249277 12.94137662 31.7054748 12.50805664 29.69628906 C10.52701582 20.57875491 8.60837676 13.05912351 1.8125 6.4375 C-0.96768261 4.67445737 -3.58714511 3.69515718 -6.75 2.8125 C-2.18076923 -0.23365385 -2.18076923 -0.23365385 0 0 Z " fill="#8BD26D" transform="translate(279.75,201.1875)"/>
<path d="M0 0 C0.99 0.33 1.98 0.66 3 1 C3.495 2.485 3.495 2.485 4 4 C2.6078125 5.0209375 2.6078125 5.0209375 1.1875 6.0625 C-2.7745789 9.40638219 -4.6270067 13.03159498 -5.28125 18.23828125 C-5.48534692 23.29818407 -4.5983968 26.56107213 -2 31 C-2 31.66 -2 32.32 -2 33 C-3.65 33 -5.3 33 -7 33 C-8.73565302 29.6796203 -10.18174726 26.65433265 -11 23 C-12.18078125 22.97421875 -13.3615625 22.9484375 -14.578125 22.921875 C-16.13545323 22.86558603 -17.69274347 22.80823886 -19.25 22.75 C-20.41595703 22.72873047 -20.41595703 22.72873047 -21.60546875 22.70703125 C-25.33195455 22.54777972 -27.42357479 22.40563255 -30.53125 20.21875 C-32.88131294 16.66865492 -32.27817113 14.17256702 -32 10 C-30.125 10.125 -30.125 10.125 -28 11 C-27.34 12.98 -26.68 14.96 -26 17 C-20.72 17.33 -15.44 17.66 -10 18 C-9.67 15.69 -9.34 13.38 -9 11 C-8.44669316 7.20107622 -7.00961157 5.6970064 -4.125 3.1875 C-3.42632812 2.56230469 -2.72765625 1.93710937 -2.0078125 1.29296875 C-1.34523437 0.86628906 -0.68265625 0.43960937 0 0 Z " fill="#83D35B" transform="translate(182,274)"/>
<path d="M0 0 C2.25 -0.375 2.25 -0.375 5 0 C8.11028128 3.27840459 9.28239704 6.06540177 9.5 10.5 C9.29010984 14.94517375 7.97072239 17.61667727 5 21 C0.56904147 23.75872045 -3.93748292 23.53419417 -9 23 C-12.70921361 21.42161123 -15.1160182 19.57956543 -17 16 C-18.08253393 11.56161087 -18.55671166 8.21464362 -16.625 4 C-15 2 -15 2 -14 1 C-11.66702567 0.95907063 -9.33294775 0.95758277 -7 1 C-7.825 1.66 -8.65 2.32 -9.5 3 C-12.01978054 6.02373665 -12.37696615 6.47951714 -12.4375 10.125 C-12.29310188 14.0563515 -12.29310188 14.0563515 -10 17 C-6.37671381 18.20776206 -3.80388473 18.40040892 0 18 C2.93307135 15.44296344 3.86097012 13.83417929 4.5 10 C3.89010887 6.34065323 2.43182769 4.73580616 0 2 C0 1.34 0 0.68 0 0 Z " fill="#84CB61" transform="translate(295,284)"/>
<path d="M0 0 C1.89492187 0.01353516 1.89492187 0.01353516 3.828125 0.02734375 C4.79234375 0.03894531 5.7565625 0.05054688 6.75 0.0625 C6.75 1.3825 6.75 2.7025 6.75 4.0625 C5.60660156 4.19527344 4.46320313 4.32804688 3.28515625 4.46484375 C1.7942438 4.6430031 0.30335982 4.82140082 -1.1875 5 C-1.94224609 5.08701172 -2.69699219 5.17402344 -3.47460938 5.26367188 C-7.17187458 5.40574099 -7.17187458 5.40574099 -10.25 7.0625 C-10.48527773 9.41237262 -10.66386417 11.76806039 -10.8125 14.125 C-10.956875 16.414375 -11.10125 18.70375 -11.25 21.0625 C-5.31 21.0625 0.63 21.0625 6.75 21.0625 C6.42 22.7125 6.09 24.3625 5.75 26.0625 C0.14 25.7325 -5.47 25.4025 -11.25 25.0625 C-11.25 25.7225 -11.25 26.3825 -11.25 27.0625 C-13.1875 26.25 -13.1875 26.25 -15.25 25.0625 C-16.54177236 21.18718291 -16.26153941 17.64289728 -16.0625 13.625 C-16.03446289 12.4793457 -16.03446289 12.4793457 -16.00585938 11.31054688 C-15.82360097 7.63660123 -15.6562338 5.62030042 -13.44921875 2.58984375 C-9.11898757 -0.41747488 -5.19422762 -0.0480947 0 0 Z " fill="#8DD46F" transform="translate(165.25,242.9375)"/>
<path d="M0 0 C5.03536777 -0.07432418 10.07041408 -0.12868401 15.10620117 -0.16479492 C16.81817184 -0.1798534 18.53010411 -0.20030455 20.24194336 -0.22631836 C22.70696505 -0.2628319 25.17147535 -0.27975562 27.63671875 -0.29296875 C28.77919319 -0.31619453 28.77919319 -0.31619453 29.94474792 -0.33988953 C34.48104827 -0.34131642 37.40025237 0.17385573 41 3 C42.53256209 6.34646407 42.09874359 10.12564124 42.0625 13.75 C42.05347656 14.92046875 42.04445312 16.0909375 42.03515625 17.296875 C42.02355469 18.18890625 42.01195312 19.0809375 42 20 C40.35 20.66 38.7 21.32 37 22 C37 16.39 37 10.78 37 5 C17.695 4.505 17.695 4.505 -2 4 C-2 3.34 -2 2.68 -2 2 C-1.34 2 -0.68 2 0 2 C0 1.34 0 0.68 0 0 Z " fill="#88CC6B" transform="translate(196,210)"/>
<path d="M0 0 C1.51754003 2.41021064 2.02316906 3.68335622 1.8125 6.5625 C0.8805789 9.3582633 0.3873123 10.28632919 -2 12 C-4.55187144 12.2981684 -6.85502507 12.42066726 -9.40625 12.3984375 C-10.12735962 12.40130768 -10.84846924 12.40417786 -11.59143066 12.40713501 C-13.11450995 12.40917452 -14.6376155 12.40365247 -16.16064453 12.39111328 C-18.49180678 12.37505643 -20.82123542 12.3909641 -23.15234375 12.41015625 C-24.63281633 12.4081738 -26.11328782 12.40433007 -27.59375 12.3984375 C-28.2906897 12.40451019 -28.98762939 12.41058289 -29.70568848 12.4168396 C-32.5824048 12.37503773 -34.54912505 12.30720062 -36.96289062 10.66259766 C-38 9 -38 9 -38 6 C-36.34677734 6.23396484 -36.34677734 6.23396484 -34.66015625 6.47265625 C-25.76801604 7.6425448 -17.34500487 8.16727526 -8.39672852 7.36938477 C-5.20228915 7.08762478 -3.08597383 6.97134206 0 8 C0 5.36 0 2.72 0 0 Z " fill="#89D16C" transform="translate(284,234)"/>
<path d="M0 0 C0 1.98 0 3.96 0 6 C7.92 6 15.84 6 24 6 C24 6.33 24 6.66 24 7 C16.41 7.33 8.82 7.66 1 8 C16.18 8.33 31.36 8.66 47 9 C47 9.33 47 9.66 47 10 C23.9 10 0.8 10 -23 10 C-23 9.67 -23 9.34 -23 9 C-19.7 9 -16.4 9 -13 9 C-13 8.34 -13 7.68 -13 7 C-15.31 7 -17.62 7 -20 7 C-20 6.67 -20 6.34 -20 6 C-14.72 6 -9.44 6 -4 6 C-4 4.35 -4 2.7 -4 1 C-1 0 -1 0 0 0 Z " fill="#85C16A" transform="translate(223,193)"/>
<path d="M0 0 C4.0829596 -0.14518182 8.16525641 -0.23403347 12.25 -0.3125 C13.40886719 -0.35439453 14.56773437 -0.39628906 15.76171875 -0.43945312 C24.31775153 -0.56309522 24.31775153 -0.56309522 27.7734375 2.2890625 C29.33878758 5.74878529 29.42510821 8.24487752 29 12 C28.34 12.66 27.68 13.32 27 14 C25.00902154 11.01353231 24.05875074 8.40312738 23 5 C21.75863281 5.01160156 20.51726562 5.02320313 19.23828125 5.03515625 C17.59635568 5.04453868 15.95442847 5.0536384 14.3125 5.0625 C13.08756836 5.07506836 13.08756836 5.07506836 11.83789062 5.08789062 C7.75500916 5.10442051 3.98348293 5.03035098 0 4 C0 2.68 0 1.36 0 0 Z " fill="#87D165" transform="translate(321,244)"/>
<path d="M0 0 C0.45675183 5.70939788 -0.37894444 8.55127459 -4 13 C-8.26645537 15.84430358 -11.99753921 15.38418899 -17 15 C-20.17006484 14.19062174 -21.51861981 13.48138019 -23.8125 11.1875 C-25.21712593 8.60003118 -25.24182753 6.90193042 -25 4 C-24.01 4.495 -24.01 4.495 -23 5 C-23 5.99 -23 6.98 -23 8 C-22.071875 8.2165625 -22.071875 8.2165625 -21.125 8.4375 C-19 9 -19 9 -17 10 C-12.95682712 10.39563385 -12.95682712 10.39563385 -9 10 C-5.98996379 7.22150503 -4.84277419 4.93294623 -4 1 C-2 0 -2 0 0 0 Z " fill="#81C763" transform="translate(207,292)"/>
<path d="M0 0 C8.91 0 17.82 0 27 0 C27 1.32 27 2.64 27 4 C14.625 4.495 14.625 4.495 2 5 C1.34 3.35 0.68 1.7 0 0 Z " fill="#B0E891" transform="translate(239,264)"/>
<path d="M0 0 C1.8133922 3.20010388 2.52213974 6.13283843 3.125 9.75 C3.29257812 10.73484375 3.46015625 11.7196875 3.6328125 12.734375 C3.81457031 13.85585937 3.81457031 13.85585937 4 15 C6.97 15 9.94 15 13 15 C13 16.32 13 17.64 13 19 C11.20991533 19.22151549 9.41781838 19.42682213 7.625 19.625 C6.62726563 19.74101562 5.62953125 19.85703125 4.6015625 19.9765625 C3.74304688 19.98429687 2.88453125 19.99203125 2 20 C-0.51884651 17.48115349 -0.8257588 15.56355758 -1.6875 12.125 C-1.95949219 11.07570312 -2.23148437 10.02640625 -2.51171875 8.9453125 C-2.97540921 6.14833162 -2.94575698 4.627808 -2 2 C-1.01 3.485 -1.01 3.485 0 5 C0 3.35 0 1.7 0 0 Z " fill="#84D560" transform="translate(296,229)"/>
<path d="M0 0 C11.22 0 22.44 0 34 0 C34 0.99 34 1.98 34 3 C22.12 3.33 10.24 3.66 -2 4 C-2 3.34 -2 2.68 -2 2 C-1.34 2 -0.68 2 0 2 C0 1.34 0 0.68 0 0 Z " fill="#7BCC56" transform="translate(196,210)"/>
<path d="M0 0 C0.99 0.33 1.98 0.66 3 1 C3 1.33 3 1.66 3 2 C3.93851807 2.03758423 3.93851807 2.03758423 4.89599609 2.07592773 C7.72254619 2.19175273 10.54875169 2.31453985 13.375 2.4375 C14.35984375 2.47681641 15.3446875 2.51613281 16.359375 2.55664062 C17.30039062 2.59853516 18.24140625 2.64042969 19.2109375 2.68359375 C20.08024902 2.72025146 20.94956055 2.75690918 21.84521484 2.79467773 C24 3 24 3 26 4 C25.67 4.99 25.34 5.98 25 7 C25 6.34 25 5.68 25 5 C16.75 5 8.5 5 0 5 C-0.33 8.96 -0.66 12.92 -1 17 C-2.32 17 -3.64 17 -5 17 C-5.76681614 6.31569507 -5.76681614 6.31569507 -3.88671875 3.08984375 C-2.5 1.75 -2.5 1.75 0 0 Z " fill="#8CD06E" transform="translate(250,210)"/>
<path d="M0 0 C0.99 0 1.98 0 3 0 C2.25 4.75 2.25 4.75 0 7 C-0.71927295 9.31765729 -1.3909893 11.65095874 -2 14 C-2.99 14 -3.98 14 -5 14 C-5.33 12.02 -5.66 10.04 -6 8 C-7.98 8 -9.96 8 -12 8 C-12 6.35 -12 4.7 -12 3 C-10.95199219 2.92652344 -10.95199219 2.92652344 -9.8828125 2.8515625 C-8.97273438 2.77679688 -8.06265625 2.70203125 -7.125 2.625 C-6.22007812 2.55539062 -5.31515625 2.48578125 -4.3828125 2.4140625 C-1.82058097 2.20431868 -1.82058097 2.20431868 0 0 Z " fill="#97D77D" transform="translate(333,261)"/>
<path d="M0 0 C1.32 0 2.64 0 4 0 C4 0.66 4 1.32 4 2 C5.65 2 7.3 2 9 2 C8.34 3.32 7.68 4.64 7 6 C6.01 6 5.02 6 4 6 C4 6.66 4 7.32 4 8 C4.66 8 5.32 8 6 8 C6 8.66 6 9.32 6 10 C9.3 9.34 12.6 8.68 16 8 C15.67 8.99 15.34 9.98 15 11 C13.10489301 11.08160748 11.20875496 11.13946459 9.3125 11.1875 C7.72888672 11.23970703 7.72888672 11.23970703 6.11328125 11.29296875 C2.59244478 10.96164788 0.75890363 10.19089406 -2 8 C-2.3125 4.8125 -2.3125 4.8125 -2 2 C-1.34 2 -0.68 2 0 2 C0 1.34 0 0.68 0 0 Z " fill="#F5F6EC" transform="translate(324,274)"/>
<path d="M0 0 C8.25 0 16.5 0 25 0 C25 1.32 25 2.64 25 4 C18.4 4 11.8 4 5 4 C4.67 3.34 4.34 2.68 4 2 C2.68 1.34 1.36 0.68 0 0 Z " fill="#95E570" transform="translate(198,242)"/>
<path d="M0 0 C1.24523437 0.01804688 2.49046875 0.03609375 3.7734375 0.0546875 C5.18496094 0.08949219 5.18496094 0.08949219 6.625 0.125 C6.625 1.445 6.625 2.765 6.625 4.125 C5.49320313 4.25777344 4.36140625 4.39054688 3.1953125 4.52734375 C1.71351821 4.7055342 0.23174864 4.88393029 -1.25 5.0625 C-1.99636719 5.14951172 -2.74273437 5.23652344 -3.51171875 5.32617188 C-7.5703231 5.75826063 -7.5703231 5.75826063 -11.375 7.125 C-11.375 6.135 -11.375 5.145 -11.375 4.125 C-12.035 3.465 -12.695 2.805 -13.375 2.125 C-8.75130977 0.31820413 -4.94971347 -0.09339082 0 0 Z " fill="#8FD371" transform="translate(165.375,242.875)"/>
<path d="M0 0 C-0.33 1.32 -0.66 2.64 -1 4 C-1.83789062 3.67257813 -2.67578125 3.34515625 -3.5390625 3.0078125 C-7.3312931 1.90352864 -10.43553543 1.80067048 -14.375 1.875 C-16.24285156 1.90207031 -16.24285156 1.90207031 -18.1484375 1.9296875 C-19.08945313 1.95289063 -20.03046875 1.97609375 -21 2 C-21.33 1.01 -21.66 0.02 -22 -1 C-14.51867789 -3.20760325 -7.19499979 -3.5974999 0 0 Z " fill="#FAF9F2" transform="translate(216,250)"/>
<path d="M0 0 C-0.825 0.61875 -1.65 1.2375 -2.5 1.875 C-4.49013007 3.80907007 -4.96918044 4.76250807 -5.33203125 7.55859375 C-5.31432259 10.0555153 -5.21731991 12.51289435 -5 15 C-5.66 14.67 -6.32 14.34 -7 14 C-7 13.34 -7 12.68 -7 12 C-7.99 12.33 -8.98 12.66 -10 13 C-10.33 12.67 -10.66 12.34 -11 12 C-10.984375 10.0390625 -10.984375 10.0390625 -10.75 7.625 C-10.64945312 6.43777344 -10.64945312 6.43777344 -10.546875 5.2265625 C-9.10948719 -0.62565932 -5.3651004 -0.30368493 0 0 Z " fill="#8CD26D" transform="translate(288,285)"/>
<path d="M0 0 C3.41637953 -0.11632513 6.83224897 -0.18728897 10.25 -0.25 C11.70212891 -0.30027344 11.70212891 -0.30027344 13.18359375 -0.3515625 C14.58544922 -0.37089844 14.58544922 -0.37089844 16.015625 -0.390625 C16.87446289 -0.41157227 17.73330078 -0.43251953 18.61816406 -0.45410156 C21 0 21 0 25 4 C16.75 3.67 8.5 3.34 0 3 C0 2.01 0 1.02 0 0 Z " fill="#7ECE57" transform="translate(252,210)"/>
<path d="M0 0 C5.94 0 11.88 0 18 0 C17.67 1.65 17.34 3.3 17 5 C11.39 4.67 5.78 4.34 0 4 C0.66 3.34 1.32 2.68 2 2 C1.34 1.34 0.68 0.68 0 0 Z " fill="#91DA74" transform="translate(154,264)"/>
<path d="M0 0 C0.99 0.33 1.98 0.66 3 1 C3.33 1.99 3.66 2.98 4 4 C2.576875 5.11375 2.576875 5.11375 1.125 6.25 C-1.32532401 8.27845219 -2.87325363 9.9577848 -4 13 C-5.65 13 -7.3 13 -9 13 C-9 9.61579359 -8.50204985 7.57409288 -6.2578125 5.0078125 C-2.30872241 1.40589516 -2.30872241 1.40589516 0 0 Z " fill="#8DD06F" transform="translate(182,274)"/>
<path d="M0 0 C0.74894531 0.27199219 1.49789062 0.54398437 2.26953125 0.82421875 C5.18817324 1.87869586 7.98127999 2.71146219 11.01953125 3.32421875 C14.08203125 4.51171875 14.08203125 4.51171875 15.51953125 7.63671875 C15.70515625 8.58546875 15.89078125 9.53421875 16.08203125 10.51171875 C14.76203125 10.84171875 13.44203125 11.17171875 12.08203125 11.51171875 C11.46328125 10.54234375 10.84453125 9.57296875 10.20703125 8.57421875 C8.42524279 5.48336513 8.42524279 5.48336513 6.08203125 4.51171875 C1.42927149 4.20645655 1.42927149 4.20645655 -2.91796875 5.51171875 C-3.24796875 3.86171875 -3.57796875 2.21171875 -3.91796875 0.51171875 C-1.91796875 -0.48828125 -1.91796875 -0.48828125 0 0 Z " fill="#B0DC99" transform="translate(190.91796875,281.48828125)"/>
<path d="M0 0 C0 1.65 0 3.3 0 5 C-7.92 5.495 -7.92 5.495 -16 6 C-15.67 4.35 -15.34 2.7 -15 1 C-12.68753088 0.83290546 -10.37502385 0.66633538 -8.0625 0.5 C-6.77472656 0.4071875 -5.48695313 0.314375 -4.16015625 0.21875 C-1 0 -1 0 0 0 Z " fill="#C8F4AD" transform="translate(295,263)"/>
<path d="M0 0 C0.61488281 0.144375 1.22976563 0.28875 1.86328125 0.4375 C3.07564453 0.7159375 3.07564453 0.7159375 4.3125 1 C5.11300781 1.185625 5.91351563 1.37125 6.73828125 1.5625 C9.10695938 2.09495823 9.10695938 2.09495823 12 2 C16.33333333 2 20.66666667 2 25 2 C24.67 2.99 24.34 3.98 24 5 C23.01 5.33 22.02 5.66 21 6 C20.67 5.34 20.34 4.68 20 4 C19.01 4.33 18.02 4.66 17 5 C16.34 5 15.68 5 15 5 C13.65812182 5.6492959 12.32520503 6.31731862 11 7 C10.01 7.33 9.02 7.66 8 8 C5 4.25 5 4.25 5 2 C3.02 2 1.04 2 -1 2 C-0.67 1.34 -0.34 0.68 0 0 Z " fill="#F8F7F0" transform="translate(283,247)"/>
<path d="M0 0 C1.32 0.33 2.64 0.66 4 1 C4.36279456 2.28926992 4.71496698 3.58153272 5.0625 4.875 C5.25972656 5.59429687 5.45695313 6.31359375 5.66015625 7.0546875 C6 9 6 9 5 11 C10.28 11 15.56 11 21 11 C21 11.33 21 11.66 21 12 C18.24894578 12.10812003 15.50214913 12.18734945 12.75 12.25 C11.58404297 12.30027344 11.58404297 12.30027344 10.39453125 12.3515625 C6.6271121 12.41596283 4.63470849 12.43881081 1.46875 10.25 C-0.86710724 6.6716655 -0.27941646 4.19124692 0 0 Z " fill="#8FD36F" transform="translate(150,284)"/>
<path d="M0 0 C0.33 1.32 0.66 2.64 1 4 C1.66 4 2.32 4 3 4 C3.33 2.68 3.66 1.36 4 0 C5 2 5 2 4.0625 5.1875 C3.00202165 8.99274584 2.83980924 12.0753263 3 16 C2.34 16 1.68 16 1 16 C0.67 14.02 0.34 12.04 0 10 C0 12.64 0 15.28 0 18 C-1.5625 17 -1.5625 17 -3 15 C-2.7366201 9.73240198 -1.56790713 5.0173028 0 0 Z " fill="#8CCE6F" transform="translate(187,226)"/>
<path d="M0 0 C0.33 0.66 0.66 1.32 1 2 C-0.0725 2.598125 -1.145 3.19625 -2.25 3.8125 C-7.7240887 6.98636557 -10.28888032 8.58330119 -12 15 C-12.66 14.01 -13.32 13.02 -14 12 C-11.13324036 5.40164819 -8.27283827 -0.94546723 0 0 Z " fill="#F7F9F3" transform="translate(280,249)"/>
<path d="M0 0 C3.96 0 7.92 0 12 0 C12 1.32 12 2.64 12 4 C8.04 4 4.08 4 0 4 C0 2.68 0 1.36 0 0 Z " fill="#97CF78" transform="translate(245,254)"/>
<path d="M0 0 C1.65 0.33 3.3 0.66 5 1 C4.52449439 2.48034764 4.04448784 3.95925021 3.5625 5.4375 C3.29566406 6.26121094 3.02882812 7.08492188 2.75390625 7.93359375 C2 10 2 10 1 11 C-0.65 11 -2.3 11 -4 11 C-2.68 7.37 -1.36 3.74 0 0 Z " fill="#84CF63" transform="translate(211,296)"/>
<path d="M0 0 C3.96 0 7.92 0 12 0 C12 1.32 12 2.64 12 4 C8.04 4 4.08 4 0 4 C0 2.68 0 1.36 0 0 Z " fill="#C0F2A4" transform="translate(196,264)"/>
<path d="M0 0 C1.6415049 3.2830098 0.51888624 6.42545033 0 10 C-1.32 10.33 -2.64 10.66 -4 11 C-4.74926071 7.33694766 -5.2380014 4.57644848 -4 1 C-2.68 0.67 -1.36 0.34 0 0 Z " fill="#8ED76B" transform="translate(332,264)"/>
<path d="M0 0 C1.32 0.33 2.64 0.66 4 1 C3.34 3.31 2.68 5.62 2 8 C1.34 8 0.68 8 0 8 C-0.33 9.32 -0.66 10.64 -1 12 C-1 11.34 -1 10.68 -1 10 C-1.66 10 -2.32 10 -3 10 C-2.25 3.375 -2.25 3.375 0 0 Z " fill="#8BCE6E" transform="translate(272,282)"/>
<path d="M0 0 C1.32 0 2.64 0 4 0 C2.40768051 4.29926263 -0.39313359 6.35005733 -4 9 C-4.99 9 -5.98 9 -7 9 C-6.3125 6.625 -6.3125 6.625 -5 4 C-2.375 2.6875 -2.375 2.6875 0 2 C0 1.34 0 0.68 0 0 Z " fill="#F7FCED" transform="translate(178,273)"/>
<path d="M0 0 C0.66 0 1.32 0 2 0 C2 0.99 2 1.98 2 3 C2.66 3 3.32 3 4 3 C4.66 5.64 5.32 8.28 6 11 C5.01 10.67 4.02 10.34 3 10 C2.67 10.66 2.34 11.32 2 12 C1.46809459 10.56656 0.94984742 9.12804633 0.4375 7.6875 C0.14746094 6.88699219 -0.14257812 6.08648437 -0.44140625 5.26171875 C-1 3 -1 3 0 0 Z " fill="#82CA60" transform="translate(307,281)"/>
<path d="M0 0 C1.69433918 3.0469629 2.49467112 5.82821466 3.125 9.25 C3.29257812 10.14203125 3.46015625 11.0340625 3.6328125 11.953125 C3.75398438 12.62859375 3.87515625 13.3040625 4 14 C3.34 13.67 2.68 13.34 2 13 C2 12.01 2 11.02 2 10 C1.34 10 0.68 10 0 10 C0.33 12.64 0.66 15.28 1 18 C-1.41346327 13.8626344 -3.5081809 8.54532347 -2.55078125 3.75 C-2.36902344 3.1725 -2.18726563 2.595 -2 2 C-1.01 3.485 -1.01 3.485 0 5 C0 3.35 0 1.7 0 0 Z " fill="#91D274" transform="translate(296,229)"/>
<path d="M0 0 C1.07310858 3.27185553 0.89263102 5.42947592 0.0625 8.75 C-0.13214844 9.54921875 -0.32679688 10.3484375 -0.52734375 11.171875 C-0.76130859 12.07679688 -0.76130859 12.07679688 -1 13 C-1.66 11.68 -2.32 10.36 -3 9 C-3.66 10.32 -4.32 11.64 -5 13 C-5.66 12.67 -6.32 12.34 -7 12 C-6.40477663 10.55877387 -5.79842381 9.12214132 -5.1875 7.6875 C-4.85105469 6.88699219 -4.51460938 6.08648437 -4.16796875 5.26171875 C-3.01799296 3.03484255 -1.86373039 1.65012233 0 0 Z " fill="#91CC75" transform="translate(345,279)"/>
<path d="M0 0 C2.475 0.495 2.475 0.495 5 1 C5.66 3.31 6.32 5.62 7 8 C6.01 8 5.02 8 4 8 C3.67 9.32 3.34 10.64 3 12 C2.01 8.04 1.02 4.08 0 0 Z " fill="#8ED270" transform="translate(209,284)"/>
<path d="M0 0 C1.61949011 2.57213134 2.04408751 3.67669159 1.625 6.75 C1.41875 7.4925 1.2125 8.235 1 9 C-0.45823212 9.0270043 -1.91660675 9.04639787 -3.375 9.0625 C-4.18710937 9.07410156 -4.99921875 9.08570313 -5.8359375 9.09765625 C-8 9 -8 9 -10 8 C-9.67 7.01 -9.34 6.02 -9 5 C-6.36 5.33 -3.72 5.66 -1 6 C-0.67 4.02 -0.34 2.04 0 0 Z " fill="#F3FAE7" transform="translate(306,275)"/>
<path d="M0 0 C2.10353495 -0.0810206 4.20795952 -0.13919907 6.3125 -0.1875 C7.48425781 -0.22230469 8.65601563 -0.25710938 9.86328125 -0.29296875 C13 0 13 0 16 3 C11.05 3 6.1 3 1 3 C0.67 2.01 0.34 1.02 0 0 Z " fill="#99E873" transform="translate(246,265)"/>
<path d="M0 0 C2.91517292 1.07401108 4.77810176 1.77810176 7 4 C7.66666667 10.88888889 7.66666667 10.88888889 5.5 14.5 C1.85991277 16.68405234 -0.79654733 16.28023018 -5 16 C-5.33 15.34 -5.66 14.68 -6 14 C-4.906875 14.020625 -3.81375 14.04125 -2.6875 14.0625 C0.94384191 14.18544452 0.94384191 14.18544452 4 13 C5.19988045 7.71800407 5.19988045 7.71800407 3 3 C2.01 2.67 1.02 2.34 0 2 C0 1.34 0 0.68 0 0 Z " fill="#FCFBF8" transform="translate(358,269)"/>
<path d="M0 0 C1.625 2.125 1.625 2.125 1.625 3.125 C-2.005 3.125 -5.635 3.125 -9.375 3.125 C-9.045 1.805 -8.715 0.485 -8.375 -0.875 C-2.9740991 -2.34797297 -2.9740991 -2.34797297 0 0 Z " fill="#E5F6D6" transform="translate(230.375,275.875)"/>
<path d="M0 0 C3.63 0 7.26 0 11 0 C11 0.33 11 0.66 11 1 C8.36 1 5.72 1 3 1 C3 1.66 3 2.32 3 3 C2.34 3 1.68 3 1 3 C1.33 8.28 1.66 13.56 2 19 C1.34 19 0.68 19 0 19 C0 12.73 0 6.46 0 0 Z " fill="#FBFAF6" transform="translate(309,225)"/>
<path d="M0 0 C8.25 0 16.5 0 25 0 C25 1.32 25 2.64 25 4 C24.01 3.67 23.02 3.34 22 3 C22 2.34 22 1.68 22 1 C14.74 1 7.48 1 0 1 C0 0.67 0 0.34 0 0 Z " fill="#A8E58A" transform="translate(198,242)"/>
<path d="M0 0 C0.99 0 1.98 0 3 0 C3.33 2.97 3.66 5.94 4 9 C5.65 9.33 7.3 9.66 9 10 C8.38125 10.144375 7.7625 10.28875 7.125 10.4375 C4.96741678 10.93152225 4.96741678 10.93152225 3 12 C2.71125 11.113125 2.4225 10.22625 2.125 9.3125 C1.16851252 6.49617576 0.13201054 3.74916844 -1 1 C-0.67 0.67 -0.34 0.34 0 0 Z " fill="#F9F9ED" transform="translate(265,270)"/>
<path d="M0 0 C0.66 0 1.32 0 2 0 C2.53625 0.61875 3.0725 1.2375 3.625 1.875 C6.90856373 4.81292544 9.70793174 5.14158635 14 6 C14 6.33 14 6.66 14 7 C11.03 7 8.06 7 5 7 C5 6.34 5 5.68 5 5 C3.68 5.33 2.36 5.66 1 6 C0.34 4.35 -0.32 2.7 -1 1 C-0.67 0.67 -0.34 0.34 0 0 Z " fill="#72C454" transform="translate(279,297)"/>
<path d="M0 0 C0.99 0 1.98 0 3 0 C6 5.75 6 5.75 6 8 C4.33388095 8.042721 2.66617115 8.04063832 1 8 C0 7 0 7 -0.0625 3.4375 C-0.041875 2.303125 -0.02125 1.16875 0 0 Z " fill="#8ACE6B" transform="translate(271,299)"/>
<path d="M0 0 C3.96 0 7.92 0 12 0 C11.67 1.65 11.34 3.3 11 5 C7.37 3.68 3.74 2.36 0 1 C0 0.67 0 0.34 0 0 Z " fill="#C3F1A7" transform="translate(160,264)"/>
<path d="M0 0 C5.61 0.66 11.22 1.32 17 2 C17 2.33 17 2.66 17 3 C12.71 3 8.42 3 4 3 C4.33 3.99 4.66 4.98 5 6 C3.68 5.67 2.36 5.34 1 5 C0.67 3.35 0.34 1.7 0 0 Z " fill="#A0D983" transform="translate(246,240)"/>
<path d="M0 0 C0.66 0 1.32 0 2 0 C3.20272819 2.40545638 3.10071472 3.94996953 3.0625 6.625 C3.05347656 7.44226563 3.04445313 8.25953125 3.03515625 9.1015625 C3.02355469 9.72804688 3.01195312 10.35453125 3 11 C2.01 11 1.02 11 0 11 C0 7.37 0 3.74 0 0 Z " fill="#7ECB5A" transform="translate(301,288)"/>
<path d="M0 0 C1.65 0 3.3 0 5 0 C6.125 1.75 6.125 1.75 7 4 C6.125 6.25 6.125 6.25 5 8 C0 2.25 0 2.25 0 0 Z " fill="#91D570" transform="translate(295,284)"/>
<path d="M0 0 C0 2.90395347 -0.35123385 4.15127716 -1.4375 6.75 C-2.57762474 9.63227797 -3.11343648 11.79405537 -3.5625 14.9375 C-3.7790625 16.4534375 -3.7790625 16.4534375 -4 18 C-4.66 18.33 -5.32 18.66 -6 19 C-5.72313388 12.24446655 -5.07747949 5.07747949 0 0 Z " fill="#FBF9F6" transform="translate(138,237)"/>
<path d="M0 0 C2.97 0.33 5.94 0.66 9 1 C9.33 1.99 9.66 2.98 10 4 C8.68 4.99 7.36 5.98 6 7 C5.67 6.34 5.34 5.68 5 5 C4.34 4.690625 3.68 4.38125 3 4.0625 C1 3 1 3 0 0 Z " fill="#EEF7E1" transform="translate(167,239)"/>
<path d="M0 0 C2.97 0 5.94 0 9 0 C8.67 1.32 8.34 2.64 8 4 C7.01 4.495 7.01 4.495 6 5 C3.96855359 4.06553465 1.96466413 3.06775224 0 2 C0 1.34 0 0.68 0 0 Z " fill="#F5FAEE" transform="translate(258,238)"/>
<path d="M0 0 C0.99 0 1.98 0 3 0 C3 3.96 3 7.92 3 12 C2.01 12.33 1.02 12.66 0 13 C0 8.71 0 4.42 0 0 Z " fill="#80D55B" transform="translate(281,230)"/>
<path d="M0 0 C0.66 0 1.32 0 2 0 C5 5.75 5 5.75 5 8 C3.35 8 1.7 8 0 8 C-0.98120464 4.94736336 -0.98120464 3.05263664 0 0 Z " fill="#85C86B" transform="translate(175,299)"/>
<path d="M0 0 C0.66 0.33 1.32 0.66 2 1 C1.67 4.63 1.34 8.26 1 12 C0.67 12 0.34 12 0 12 C0 10.02 0 8.04 0 6 C-0.99 6 -1.98 6 -3 6 C-2.625 3.5625 -2.625 3.5625 -2 1 C-1.34 0.67 -0.68 0.34 0 0 Z " fill="#7DC65D" transform="translate(175,286)"/>
<path d="M0 0 C0.99 0.33 1.98 0.66 3 1 C4.47965926 1.14573058 5.96403843 1.24663268 7.44921875 1.31640625 C8.29677734 1.35830078 9.14433594 1.40019531 10.01757812 1.44335938 C10.89865234 1.48267578 11.77972656 1.52199219 12.6875 1.5625 C13.58017578 1.60568359 14.47285156 1.64886719 15.39257812 1.69335938 C17.59490108 1.79935353 19.79733473 1.90142051 22 2 C22 2.33 22 2.66 22 3 C14.41 3 6.82 3 -1 3 C-0.67 2.01 -0.34 1.02 0 0 Z " fill="#8ACF6B" transform="translate(315,293)"/>
<path d="M0 0 C0.33 1.32 0.66 2.64 1 4 C1.99 4 2.98 4 4 4 C4.33 4.66 4.66 5.32 5 6 C8.02934491 6.65772428 8.02934491 6.65772428 11 7 C11 7.33 11 7.66 11 8 C7.37 8 3.74 8 0 8 C0 5.36 0 2.72 0 0 Z " fill="#FBFAF5" transform="translate(160,254)"/>
<path d="M0 0 C0.99 0.33 1.98 0.66 3 1 C2.01 6.28 1.02 11.56 0 17 C-0.33 17 -0.66 17 -1 17 C-1.02699725 14.72923158 -1.04639453 12.45837179 -1.0625 10.1875 C-1.07990234 8.29064453 -1.07990234 8.29064453 -1.09765625 6.35546875 C-1 3 -1 3 0 0 Z " fill="#80D65E" transform="translate(152,246)"/>
<path d="M0 0 C0.33 0.66 0.66 1.32 1 2 C0.030625 1.95875 -0.93875 1.9175 -1.9375 1.875 C-5.80180375 1.85138918 -9.26550805 2.66542436 -12.984375 3.66015625 C-15 4 -15 4 -18 3 C-11.75726932 0.5206176 -6.71700347 -0.31985731 0 0 Z " fill="#F9F7F3" transform="translate(165,226)"/>
<path d="M0 0 C2.32590854 3.63423209 2.16265833 6.77088331 2 11 C1.01 11 0.02 11 -1 11 C-1.02688151 9.35425434 -1.04634123 7.70838587 -1.0625 6.0625 C-1.07410156 5.14597656 -1.08570313 4.22945312 -1.09765625 3.28515625 C-1 1 -1 1 0 0 Z " fill="#86D65E" transform="translate(235,217)"/>
<path d="M0 0 C2.86867231 1.38264837 5.56024032 2.92148553 8.25 4.625 C8.95640625 5.07101562 9.6628125 5.51703125 10.390625 5.9765625 C10.92171875 6.31429688 11.4528125 6.65203125 12 7 C11.67 7.66 11.34 8.32 11 9 C9.72549553 8.40361667 8.45553123 7.79752584 7.1875 7.1875 C6.12595703 6.68283203 6.12595703 6.68283203 5.04296875 6.16796875 C2.96195141 4.97824756 1.53063798 3.83966269 0 2 C0 1.34 0 0.68 0 0 Z " fill="#F9FBF1" transform="translate(230,275)"/>
<path d="M0 0 C0.99 0.33 1.98 0.66 3 1 C3.33 1.99 3.66 2.98 4 4 C1.525 5.485 1.525 5.485 -1 7 C-1 6.34 -1 5.68 -1 5 C-1.99 4.67 -2.98 4.34 -4 4 C-2.68 2.68 -1.36 1.36 0 0 Z " fill="#A7E58A" transform="translate(182,274)"/>
<path d="M0 0 C3.3 0 6.6 0 10 0 C9.67 1.32 9.34 2.64 9 4 C6.36 3.67 3.72 3.34 1 3 C0.67 2.01 0.34 1.02 0 0 Z " fill="#FBFCF0" transform="translate(283,274)"/>
<path d="M0 0 C0.66 0 1.32 0 2 0 C2 1.32 2 2.64 2 4 C-1.63 4.33 -5.26 4.66 -9 5 C-9.33 4.34 -9.66 3.68 -10 3 C-9.04287109 2.80083984 -9.04287109 2.80083984 -8.06640625 2.59765625 C-7.24011719 2.42105469 -6.41382813 2.24445313 -5.5625 2.0625 C-4.73878906 1.88847656 -3.91507812 1.71445313 -3.06640625 1.53515625 C-1.02338796 1.19247006 -1.02338796 1.19247006 0 0 Z " fill="#B0E795" transform="translate(307,244)"/>
<path d="M0 0 C1.32 0.33 2.64 0.66 4 1 C4.66 4.3 5.32 7.6 6 11 C5.01 11.495 5.01 11.495 4 12 C3.79503906 11.30132812 3.59007812 10.60265625 3.37890625 9.8828125 C3.10949219 8.97273438 2.84007812 8.06265625 2.5625 7.125 C2.16224609 5.76761719 2.16224609 5.76761719 1.75390625 4.3828125 C1.07386174 2.01724619 1.07386174 2.01724619 0 0 Z " fill="#FAFBF4" transform="translate(345,257)"/>
<path d="M0 0 C0.66 0 1.32 0 2 0 C2.99 4.29 3.98 8.58 5 13 C4.01 13.495 4.01 13.495 3 14 C0.79600832 9.44508386 0.41153737 4.97093824 0 0 Z " fill="#7FD659" transform="translate(292,222)"/>
<path d="M0 0 C0.33 0 0.66 0 1 0 C1 2.31 1 4.62 1 7 C-0.65 7.33 -2.3 7.66 -4 8 C-4 7.01 -4 6.02 -4 5 C-3.34 4.67 -2.68 4.34 -2 4 C-0.86649466 1.98330173 -0.86649466 1.98330173 0 0 Z " fill="#85CD5F" transform="translate(342,287)"/>
<path d="M0 0 C4 4.75 4 4.75 4 7 C4.99 7.33 5.98 7.66 7 8 C4.69 8 2.38 8 0 8 C0 5.36 0 2.72 0 0 Z " fill="#F5FEEC" transform="translate(309,276)"/>
<path d="M0 0 C2.33944736 0.28730055 4.6739143 0.61936779 7 1 C6.34 2.32 5.68 3.64 5 5 C3.125 4.6875 3.125 4.6875 1 4 C0.34 3.01 -0.32 2.02 -1 1 C-0.67 0.67 -0.34 0.34 0 0 Z " fill="#FBFCF9" transform="translate(326,275)"/>
<path d="M0 0 C-3.122002 2.08133467 -3.93266989 2.2737822 -7.5 2.25 C-8.66015625 2.25773438 -8.66015625 2.25773438 -9.84375 2.265625 C-12 2 -12 2 -15 0 C-9.65370398 -1.0024305 -5.37625234 -0.84888195 0 0 Z " fill="#F1F8E7" transform="translate(211,248)"/>
<path d="M0 0 C0.66 1.32 1.32 2.64 2 4 C2.66 4 3.32 4 4 4 C3.67 5.65 3.34 7.3 3 9 C1.35 8.67 -0.3 8.34 -2 8 C-1.34 5.36 -0.68 2.72 0 0 Z " fill="#94CC7D" transform="translate(175,222)"/>
<path d="M0 0 C0.33 0 0.66 0 1 0 C1 2.31 1 4.62 1 7 C1.99 7 2.98 7 4 7 C4.33 6.34 4.66 5.68 5 5 C4.67 6.65 4.34 8.3 4 10 C2.68 10.33 1.36 10.66 0 11 C0 7.37 0 3.74 0 0 Z " fill="#A9DE92" transform="translate(233,221)"/>
<path d="M0 0 C0.33 0 0.66 0 1 0 C1 2.97 1 5.94 1 9 C0.34 9 -0.32 9 -1 9 C-1 10.65 -1 12.3 -1 14 C-2.9451 11.08235 -3.45276317 9.37462715 -4 6 C-2.68 6.33 -1.36 6.66 0 7 C0 4.69 0 2.38 0 0 Z " fill="#7DBB63" transform="translate(272,290)"/>
<path d="M0 0 C0.33 0 0.66 0 1 0 C1.33 3.3 1.66 6.6 2 10 C1.34 9.67 0.68 9.34 0 9 C0 8.34 0 7.68 0 7 C-0.99 7.33 -1.98 7.66 -3 8 C-4 7 -4 7 -4.0625 3.9375 C-4.041875 2.968125 -4.02125 1.99875 -4 1 C-2 3 -2 3 -2 6 C-1.34 6 -0.68 6 0 6 C0 4.02 0 2.04 0 0 Z " fill="#84C368" transform="translate(281,290)"/>
<path d="M0 0 C2.4375 0.75 2.4375 0.75 5 2 C5.8125 4.125 5.8125 4.125 6 6 C4.68 6.33 3.36 6.66 2 7 C0.5393715 4.35261084 0 3.10551666 0 0 Z " fill="#94DF75" transform="translate(201,286)"/>
<path d="M0 0 C0.99 0 1.98 0 3 0 C4.4606285 2.64738916 5 3.89448334 5 7 C5.66 7 6.32 7 7 7 C6.67 7.66 6.34 8.32 6 9 C0.42857143 3.85714286 0.42857143 3.85714286 0 0 Z " fill="#F7FDEB" transform="translate(146,264)"/>
<path d="M0 0 C1.95803507 -0.05389087 3.91648909 -0.09274217 5.875 -0.125 C7.51082031 -0.15980469 7.51082031 -0.15980469 9.1796875 -0.1953125 C12 0 12 0 14 2 C11.64561267 3.42944945 10.51967567 4.08661261 7.75 3.625 C7.1725 3.41875 6.595 3.2125 6 3 C6.99 2.67 7.98 2.34 9 2 C6.03 1.67 3.06 1.34 0 1 C0 0.67 0 0.34 0 0 Z " fill="#EFF9E2" transform="translate(327,248)"/>
<path d="M0 0 C2.97 0.495 2.97 0.495 6 1 C6.33 1.99 6.66 2.98 7 4 C4.3333581 5.33332095 2.83319697 4.67102033 0 4 C0 2.68 0 1.36 0 0 Z " fill="#B6ED97" transform="translate(321,244)"/>
<path d="M0 0 C0.99 0 1.98 0 3 0 C3.69029297 0.72123047 3.69029297 0.72123047 4.39453125 1.45703125 C6.48034867 3.46164897 7.84016467 3.48117135 10.6875 3.6875 C11.49574219 3.75324219 12.30398438 3.81898438 13.13671875 3.88671875 C13.75160156 3.92410156 14.36648438 3.96148437 15 4 C15 4.33 15 4.66 15 5 C4.11971831 5.57042254 4.11971831 5.57042254 0 2 C0 1.34 0 0.68 0 0 Z " fill="#84C268" transform="translate(281,302)"/>
<path d="M0 0 C0.125 5.75 0.125 5.75 -1 8 C-1.99 8 -2.98 8 -4 8 C-3.74438677 5.6568787 -3.40729228 3.32156597 -3 1 C-1 0 -1 0 0 0 Z " fill="#86D05F" transform="translate(206,292)"/>
<path d="M0 0 C0.66 0.33 1.32 0.66 2 1 C1.34 2.65 0.68 4.3 0 6 C-2.31 5.67 -4.62 5.34 -7 5 C-4.702779 3.25728062 -2.40133271 1.60088848 0 0 Z " fill="#F3F9EA" transform="translate(335,271)"/>
<path d="M0 0 C0.33 0.66 0.66 1.32 1 2 C0.34 2 -0.32 2 -1 2 C-1 2.66 -1 3.32 -1 4 C-0.01 4.33 0.98 4.66 2 5 C1.34 5 0.68 5 0 5 C-0.33 5.66 -0.66 6.32 -1 7 C-1.99 6.67 -2.98 6.34 -4 6 C-4.33 6.66 -4.66 7.32 -5 8 C-4.64950425 4.75791433 -4.43778819 3.38472296 -1.9375 1.1875 C-1.298125 0.795625 -0.65875 0.40375 0 0 Z " fill="#85C769" transform="translate(195,210)"/>
<path d="M0 0 C2.31 0.33 4.62 0.66 7 1 C7.33 1.99 7.66 2.98 8 4 C6.02 4.33 4.04 4.66 2 5 C1.34 3.35 0.68 1.7 0 0 Z " fill="#B4F197" transform="translate(239,264)"/>
<path d="M0 0 C2.475 0.495 2.475 0.495 5 1 C5.33 1.99 5.66 2.98 6 4 C1.125 5 1.125 5 0 5 C0 3.35 0 1.7 0 0 Z " fill="#B6E69A" transform="translate(321,264)"/>
<path d="M0 0 C0.103125 0.639375 0.20625 1.27875 0.3125 1.9375 C0.539375 2.618125 0.76625 3.29875 1 4 C1.99 4.33 2.98 4.66 4 5 C3.34 5.66 2.68 6.32 2 7 C0.68 7 -0.64 7 -2 7 C-1.42415568 4.61435923 -0.77772405 2.33317216 0 0 Z " fill="#8AC16C" transform="translate(307,300)"/>
<path d="M0 0 C4.62 0 9.24 0 14 0 C14.33 0.99 14.66 1.98 15 3 C7.575 2.01 7.575 2.01 0 1 C0 0.67 0 0.34 0 0 Z " fill="#9EDA87" transform="translate(158,243)"/>
<path d="M0 0 C0.66 0.99 1.32 1.98 2 3 C1.34 4.32 0.68 5.64 0 7 C-0.99 6.67 -1.98 6.34 -3 6 C-2.625 3.5625 -2.625 3.5625 -2 1 C-1.34 0.67 -0.68 0.34 0 0 Z " fill="#FDFAF6" transform="translate(349,270)"/>
<path d="M0 0 C0.33 0 0.66 0 1 0 C1.125 3.375 1.125 3.375 1 7 C0.34 7.66 -0.32 8.32 -1 9 C-1.66 8.01 -2.32 7.02 -3 6 C-2 3 -2 3 0 0 Z " fill="#9BD47C" transform="translate(349,249)"/>
<path d="M0 0 C0.33 0.66 0.66 1.32 1 2 C-3.08443115 3.53166168 -6.79455657 2.63081652 -11 2 C-7.36576791 -0.32590854 -4.22911669 -0.16265833 0 0 Z " fill="#7ED35D" transform="translate(280,243)"/>
<path d="M0 0 C1.65 0 3.3 0 5 0 C5 0.66 5 1.32 5 2 C5.66 2.33 6.32 2.66 7 3 C4.36 3 1.72 3 -1 3 C-0.67 2.01 -0.34 1.02 0 0 Z " fill="#73C757" transform="translate(193,304)"/>
<path d="M0 0 C0.99 0.33 1.98 0.66 3 1 C3 1.99 3 2.98 3 4 C1.02 4.99 1.02 4.99 -1 6 C-1.33 4.35 -1.66 2.7 -2 1 C-1.34 0.67 -0.68 0.34 0 0 Z " fill="#A1E683" transform="translate(189,281)"/>
<path d="M0 0 C3.14737182 0.69941596 6.02588876 1.76078698 9 3 C9 3.33 9 3.66 9 4 C2.25 4.125 2.25 4.125 0 3 C0 2.01 0 1.02 0 0 Z " fill="#FBFDF1" transform="translate(296,280)"/>
<path d="M0 0 C0 1.32 0 2.64 0 4 C-1.65 4.33 -3.3 4.66 -5 5 C-5 3.68 -5 2.36 -5 1 C-3 0 -3 0 0 0 Z " fill="#F9F5F1" transform="translate(343,250)"/>
<path d="M0 0 C0.99 0.33 1.98 0.66 3 1 C4.6875 4.5625 4.6875 4.5625 6 8 C5.34 8 4.68 8 4 8 C4 7.34 4 6.68 4 6 C3.34 6 2.68 6 2 6 C1.34 4.02 0.68 2.04 0 0 Z " fill="#83D459" transform="translate(285,207)"/>
<path d="M0 0 C0.33 0 0.66 0 1 0 C1 1.65 1 3.3 1 5 C-0.98 5.99 -0.98 5.99 -3 7 C-2.25 2.25 -2.25 2.25 0 0 Z " fill="#81D15C" transform="translate(183,208)"/>
<path d="M0 0 C1.32 0.66 2.64 1.32 4 2 C3.67 2.66 3.34 3.32 3 4 C0.69 4 -1.62 4 -4 4 C-2.68 2.68 -1.36 1.36 0 0 Z " fill="#81D058" transform="translate(194,200)"/>
<path d="M0 0 C0.33 0.99 0.66 1.98 1 3 C0.67 3.66 0.34 4.32 0 5 C0.99 5.33 1.98 5.66 3 6 C2 7 2 7 -0.5625 7.0625 C-1.7690625 7.0315625 -1.7690625 7.0315625 -3 7 C-2.01 4.69 -1.02 2.38 0 0 Z " fill="#85BB6E" transform="translate(210,300)"/>
<path d="M0 0 C0.66 0 1.32 0 2 0 C2 0.99 2 1.98 2 3 C2.66 3 3.32 3 4 3 C3.67 3.99 3.34 4.98 3 6 C1.68 5.67 0.36 5.34 -1 5 C-0.67 3.35 -0.34 1.7 0 0 Z " fill="#9DCE84" transform="translate(307,281)"/>
<path d="M0 0 C6.52307692 -0.36923077 6.52307692 -0.36923077 8.9375 1.5 C9.288125 1.995 9.63875 2.49 10 3 C3.375 2.25 3.375 2.25 0 0 Z " fill="#E8F9D8" transform="translate(192,282)"/>
<path d="M0 0 C0 0.66 0 1.32 0 2 C-1.53125 3.2890625 -1.53125 3.2890625 -3.5 4.625 C-4.1496875 5.07101562 -4.799375 5.51703125 -5.46875 5.9765625 C-5.9740625 6.31429688 -6.479375 6.65203125 -7 7 C-6.2421875 3.21875 -6.2421875 3.21875 -4.0625 1.25 C-2 0 -2 0 0 0 Z " fill="#EFFBE2" transform="translate(347,277)"/>
<path d="M0 0 C1.98 0.495 1.98 0.495 4 1 C3.67 1.99 3.34 2.98 3 4 C0.9375 4.6875 0.9375 4.6875 -1 5 C-0.67 3.35 -0.34 1.7 0 0 Z " fill="#D7F5C3" transform="translate(280,264)"/>
<path d="M0 0 C3.3 0.99 6.6 1.98 10 3 C10 3.33 10 3.66 10 4 C7.25 4.25 7.25 4.25 4 4 C1.625 2 1.625 2 0 0 Z " fill="#A1E987" transform="translate(158,264)"/>
<path d="M0 0 C1.134375 0.020625 2.26875 0.04125 3.4375 0.0625 C1.26325883 2.56287734 -0.29295798 3.49878586 -3.5625 4.0625 C-3.8925 3.0725 -4.2225 2.0825 -4.5625 1.0625 C-3.5625 0.0625 -3.5625 0.0625 0 0 Z " fill="#8DCA6C" transform="translate(199.5625,198.9375)"/>
</svg>
