<?xml version="1.0" encoding="UTF-8"?>
<svg version="1.1" xmlns="http://www.w3.org/2000/svg" width="512" height="512">
<path d="M0 0 C1.1088707 -0.01058945 1.1088707 -0.01058945 2.24014282 -0.02139282 C32.97641168 -0.24840581 32.97641168 -0.24840581 45.9765625 3.203125 C47.16427246 3.50911621 47.16427246 3.50911621 48.37597656 3.82128906 C72.46918289 10.17036185 95.06072946 20.8427096 113.9765625 37.203125 C114.76885254 37.88592529 114.76885254 37.88592529 115.57714844 38.58251953 C148.46144803 67.20629917 168.18515333 106.87017323 171.63500977 150.30639648 C176.05772118 219.11425374 121.53217141 284.22271886 80.46484375 334.3828125 C79.16246871 335.97574365 77.86590218 337.5734202 76.5703125 339.171875 C71.50798949 345.40807001 66.31480917 351.52264474 61.0703125 357.60546875 C59.05711125 359.9409588 57.05728089 362.28668902 55.0703125 364.64453125 C49.00863072 371.81845759 42.7471009 378.75722314 36.27783203 385.56689453 C32.91383316 389.11056251 29.67393261 392.70236686 26.5390625 396.453125 C22.49503228 401.0015719 18.60942287 403.65181232 12.53125 404.57421875 C5.68110313 404.91986836 0.31621754 403.12325168 -4.89306641 398.56835938 C-6.7700282 396.66247441 -8.56138534 394.7046328 -10.3359375 392.703125 C-10.98256348 391.99260986 -11.62918945 391.28209473 -12.29541016 390.55004883 C-13.60119684 389.11394186 -14.90239203 387.67364529 -16.19873047 386.22900391 C-17.82256795 384.42614019 -19.46407173 382.64340578 -21.12109375 380.87109375 C-26.23569508 375.39254853 -31.07817807 369.75632611 -35.77734375 363.91796875 C-38.1117434 361.09639005 -40.54334348 358.39721788 -43.0234375 355.703125 C-47.91723229 350.37332392 -52.48364267 344.83476922 -57.0234375 339.203125 C-58.03277844 337.97307484 -59.04326348 336.7439629 -60.0546875 335.515625 C-67.09399273 326.94834275 -73.87854163 318.23155974 -80.46240234 309.31005859 C-82.07224396 307.13725078 -83.69707326 304.97627927 -85.32421875 302.81640625 C-109.70870209 270.30144046 -132.99190613 234.96232313 -146.0234375 196.203125 C-146.44906982 194.95329834 -146.44906982 194.95329834 -146.88330078 193.67822266 C-157.89136704 159.90179483 -150.52037589 119.89596662 -135.04321289 88.76196289 C-114.94964114 50.09775246 -81.04112644 20.1869657 -39.3359375 6.890625 C-26.46709356 2.94299906 -13.51126161 0.08629545 0 0 Z M-39.2109375 119.453125 C-51.27817316 133.69002525 -56.31555722 150.70735415 -55.0234375 169.203125 C-52.26597729 188.42953999 -42.87064202 203.91097583 -27.5234375 215.640625 C-12.67460266 225.77821479 3.62590323 228.91313346 21.3203125 226.8046875 C39.80948566 223.28076093 54.74785378 212.37917517 65.30078125 197.01953125 C68.66769629 191.36091646 70.99433896 185.34154445 72.95703125 179.0703125 C73.43076172 177.58917969 73.43076172 177.58917969 73.9140625 176.078125 C74.17058594 175.18867188 74.42710937 174.29921875 74.69140625 173.3828125 C75.9765625 171.203125 75.9765625 171.203125 81.9765625 169.203125 C81.9765625 163.263125 81.9765625 157.323125 81.9765625 151.203125 C79.3365625 149.883125 76.6965625 148.563125 73.9765625 147.203125 C72.19921875 143.98828125 72.19921875 143.98828125 71.0390625 140.265625 C65.28756564 123.63616434 53.53739783 111.22570426 37.9765625 103.203125 C10.35570044 91.23318916 -18.67115794 97.65178508 -39.2109375 119.453125 Z " fill="#EDE6EA" transform="translate(246.0234375,-0.203125)"/>
<path d="M0 0 C0.71140137 0.22993652 1.42280273 0.45987305 2.15576172 0.69677734 C32.94829379 10.71055129 58.26731322 33.32203021 73.04150391 62.02832031 C86.01870895 88.72315168 89.6775444 119.8629141 79.90234375 148.1796875 C78.70410252 151.1773215 77.37666739 154.08013288 76 157 C75.45107667 158.24519279 74.90433722 159.49134979 74.359375 160.73828125 C63.75845991 184.5767125 48.87782784 206.39018038 33 227 C32.18047707 228.07643292 31.36148588 229.15327083 30.54296875 230.23046875 C22.18207727 241.2053475 13.38606922 251.80275057 4.44140625 262.30419922 C2.99800384 264.00234846 1.56118577 265.70590193 0.125 267.41015625 C-5.79450534 274.40656458 -11.88635756 281.20006093 -18.19262695 287.85107422 C-20.80482887 290.61183918 -23.35581213 293.38322172 -25.76953125 296.3203125 C-28.59240977 299.71172173 -30.70674276 301.62337016 -35.140625 302.3515625 C-39.57691228 302.63066667 -39.57691228 302.63066667 -42 302 C-44.3828125 299.86328125 -44.3828125 299.86328125 -47 297 C-48.02296962 295.97736316 -49.05188786 294.96065055 -50.0859375 293.94921875 C-55.95171103 288.14181113 -61.68066202 282.31811663 -67 276 C-68.37990271 274.38832931 -69.76299891 272.77942599 -71.14599609 271.17041016 C-72.70966067 269.34918917 -74.26902786 267.52435039 -75.828125 265.69921875 C-77.86716499 263.31513925 -79.91871722 260.94307537 -81.984375 258.58203125 C-89.20320132 250.30312262 -95.91699779 241.71337552 -102.52294922 232.93994141 C-103.79536343 231.2687673 -105.09983362 229.62208851 -106.41015625 227.98046875 C-125.48736167 204.06033639 -141.72509111 177.43072932 -153 149 C-153.45246094 147.88625 -153.90492188 146.7725 -154.37109375 145.625 C-158.12020495 135.95696231 -159.37393238 126.26526301 -159.3125 115.9375 C-159.30758545 114.94234375 -159.3026709 113.9471875 -159.29760742 112.921875 C-158.76661136 78.89455796 -143.86581908 50.67640782 -120 27 C-119.32582031 26.31679687 -118.65164062 25.63359375 -117.95703125 24.9296875 C-87.84364561 -3.92211732 -39.15455763 -13.41152042 0 0 Z M-86.1875 74.25 C-98.25473566 88.48690025 -103.29211972 105.50422915 -102 124 C-99.24253979 143.22641499 -89.84720452 158.70785083 -74.5 170.4375 C-59.65116516 180.57508979 -43.35065927 183.71000846 -25.65625 181.6015625 C-7.16707684 178.07763593 7.77129128 167.17605017 18.32421875 151.81640625 C21.69113379 146.15779146 24.01777646 140.13841945 25.98046875 133.8671875 C26.45419922 132.38605469 26.45419922 132.38605469 26.9375 130.875 C27.19402344 129.98554688 27.45054687 129.09609375 27.71484375 128.1796875 C29 126 29 126 35 124 C35 118.06 35 112.12 35 106 C32.36 104.68 29.72 103.36 27 102 C25.22265625 98.78515625 25.22265625 98.78515625 24.0625 95.0625 C18.31100314 78.43303934 6.56083533 66.02257926 -9 58 C-36.62086206 46.03006416 -65.64772044 52.44866008 -86.1875 74.25 Z " fill="#D82F3B" transform="translate(293,45)"/>
<path d="M0 0 C1.10215851 0.00093658 2.20431702 0.00187317 3.33987427 0.00283813 C116.83632054 0.2112769 116.83632054 0.2112769 148.3125 29.64453125 C152.75376182 34.41164652 153.99681972 37.82248554 154.1875 44.25 C153.88229813 51.91819705 151.29353833 56.29708046 145.79296875 61.46875 C123.74421166 80.01837356 88.10540245 82.91091339 60.75 86.1875 C59.77047363 86.30609375 58.79094727 86.4246875 57.78173828 86.546875 C46.88486369 87.8197239 36.03273086 88.38994394 25.0625 88.5 C23.98009033 88.51772461 22.89768066 88.53544922 21.7824707 88.55371094 C20.77788818 88.55274414 19.77330566 88.55177734 18.73828125 88.55078125 C17.84665283 88.55376221 16.95502441 88.55674316 16.03637695 88.55981445 C13.75 88.1875 13.75 88.1875 11.93823242 86.91479492 C10.75 85.1875 10.75 85.1875 10.75 81.1875 C4.15 81.1875 -2.45 81.1875 -9.25 81.1875 C-9.58 82.8375 -9.91 84.4875 -10.25 86.1875 C-13.13172868 89.06922868 -15.42858017 88.50532419 -19.38256836 88.56762695 C-58.7130991 88.50294365 -117.12309593 86.80818709 -147.3671875 58.4609375 C-151.89793928 52.99019573 -152.92970954 48.16321235 -152.71484375 41.21875 C-151.63725885 34.1918098 -147.37590763 29.75322524 -141.875 25.5625 C-117.7046934 9.95476838 -87.19047887 6.14518533 -59.25 2.9375 C-58.17640228 2.8130098 -58.17640228 2.8130098 -57.08111572 2.68600464 C-38.06106196 0.51055831 -19.13610374 -0.02109148 0 0 Z " fill="#835F6E" transform="translate(255.25,423.8125)"/>
<path d="M0 0 C1.1088707 -0.01058945 1.1088707 -0.01058945 2.24014282 -0.02139282 C32.97641168 -0.24840581 32.97641168 -0.24840581 45.9765625 3.203125 C47.16427246 3.50911621 47.16427246 3.50911621 48.37597656 3.82128906 C72.46918289 10.17036185 95.06072946 20.8427096 113.9765625 37.203125 C114.76885254 37.88592529 114.76885254 37.88592529 115.57714844 38.58251953 C148.46144803 67.20629917 168.18515333 106.87017323 171.63500977 150.30639648 C176.05772118 219.11425374 121.53217141 284.22271886 80.46484375 334.3828125 C79.16246871 335.97574365 77.86590218 337.5734202 76.5703125 339.171875 C71.50798949 345.40807001 66.31480917 351.52264474 61.0703125 357.60546875 C59.05711125 359.9409588 57.05728089 362.28668902 55.0703125 364.64453125 C49.00863072 371.81845759 42.7471009 378.75722314 36.27783203 385.56689453 C32.91383316 389.11056251 29.67393261 392.70236686 26.5390625 396.453125 C22.49503228 401.0015719 18.60942287 403.65181232 12.53125 404.57421875 C5.68110313 404.91986836 0.31621754 403.12325168 -4.89306641 398.56835938 C-6.7700282 396.66247441 -8.56138534 394.7046328 -10.3359375 392.703125 C-10.98256348 391.99260986 -11.62918945 391.28209473 -12.29541016 390.55004883 C-13.60119684 389.11394186 -14.90239203 387.67364529 -16.19873047 386.22900391 C-17.82256795 384.42614019 -19.46407173 382.64340578 -21.12109375 380.87109375 C-26.23569508 375.39254853 -31.07817807 369.75632611 -35.77734375 363.91796875 C-38.1117434 361.09639005 -40.54334348 358.39721788 -43.0234375 355.703125 C-47.91723229 350.37332392 -52.48364267 344.83476922 -57.0234375 339.203125 C-58.03277844 337.97307484 -59.04326348 336.7439629 -60.0546875 335.515625 C-67.09399273 326.94834275 -73.87854163 318.23155974 -80.46240234 309.31005859 C-82.07224396 307.13725078 -83.69707326 304.97627927 -85.32421875 302.81640625 C-109.70870209 270.30144046 -132.99190613 234.96232313 -146.0234375 196.203125 C-146.44906982 194.95329834 -146.44906982 194.95329834 -146.88330078 193.67822266 C-157.89136704 159.90179483 -150.52037589 119.89596662 -135.04321289 88.76196289 C-114.94964114 50.09775246 -81.04112644 20.1869657 -39.3359375 6.890625 C-26.46709356 2.94299906 -13.51126161 0.08629545 0 0 Z M-96.0234375 60.203125 C-113.70372513 78.95605332 -125.64483797 101.27343184 -132.0234375 126.203125 C-132.54550781 127.94722656 -132.54550781 127.94722656 -133.078125 129.7265625 C-143.22213271 167.03303715 -129.26952443 203.21973391 -111.14697266 235.55078125 C-96.86429611 260.27066064 -80.57913349 283.70776035 -63.0234375 306.203125 C-62.10138762 307.39309368 -61.17950612 308.58319286 -60.2578125 309.7734375 C-47.12756133 326.66680144 -33.40635617 343.13916632 -19.02734375 358.984375 C-17.21031768 360.99620893 -15.42399358 363.02972934 -13.6484375 365.078125 C-10.17982614 369.0641982 -6.60901298 372.95509611 -3.01147461 376.82470703 C-0.43418433 379.60862682 1.97422466 382.44992749 4.2890625 385.453125 C6.68192991 388.43768382 6.68192991 388.43768382 9.82421875 388.69921875 C14.13085604 388.02147038 15.30925454 386.31601346 18.1015625 383.015625 C19.05648198 381.91205927 20.0122417 380.80922017 20.96875 379.70703125 C21.45956055 379.13098145 21.95037109 378.55493164 22.45605469 377.96142578 C24.96979989 375.05455473 27.60384402 372.26135484 30.2265625 369.453125 C34.55802112 364.77083598 38.82018489 360.04215091 42.9765625 355.203125 C43.83378906 354.213125 44.69101562 353.223125 45.57421875 352.203125 C53.52809122 342.99507049 61.29033692 333.63530782 68.9765625 324.203125 C69.48687012 323.57825195 69.99717773 322.95337891 70.52294922 322.30957031 C110.80044877 272.88231897 162.19747102 208.95740306 155.3515625 141.328125 C149.7896326 102.51129955 128.13528031 66.82423023 96.9765625 43.203125 C82.63774141 32.88498685 66.12831123 24.5162557 48.9765625 20.203125 C48.29287598 20.02942383 47.60918945 19.85572266 46.90478516 19.67675781 C-5.21701888 6.54605053 -58.34188243 22.10113417 -96.0234375 60.203125 Z " fill="#010101" transform="translate(246.0234375,-0.203125)"/>
<path d="M0 0 C0.71140137 0.22993652 1.42280273 0.45987305 2.15576172 0.69677734 C32.94829379 10.71055129 58.26731322 33.32203021 73.04150391 62.02832031 C86.01870895 88.72315168 89.6775444 119.8629141 79.90234375 148.1796875 C78.70410252 151.1773215 77.37666739 154.08013288 76 157 C75.45107667 158.24519279 74.90433722 159.49134979 74.359375 160.73828125 C63.75845991 184.5767125 48.87782784 206.39018038 33 227 C32.18047707 228.07643292 31.36148588 229.15327083 30.54296875 230.23046875 C22.18207727 241.2053475 13.38606922 251.80275057 4.44140625 262.30419922 C2.99800384 264.00234846 1.56118577 265.70590193 0.125 267.41015625 C-5.79450534 274.40656458 -11.88635756 281.20006093 -18.19262695 287.85107422 C-20.80482887 290.61183918 -23.35581213 293.38322172 -25.76953125 296.3203125 C-28.59240977 299.71172173 -30.70674276 301.62337016 -35.140625 302.3515625 C-39.57691228 302.63066667 -39.57691228 302.63066667 -42 302 C-44.3828125 299.86328125 -44.3828125 299.86328125 -47 297 C-48.02296962 295.97736316 -49.05188786 294.96065055 -50.0859375 293.94921875 C-55.95171103 288.14181113 -61.68066202 282.31811663 -67 276 C-68.37990271 274.38832931 -69.76299891 272.77942599 -71.14599609 271.17041016 C-72.70966067 269.34918917 -74.26902786 267.52435039 -75.828125 265.69921875 C-77.86716499 263.31513925 -79.91871722 260.94307537 -81.984375 258.58203125 C-89.20320132 250.30312262 -95.91699779 241.71337552 -102.52294922 232.93994141 C-103.79536343 231.2687673 -105.09983362 229.62208851 -106.41015625 227.98046875 C-125.48736167 204.06033639 -141.72509111 177.43072932 -153 149 C-153.45246094 147.88625 -153.90492188 146.7725 -154.37109375 145.625 C-158.12020495 135.95696231 -159.37393238 126.26526301 -159.3125 115.9375 C-159.30758545 114.94234375 -159.3026709 113.9471875 -159.29760742 112.921875 C-158.76661136 78.89455796 -143.86581908 50.67640782 -120 27 C-119.32582031 26.31679687 -118.65164062 25.63359375 -117.95703125 24.9296875 C-87.84364561 -3.92211732 -39.15455763 -13.41152042 0 0 Z M-66 13 C-67.12535156 13.3403125 -68.25070313 13.680625 -69.41015625 14.03125 C-94.35810528 22.20909376 -115.23213196 38.66259914 -129 61 C-129.5256958 61.84788086 -129.5256958 61.84788086 -130.06201172 62.71289062 C-142.20905516 82.6723479 -148.27469984 109.1890795 -142.875 132.3125 C-142.28813454 134.22048269 -141.6607982 136.11634537 -141 138 C-140.63261719 139.1446875 -140.26523438 140.289375 -139.88671875 141.46875 C-130.96747779 168.0062447 -114.53463753 191.69982834 -98 214 C-97.00103629 215.36178423 -96.00233235 216.72375906 -95.00390625 218.0859375 C-87.68443115 228.01552383 -79.9414405 237.56284174 -72 247 C-71.46842285 247.63212402 -70.9368457 248.26424805 -70.38916016 248.91552734 C-64.28826086 256.14898618 -58.04470757 263.2265508 -51.609375 270.1640625 C-48.32865226 273.72963841 -45.14382873 277.37591373 -41.97265625 281.0390625 C-40.05753604 282.94280576 -38.47524285 283.97003318 -36 285 C-30.73870764 279.83398256 -25.56492732 274.6547687 -20.76953125 269.05078125 C-18.76213977 266.72433417 -16.69533362 264.45807314 -14.625 262.1875 C-10.80402862 257.94911157 -7.15752669 253.60120897 -3.5703125 249.1640625 C-1.64819539 246.7871519 0.29965269 244.43324057 2.2578125 242.0859375 C10.15181277 232.61005916 17.76172017 222.9865642 25 213 C25.8353125 211.84975342 25.8353125 211.84975342 26.6875 210.67626953 C35.47788541 198.50855133 43.5879753 186.05471064 51 173 C51.45391113 172.20207031 51.90782227 171.40414062 52.37548828 170.58203125 C61.85524018 153.73219315 70.44152248 135.67592795 70.3125 116 C70.30404053 114.62968628 70.30404053 114.62968628 70.29541016 113.23168945 C69.77891862 83.84536635 56.86437668 58.22320984 36.16503906 37.67724609 C12.61434503 15.26654217 -17.20872107 9.18366315 -48.74707031 9.86376953 C-54.77049345 10.11602637 -60.24894384 11.14530308 -66 13 Z " fill="#030202" transform="translate(293,45)"/>
<path d="M0 0 C4.28555039 3.56455371 8.42918436 7.24216449 12.484375 11.06640625 C13.16113281 11.67871094 13.83789062 12.29101562 14.53515625 12.921875 C18.88235968 17.00772351 22.43871175 21.49475926 25.921875 26.31640625 C26.35951172 26.91928467 26.79714844 27.52216309 27.24804688 28.14331055 C29.27968735 31.03018795 31.00150009 33.51947053 31.484375 37.06640625 C30.31770833 36.19140625 29.15104167 35.31640625 27.984375 34.44140625 C27.24703125 33.89226562 26.5096875 33.343125 25.75 32.77734375 C24.34909656 31.71942012 22.96068866 30.64442758 21.59375 29.54296875 C3.62959611 15.27731713 -18.32484181 12.54285994 -40.515625 14.06640625 C-61.02441341 16.85722069 -79.30352779 30.05926126 -91.63671875 46.203125 C-101.34879599 61.00344229 -105.69033767 75.7948959 -105.703125 93.44140625 C-105.72149414 94.76398438 -105.72149414 94.76398438 -105.74023438 96.11328125 C-105.78713701 117.43834805 -96.2489108 136.07554552 -81.515625 151.06640625 C-80.90203125 151.69289062 -80.2884375 152.319375 -79.65625 152.96484375 C-65.54909394 166.28826892 -47.00802105 172.23792527 -28.015625 172.31640625 C-26.1903125 172.34734375 -26.1903125 172.34734375 -24.328125 172.37890625 C-13.14714352 172.42668822 -3.36520684 170.3001543 6.796875 165.69140625 C7.77237305 165.27375 7.77237305 165.27375 8.76757812 164.84765625 C13.45971757 162.76642757 17.38460865 160.15316436 21.484375 157.06640625 C22.144375 157.39640625 22.804375 157.72640625 23.484375 158.06640625 C15.66657855 170.80257095 7.42816679 183.0942124 -1.515625 195.06640625 C-2.04800781 195.78038574 -2.58039063 196.49436523 -3.12890625 197.22998047 C-10.735041 207.39231318 -18.64733285 217.28058941 -26.80029297 227.00878906 C-28.52368364 229.07607295 -30.22568442 231.15963359 -31.92578125 233.24609375 C-32.99674754 234.54090107 -34.06833279 235.83519677 -35.140625 237.12890625 C-35.62539307 237.73114014 -36.11016113 238.33337402 -36.60961914 238.95385742 C-37.9921875 240.6015625 -37.9921875 240.6015625 -40.515625 243.06640625 C-44.515625 243.06640625 -44.515625 243.06640625 -46.55859375 241.265625 C-47.26628906 240.43675781 -47.97398437 239.60789062 -48.703125 238.75390625 C-49.4971875 237.8309375 -50.29125 236.90796875 -51.109375 235.95703125 C-54.07355579 232.39616472 -57.03242759 228.83351455 -59.9453125 225.23046875 C-61.86742961 222.85355815 -63.81527769 220.49964682 -65.7734375 218.15234375 C-73.66743777 208.67646541 -81.27734517 199.05297045 -88.515625 189.06640625 C-89.0725 188.2995752 -89.629375 187.53274414 -90.203125 186.74267578 C-105.09059259 166.13533016 -119.13690578 144.23403799 -128.515625 120.50390625 C-128.79446533 119.80249512 -129.07330566 119.10108398 -129.3605957 118.37841797 C-132.67412133 109.60250126 -133.8668139 101.04229826 -133.765625 91.69140625 C-133.75813232 90.76875977 -133.75063965 89.84611328 -133.74291992 88.89550781 C-133.63599787 82.10745078 -133.15271997 75.67510014 -131.515625 69.06640625 C-131.3702832 68.44910645 -131.22494141 67.83180664 -131.07519531 67.19580078 C-124.54716508 40.08688482 -107.14126238 16.1787321 -83.53466797 1.26318359 C-55.5477315 -15.32592917 -26.85450235 -20.791895 0 0 Z " fill="#E3636C" transform="translate(282.515625,68.93359375)"/>
<path d="M0 0 C37.74683165 -1.77245992 73.68269318 16.17178928 101 41 C120.95337547 59.7462217 134.18854518 84.69035222 141 111 C141.34160156 112.13824219 141.68320312 113.27648437 142.03515625 114.44921875 C152.54674791 153.13357836 136.9356633 190.76939442 118 224 C104.34523496 247.45779314 88.6496471 269.58954501 72 291 C71.53239258 291.60408691 71.06478516 292.20817383 70.58300781 292.83056641 C57.03415184 310.32507554 42.88000502 327.38362104 28.01171875 343.7734375 C26.15265331 345.83104391 24.32071642 347.90846763 22.5 350 C19.13542289 353.86188182 15.71628391 357.67186969 12.265625 361.45703125 C10.75772978 363.14951364 9.28809605 364.87688899 7.859375 366.63671875 C7.18390625 367.45785156 6.5084375 368.27898437 5.8125 369.125 C5.22082031 369.87007813 4.62914062 370.61515625 4.01953125 371.3828125 C2 373 2 373 -0.984375 373.5 C-4.78604062 372.86967202 -5.66263994 371.84262019 -8.0625 368.875 C-8.8153125 367.9778125 -9.568125 367.080625 -10.34375 366.15625 C-10.75753906 365.65738281 -11.17132813 365.15851563 -11.59765625 364.64453125 C-14.31376772 361.45934203 -17.20150278 358.42958683 -20.0625 355.375 C-21.19947864 354.15388776 -22.33621846 352.93255309 -23.47265625 351.7109375 C-24.30667969 350.81632812 -25.14070312 349.92171875 -26 349 C-22.91461774 345.3393662 -19.85797059 341.73064044 -16.375 338.4375 C-13.39294313 335.51495202 -11.17088388 332.56024956 -9 329 C-8.01 329.66 -7.02 330.32 -6 331 C-1.95943093 331.58262887 1.80448751 331.45543333 5.625 330 C7.74413285 328.21546707 9.39264889 326.45926965 11.1875 324.36328125 C14.80386185 320.19200302 18.57011497 316.1861295 22.375 312.1875 C27.37793546 306.89045406 32.17134878 301.520646 36.7109375 295.81640625 C38.94297077 293.07016736 41.25042769 290.41354366 43.59008789 287.75952148 C50.63441072 279.76200304 57.14255157 271.4445535 63.5390625 262.92382812 C64.80369364 261.25850503 66.1020327 259.61888109 67.40625 257.984375 C86.48776801 234.06712982 102.72513345 207.43062256 114 179 C114.67869141 177.329375 114.67869141 177.329375 115.37109375 175.625 C119.12020495 165.95696231 120.37393238 156.26526301 120.3125 145.9375 C120.30758545 144.94234375 120.3026709 143.9471875 120.29760742 142.921875 C119.76748447 108.95050888 104.90120457 80.59721468 81 57 C75.50610997 51.71342658 69.88918832 47.46743402 63.28515625 43.640625 C60.81950431 41.87041335 60.1774179 40.72946877 59 38 C44.93031626 20.5968835 20.74062419 8.19572676 0 1 C0 0.67 0 0.34 0 0 Z " fill="#DBD1D5" transform="translate(257,15)"/>
<path d="M0 0 C1.10215851 0.00093658 2.20431702 0.00187317 3.33987427 0.00283813 C116.83632054 0.2112769 116.83632054 0.2112769 148.3125 29.64453125 C152.75376182 34.41164652 153.99681972 37.82248554 154.1875 44.25 C153.88229813 51.91819705 151.29353833 56.29708046 145.79296875 61.46875 C123.74421166 80.01837356 88.10540245 82.91091339 60.75 86.1875 C59.77047363 86.30609375 58.79094727 86.4246875 57.78173828 86.546875 C46.88486369 87.8197239 36.03273086 88.38994394 25.0625 88.5 C23.98009033 88.51772461 22.89768066 88.53544922 21.7824707 88.55371094 C20.77788818 88.55274414 19.77330566 88.55177734 18.73828125 88.55078125 C17.84665283 88.55376221 16.95502441 88.55674316 16.03637695 88.55981445 C13.75 88.1875 13.75 88.1875 11.96948242 86.91088867 C10.26236036 84.49836121 10.28980314 82.11074286 10.15625 79.22265625 C11.10382625 75.97471399 12.94651859 75.00207113 15.75 73.1875 C18.61419622 72.68695373 21.16072463 72.40288221 24.0390625 72.28125 C24.84686661 72.23130386 25.65467072 72.18135773 26.48695374 72.12989807 C28.21746185 72.02355457 29.94844655 71.9247455 31.67977905 71.83279419 C36.22565664 71.58773465 40.76691534 71.27720535 45.30859375 70.96484375 C46.66115013 70.87280922 46.66115013 70.87280922 48.04103088 70.77891541 C58.73543641 70.02170359 69.27449922 68.5172589 79.83789062 66.69042969 C82.67511916 66.20043214 85.51627124 65.74351769 88.359375 65.2890625 C104.73466609 62.551948 122.77523594 58.09953921 136.4375 48.25 C138.02962265 46.15554313 138.02962265 46.15554313 137.75 43.0625 C137.07896664 40.13832924 137.07896664 40.13832924 135.06640625 39.1875 C134.30199219 38.8575 133.53757812 38.5275 132.75 38.1875 C131.81027344 37.73632812 130.87054688 37.28515625 129.90234375 36.8203125 C111.5372555 28.20679602 93.02565218 23.94284281 73 21 C71.96883057 20.8453125 70.93766113 20.690625 69.87524414 20.53125 C47.45195455 17.41713929 25.00326386 16.85790937 2.40722656 16.92675781 C-1.38432635 16.93821358 -5.17560033 16.9313317 -8.96714401 16.9198761 C-24.82646351 16.87920988 -40.50243443 17.09617794 -56.25 19.1875 C-57.97259033 19.39197754 -57.97259033 19.39197754 -59.72998047 19.60058594 C-62.57358754 19.94021523 -65.41177293 20.30580471 -68.25 20.6875 C-69.22074463 20.81713135 -70.19148926 20.9467627 -71.19165039 21.08032227 C-73.87868365 21.4430932 -76.56458585 21.81295398 -79.25 22.1875 C-80.42433594 22.35121094 -81.59867187 22.51492188 -82.80859375 22.68359375 C-100.40399988 25.38139686 -120.63263864 30.05957322 -134.875 41.25 C-136.43064181 43.06369125 -136.43064181 43.06369125 -136.3125 45.1875 C-132.5669225 52.23799882 -122.01594946 55.92053324 -114.8828125 58.3203125 C-111.35241474 59.33700301 -107.80668585 60.26740083 -104.25 61.1875 C-103.1465625 61.51492188 -102.043125 61.84234375 -100.90625 62.1796875 C-88.89936149 65.66817538 -76.61039629 67.43706312 -64.25 69.1875 C-63.46818359 69.29835938 -62.68636719 69.40921875 -61.88085938 69.5234375 C-54.00478499 70.59976161 -46.14195493 71.21281255 -38.203125 71.609375 C-36.74812384 71.68595132 -35.29312713 71.76261222 -33.83813477 71.83935547 C-30.94326576 71.99118356 -28.04880382 72.1164135 -25.15209961 72.22705078 C-23.80318245 72.29378857 -22.45430334 72.36130115 -21.10546875 72.4296875 C-19.30565552 72.50485596 -19.30565552 72.50485596 -17.46948242 72.58154297 C-13.69923458 73.29116268 -11.95903488 74.51547637 -9.25 77.1875 C-8.39082545 80.13243382 -8.8514379 82.04882349 -9.25 85.1875 C-10.80058346 87.31197132 -11.68806683 88.07578836 -14.2824707 88.59155273 C-17.04416511 88.62564077 -19.80050987 88.65226007 -22.5625 88.625 C-23.644104 88.61815186 -24.72570801 88.61130371 -25.84008789 88.60424805 C-63.51733838 87.90792176 -118.47837407 85.53790897 -147.3671875 58.4609375 C-151.89793928 52.99019573 -152.92970954 48.16321235 -152.71484375 41.21875 C-151.63725885 34.1918098 -147.37590763 29.75322524 -141.875 25.5625 C-117.7046934 9.95476838 -87.19047887 6.14518533 -59.25 2.9375 C-58.17640228 2.8130098 -58.17640228 2.8130098 -57.08111572 2.68600464 C-38.06106196 0.51055831 -19.13610374 -0.02109148 0 0 Z " fill="#010000" transform="translate(255.25,423.8125)"/>
<path d="M0 0 C1.22396484 0.62648438 1.22396484 0.62648438 2.47265625 1.265625 C19.70345096 10.76850386 32.80904323 27.4271297 39 46 C39.4487914 49.08473077 39.58123417 51.92776227 39 55 C36.375 57.625 36.375 57.625 33 59 C29.8125 59 29.8125 59 27 58 C24.25190629 54.98753272 23.15401315 51.89480238 21.875 48.0625 C15.70408134 31.64969843 3.76924557 19.50452354 -12 12 C-29.74172565 5.37454286 -46.78442523 5.36048794 -64.328125 12.3203125 C-79.98686792 19.66787648 -92.18905332 32.16596399 -98.29296875 48.44921875 C-104.0922515 66.81012478 -102.91410653 83.83952228 -94.9375 101.25 C-86.605079 116.86438721 -72.74782419 127.57725036 -55.9765625 132.97265625 C-38.19478848 137.69250985 -20.92590194 135.0875879 -4.875 126.3671875 C12.19660676 116.40593869 20.05668336 100.34906408 26.0078125 82.1796875 C27 80 27 80 30 78 C33.80365414 78.1383147 36.25126797 78.50084531 39.4375 80.625 C41.63127761 83.95954196 41.29441612 86.02936098 41 90 C40.20338512 93.01305156 39.10817788 95.86417149 37.9375 98.75 C37.62022949 99.54277344 37.30295898 100.33554688 36.97607422 101.15234375 C32.4954778 112.01385875 26.22332819 120.63705673 18 129 C17.31292969 129.69996094 16.62585938 130.39992187 15.91796875 131.12109375 C-1.48961647 147.68898098 -22.71030548 151.61748748 -45.96484375 151.33984375 C-63.5281709 150.77869277 -79.01720361 142.5692591 -92 131 C-92.75925781 130.33484375 -93.51851562 129.6696875 -94.30078125 128.984375 C-107.8037303 116.39095102 -116.83982116 97.9248538 -118.18725586 79.4296875 C-118.26644976 76.82443014 -118.27844947 74.23126072 -118.25 71.625 C-118.24178223 70.70380371 -118.23356445 69.78260742 -118.22509766 68.83349609 C-117.86235853 46.69860879 -109.48548866 28.77567669 -94 13 C-93.33613281 12.31164062 -92.67226562 11.62328125 -91.98828125 10.9140625 C-67.5052039 -12.68296062 -29.47184485 -15.63249181 0 0 Z " fill="#010000" transform="translate(294,91)"/>
<path d="M0 0 C17.16804288 0.59507948 34.71126959 3.50040521 51 9 C51.65049316 9.21914063 52.30098633 9.43828125 52.97119141 9.6640625 C74.30485302 16.95727952 74.30485302 16.95727952 79 24 C79 25.875 79 25.875 78 28 C59.50894132 46.49105868 21.75341412 50.53692593 -3 51 C-0.39437668 49.63461421 2.12981935 48.56255309 4.94140625 47.703125 C23.54032969 42.21743036 23.54032969 42.21743036 37 29 C37.78856489 24.84211241 37.36948556 22.84453842 35.6875 19 C27.66012055 8.55607379 11.91511822 4.93475997 0 1 C0 0.67 0 0.34 0 0 Z " fill="#724F5C" transform="translate(315,443)"/>
<path d="M0 0 C0 0.99 0 1.98 0 3 C-6.6 3 -13.2 3 -20 3 C-20 2.34 -20 1.68 -20 1 C-6.3667426 -0.14806378 -6.3667426 -0.14806378 0 0 Z " fill="#76525F" transform="translate(266,502)"/>
</svg>
