<?xml version="1.0" encoding="UTF-8"?>
<svg version="1.1" xmlns="http://www.w3.org/2000/svg" width="500" height="500">
<path d="M0 0 C6.98242443 3.89130404 11.40269347 9.24355081 13.75 16.9375 C14.52401361 24.15531501 13.24491844 29.44527098 10.0625 35.875 C9.66385742 36.71998047 9.26521484 37.56496094 8.85449219 38.43554688 C7.50613432 41.27946772 6.12926135 44.10844955 4.75 46.9375 C3.73713479 49.04241747 2.72545524 51.1479058 1.71484375 53.25390625 C0.09073956 56.633792 -1.53618196 60.01219535 -3.17089844 63.38696289 C-7.09413347 71.49094478 -10.91637257 79.63675082 -14.6875 87.8125 C-19.39617372 98.01510057 -24.2262698 108.15249258 -29.13497925 118.25970459 C-33.43124898 127.1108179 -37.62880603 136.00323278 -41.75 144.9375 C-46.43729323 155.09900431 -51.24672815 165.1946904 -56.13525391 175.26025391 C-60.43143059 184.11118445 -64.62889197 193.00341908 -68.75 201.9375 C-73.4376068 212.09968409 -78.24727869 222.19609241 -83.13626099 232.26226807 C-87.4119419 241.07062756 -91.58810557 249.92043119 -95.6875 258.8125 C-100.57166492 269.40480877 -105.60241298 279.91582933 -110.70672607 290.40319824 C-115.72632665 300.72217515 -120.6018362 311.09819248 -125.40625 321.51953125 C-129.26523256 329.86965244 -133.2314487 338.16349922 -137.25 346.4375 C-141.8433731 355.89525475 -146.34579975 365.38970822 -150.75 374.9375 C-155.4376068 385.09968409 -160.24727869 395.19609241 -165.13626099 405.26226807 C-169.41196088 414.07066666 -173.58566961 422.92153268 -177.6875 431.8125 C-179.29788893 435.28230708 -180.91056208 438.75104061 -182.52441406 442.21923828 C-183.73887338 444.83171763 -184.94505724 447.44786929 -186.14746094 450.06591797 C-187.77904062 453.61464127 -189.43137088 457.15311249 -191.09622192 460.68634033 C-191.73112781 462.04229541 -192.3593405 463.40140848 -192.98019409 464.76385498 C-197.23442336 474.08620897 -201.52887296 481.52258516 -211.1875 485.875 C-218.9550865 488.28249757 -224.69383483 487.21558258 -231.890625 483.6171875 C-238.15183912 479.15970063 -240.90244048 472.98473717 -243.890625 466.13671875 C-244.31893616 465.17448898 -244.74724731 464.21225922 -245.1885376 463.22087097 C-249.76046822 452.89895574 -254.17934833 442.50996314 -258.57723999 432.11297607 C-261.067173 426.22752449 -263.56694735 420.34625477 -266.06640625 414.46484375 C-266.83287224 412.66071014 -266.83287224 412.66071014 -267.61482239 410.82012939 C-273.00997557 398.13116342 -278.46908884 385.47002814 -283.9375 372.8125 C-284.85925752 370.67759116 -285.78097045 368.54266307 -286.70263672 366.40771484 C-290.24964958 358.19278349 -293.7987205 349.97875214 -297.35414124 341.76745605 C-298.52101158 339.07060812 -299.68514879 336.37258835 -300.84829712 333.6741333 C-301.59764893 331.93835526 -302.3508758 330.2042517 -303.10424805 328.47021484 C-303.53133057 327.47844238 -303.95841309 326.48666992 -304.3984375 325.46484375 C-304.76114746 324.62687256 -305.12385742 323.78890137 -305.49755859 322.92553711 C-306.25 320.9375 -306.25 320.9375 -306.25 318.9375 C-307.53088501 318.76033447 -307.53088501 318.76033447 -308.83764648 318.57958984 C-312.36471146 317.91591517 -315.47986366 316.90088034 -318.84765625 315.6640625 C-319.81498184 315.31169525 -319.81498184 315.31169525 -320.80184937 314.95220947 C-322.21905331 314.43537454 -323.63540143 313.91618834 -325.05099487 313.3949585 C-328.21572446 312.23002369 -331.38482929 311.0772013 -334.55366516 309.92349243 C-336.30084666 309.28730985 -338.04781925 308.6505533 -339.79460144 308.01327515 C-349.96527484 304.30489577 -360.15728831 300.65630832 -370.3494873 297.00759888 C-373.7062186 295.80579823 -377.0626293 294.60310638 -380.41894531 293.40014648 C-391.01570789 289.60229297 -401.61339797 285.80703972 -412.21220398 282.01489258 C-417.00954512 280.29826187 -421.80656448 278.58073308 -426.60354614 276.86309814 C-428.87623053 276.04961336 -431.14907327 275.23657081 -433.42208862 274.42401123 C-453.72275287 267.16685683 -453.72275287 267.16685683 -463.49609375 263.55078125 C-464.71353271 263.10130127 -465.93097168 262.65182129 -467.18530273 262.1887207 C-474.56741768 259.17483246 -478.94562233 254.91361989 -482.328125 247.609375 C-484.23667889 242.07780355 -484.26298714 235.91314972 -482.375 230.3671875 C-476.63566187 219.22834046 -465.88955278 215.01047809 -455.125 209.9375 C-453.55011445 209.18554368 -451.97573927 208.43251759 -450.40185547 207.6784668 C-447.20979951 206.15073442 -444.01523836 204.62845303 -440.81835938 203.11083984 C-435.50207891 200.58523114 -430.20317255 198.02435058 -424.90576172 195.45947266 C-421.3632823 193.7443267 -417.81870721 192.03358883 -414.2734375 190.32421875 C-413.11424805 189.76524902 -411.95505859 189.2062793 -410.76074219 188.63037109 C-409.60219727 188.07172363 -408.44365234 187.51307617 -407.25 186.9375 C-402.49973852 184.64637499 -397.74974733 182.35469072 -393 180.0625 C-391.22471924 179.20579712 -391.22471924 179.20579712 -389.41357422 178.33178711 C-379.39449165 173.49531208 -369.38506128 168.63901721 -359.3760376 163.7817688 C-349.5699839 159.02371061 -339.75144656 154.29273813 -329.92089844 149.58544922 C-320.84793434 145.23561767 -311.79841198 140.83809249 -302.75 136.4375 C-291.73781475 131.08184867 -280.71548102 125.74907 -269.67089844 120.46044922 C-261.10128157 116.35376858 -252.5492563 112.21134238 -244 108.0625 C-227.58023657 100.09448137 -211.14554578 92.15778807 -194.70703125 84.22851562 C-191.13789518 82.50677067 -187.56889502 80.78474455 -184 79.0625 C-182.81664062 78.49144531 -181.63328125 77.92039062 -180.4140625 77.33203125 C-170.39482407 72.49546055 -160.38522499 67.63909665 -150.3760376 62.7817688 C-140.5699839 58.02371061 -130.75144656 53.29273813 -120.92089844 48.58544922 C-111.84793434 44.23561767 -102.79841198 39.83809249 -93.75 35.4375 C-82.75697057 30.09116488 -71.7551992 24.76469668 -60.72802734 19.48901367 C-54.63721616 16.57211044 -48.55742594 13.63333585 -42.484375 10.6796875 C-41.72988068 10.31293411 -40.97538635 9.94618073 -40.19802856 9.5683136 C-36.45558429 7.74896366 -32.71410929 5.92766494 -28.97412109 4.10327148 C-27.61038798 3.43986655 -26.24662013 2.776533 -24.8828125 2.11328125 C-24.25590515 1.80659515 -23.6289978 1.49990906 -22.98309326 1.18392944 C-15.11063506 -2.6387244 -8.1673348 -3.76858868 0 0 Z " fill="#FFFFFF" transform="translate(483.25,9.0625)"/>
</svg>
