<svg xmlns="http://www.w3.org/2000/svg" viewBox="0 0 85 85"><defs><style>.cls-1{fill:#276ef1;}.cls-2{fill:#9cc0ff;}.cls-3{fill:#fff;}</style></defs><title>Phone Anonymization</title><g id="Layer_1" data-name="Layer 1"><path d="M63.93,71.62H21.07V19.18A17.82,17.82,0,0,1,29.22,4.09C46.14-6.64,63.93,5.36,63.93,21.43ZM29.3,63.38H55.69V19.27A9.48,9.48,0,0,0,52,11.69C41.23,3.51,29.3,11.11,29.3,21.43Z"/><circle class="cls-1" cx="42.5" cy="54.59" r="30.41"/><path class="cls-2" d="M66.05,54.59A23.55,23.55,0,1,1,42.5,31,23.55,23.55,0,0,1,66.05,54.59Z"/><path class="cls-3" d="M57.81,54.59A15.31,15.31,0,1,1,42.5,39.28,15.31,15.31,0,0,1,57.81,54.59Z"/><path d="M38.18,61l2-6.16a4,4,0,1,1,6.33-3.31,4,4,0,0,1-1.72,3.31l2,6.16Z"/></g></svg>