<?xml version="1.0" encoding="UTF-8"?>
<svg version="1.1" xmlns="http://www.w3.org/2000/svg" width="512" height="512">
<path d="M0 0 C17.95370633 14.94696646 29.90016569 34.42698883 32.42578125 58.01953125 C32.37284912 59.88158203 32.37284912 59.88158203 32.31884766 61.78125 C32.12712243 68.90298714 32.5076792 73.84218448 37.30540466 79.34877014 C40.09086759 82.22063688 43.01169119 84.91081446 45.98828125 87.58203125 C47.17201174 88.69888982 48.35238005 89.81932302 49.52929688 90.94335938 C54.07661127 95.25526574 58.72406044 99.44014068 63.484375 103.515625 C69.86007113 109.03035412 75.6600144 115.20089859 81.58056641 121.19482422 C87.12924269 126.80604862 92.65770393 132.37937556 98.66455078 137.50732422 C108.23292739 145.72281143 117.27623683 154.05669019 119.42578125 167.01953125 C119.52622537 169.35327474 119.57400093 171.68952227 119.58691406 174.02539062 C119.59187897 174.7105928 119.59684387 175.39579498 119.60195923 176.10176086 C119.61649725 178.35561139 119.62336714 180.60939165 119.62890625 182.86328125 C119.63466254 184.43599447 119.64042021 186.00870769 119.6461792 187.5814209 C119.65666394 190.87313156 119.66252379 194.16481797 119.66601562 197.45654297 C119.67150931 201.66989748 119.6955664 205.88293031 119.72398758 210.09618378 C119.74262431 213.3424371 119.74782 216.58861286 119.7493515 219.83491516 C119.75237386 221.38822701 119.76038837 222.94153762 119.77353668 224.49479675 C119.79062702 226.66800422 119.78871068 228.84042413 119.78222656 231.01367188 C119.78587219 232.24879517 119.78951782 233.48391846 119.79327393 234.75646973 C119.38638044 238.36938116 118.7664006 240.24168666 116.42578125 243.01953125 C114.77578125 243.34953125 113.12578125 243.67953125 111.42578125 244.01953125 C111.42578125 253.25953125 111.42578125 262.49953125 111.42578125 272.01953125 C113.07578125 272.34953125 114.72578125 272.67953125 116.42578125 273.01953125 C119.66761473 276.8624194 119.80229887 280.18327401 119.80673218 285.09434509 C119.81141215 285.79519385 119.81609212 286.49604262 119.82091391 287.21812922 C119.83285618 289.5608966 119.82340964 291.90307814 119.81396484 294.24584961 C119.81803123 295.92828716 119.82337349 297.61072203 119.82989502 299.29315186 C119.84357592 303.86189845 119.83826427 308.43044184 119.82875776 312.999192 C119.82115395 317.79060962 119.82820983 322.58201003 119.83291626 327.37342834 C119.83837645 335.42940381 119.83118025 343.48529682 119.81689453 351.54125977 C119.80061736 360.82685784 119.80581945 370.11225778 119.82237375 379.39785093 C119.83604082 387.38623199 119.83788138 395.37455377 119.83005774 403.36294276 C119.82540338 408.12640881 119.82469329 412.88978218 119.83466721 417.65324211 C119.84340899 422.14226791 119.83718493 426.63104196 119.81998444 431.12004089 C119.8160556 432.75735623 119.81709088 434.39469317 119.82377243 436.03199959 C119.88542163 452.69067707 117.99675205 468.56160202 106.17578125 481.3984375 C96.72367233 490.15429733 85.79093794 495.16438001 72.93299866 495.1734314 C72.17512902 495.17781365 71.41725939 495.1821959 70.63642401 495.18671095 C68.09493441 495.2000734 65.55347948 495.20627217 63.01196289 495.21240234 C61.19012293 495.22030558 59.36828452 495.22857467 57.54644775 495.23718262 C51.55962617 495.26338596 45.57279767 495.27871263 39.5859375 495.29296875 C37.52210422 495.29832989 35.45827098 495.3037074 33.39443779 495.3091011 C24.80479697 495.33073095 16.21515802 495.34946476 7.62549686 495.3607235 C-4.66641769 495.37694263 -16.95801513 495.41006984 -29.24981016 495.46712434 C-37.90140242 495.50590573 -46.55291018 495.52536612 -55.20458704 495.53064406 C-60.3666528 495.53428743 -65.52838022 495.54619992 -70.69035149 495.5787468 C-75.55369731 495.60897035 -80.41650261 495.61508858 -85.27992249 495.60336304 C-87.05636174 495.60314347 -88.83282712 495.61135108 -90.60917854 495.62901688 C-106.29882274 495.77644343 -118.44294389 492.77048477 -130.57421875 482.01953125 C-143.21917773 468.96744291 -144.84508533 453.21550202 -145.19921875 435.95703125 C-145.23747392 434.40818297 -145.27652981 432.85935426 -145.31640625 431.31054688 C-145.41157954 427.54703704 -145.49590372 423.78342808 -145.57421875 420.01953125 C-146.43998535 420.92195557 -147.30575195 421.82437988 -148.19775391 422.75415039 C-151.46311085 426.1477135 -154.75281977 429.5168194 -158.04980469 432.87963867 C-159.46427007 434.32896764 -160.87235204 435.78455866 -162.2734375 437.24682617 C-174.90569567 450.41595531 -186.90747197 459.75964335 -205.76171875 460.39453125 C-221.49798636 460.14425264 -233.7417373 453.53111528 -244.57836914 442.48535156 C-245.30974091 441.7561702 -246.04111267 441.02698883 -246.79464722 440.27571106 C-249.18012532 437.89252182 -251.5510909 435.49545583 -253.921875 433.09765625 C-255.58590066 431.42870151 -257.25074449 429.76056218 -258.91636658 428.09320068 C-262.38938591 424.61257146 -265.85586696 421.125612 -269.31713867 417.63330078 C-273.76071727 413.14994878 -278.21517982 408.67761513 -282.67385197 404.20927811 C-286.92674435 399.94643727 -291.17465122 395.67864385 -295.421875 391.41015625 C-296.23452379 390.59411171 -297.04717258 389.77806717 -297.8844471 388.93729401 C-300.1705911 386.63961985 -302.45320221 384.33849947 -304.73461914 382.03613281 C-305.4166188 381.35144424 -306.09861847 380.66675568 -306.80128479 379.96131897 C-307.41926941 379.33617905 -308.03725403 378.71103912 -308.67396545 378.06695557 C-309.21313127 377.52351627 -309.75229708 376.98007698 -310.30780125 376.42016983 C-311.57421875 375.01953125 -311.57421875 375.01953125 -312.57421875 373.01953125 C-312.44273607 371.66547457 -312.29753082 370.31273198 -312.14453125 368.9609375 C-312.09444233 363.52628918 -314.43775666 360.9590882 -318.12890625 357.18554688 C-318.89460938 356.45013672 -319.6603125 355.71472656 -320.44921875 354.95703125 C-321.53976562 353.80170898 -321.53976562 353.80170898 -322.65234375 352.62304688 C-326.64838805 348.44514618 -326.64838805 348.44514618 -331.96289062 346.91015625 C-333.17428711 347.05517578 -333.17428711 347.05517578 -334.41015625 347.203125 C-338.09489199 347.51309938 -339.31499326 347.19823468 -342.42333984 345.05541992 C-345.03291422 342.75559642 -347.44831296 340.27929624 -349.82568359 337.7421875 C-351.31101088 336.15861276 -352.82987904 334.61505161 -354.359375 333.07421875 C-362.15936839 325.09660791 -368.52805424 316.97857797 -370.94921875 305.89453125 C-371.11292969 305.24355469 -371.27664063 304.59257812 -371.4453125 303.921875 C-374.29280441 291.83798078 -372.06254592 278.5132075 -365.58866501 267.92519379 C-363.4468655 264.83583532 -361.08333827 262.09179256 -358.51885986 259.35705566 C-358.00220111 258.80227114 -357.48554236 258.24748662 -356.95322728 257.67589045 C-349.12032176 249.331284 -340.9869268 241.27584125 -332.89746094 233.18164062 C-331.03658457 231.31612637 -329.17589355 229.45042875 -327.31539917 227.58453369 C-322.29779671 222.55347861 -317.27653604 217.52608579 -312.25441647 212.49954033 C-309.11328924 209.35563349 -305.97289286 206.2109973 -302.83261871 203.0662384 C-294.11830606 194.33975996 -285.40306654 185.61420957 -276.68436813 176.89211273 C-276.12895594 176.33648097 -275.57354375 175.78084922 -275.00130089 175.20838013 C-274.44468164 174.65154261 -273.8880624 174.09470509 -273.31457591 173.52099371 C-272.18692926 172.39290361 -271.05928417 171.26481196 -269.93164062 170.13671875 C-269.09264217 169.29738815 -269.09264217 169.29738815 -268.23669425 168.44110137 C-259.15191338 159.35236314 -250.07392104 150.25687623 -240.99878749 141.1585061 C-231.65654482 131.79253766 -222.30867444 122.43221697 -212.95514417 113.07752085 C-207.7132397 107.83470136 -202.4737591 102.58951028 -197.2405014 97.33805847 C-192.32580146 92.40632962 -187.40344539 87.48235768 -182.47583389 82.56352997 C-180.67049 80.75895701 -178.86770429 78.95182056 -177.0676918 77.14192963 C-174.60823096 74.66976497 -172.13966801 72.2070552 -169.66864014 69.74645996 C-168.60695212 68.67268734 -168.60695212 68.67268734 -167.52381587 67.57722235 C-159.38896718 59.52234014 -151.65107341 54.95611514 -140.01171875 54.89453125 C-138.87734375 54.93578125 -137.74296875 54.97703125 -136.57421875 55.01953125 C-136.51105469 54.35050781 -136.44789063 53.68148437 -136.3828125 52.9921875 C-133.75843059 32.41150829 -122.38875291 14.19518493 -106.57421875 1.01953125 C-74.85573385 -23.1328295 -32.09457025 -23.89562122 0 0 Z M-102.01171875 18.89453125 C-110.69933705 28.12334544 -116.94173592 39.29056749 -119.6394043 51.71435547 C-119.81561813 52.52154022 -119.99183197 53.32872498 -120.17338562 54.16036987 C-120.30566055 54.77389313 -120.43793549 55.38741638 -120.57421875 56.01953125 C-117.20704812 56.0932394 -113.83985647 56.16593802 -110.47265625 56.23828125 C-109.42078125 56.26093048 -108.36890625 56.28357971 -107.28515625 56.30691528 C-101.49185641 56.42973486 -95.69855287 56.54361476 -89.90478516 56.64208984 C-88.74435699 56.66187897 -87.58392883 56.68166809 -86.38833618 56.70205688 C-84.05368464 56.74183555 -81.71902885 56.78136594 -79.3843689 56.82064819 C-73.59392325 56.92414211 -67.80995529 57.06520365 -62.02377319 57.31121826 C-59.91528678 57.39857089 -57.80713461 57.46773851 -55.69775391 57.52929688 C-53.27937146 57.60364079 -50.86168035 57.71184856 -48.44677734 57.86132812 C-43.7700268 57.96615307 -40.80703654 57.94571617 -36.98876953 55.07714844 C-34.5999749 52.72802076 -34.5999749 52.72802076 -32.58398438 50.25927734 C-27.97781803 45.12602054 -21.78267286 42.92658983 -15.07421875 42.01953125 C-5.52569323 41.57510058 1.32606164 44.91523625 8.42578125 51.01953125 C9.10253906 51.58800781 9.77929688 52.15648437 10.4765625 52.7421875 C12.139846 54.15214525 13.78480285 55.58367515 15.42578125 57.01953125 C14.35221967 44.35150466 7.89098682 31.45513843 -0.57421875 22.01953125 C-1.20585937 21.29636719 -1.8375 20.57320312 -2.48828125 19.828125 C-15.01438335 6.36825893 -32.29131384 -0.92309005 -50.53320312 -1.9375 C-70.03557743 -2.3480763 -88.02072753 5.58086487 -102.01171875 18.89453125 Z M-17.32421875 127.58203125 C-19.87895186 129.91068764 -19.87895186 129.91068764 -20.19921875 133.51953125 C-19.86185876 137.10637018 -19.86185876 137.10637018 -17.44921875 139.51953125 C-14.65271881 141.27130633 -14.65271881 141.27130633 -11.44921875 140.95703125 C-7.8521499 139.81628312 -7.8521499 139.81628312 -5.57421875 137.01953125 C-4.90700339 134.10512426 -4.90700339 134.10512426 -5.57421875 131.01953125 C-7.69973425 128.06042981 -7.69973425 128.06042981 -10.57421875 126.01953125 C-14.52173025 125.69019164 -14.52173025 125.69019164 -17.32421875 127.58203125 Z " fill="#FD989F" transform="translate(382.57421875,16.98046875)"/>
<path d="M0 0 C1.15853233 -0.00197891 1.15853233 -0.00197891 2.34046936 -0.0039978 C4.92493457 -0.00594232 7.50929537 0.00050637 10.09375 0.0078125 C10.97892303 0.00869873 11.86409607 0.00958496 12.77609253 0.01049805 C36.38677774 0.03789322 59.99049156 0.58277685 83.59375 1.1328125 C80.35654038 4.9618191 77.1149952 8.73803219 73.5703125 12.2890625 C72.85875 13.00191406 72.1471875 13.71476562 71.4140625 14.44921875 C70.68960937 15.16980469 69.96515625 15.89039062 69.21875 16.6328125 C68.50203125 17.35339844 67.7853125 18.07398437 67.046875 18.81640625 C63.73354361 22.1237569 60.39878652 25.34483921 56.8359375 28.3828125 C50.93999998 33.46426567 45.55989276 39.09892764 40.09375 44.6328125 C27.7254321 57.15441142 27.7254321 57.15441142 21.546875 62.42871094 C17.49559395 65.96345366 13.67728109 69.74048053 9.84375 73.5078125 C8.58884766 74.70664063 8.58884766 74.70664063 7.30859375 75.9296875 C6.50035156 76.72632813 5.69210938 77.52296875 4.859375 78.34375 C4.13524414 79.04806152 3.41111328 79.75237305 2.66503906 80.47802734 C-4.40696879 89.54226748 -3.98288161 98.96449602 -3.90234375 109.96875 C-3.90249891 111.69747987 -3.90399072 113.42621008 -3.90675354 115.15493774 C-3.90813201 118.76083938 -3.89566495 122.36634055 -3.87280273 125.97216797 C-3.84429113 130.59595363 -3.84719729 135.2190811 -3.85989285 139.84291649 C-3.86683887 143.40481204 -3.85907526 146.96655489 -3.84663582 150.52843094 C-3.84211983 152.23409058 -3.84178581 153.93976658 -3.84570122 155.6454277 C-3.84860619 158.0222635 -3.83214647 160.39818237 -3.81030273 162.77490234 C-3.81480438 163.47933472 -3.81930603 164.18376709 -3.82394409 164.9095459 C-3.78052625 167.74757633 -3.73115639 169.67198953 -2.0684967 172.03018188 C-0.28243827 173.3190218 -0.28243827 173.3190218 2.59375 174.1328125 C2.71741555 178.20768744 2.80811476 182.28183551 2.8684082 186.3581543 C2.89354219 187.74441554 2.92765592 189.13054437 2.97094727 190.51635742 C3.03163396 192.50902287 3.05729879 194.50265783 3.08203125 196.49609375 C3.10821533 197.69532471 3.13439941 198.89455566 3.16137695 200.13012695 C2.59375 203.1328125 2.59375 203.1328125 0.12573242 204.98510742 C-0.70982178 205.3638501 -1.54537598 205.74259277 -2.40625 206.1328125 C-3.62141983 207.114661 -3.62141983 207.114661 -3.42480278 208.97859764 C-3.37540613 209.79199923 -3.32600948 210.60540081 -3.27511597 211.44345093 C-3.22265244 212.37548151 -3.17018892 213.30751209 -3.1161356 214.26778603 C-3.05444659 215.30009535 -2.99275759 216.33240467 -2.92919922 217.39599609 C-2.10363473 232.75943518 -1.57065808 248.12557449 -1.28125 263.5078125 C-1.26182602 264.5319596 -1.26182602 264.5319596 -1.24200964 265.57679653 C-0.11869798 328.32514148 -0.11869798 328.32514148 -18.00202942 347.16964531 C-26.63488904 355.68920941 -36.64418024 362.60736277 -47.40625 368.1328125 C-48.52929031 368.72506622 -48.52929031 368.72506622 -49.67501831 369.32928467 C-58.37169053 373.82633062 -67.65881575 374.4989141 -77.26171875 372.5546875 C-89.34344184 368.32896559 -98.80091241 355.86640417 -107.62535095 346.98887634 C-109.79178874 344.80952466 -111.96146711 342.63344453 -114.13195801 340.45812988 C-118.72623132 335.85251928 -123.3165145 331.24294469 -127.90625 326.6328125 C-133.25563763 321.25981033 -138.60665535 315.88845218 -143.96186829 310.52125549 C-146.1010999 308.3755351 -148.23730496 306.22683219 -150.37341309 304.07800293 C-151.67522757 302.77255869 -152.9771811 301.46725309 -154.27929688 300.16210938 C-154.87354462 299.56269531 -155.46779236 298.96328125 -156.08004761 298.34570312 C-159.98885088 294.21891856 -159.98885088 294.21891856 -165.28125 293.0078125 C-168.26082978 292.96240031 -168.26082978 292.96240031 -170.32885742 293.85864258 C-172.40625 294.1328125 -172.40625 294.1328125 -174.52856445 292.75268555 C-176.95518303 290.46988226 -179.35186501 288.16512863 -181.71875 285.8203125 C-182.99202148 284.65145508 -182.99202148 284.65145508 -184.29101562 283.45898438 C-190.28485954 277.56204982 -190.28485954 277.56204982 -190.63623047 273.42504883 C-190.29296875 270.7578125 -190.29296875 270.7578125 -189.6862793 268.33984375 C-189.18382324 266.08277469 -189.18382324 266.08277469 -190.48022461 264.12036133 C-192.32296877 261.95582312 -194.32157232 260.06858463 -196.40625 258.1328125 C-198.96655871 255.69335499 -201.5047739 253.23227832 -204.03125 250.7578125 C-205.02729248 249.78231445 -205.02729248 249.78231445 -206.04345703 248.78710938 C-213.71547644 241.08999909 -217.4396473 233.50684883 -217.84375 222.6328125 C-217.90433594 221.50875 -217.96492188 220.3846875 -218.02734375 219.2265625 C-217.27653037 209.1481383 -209.91178782 200.75941842 -203.02947998 194.02778625 C-201.78659049 192.77614859 -201.78659049 192.77614859 -200.51859212 191.49922532 C-198.24352438 189.2141349 -195.95569822 186.94284281 -193.66149044 184.67700016 C-191.18024376 182.21980331 -188.71655706 179.74510164 -186.25057983 177.27259827 C-181.43020705 172.44484762 -176.59421223 167.63304891 -171.75279424 162.82641361 C-166.11418939 157.22693264 -160.49228464 151.61080703 -154.87117401 145.99377348 C-144.84594917 135.97678521 -134.80706476 125.97360296 -124.75976562 115.97875977 C-115.00858437 106.27844271 -105.26518986 96.57040225 -95.53125 86.8527832 C-94.93058404 86.25312818 -94.32991808 85.65347316 -93.71105012 85.03564677 C-91.29670341 82.62531991 -88.88238536 80.21496433 -86.46811144 77.80456455 C-76.06886162 67.42232448 -65.66390779 57.04580135 -55.25762188 46.67061421 C-53.572057 44.99004373 -51.88658725 43.30937787 -50.20112514 41.62870431 C-43.80941689 35.25554461 -37.41473208 28.88539463 -31.01579666 22.5194912 C-29.07400468 20.58755358 -27.13336214 18.65447288 -25.19374466 16.72035217 C-22.55652878 14.0915459 -19.91625711 11.46584966 -17.27508545 8.84101868 C-16.11100572 7.67870876 -16.11100572 7.67870876 -14.92340922 6.49291784 C-13.86751751 5.44556298 -13.86751751 5.44556298 -12.79029465 4.37704945 C-12.18067847 3.77030598 -11.57106229 3.16356252 -10.9429729 2.5384329 C-7.63181098 -0.49024373 -4.24520239 -0.01157155 0 0 Z " fill="#FDE87C" transform="translate(243.40625,87.8671875)"/>
<path d="M0 0 C17.95370633 14.94696646 29.90016569 34.42698883 32.42578125 58.01953125 C32.37284912 59.88158203 32.37284912 59.88158203 32.31884766 61.78125 C32.12712243 68.90298714 32.5076792 73.84218448 37.30540466 79.34877014 C40.09086759 82.22063688 43.01169119 84.91081446 45.98828125 87.58203125 C47.17201174 88.69888982 48.35238005 89.81932302 49.52929688 90.94335938 C54.07661127 95.25526574 58.72406044 99.44014068 63.484375 103.515625 C69.86007113 109.03035412 75.6600144 115.20089859 81.58056641 121.19482422 C87.12924269 126.80604862 92.65770393 132.37937556 98.66455078 137.50732422 C108.23292739 145.72281143 117.27623683 154.05669019 119.42578125 167.01953125 C119.52622537 169.35327474 119.57400093 171.68952227 119.58691406 174.02539062 C119.59187897 174.7105928 119.59684387 175.39579498 119.60195923 176.10176086 C119.61649725 178.35561139 119.62336714 180.60939165 119.62890625 182.86328125 C119.63466254 184.43599447 119.64042021 186.00870769 119.6461792 187.5814209 C119.65666394 190.87313156 119.66252379 194.16481797 119.66601562 197.45654297 C119.67150931 201.66989748 119.6955664 205.88293031 119.72398758 210.09618378 C119.74262431 213.3424371 119.74782 216.58861286 119.7493515 219.83491516 C119.75237386 221.38822701 119.76038837 222.94153762 119.77353668 224.49479675 C119.79062702 226.66800422 119.78871068 228.84042413 119.78222656 231.01367188 C119.78587219 232.24879517 119.78951782 233.48391846 119.79327393 234.75646973 C119.39289121 238.31157031 118.59017498 240.19687523 116.42578125 243.01953125 C113.4528455 244.19305852 111.88708178 244.14034806 108.80078125 243.33203125 C106.03236972 241.80211961 105.01986789 240.74876782 103.42578125 238.01953125 C103.05397034 234.8454895 103.05397034 234.8454895 103.05688477 231.05126953 C103.05123505 230.01146439 103.05123505 230.01146439 103.04547119 228.95065308 C103.03904774 227.44908117 103.03936032 225.94746859 103.0456562 224.44589615 C103.0547785 222.06610271 103.04452986 219.6870952 103.02903748 217.30734253 C102.9889717 210.54296068 102.98773294 203.77864093 102.98999023 197.01416016 C102.99004142 192.87264192 102.97082908 188.7315472 102.94065666 184.59014511 C102.92985554 182.25123205 102.94194769 179.91313582 102.95448303 177.57424927 C102.94557476 176.13168541 102.93549903 174.68912814 102.92407227 173.24658203 C102.92432152 171.36605637 102.92432152 171.36605637 102.92457581 169.44754028 C102.0576372 163.48942917 98.35529808 159.6788598 94.17578125 155.58203125 C93.469375 154.88207031 92.76296875 154.18210938 92.03515625 153.4609375 C90.04871102 151.60236225 88.04230619 149.83874951 85.97265625 148.078125 C78.99407015 142.00897363 72.62393037 135.27119875 66.12548828 128.69873047 C57.45145136 119.92136877 57.45145136 119.92136877 48.29003906 111.66113281 C44.52727413 108.34777092 41.06336903 104.71874338 37.55078125 101.14453125 C36.05569964 99.62402309 34.55841481 98.10567714 33.05859375 96.58984375 C32.08237061 95.59621826 32.08237061 95.59621826 31.08642578 94.58251953 C29.4943561 92.93408673 29.4943561 92.93408673 27.42578125 92.01953125 C27.24015625 93.23640625 27.05453125 94.45328125 26.86328125 95.70703125 C24.86977784 104.57324221 20.14621957 112.32095944 13.98828125 118.89453125 C9.45015132 124.20345042 10.08360213 128.74051854 10.44921875 135.45703125 C10.4085985 141.63130932 7.8589273 145.4589083 3.7109375 149.82421875 C-2.52333395 155.52646266 -8.06325422 156.47725074 -16.41015625 156.3359375 C-22.99048221 155.6779049 -27.41889632 152.07330177 -31.57421875 147.01953125 C-35.27407955 140.92564288 -36.67424284 135.10093633 -35.57421875 128.01953125 C-33.63872927 121.31789893 -29.16601848 116.96990249 -23.57421875 113.01953125 C-17.4815797 109.90551574 -9.68595988 110.07437623 -3.23046875 112.03515625 C-2.35390625 112.36 -1.47734375 112.68484375 -0.57421875 113.01953125 C4.68944411 106.18846655 8.97622651 99.61923733 11.98828125 91.51953125 C12.23916504 90.84986328 12.49004883 90.18019531 12.74853516 89.49023438 C14.01961148 85.87108372 14.88878748 82.83806065 14.42578125 79.01953125 C12.77486953 76.63188831 12.77486953 76.63188831 10.4453125 74.4453125 C9.61064453 73.61322266 8.77597656 72.78113281 7.91601562 71.92382812 C7.03236328 71.06853516 6.14871094 70.21324219 5.23828125 69.33203125 C4.37396484 68.46513672 3.50964844 67.59824219 2.61914062 66.70507812 C-2.37374356 61.78871323 -5.84417728 58.42644486 -13.01171875 57.64453125 C-21.19421467 58.50584661 -26.498959 65.74037325 -31.94921875 71.33203125 C-41.13738566 80.71708745 -41.13738566 80.71708745 -45.39453125 84.34375 C-51.27923653 89.38872768 -56.63093897 95.0087927 -62.07421875 100.51953125 C-74.17619976 112.77149255 -74.17619976 112.77149255 -78.54296875 116.48828125 C-84.56780688 121.62287274 -90.01424187 127.39355125 -95.57421875 133.01953125 C-108.71853659 146.31988678 -108.71853659 146.31988678 -114.94238281 151.61914062 C-117.2142941 153.56882392 -119.33672383 155.64951855 -121.44921875 157.76953125 C-122.18914062 158.506875 -122.9290625 159.24421875 -123.69140625 160.00390625 C-127.5633406 164.1489646 -127.82424347 166.59927184 -127.82958984 172.16552734 C-127.8332103 172.88945175 -127.83683075 173.61337616 -127.84056091 174.35923767 C-127.84745232 175.9306754 -127.84996083 177.50213706 -127.84861374 179.07358932 C-127.84764882 181.56213321 -127.86058653 184.05024476 -127.87759399 186.53872681 C-127.92387599 193.61367435 -127.94847116 200.68857819 -127.95507812 207.76367188 C-127.96009491 212.09208573 -127.98435372 216.4200489 -128.02040482 220.74831009 C-128.03019983 222.39647337 -128.03253636 224.04469868 -128.02723312 225.69288254 C-128.02015643 228.0006596 -128.0374554 230.30709571 -128.06005859 232.61474609 C-128.06290863 233.92696136 -128.06575867 235.23917664 -128.06869507 236.59115601 C-128.65759263 240.58495866 -129.66331048 242.26072749 -132.57421875 245.01953125 C-136.43667357 245.64028292 -138.53652087 245.76462648 -141.7596283 243.4503479 C-144.17820064 240.21044002 -144.14396733 237.45375193 -144.10766602 233.56396484 C-144.11628159 232.81866516 -144.12489716 232.07336548 -144.1337738 231.30548096 C-144.15646464 228.84262275 -144.14968541 226.3809006 -144.140625 223.91796875 C-144.14586232 222.19885929 -144.1521392 220.47975271 -144.15940857 218.76065063 C-144.16982084 215.15426131 -144.16524427 211.54826626 -144.15063477 207.94189453 C-144.13351759 203.34193299 -144.15684917 198.74322886 -144.19212437 194.14340782 C-144.21420267 190.58977122 -144.21263063 187.03643002 -144.20435905 183.48274612 C-144.20354383 181.78843438 -144.21032455 180.0941 -144.22513008 178.39985275 C-144.30809459 167.17911848 -143.50721687 158.46814366 -135.83862305 149.70043945 C-134.87142945 148.7274343 -133.89095996 147.767467 -132.8984375 146.8203125 C-132.3695845 146.29616257 -131.84073151 145.77201263 -131.29585266 145.23197937 C-129.62930303 143.58645246 -127.94594158 141.9594416 -126.26171875 140.33203125 C-125.14667931 139.23354457 -124.03273933 138.13394071 -122.91992188 137.03320312 C-118.56994814 132.74957959 -114.20798321 128.4970244 -109.5625 124.53125 C-103.74367986 119.5427141 -98.45672198 113.96874004 -93.07421875 108.51953125 C-90.90019102 106.31856071 -88.72262809 104.12117337 -86.54296875 101.92578125 C-86.06251099 101.43702515 -85.58205322 100.94826904 -85.08703613 100.44470215 C-82.39532665 97.7342383 -79.62672821 95.17156395 -76.73242188 92.67773438 C-72.30645814 88.84534012 -68.18755109 84.74487592 -64.07421875 80.58203125 C-63.3471875 79.85048828 -62.62015625 79.11894531 -61.87109375 78.36523438 C-60.10312376 76.58563301 -58.33755497 74.80372207 -56.57421875 73.01953125 C-69.52223302 72.71059963 -82.47037533 72.43540784 -95.42012024 72.20935059 C-101.87121747 72.09506192 -108.3205334 71.95245648 -114.77030945 71.77941895 C-118.51157177 71.68620814 -122.25290447 71.62274524 -125.99490356 71.56762695 C-127.74409978 71.53578187 -129.49311775 71.49151937 -131.2416687 71.43432617 C-133.67742521 71.35663265 -136.11007133 71.32357396 -138.546875 71.30078125 C-139.24692657 71.26782959 -139.94697815 71.23487793 -140.66824341 71.20092773 C-144.96636923 71.21814136 -147.22920159 72.26584978 -150.29452991 75.05714798 C-150.99426194 75.69332755 -151.69399396 76.32950711 -152.41492999 76.98496485 C-155.98056653 80.34464719 -159.47663466 83.7668763 -162.94352722 87.22821045 C-164.14905297 88.42610447 -164.14905297 88.42610447 -165.37893277 89.64819837 C-168.05340027 92.30705291 -170.72435792 94.96940387 -173.39526367 97.63183594 C-174.82836503 99.05820348 -176.26184695 100.48418771 -177.6953847 101.91011664 C-183.94321099 108.1248069 -190.18530517 114.34523718 -196.42577812 120.56731021 C-198.05159829 122.18832617 -199.67750725 123.80925304 -201.30343461 125.43016148 C-211.41799173 135.51376094 -221.53040102 145.59951126 -231.63788891 155.69019699 C-233.97299976 158.02135899 -236.30813772 160.35249383 -238.64331055 162.68359375 C-239.51379794 163.5525686 -239.51379794 163.5525686 -240.40187094 164.43909851 C-249.81009469 173.8303027 -259.23031078 183.20938326 -268.65539881 192.58365902 C-278.34771174 202.22414994 -288.02861859 211.87597938 -297.69867975 221.53879094 C-303.1221001 226.95755741 -308.55041844 232.37121003 -313.99168968 237.77205658 C-318.62311309 242.36911067 -323.24414508 246.97630118 -327.85209652 251.59688756 C-330.20072095 253.95132091 -332.55527611 256.29884995 -334.92027664 258.63689804 C-337.48962518 261.1785268 -340.03965921 263.73813016 -342.58586121 266.30291748 C-343.32846591 267.02872725 -344.07107061 267.75453702 -344.83617848 268.50234103 C-350.78651381 274.56136721 -354.78533795 281.31564571 -356.203125 289.76953125 C-355.92275053 303.49138766 -352.31638847 311.44109547 -342.57421875 321.01953125 C-341.35382764 322.18460336 -340.13240767 323.34859839 -338.91015625 324.51171875 C-338.27706543 325.12297607 -337.64397461 325.7342334 -336.99169922 326.36401367 C-335.7372126 327.56978391 -334.46837175 328.76083895 -333.18408203 329.93481445 C-330.05858532 332.92594159 -328.70859476 334.48915737 -327.6171875 338.796875 C-327.57471355 341.98242117 -327.71292283 343.47249473 -329.57421875 346.01953125 C-333.08075929 347.77280152 -335.86579761 348.09923576 -339.57421875 347.01953125 C-343.30236391 344.27141705 -346.49009603 341.08500227 -349.67480469 337.7421875 C-351.18176815 336.16282029 -352.71768182 334.61726844 -354.26171875 333.07421875 C-362.12948837 325.09687951 -368.51658539 317.03108212 -370.94921875 305.89453125 C-371.11292969 305.24355469 -371.27664063 304.59257812 -371.4453125 303.921875 C-374.29280441 291.83798078 -372.06254592 278.5132075 -365.58866501 267.92519379 C-363.4468655 264.83583532 -361.08333827 262.09179256 -358.51885986 259.35705566 C-358.00220111 258.80227114 -357.48554236 258.24748662 -356.95322728 257.67589045 C-349.12032176 249.331284 -340.9869268 241.27584125 -332.89746094 233.18164062 C-331.03658457 231.31612637 -329.17589355 229.45042875 -327.31539917 227.58453369 C-322.29779671 222.55347861 -317.27653604 217.52608579 -312.25441647 212.49954033 C-309.11328924 209.35563349 -305.97289286 206.2109973 -302.83261871 203.0662384 C-294.11830606 194.33975996 -285.40306654 185.61420957 -276.68436813 176.89211273 C-276.12895594 176.33648097 -275.57354375 175.78084922 -275.00130089 175.20838013 C-274.44468164 174.65154261 -273.8880624 174.09470509 -273.31457591 173.52099371 C-272.18692926 172.39290361 -271.05928417 171.26481196 -269.93164062 170.13671875 C-269.09264217 169.29738815 -269.09264217 169.29738815 -268.23669425 168.44110137 C-259.15191338 159.35236314 -250.07392104 150.25687623 -240.99878749 141.1585061 C-231.65654482 131.79253766 -222.30867444 122.43221697 -212.95514417 113.07752085 C-207.7132397 107.83470136 -202.4737591 102.58951028 -197.2405014 97.33805847 C-192.32580146 92.40632962 -187.40344539 87.48235768 -182.47583389 82.56352997 C-180.67049 80.75895701 -178.86770429 78.95182056 -177.0676918 77.14192963 C-174.60823096 74.66976497 -172.13966801 72.2070552 -169.66864014 69.74645996 C-168.60695212 68.67268734 -168.60695212 68.67268734 -167.52381587 67.57722235 C-159.38896718 59.52234014 -151.65107341 54.95611514 -140.01171875 54.89453125 C-138.87734375 54.93578125 -137.74296875 54.97703125 -136.57421875 55.01953125 C-136.51105469 54.35050781 -136.44789063 53.68148437 -136.3828125 52.9921875 C-133.75843059 32.41150829 -122.38875291 14.19518493 -106.57421875 1.01953125 C-74.85573385 -23.1328295 -32.09457025 -23.89562122 0 0 Z M-102.01171875 18.89453125 C-110.69933705 28.12334544 -116.94173592 39.29056749 -119.6394043 51.71435547 C-119.81561813 52.52154022 -119.99183197 53.32872498 -120.17338562 54.16036987 C-120.30566055 54.77389313 -120.43793549 55.38741638 -120.57421875 56.01953125 C-117.20704812 56.0932394 -113.83985647 56.16593802 -110.47265625 56.23828125 C-109.42078125 56.26093048 -108.36890625 56.28357971 -107.28515625 56.30691528 C-101.49185641 56.42973486 -95.69855287 56.54361476 -89.90478516 56.64208984 C-88.74435699 56.66187897 -87.58392883 56.68166809 -86.38833618 56.70205688 C-84.05368464 56.74183555 -81.71902885 56.78136594 -79.3843689 56.82064819 C-73.59392325 56.92414211 -67.80995529 57.06520365 -62.02377319 57.31121826 C-59.91528678 57.39857089 -57.80713461 57.46773851 -55.69775391 57.52929688 C-53.27937146 57.60364079 -50.86168035 57.71184856 -48.44677734 57.86132812 C-43.7700268 57.96615307 -40.80703654 57.94571617 -36.98876953 55.07714844 C-34.5999749 52.72802076 -34.5999749 52.72802076 -32.58398438 50.25927734 C-27.97781803 45.12602054 -21.78267286 42.92658983 -15.07421875 42.01953125 C-5.52569323 41.57510058 1.32606164 44.91523625 8.42578125 51.01953125 C9.10253906 51.58800781 9.77929688 52.15648437 10.4765625 52.7421875 C12.139846 54.15214525 13.78480285 55.58367515 15.42578125 57.01953125 C14.35221967 44.35150466 7.89098682 31.45513843 -0.57421875 22.01953125 C-1.20585937 21.29636719 -1.8375 20.57320312 -2.48828125 19.828125 C-15.01438335 6.36825893 -32.29131384 -0.92309005 -50.53320312 -1.9375 C-70.03557743 -2.3480763 -88.02072753 5.58086487 -102.01171875 18.89453125 Z M-17.32421875 127.58203125 C-19.87895186 129.91068764 -19.87895186 129.91068764 -20.19921875 133.51953125 C-19.86185876 137.10637018 -19.86185876 137.10637018 -17.44921875 139.51953125 C-14.65271881 141.27130633 -14.65271881 141.27130633 -11.44921875 140.95703125 C-7.8521499 139.81628312 -7.8521499 139.81628312 -5.57421875 137.01953125 C-4.90700339 134.10512426 -4.90700339 134.10512426 -5.57421875 131.01953125 C-7.69973425 128.06042981 -7.69973425 128.06042981 -10.57421875 126.01953125 C-14.52173025 125.69019164 -14.52173025 125.69019164 -17.32421875 127.58203125 Z " fill="#020201" transform="translate(382.57421875,16.98046875)"/>
<path d="M0 0 C3.375 0.5 3.375 0.5 5.25 1.8125 C7.72678714 5.52768071 7.50517753 9.00445045 7.51544189 13.33430481 C7.51989858 14.38301468 7.51989858 14.38301468 7.5244453 15.4529106 C7.53313439 17.80170831 7.53464077 20.15045506 7.53613281 22.49926758 C7.54076117 24.18140777 7.54578586 25.8635469 7.55117798 27.54568481 C7.56431014 32.12274709 7.57074959 36.69979469 7.57518864 41.27687287 C7.57812061 44.14024378 7.58222586 47.0036107 7.58669281 49.8669796 C7.60037553 58.83605455 7.610036 67.80512036 7.6138947 76.77420503 C7.61836477 87.10673531 7.6358604 97.43913261 7.6648953 107.77162248 C7.68658099 115.76844131 7.69660279 123.76522294 7.69793582 131.76207083 C7.69897977 136.53229267 7.70479858 141.30238963 7.72275543 146.07258034 C7.73935344 150.56976025 7.7413353 155.06672307 7.73261642 159.56392288 C7.73185204 161.20447182 7.73610866 162.84503299 7.74607468 164.48555183 C7.84132525 181.15868017 5.95743632 197.02961994 -5.875 209.87890625 C-15.32710892 218.63476608 -26.25984331 223.64484876 -39.11778259 223.65390015 C-40.25458705 223.66047353 -40.25458705 223.66047353 -41.41435724 223.6671797 C-43.95584684 223.68054215 -46.49730177 223.68674092 -49.03881836 223.69287109 C-50.86065832 223.70077433 -52.68249673 223.70904342 -54.5043335 223.71765137 C-60.49115508 223.74385471 -66.47798358 223.75918138 -72.46484375 223.7734375 C-74.52867703 223.77879864 -76.59251027 223.78417615 -78.65634346 223.78956985 C-87.24598428 223.8111997 -95.83562323 223.82993351 -104.42528439 223.84119225 C-116.71719894 223.85741138 -129.00879638 223.89053859 -141.30059141 223.94759309 C-149.95218367 223.98637448 -158.60369143 224.00583487 -167.25536829 224.01111281 C-172.41743405 224.01475618 -177.57916147 224.02666867 -182.74113274 224.05921555 C-187.60447856 224.0894391 -192.46728386 224.09555733 -197.33070374 224.08383179 C-199.10714299 224.08361222 -200.88360837 224.09181983 -202.65995979 224.10948563 C-218.34960399 224.25691218 -230.49372514 221.25095352 -242.625 210.5 C-255.26995898 197.44791166 -256.89586658 181.69597077 -257.25 164.4375 C-257.28825517 162.88865172 -257.32731106 161.33982301 -257.3671875 159.79101562 C-257.46236079 156.02750579 -257.54668497 152.26389683 -257.625 148.5 C-258.4907666 149.40242432 -259.3565332 150.30484863 -260.24853516 151.23461914 C-263.5138921 154.62818225 -266.80360102 157.99728815 -270.10058594 161.36010742 C-271.51505132 162.80943639 -272.92313329 164.26502741 -274.32421875 165.72729492 C-286.95647692 178.89642406 -298.95825322 188.2401121 -317.8125 188.875 C-333.54876761 188.62472139 -345.79251855 182.01158403 -356.62915039 170.96582031 C-357.36052216 170.23663895 -358.09189392 169.50745758 -358.84542847 168.75617981 C-361.23090657 166.37299057 -363.60187215 163.97592458 -365.97265625 161.578125 C-367.63668191 159.90917026 -369.30152574 158.24103093 -370.96714783 156.57366943 C-374.44016716 153.09304021 -377.90664821 149.60608075 -381.36791992 146.11376953 C-385.81149852 141.63041753 -390.26596107 137.15808388 -394.72463322 132.68974686 C-398.9775256 128.42690602 -403.22543247 124.1591126 -407.47265625 119.890625 C-408.28530504 119.07458046 -409.09795383 118.25853592 -409.93522835 117.41776276 C-412.22137235 115.1200886 -414.50398346 112.81896822 -416.78540039 110.51660156 C-417.46740005 109.83191299 -418.14939972 109.14722443 -418.85206604 108.44178772 C-419.47005066 107.8166478 -420.08803528 107.19150787 -420.7247467 106.54742432 C-421.26391252 106.00398502 -421.80307833 105.46054573 -422.3585825 104.90063858 C-424.32346847 102.72750445 -424.62248238 101.52958201 -424.875 98.5625 C-424.625 95.5 -424.625 95.5 -423.25 93.6875 C-419.9288161 91.26048099 -417.7248392 90.89261641 -413.625 91.5 C-411.78854275 92.83870506 -411.78854275 92.83870506 -409.84629822 94.60214233 C-409.14290251 95.24014141 -408.4395068 95.87814049 -407.71479607 96.53547287 C-404.64837425 99.41808374 -401.65993008 102.36507004 -398.70922852 105.36572266 C-398.06902771 106.01220261 -397.4288269 106.65868256 -396.76922607 107.32475281 C-395.39379515 108.71392123 -394.01945435 110.10416971 -392.64612007 111.49541092 C-390.46642549 113.70200582 -388.28215917 115.90397667 -386.09642029 118.10458374 C-379.88700792 124.35649333 -373.68036725 130.61107069 -367.48999023 136.88183594 C-363.68990153 140.73060284 -359.87998381 144.56940088 -356.06358147 148.40198898 C-354.61872456 149.85669903 -353.17751934 151.31504608 -351.74017525 152.77717972 C-349.72609493 154.82523633 -347.69968128 156.86031954 -345.67016602 158.89306641 C-345.08859238 159.49059219 -344.50701874 160.08811798 -343.90782166 160.70375061 C-335.75497897 168.79805642 -327.86426529 171.80231284 -316.48022461 171.81469727 C-308.5740801 171.6534642 -302.69306451 169.60328937 -296.87536621 164.24853516 C-294.15350186 161.80801779 -291.39994045 159.53027585 -288.45178223 157.36865234 C-273.47111733 146.30351853 -257.3563435 133.46893698 -254.0818634 114.20600891 C-252.35368012 99.39585053 -252.99163607 84.4324517 -253.81281948 69.5781126 C-254.25818388 61.39971273 -254.43228713 53.2156698 -254.62042904 45.02807426 C-254.78238678 38.02112612 -254.97302372 31.02184106 -255.30725098 24.02075195 C-255.35624039 22.86848114 -255.4052298 21.71621033 -255.45570374 20.52902222 C-255.54899001 18.38061882 -255.65818917 16.23282404 -255.78623962 14.08621216 C-256.0659842 7.1401642 -256.0659842 7.1401642 -253.81018066 3.86547852 C-250.7799399 1.97193775 -249.13655739 1.85502007 -245.625 2.5 C-242.28597423 5.12320958 -240.79043939 6.60278702 -240.01090336 10.83037663 C-240.01593089 12.10806636 -240.02095842 13.38575609 -240.02613831 14.7021637 C-240.02201602 15.41667425 -240.01789374 16.1311848 -240.01364654 16.86734718 C-240.00576261 19.25668265 -240.03339783 21.6442756 -240.06079102 24.03344727 C-240.06216188 25.74868232 -240.06124996 27.4639205 -240.05822754 29.17915344 C-240.05621141 32.87174228 -240.0695507 36.56384583 -240.09454536 40.25634956 C-240.13321238 46.1032057 -240.13279544 51.94965915 -240.12620544 57.7966156 C-240.11599001 72.32469653 -240.15896479 86.8525713 -240.20910645 101.3805542 C-240.2473525 112.66194953 -240.27151684 123.9430252 -240.25521225 135.22448963 C-240.24840128 141.02790319 -240.26974761 146.83030267 -240.31289494 152.63354981 C-240.33372844 156.25830813 -240.32946548 159.8827321 -240.31858063 163.50752068 C-240.3185956 165.17796497 -240.32876614 166.84844778 -240.350317 168.51875305 C-240.49307093 180.15813892 -238.79315337 189.1078103 -231.25 198.4375 C-223.96163338 204.16407377 -217.71941477 207.74320612 -208.26425171 207.76742554 C-207.53270138 207.77195665 -206.80115106 207.77648776 -206.04743254 207.78115618 C-203.60105581 207.79379576 -201.15490183 207.79218009 -198.70849609 207.79052734 C-196.95222691 207.79651306 -195.19596036 207.8033187 -193.43969727 207.81088257 C-188.67079774 207.82854993 -183.90196999 207.83323839 -179.1330409 207.83451414 C-176.15074513 207.8359364 -173.16846755 207.84020752 -170.1861763 207.84550858 C-159.77335707 207.86401448 -149.36058904 207.87217888 -138.94775391 207.87060547 C-129.25649203 207.86940538 -119.56545334 207.89048024 -109.87424791 207.9220928 C-101.54367256 207.94829407 -93.2131699 207.95897108 -84.8825537 207.95769465 C-79.91177949 207.95718595 -74.94120344 207.9628174 -69.97047043 207.98405075 C-65.29018218 208.0034969 -60.61027973 208.00351419 -55.92997742 207.98901749 C-54.21882688 207.98693586 -52.50765181 207.99159148 -50.79654312 208.0037384 C-38.51461351 208.08522895 -27.65846674 207.33965977 -18.34375 198.42578125 C-12.14251513 191.47757945 -9.37320168 184.45084004 -9.38017273 175.09251404 C-9.37790816 174.36812655 -9.37564358 173.64373906 -9.37331039 172.89740044 C-9.36803325 170.48155857 -9.3768301 168.06597544 -9.38549805 165.65014648 C-9.38438466 163.91355304 -9.38232607 162.17695998 -9.37939453 160.44036865 C-9.3746783 156.7064803 -9.37578611 152.97265486 -9.38117027 149.23876762 C-9.38878357 143.33500005 -9.37812134 137.43135357 -9.3639679 131.52760315 C-9.32623578 114.74178584 -9.30805343 97.95602384 -9.31958008 81.17016602 C-9.32579219 71.89511389 -9.31424031 62.62025748 -9.28313476 53.34525353 C-9.26446081 47.47570454 -9.26781692 41.60670912 -9.28730237 35.73716915 C-9.29417673 32.08760457 -9.28024213 28.43834129 -9.26035309 24.78883362 C-9.25529976 23.09613448 -9.25880635 21.40338497 -9.27148628 19.71072578 C-9.28756728 17.39990668 -9.2729784 15.09122485 -9.2507782 12.78050232 C-9.25061046 11.48764533 -9.25044271 10.19478834 -9.25026989 8.86275387 C-8.22463679 3.34681308 -5.51265354 0.76036601 0 0 Z " fill="#020101" transform="translate(494.625,288.5)"/>
<path d="M0 0 C3.65464986 1.53392788 5.94394 3.7262778 8.703125 6.54296875 C9.60160156 7.45240234 10.50007813 8.36183594 11.42578125 9.29882812 C12.36756931 10.26134531 13.30897355 11.22423819 14.25 12.1875 C21.32807383 19.48257686 21.32807383 19.48257686 28.828125 26.33203125 C35.7170998 32.22226199 41.93252291 38.88049307 48.30029297 45.32080078 C57.12477183 54.2442828 57.12477183 54.2442828 66.44384766 62.64404297 C68.45087024 64.39286686 70.21266438 66.28734006 71.9375 68.3125 C72.50339844 68.96863281 73.06929688 69.62476563 73.65234375 70.30078125 C76.40242544 73.76827555 76.13521616 76.39986747 76.15771484 80.77294922 C76.16279556 81.46907318 76.16787628 82.16519714 76.17311096 82.88241577 C76.18382052 84.39603284 76.1924384 85.9096658 76.19923019 87.42330551 C76.21100787 89.81900083 76.23045761 92.21451494 76.25234985 94.61013794 C76.31400434 101.42215958 76.36801974 108.23416308 76.40136719 115.04638672 C76.42230705 119.21151827 76.45760501 123.37632026 76.50212479 127.54126358 C76.51629125 129.12883755 76.52500869 130.71646984 76.52817917 132.30410385 C76.53308547 134.52584076 76.55623466 136.74670251 76.58349609 138.96826172 C76.59158295 140.23241913 76.5996698 141.49657654 76.60800171 142.79904175 C77.02858187 146.23339224 77.49773988 147.64426723 80 150 C81.32 150.33 82.64 150.66 84 151 C84 160.57 84 170.14 84 180 C82.02 180.99 80.04 181.98 78 183 C76.52364403 185.95271194 76.8753209 188.58243191 76.87542725 191.87936401 C76.8740171 192.59539484 76.87260695 193.31142567 76.87115407 194.0491544 C76.86748908 196.46101172 76.87084284 198.87281068 76.87402344 201.28466797 C76.87262915 203.00931342 76.87073014 204.73395852 76.86836243 206.45860291 C76.86385831 210.18052317 76.86200918 213.90243239 76.86190033 217.62435532 C76.86076089 223.51710559 76.84792723 229.40979306 76.83233643 235.30252075 C76.82976357 236.29694526 76.82719072 237.29136976 76.8245399 238.31592834 C76.81927288 240.34999725 76.8139874 242.38406611 76.80868387 244.41813493 C76.7735882 258.13944309 76.74701622 271.86067449 76.74951172 285.58203125 C76.75110369 294.83259653 76.73498135 304.08294865 76.69880509 313.33344567 C76.68039127 318.22663714 76.67096163 323.119473 76.68328094 328.0126915 C76.6947769 332.62411344 76.68287626 337.23490111 76.65364647 341.84623909 C76.64704345 343.53114872 76.64880772 345.21611712 76.65994453 346.90100288 C76.72789912 358.12054895 75.57681552 367.5857768 68.859375 377 C61.63707209 383.84781313 54.14155793 388.15939974 44.015625 388.09765625 C43.08105469 388.09443359 42.14648438 388.09121094 41.18359375 388.08789062 C40.21550781 388.07951172 39.24742187 388.07113281 38.25 388.0625 C37.26644531 388.05798828 36.28289062 388.05347656 35.26953125 388.04882812 C32.84629209 388.03706483 30.42317727 388.02062684 28 388 C28.39614502 387.55052002 28.79229004 387.10104004 29.20043945 386.63793945 C32.12026479 383.28604232 34.87101685 379.99639526 37.1875 376.1875 C37.65542969 375.43855469 38.12335938 374.68960937 38.60546875 373.91796875 C42.53509541 365.69547262 43.43784176 357.98734066 43.38768005 348.95565796 C43.39306559 347.78077871 43.39845113 346.60589946 43.40399987 345.39541781 C43.41576656 342.16109405 43.41423891 338.92710434 43.40683305 335.69277811 C43.40208097 332.19444847 43.41462894 328.69617277 43.42485046 325.19786072 C43.44200205 318.3558123 43.44288634 311.51385586 43.43763756 304.67179154 C43.43358904 299.11001816 43.43504748 293.54827188 43.44038582 287.98649979 C43.44150845 286.7972038 43.44150845 286.7972038 43.44265376 285.58388162 C43.4441853 283.97300381 43.44572364 282.362126 43.44726873 280.7512482 C43.46097974 265.66347993 43.45556517 250.5757636 43.44408352 235.48799653 C43.43414509 221.69118453 43.4471048 207.89450652 43.47101771 194.09771518 C43.49540867 179.91795042 43.50501706 165.73824806 43.49836498 151.55846274 C43.49487372 143.60274139 43.49709909 135.64712316 43.51461601 127.69141769 C43.52933764 120.9216017 43.52997365 114.15196151 43.5125451 107.38214897 C43.50403371 103.92992399 43.50188872 100.4780131 43.51719666 97.02580452 C43.53036361 93.2803641 43.51889555 89.53577825 43.50120544 85.79037476 C43.51081045 84.70379652 43.52041546 83.61721829 43.53031152 82.49771345 C43.44921071 74.15569951 41.55870271 68.02796575 35.45996094 61.98999023 C34.78535828 61.31246201 34.11075562 60.63493378 33.41571045 59.93687439 C32.69586975 59.23454178 31.97602905 58.53220917 31.234375 57.80859375 C30.48214661 57.05965347 29.72991821 56.3107132 28.95489502 55.53907776 C26.56250436 53.16234379 24.15631315 50.80012783 21.75 48.4375 C20.14887342 46.84787716 18.54860462 45.25738985 16.94921875 43.66601562 C15.39920495 42.12943378 13.8484476 40.59360156 12.296875 39.05859375 C11.58513123 38.35423691 10.87338745 37.64988007 10.14007568 36.92417908 C1.87237324 28.37403333 1.87237324 28.37403333 -8 22 C-8 18.22676814 -6.76108332 16.08100295 -5.125 12.6875 C-3.1167846 8.51099406 -1.37955003 4.42661442 0 0 Z " fill="#FC7F86" transform="translate(410,109)"/>
<path d="M0 0 C-4.54065206 5.44305294 -9.35078389 10.50260354 -14.375 15.5 C-15.09171875 16.22058594 -15.8084375 16.94117187 -16.546875 17.68359375 C-19.86020639 20.9909444 -23.19496348 24.21202671 -26.7578125 27.25 C-32.65375002 32.33145317 -38.03385724 37.96611514 -43.5 43.5 C-55.8683179 56.02159892 -55.8683179 56.02159892 -62.046875 61.29589844 C-66.09815605 64.83064116 -69.91646891 68.60766803 -73.75 72.375 C-75.00490234 73.57382813 -75.00490234 73.57382813 -76.28515625 74.796875 C-77.09339844 75.59351563 -77.90164062 76.39015625 -78.734375 77.2109375 C-79.45850586 77.91524902 -80.18263672 78.61956055 -80.92871094 79.34521484 C-88.00071879 88.40945498 -87.57663161 97.83168352 -87.49609375 108.8359375 C-87.49624891 110.56466737 -87.49774072 112.29339758 -87.50050354 114.02212524 C-87.50188201 117.62802688 -87.48941495 121.23352805 -87.46655273 124.83935547 C-87.43804113 129.46314113 -87.44094729 134.0862686 -87.45364285 138.71010399 C-87.46058887 142.27199954 -87.45282526 145.83374239 -87.44038582 149.39561844 C-87.43586983 151.10127808 -87.43553581 152.80695408 -87.43945122 154.5126152 C-87.44235619 156.889451 -87.42589647 159.26536987 -87.40405273 161.64208984 C-87.40855438 162.34652222 -87.41305603 163.05095459 -87.41769409 163.7767334 C-87.37427625 166.61476383 -87.32490639 168.53917703 -85.6622467 170.89736938 C-83.87618827 172.1862093 -83.87618827 172.1862093 -81 173 C-80.87633445 177.07487494 -80.78563524 181.14902301 -80.7253418 185.2253418 C-80.70020781 186.61160304 -80.66609408 187.99773187 -80.62280273 189.38354492 C-80.56211604 191.37621037 -80.53645121 193.36984533 -80.51171875 195.36328125 C-80.48553467 196.56251221 -80.45935059 197.76174316 -80.43237305 198.99731445 C-81 202 -81 202 -83.46801758 203.85229492 C-84.30357178 204.2310376 -85.13912598 204.60978027 -86 205 C-87.21503864 205.98734916 -87.21503864 205.98734916 -87.06324577 207.89047813 C-87.02032245 209.14175216 -87.02032245 209.14175216 -86.97653198 210.41830444 C-86.94730148 211.37352997 -86.91807098 212.32875549 -86.88795471 213.31292725 C-86.85129196 214.3703009 -86.81462921 215.42767456 -86.77685547 216.51708984 C-86.70741399 218.81525083 -86.63961259 221.1134618 -86.57321167 223.41171265 C-86.53772091 224.63993114 -86.50223015 225.86814964 -86.46566391 227.13358688 C-86.26238761 235.03405451 -86.17123369 242.93669645 -86.07435417 250.83907127 C-85.98527075 257.76427611 -85.8465904 264.68182613 -85.59082031 271.60302734 C-83.7736807 321.94447021 -83.7736807 321.94447021 -95.91433144 335.86909676 C-101.5771721 341.77371693 -107.96608488 346.83063215 -115 351 C-115.33 351 -115.66 351 -116 351 C-116.33 328.56 -116.66 306.12 -117 283 C-118.32 283.99 -119.64 284.98 -121 286 C-124.66750347 286.20700075 -127.00549843 285.72453112 -130.00114059 283.54209518 C-132.31233999 281.47169045 -134.49626118 279.31411757 -136.67333984 277.10302734 C-137.51156281 276.2753183 -138.34978577 275.44760925 -139.21340942 274.59481812 C-141.5013267 272.32874241 -143.77526753 270.04974132 -146.04272795 267.76322508 C-148.42221457 265.36850725 -150.81635251 262.98850904 -153.2081604 260.60610962 C-157.22173289 256.60344131 -161.22251571 252.58831542 -165.21630859 248.56591797 C-169.8284894 243.92108557 -174.46188843 239.29826437 -179.10690153 234.68628347 C-183.10029473 230.72015169 -187.08183431 226.74240448 -191.05376971 222.75478327 C-193.42350058 220.37571651 -195.79705521 218.00084576 -198.18137741 215.6363945 C-200.83671773 212.99628752 -203.47207023 210.33771651 -206.10302734 207.67333984 C-206.89259827 206.89591431 -207.68216919 206.11848877 -208.4956665 205.31750488 C-214.34977599 199.32484636 -214.34977599 199.32484636 -215.08731079 195.14151001 C-215 192 -215 192 -213.5 189.0625 C-211 187 -211 187 -207.89256287 186.37194824 C-202.00826165 187.3213602 -199.26880184 190.80723574 -195.21899414 194.98632812 C-194.36941132 195.83488876 -193.51982849 196.6834494 -192.64450073 197.557724 C-190.32418921 199.88207119 -188.02012956 202.22118581 -185.72241139 204.56783104 C-183.31534857 207.01871207 -180.88839016 209.44972803 -178.46348572 211.88293457 C-173.87733935 216.49082052 -169.30932511 221.11625457 -164.74758095 225.74828577 C-159.55220576 231.02195673 -154.33689227 236.27571757 -149.11982167 241.52791309 C-138.39089908 252.3299647 -127.68724847 263.15670591 -117 274 C-117.00037703 273.07639238 -117.00075405 272.15278477 -117.0011425 271.20118904 C-117.00895351 248.70725592 -116.9823072 226.21356358 -116.9197216 203.71971321 C-116.89024955 192.84173705 -116.87189308 181.96395598 -116.87988281 171.0859375 C-116.88681989 161.60244953 -116.87271907 152.1192636 -116.83356392 142.63584983 C-116.81356851 137.61633809 -116.80396697 132.59730039 -116.81957626 127.5777626 C-116.83395134 122.84808117 -116.82008642 118.11930351 -116.78504753 113.38973808 C-116.77711311 111.65884318 -116.77928251 109.92786611 -116.79260826 108.19700432 C-116.87230965 96.88310837 -115.63631454 89.04904238 -107.65283203 80.48095703 C-106.90372559 79.87106934 -106.15461914 79.26118164 -105.3828125 78.6328125 C-101.43250289 75.26817215 -97.70085042 71.80257063 -94.0546875 68.1171875 C-93.54915344 67.60818909 -93.04361938 67.09919067 -92.52276611 66.57476807 C-90.97133156 65.0103174 -89.42272419 63.44312093 -87.875 61.875 C-76.43817756 50.28849026 -76.43817756 50.28849026 -72.0390625 46.5390625 C-66.1944278 41.55025469 -60.89618054 35.9630556 -55.5 30.5 C-53.32597288 28.29903008 -51.14956639 26.10049414 -48.96875 23.90625 C-48.44768677 23.38164688 -47.92662354 22.85704376 -47.38977051 22.31654358 C-43.93361782 18.86310972 -40.34094641 15.64892505 -36.61523438 12.49365234 C-34.23176002 10.28958703 -32.45583775 7.64548137 -30.5 5.0625 C-22.51970955 -3.27069915 -10.66192328 -0.91747204 0 0 Z " fill="#FBDD30" transform="translate(327,89)"/>
<path d="M0 0 C2.63671875 1.828125 2.63671875 1.828125 5 5 C5.61715517 8.78858468 5.47159418 12.48689677 5.3125 16.3125 C5.28994141 17.33923828 5.26738281 18.36597656 5.24414062 19.42382812 C5.18537575 21.9507179 5.10327849 24.47460255 5 27 C5.8494519 27.0604248 5.8494519 27.0604248 6.71606445 27.12207031 C15.73110099 27.9177088 24.4641531 31.13900851 31.875 36.4375 C34 39 34 39 34.625 42.5625 C34 46 34 46 32.4375 48.4375 C29.92872289 50.04569045 28.19769034 50.68488452 25.203125 50.53515625 C21.0610518 49.52901436 17.40747586 47.41543437 13.671875 45.41015625 C8.99988654 42.94438456 4.92172694 42.78536224 -0.25 42.75 C-0.98863281 42.729375 -1.72726562 42.70875 -2.48828125 42.6875 C-7.74509798 42.65041487 -11.3373707 43.53639133 -16 46 C-20.24899147 50.47866669 -22.28676536 54.25260861 -22.3125 60.4375 C-22.32925781 61.36433594 -22.34601563 62.29117188 -22.36328125 63.24609375 C-21.8312359 67.27934079 -20.31093604 69.87922171 -17.22265625 72.51953125 C-10.60335485 76.48153625 -3.641411 79.23584204 3.52197266 82.03393555 C17.61254984 87.55113944 29.23259617 92.67036304 36 107 C38.80390305 117.0872122 38.12750478 129.00447495 33.53515625 138.35546875 C28.45682255 147.10364156 21.83849654 154.89338375 11.64355469 157.63330078 C9.43448263 158.12742394 7.22527691 158.58555981 5 159 C5.02094727 159.6705542 5.04189453 160.3411084 5.06347656 161.03198242 C5.14686027 164.0836678 5.19873016 167.13511317 5.25 170.1875 C5.28351563 171.24259766 5.31703125 172.29769531 5.3515625 173.38476562 C5.45014671 181.19756455 5.45014671 181.19756455 3.203125 185.203125 C1 187 1 187 -2.5 187.5625 C-6.56615114 186.90901142 -7.50538948 186.18268589 -10 183 C-10.45410156 180.43457031 -10.45410156 180.43457031 -10.390625 177.578125 C-10.37128906 176.04091797 -10.37128906 176.04091797 -10.3515625 174.47265625 C-10.31804687 173.40917969 -10.28453125 172.34570312 -10.25 171.25 C-10.23195313 170.17105469 -10.21390625 169.09210938 -10.1953125 167.98046875 C-10.14821415 165.31941212 -10.082456 162.66015746 -10 160 C-11.13610718 160.00797607 -11.13610718 160.00797607 -12.29516602 160.01611328 C-21.8422155 159.95923944 -32.47103778 155.93402827 -39.68579102 149.49560547 C-41.78992028 147.10104929 -41.41781037 144.93155372 -41.27734375 141.875 C-41 140 -41 140 -39.9375 138 C-36.71887425 136.33877381 -34.59153145 136.53657659 -31 137 C-28.65945734 138.09903742 -26.49818532 139.33691857 -24.30859375 140.7109375 C-15.5505142 145.60123573 -3.32337835 145.70040426 6.25390625 143.125 C12.63059438 140.16543787 17.49677891 135.74250216 20.1328125 129.1796875 C21.86663652 122.82233277 22.49986966 114.95287409 19.375 108.9375 C14.44602493 102.8411361 8.24385463 100.80115127 1.0625 98.25 C-29.17637696 87.09661788 -29.17637696 87.09661788 -36.0546875 72.26953125 C-39.21550656 64.68095326 -39.28323332 55.5288239 -36.5625 47.75 C-32.41089415 38.87667341 -25.15099227 31.59026157 -16 28 C-14.33653203 27.65105413 -12.67006785 27.31585167 -11 27 C-10.99383667 25.98631348 -10.99383667 25.98631348 -10.98754883 24.95214844 C-10.95461055 21.883882 -10.8839674 18.81760074 -10.8125 15.75 C-10.80669922 14.68652344 -10.80089844 13.62304688 -10.79492188 12.52734375 C-10.57182495 4.64458571 -10.57182495 4.64458571 -7.60546875 1.30078125 C-4.62403375 -0.18770129 -3.26444504 -0.73450013 0 0 Z " fill="#040202" transform="translate(372,207)"/>
<path d="M0 0 C1.56244194 -0.01702469 1.56244194 -0.01702469 3.15644836 -0.03439331 C4.29370361 -0.03146271 5.43095886 -0.0285321 6.60267639 -0.0255127 C7.80467178 -0.03398224 9.00666718 -0.04245178 10.24508667 -0.05117798 C13.53865151 -0.0705681 16.83164977 -0.07632514 20.12523341 -0.07443047 C22.87624377 -0.07431073 25.62720116 -0.08287594 28.37819678 -0.09120798 C34.86907491 -0.11043922 41.35982445 -0.11332687 47.85072327 -0.10656738 C54.54354283 -0.09992581 61.23581138 -0.12279554 67.92851919 -0.15988111 C73.67813191 -0.19058299 79.42756741 -0.20193768 85.17726046 -0.1980443 C88.60981728 -0.19597732 92.04194527 -0.20144716 95.47442436 -0.22593689 C99.30255079 -0.25234761 103.12995597 -0.2384723 106.95814514 -0.2208252 C108.09337616 -0.23408844 109.22860718 -0.24735168 110.39823914 -0.26101685 C118.04176066 -0.17898813 118.04176066 -0.17898813 122.08413696 2.70629883 C123.84510803 5.39440918 123.84510803 5.39440918 123.90760803 9.01940918 C122.72557823 12.77409209 122.14887215 13.47274976 118.84510803 15.39440918 C116.41191864 15.77751923 116.41191864 15.77751923 113.64552307 15.78881836 C112.06829216 15.80584305 112.06829216 15.80584305 110.459198 15.82321167 C109.31102097 15.82028107 108.16284393 15.81735046 106.97987366 15.81433105 C105.7665184 15.8228006 104.55316315 15.83127014 103.30303955 15.83999634 C99.97855281 15.85938615 96.65462736 15.8651436 93.33012199 15.86324883 C90.55416428 15.86312911 87.77825909 15.87169327 85.002316 15.88002634 C78.45394669 15.89925663 71.90570487 15.90214524 65.35731506 15.89538574 C58.60199372 15.88874106 51.84721785 15.91162663 45.09200716 15.94869947 C39.29060609 15.97938236 33.48938066 15.9907582 27.68790007 15.98686266 C24.22351871 15.98479407 20.75956208 15.99029066 17.29525757 16.01475525 C13.43340096 16.04112723 9.57226106 16.02730518 5.71034241 16.00964355 C3.98807686 16.02953842 3.98807686 16.02953842 2.23101807 16.04983521 C-5.47506271 15.96768877 -5.47506271 15.96768877 -8.89646912 13.08251953 C-10.62625895 9.38752468 -10.30310708 7.26963519 -9.15489197 3.39440918 C-6.1896062 0.52118772 -4.06783613 0.01677413 0 0 Z " fill="#010101" transform="translate(313.15489196777344,444.6055908203125)"/>
<path d="M0 0 C1.19078156 -0.0087616 2.38156311 -0.01752319 3.60842896 -0.02655029 C6.86704084 -0.04476691 10.12463463 -0.04052498 13.38323092 -0.02465487 C16.79840104 -0.01197118 20.2135045 -0.02374306 23.62867737 -0.03158569 C29.36439168 -0.04067641 35.09978385 -0.02871121 40.83544922 -0.00488281 C47.45844314 0.02231491 54.08066711 0.0135227 60.70364231 -0.01401484 C66.39727487 -0.03673728 72.09067621 -0.03989046 77.78433949 -0.02682149 C81.18166117 -0.01904231 84.57862152 -0.01794218 87.97591972 -0.03450394 C91.76572557 -0.04720367 95.55405416 -0.02784306 99.34375 0 C100.46446396 -0.01012115 101.58517792 -0.02024231 102.73985291 -0.03067017 C111.22488329 0.08480834 111.22488329 0.08480834 114.97596741 2.96084595 C117.23657227 5.64697266 117.23657227 5.64697266 117.29907227 9.27197266 C116.26006106 12.57236121 115.90674498 13.64704764 113.23657227 15.64697266 C110.91081333 16.02728939 110.91081333 16.02728939 108.11927795 16.03465271 C107.06075119 16.04455734 106.00222443 16.05446198 104.91162109 16.06466675 C103.75049805 16.0601651 102.589375 16.05566345 101.39306641 16.05102539 C100.17010361 16.05788864 98.94714081 16.06475189 97.68711853 16.07182312 C94.33157563 16.0870055 90.97658741 16.08858048 87.62105107 16.08288074 C84.82029343 16.07979313 82.01958624 16.08587658 79.21883577 16.09191948 C72.61150549 16.10597349 66.00430447 16.1043964 59.39697266 16.09301758 C52.5798264 16.08153687 45.76307358 16.09560886 38.94597918 16.12241405 C33.09364711 16.14456442 27.2414386 16.15120993 21.38906759 16.14533764 C17.89344359 16.14196503 14.39807176 16.14440279 10.90248299 16.16158867 C7.00465575 16.17991516 3.10731299 16.16587745 -0.79052734 16.14868164 C-1.94962616 16.15834961 -3.10872498 16.16801758 -4.302948 16.17797852 C-5.36429459 16.16814438 -6.42564117 16.15831024 -7.51914978 16.1481781 C-8.90152533 16.14786417 -8.90152533 16.14786417 -10.31182766 16.14754391 C-13.54199852 15.48800295 -14.73932889 14.19847341 -16.76342773 11.64697266 C-17.32592773 8.70947266 -17.32592773 8.70947266 -16.76342773 5.64697266 C-12.3993426 -0.78049038 -7.08404437 -0.06386058 0 0 Z " fill="#080405" transform="translate(319.763427734375,410.35302734375)"/>
<path d="M0 0 C5.89789032 0.94988079 8.68565482 4.44468367 12.77110291 8.61074829 C13.6304393 9.45942474 14.4897757 10.3081012 15.37515259 11.18249512 C17.72288091 13.50893812 20.05382975 15.84998766 22.37781787 18.20000887 C24.81470827 20.65837717 27.26907026 23.09919772 29.7208252 25.54272461 C33.8343894 29.6481344 37.93333499 33.76771789 42.02403259 37.89590454 C46.75178581 42.66660736 51.50235914 47.41361824 56.26573223 52.1487366 C60.85063133 56.70759343 65.41843362 61.28322351 69.97885323 65.86655807 C71.91865898 67.81545799 73.86433656 69.75820186 75.81501579 71.69621658 C78.53792387 74.40317766 81.23565962 77.13439157 83.93125916 79.86856079 C85.14906067 81.07050079 85.14906067 81.07050079 86.39146423 82.29672241 C91.74032225 87.78007725 91.74032225 87.78007725 92.52514648 91.99169922 C91.60609572 95.85667448 90.12759241 97.36046273 86.89830017 99.62783813 C81.88139733 99.82341454 79.51403748 98.63144661 75.7983551 95.28979492 C74.25860387 93.78564242 72.73517385 92.26467242 71.22496033 90.73086548 C70.38673737 89.90315643 69.5485144 89.07544739 68.68489075 88.22265625 C66.39697347 85.95658054 64.12303264 83.67757946 61.85557222 81.39106321 C59.4760856 78.99634539 57.08194766 76.61634718 54.69013977 74.23394775 C50.67656728 70.23127945 46.67578446 66.21615356 42.68199158 62.1937561 C38.06981077 57.5489237 33.43641174 52.92610251 28.79139864 48.3141216 C24.79800544 44.34798983 20.81646586 40.37024261 16.84453046 36.38262141 C14.47479959 34.00355464 12.10124497 31.62868389 9.71692276 29.26423264 C7.06158244 26.62412566 4.42622994 23.96555464 1.79527283 21.30117798 C1.0057019 20.52375244 0.21613098 19.7463269 -0.59736633 18.94534302 C-6.45147581 12.95268449 -6.45147581 12.95268449 -7.18901062 8.76934814 C-7.10169983 5.62783813 -7.10169983 5.62783813 -5.60169983 2.69033813 C-3.10169983 0.62783813 -3.10169983 0.62783813 0 0 Z " fill="#040302" transform="translate(119.10169982910156,275.3721618652344)"/>
<path d="M0 0 C3.38700476 2.19029786 6.08016506 4.98693261 8.89453125 7.859375 C9.7442601 8.6950853 10.59398895 9.53079559 11.46946716 10.39183044 C13.78801979 12.68125727 16.08771107 14.98769917 18.37898254 17.30437851 C20.7839669 19.72966957 23.20847002 22.13532179 25.62988281 24.54418945 C29.6923997 28.59216679 33.73779222 32.65668503 37.77392578 36.73095703 C42.43529818 41.43586592 47.12479411 46.11125805 51.82993984 50.77235985 C55.87461086 54.78068343 59.90342813 58.80444223 63.91949558 62.84142494 C66.31566568 65.25004389 68.71685703 67.65298747 71.13247681 70.04211426 C73.82169565 72.711022 76.48394361 75.40422307 79.140625 78.10546875 C79.94157089 78.89022079 80.74251678 79.67497284 81.56773376 80.48350525 C87.46595008 86.56640023 87.46595008 86.56640023 87.55371094 91.4309082 C87 95 87 95 86 97 C82.65047573 98.67476213 79.58166807 98.815808 76 98 C72.61299524 95.80970214 69.91983494 93.01306739 67.10546875 90.140625 C66.2557399 89.3049147 65.40601105 88.46920441 64.53053284 87.60816956 C62.21198021 85.31874273 59.91228893 83.01230083 57.62101746 80.69562149 C55.2160331 78.27033043 52.79152998 75.86467821 50.37011719 73.45581055 C46.3076003 69.40783321 42.26220778 65.34331497 38.22607422 61.26904297 C33.56470182 56.56413408 28.87520589 51.88874195 24.17006016 47.22764015 C20.12538914 43.21931657 16.09657187 39.19555777 12.08050442 35.15857506 C9.68433432 32.74995611 7.28314297 30.34701253 4.86752319 27.95788574 C2.17830435 25.288978 -0.48394361 22.59577693 -3.140625 19.89453125 C-3.94157089 19.10977921 -4.74251678 18.32502716 -5.56773376 17.51649475 C-11.46595008 11.43359977 -11.46595008 11.43359977 -11.55371094 6.5690918 C-11 3 -11 3 -10 1 C-6.65047573 -0.67476213 -3.58166807 -0.815808 0 0 Z " fill="#020201" transform="translate(100,300)"/>
<path d="M0 0 C6.54220839 2.81315506 10.92012573 7.26032572 15.9375 12.1875 C16.82501953 13.01314453 17.71253906 13.83878906 18.62695312 14.68945312 C24.71779118 20.66723619 24.71779118 20.66723619 25.44799805 24.11572266 C25.24336024 26.26507638 24.7625867 27.98192591 24 30 C23.77546143 30.66926514 23.55092285 31.33853027 23.31958008 32.02807617 C22.59297863 34.0537603 21.78489128 36.02209832 20.9375 38 C20.65583984 38.67933594 20.37417969 39.35867187 20.08398438 40.05859375 C19.39808689 41.70939787 18.70030171 43.35525469 18 45 C17.11054688 43.86691406 17.11054688 43.86691406 16.203125 42.7109375 C12.3918618 38.02119165 8.10542912 33.90460295 3.5 30 C-2.8520897 24.53921142 -8.63688718 18.44505172 -14.52294922 12.49291992 C-15.67839052 11.32506479 -16.83833521 10.16166479 -18 9 C-16.92319498 7.86874978 -15.83824365 6.74525081 -14.75 5.625 C-14.14671875 4.99851562 -13.5434375 4.37203125 -12.921875 3.7265625 C-8.80315487 0.02641149 -5.50609224 -0.47466312 0 0 Z " fill="#FA7E85" transform="translate(373,74)"/>
</svg>
