<svg xmlns="http://www.w3.org/2000/svg" viewBox="0 0 85 85"><defs><style>.cls-1{fill:#9cc0ff;}.cls-2{fill:#fff;}.cls-3{fill:#276ef1;}</style></defs><title>Share My Trip</title><g id="Layer_1" data-name="Layer 1"><path class="cls-1" d="M85,23.07V77.75A7.25,7.25,0,0,1,77.76,85H7.24A7.25,7.25,0,0,1,0,77.75V23.07a7.24,7.24,0,0,1,7.24-7.24H77.76a7.24,7.24,0,0,1,7.11,5.88A6.75,6.75,0,0,1,85,23.07Z"/><path class="cls-2" d="M85,73v5H52.4A13.18,13.18,0,0,1,42,72.83L32.57,60.48a8.49,8.49,0,0,0-6-3.34H0v-5H26.71a13.47,13.47,0,0,1,9.84,5.3l9.38,12.36A8.17,8.17,0,0,0,52.4,73Z"/><path class="cls-2" d="M84.87,21.71,21.57,85H14.51L82.17,17.33A7.22,7.22,0,0,1,84.87,21.71Z"/><rect class="cls-2" x="7.36" y="15.83" width="5" height="41.31"/><path class="cls-3" d="M33,3.41A15.82,15.82,0,0,0,9.48,23.72h0L23.18,47.35,36.9,23.73h0A15.82,15.82,0,0,0,33,3.41Z"/><circle class="cls-2" cx="23.18" cy="15.82" r="4.86"/><path class="cls-3" d="M71.65,22.73A15.82,15.82,0,0,0,48.12,43h0L61.82,66.67,75.53,43.05h0A15.82,15.82,0,0,0,71.65,22.73Z"/><circle class="cls-2" cx="61.82" cy="35.14" r="4.86"/><path d="M52.4,73h9.42v5H52.4A13.18,13.18,0,0,1,42,72.83L32.57,60.48a8.49,8.49,0,0,0-6-3.34H23.19v-5h3.52a13.47,13.47,0,0,1,9.84,5.3l9.38,12.36A8.17,8.17,0,0,0,52.4,73Z"/><rect class="cls-2" x="84.88" y="73.02" width="0.1" height="5"/></g></svg>