<svg xmlns="http://www.w3.org/2000/svg" fill="black" viewBox="0 0 24 24"><g clip-path="url(#a)"><path stroke="#000" stroke-linecap="round" stroke-width="2" d="M4 6L5.43431 4.56569C5.63232 4.36768 5.73133 4.26867 5.84549 4.23158 5.94591 4.19895 6.05408 4.19895 6.15451 4.23158 6.26867 4.26867 6.36767 4.36768 6.56568 4.56568L8 6M16 18L17.4343 19.4343C17.6323 19.6323 17.7313 19.7313 17.8455 19.7684 17.9459 19.8011 18.0541 19.8011 18.1545 19.7684 18.2687 19.7313 18.3677 19.6323 18.5657 19.4343L20 18"/><path stroke="#000" stroke-linejoin="round" stroke-width="2" d="M6 4L6 16C6 16 6 19 9 19C12 19 12 16 12 16V8C12 8 12 5 15 5C18 5 18 8 18 8V20"/></g><defs><clipPath id="a"><rect width="24" height="24" fill="#000"/></clipPath></defs></svg>