<?xml version="1.0" encoding="UTF-8"?>
<svg version="1.1" xmlns="http://www.w3.org/2000/svg" width="512" height="512">
<path d="M0 0 C6.85187346 4.58946241 10.42211237 10.43657693 12.0703125 18.38671875 C12.0703125 24.32671875 12.0703125 30.26671875 12.0703125 36.38671875 C31.5403125 36.38671875 51.0103125 36.38671875 71.0703125 36.38671875 C71.0703125 29.78671875 71.0703125 23.18671875 71.0703125 16.38671875 C74.66135494 6.81060557 77.22278521 2.49755723 86.3203125 -1.69921875 C92.97772242 -3.91205102 99.89228331 -3.4001448 106.29296875 -0.5859375 C112.50799852 2.81525462 116.47335671 7.49762723 118.66967773 14.22167969 C119.18392748 17.00069658 119.18182298 19.6385804 119.16796875 22.46484375 C119.16474609 23.625 119.16152344 24.78515625 119.15820312 25.98046875 C119.14982422 27.18703125 119.14144531 28.39359375 119.1328125 29.63671875 C119.12830078 30.85875 119.12378906 32.08078125 119.11914062 33.33984375 C119.10736076 36.35548967 119.08942551 39.3711104 119.0703125 42.38671875 C123.3603125 42.38671875 127.6503125 42.38671875 132.0703125 42.38671875 C132.4003125 40.73671875 132.7303125 39.08671875 133.0703125 37.38671875 C135.61035019 36.1166999 137.41964908 36.23896285 140.26342773 36.2097168 C141.89168739 36.19046394 141.89168739 36.19046394 143.55284119 36.17082214 C144.73294266 36.16343521 145.91304413 36.15604828 147.12890625 36.1484375 C148.34296646 36.14036575 149.55702667 36.13229401 150.80787659 36.12397766 C153.38614468 36.11012117 155.96443124 36.09940606 158.54272461 36.09155273 C162.46048654 36.07442564 166.37738587 36.03056196 170.29492188 35.98632812 C172.80207714 35.97619377 175.30923957 35.96768 177.81640625 35.9609375 C178.97828964 35.94342941 180.14017303 35.92592133 181.33726501 35.90788269 C192.38031912 35.936887 202.67261626 38.94086377 211.0703125 46.38671875 C220.90491107 57.63364146 222.99346318 68.26592031 223.6328125 82.82421875 C223.67599609 83.74654297 223.71917969 84.66886719 223.76367188 85.61914062 C223.86886181 87.87488038 223.97100357 90.13071374 224.0703125 92.38671875 C225.524375 92.98806641 225.524375 92.98806641 227.0078125 93.6015625 C241.11978436 99.54166851 254.51514595 106.19214348 266.0703125 116.38671875 C266.88757813 117.08410156 267.70484375 117.78148437 268.546875 118.5 C294.80220508 141.38196724 310.9018589 173.3997352 313.73095703 208.15722656 C316.22294151 246.79500514 302.93774391 281.25876019 277.9453125 310.26171875 C255.97523685 334.28059114 222.97738511 349.98456697 190.41455078 351.51123047 C157.09746106 352.44492089 126.93845784 344.54730172 100.0703125 324.38671875 C98.925625 323.2884375 98.925625 323.2884375 97.7578125 322.16796875 C93.97978567 319.66392771 90.70079839 319.71865143 86.2578125 319.63671875 C85.46955078 319.60707031 84.68128906 319.57742188 83.86914062 319.546875 C81.93673804 319.47660582 80.00352235 319.42934741 78.0703125 319.38671875 C77.9671875 320.00546875 77.8640625 320.62421875 77.7578125 321.26171875 C77.0703125 323.38671875 77.0703125 323.38671875 74.0703125 325.38671875 C70.92076874 325.64119434 70.92076874 325.64119434 66.95007324 325.64741516 C66.22023177 325.65124071 65.49039029 325.65506626 64.73843241 325.65900773 C62.28583539 325.6693497 59.83347197 325.66534324 57.38085938 325.66137695 C55.62488589 325.66572303 53.86891431 325.67090583 52.11294556 325.67686462 C47.3356562 325.69028389 42.55844582 325.69082955 37.78114128 325.68830132 C33.79058395 325.68723259 29.80004267 325.692113 25.80948877 325.69690675 C16.3876288 325.70801418 6.96580867 325.70843381 -2.45605469 325.70239258 C-12.16200732 325.69636446 -21.86781457 325.70863136 -31.57374239 325.72996265 C-39.91276868 325.74761315 -48.25174886 325.75357417 -56.59079313 325.7503249 C-61.56826442 325.74851582 -66.54563223 325.75110988 -71.52308655 325.76503944 C-76.2115082 325.7776676 -80.8997049 325.77562669 -85.58812332 325.76262856 C-87.3024923 325.76027324 -89.01687733 325.76295971 -90.73122787 325.77125168 C-105.05951491 325.83551634 -117.78564956 324.51475247 -128.93359375 314.60546875 C-137.41524572 305.66584421 -140.07946707 295.35227653 -140.07685852 283.40698242 C-140.08053521 282.50125048 -140.0842119 281.59551853 -140.088 280.66234016 C-140.09901552 277.62645018 -140.1028771 274.59059446 -140.10668945 271.5546875 C-140.1129558 269.37802523 -140.11960276 267.20136402 -140.12660217 265.02470398 C-140.14762777 257.87454979 -140.15800443 250.72439543 -140.16796875 243.57421875 C-140.17201712 241.11012765 -140.17613407 238.64603667 -140.18031883 236.1819458 C-140.19936865 224.60246868 -140.21359909 213.02299792 -140.2219308 201.44350815 C-140.23169725 188.0914284 -140.2580023 174.73953244 -140.29843169 161.38750935 C-140.32863013 151.058627 -140.3434033 140.72979214 -140.34671181 130.40086651 C-140.34905838 124.23619403 -140.3579676 118.07169897 -140.38317299 111.90707397 C-140.40652324 106.10235435 -140.41065888 100.29792809 -140.40041161 94.4931736 C-140.3999178 92.3700443 -140.40619212 90.24690021 -140.41996765 88.12381554 C-140.58852679 60.59081623 -140.58852679 60.59081623 -130.90234375 49.3828125 C-121.70277175 40.07393866 -112.19300551 35.97727563 -99.06982422 35.83093262 C-97.8892041 35.83902954 -96.70858398 35.84712646 -95.4921875 35.85546875 C-94.24969238 35.85164185 -93.00719727 35.84781494 -91.72705078 35.84387207 C-89.12189922 35.84116691 -86.51671985 35.84842937 -83.91162109 35.86523438 C-81.24149327 35.87964095 -78.57456333 35.88336915 -75.90478516 35.86523438 C-72.03775511 35.84060663 -68.17175957 35.84348428 -64.3046875 35.85546875 C-63.10787354 35.84737183 -61.91105957 35.8392749 -60.67797852 35.83093262 C-59.57252686 35.84354126 -58.4670752 35.8561499 -57.328125 35.86914062 C-56.35536621 35.872323 -55.38260742 35.87550537 -54.38037109 35.87878418 C-51.9296875 36.38671875 -51.9296875 36.38671875 -50.09228516 38.29406738 C-48.9296875 40.38671875 -48.9296875 40.38671875 -48.9296875 42.38671875 C-44.6396875 42.38671875 -40.3496875 42.38671875 -35.9296875 42.38671875 C-35.97609375 40.54207031 -36.0225 38.69742188 -36.0703125 36.796875 C-36.10784817 34.34767252 -36.14424639 31.89845243 -36.1796875 29.44921875 C-36.21320313 28.23685547 -36.24671875 27.02449219 -36.28125 25.77539062 C-36.36856432 17.72064436 -35.8843323 10.72175065 -30.25195312 4.54760742 C-21.7591509 -3.43151725 -10.45484853 -5.33984199 0 0 Z " fill="#FA6A64" transform="translate(168.9296875,81.61328125)"/>
<path d="M0 0 C6.27 0 12.54 0 19 0 C15.71750542 3.28249458 12.86228607 5.9876636 9.25 8.75 C-11.36499532 25.16282493 -25.20803249 48.55913184 -32.75 73.625 C-32.94875732 74.28089111 -33.14751465 74.93678223 -33.35229492 75.61254883 C-36.33281465 86.02073324 -37.36472958 96.32361106 -37.3125 107.125 C-37.30903564 108.300625 -37.30557129 109.47625 -37.30200195 110.6875 C-37.18189409 120.39168471 -36.12963707 129.54600367 -34 139 C-33.70996094 140.40378906 -33.70996094 140.40378906 -33.4140625 141.8359375 C-28.63485439 162.00791977 -18.50059793 180.40776013 -5 196 C-4.30777344 196.80179688 -3.61554688 197.60359375 -2.90234375 198.4296875 C0.60501188 202.4287285 4.21824454 206.25743371 8 210 C5.22754986 210.13487595 2.46162912 210.23400807 -0.3125 210.3125 C-1.09818359 210.35439453 -1.88386719 210.39628906 -2.69335938 210.43945312 C-3.8293457 210.46362305 -3.8293457 210.46362305 -4.98828125 210.48828125 C-6.03302612 210.52755737 -6.03302612 210.52755737 -7.09887695 210.56762695 C-7.72624756 210.38031006 -8.35361816 210.19299316 -9 210 C-9.38707815 209.17606058 -9.7741563 208.35212116 -10.1729641 207.50321388 C-11.80925051 204.66703627 -11.80925051 204.66703627 -15.15513039 204.37752342 C-17.12452111 204.37922004 -17.12452111 204.37922004 -19.13369751 204.38095093 C-19.86495012 204.37471195 -20.59620272 204.36847297 -21.3496145 204.36204493 C-23.80735261 204.34708732 -26.26351098 204.36779687 -28.72119141 204.38818359 C-30.48041346 204.38464368 -32.23963223 204.37886759 -33.99884033 204.37101746 C-37.79183732 204.35881882 -41.58438496 204.36232892 -45.37736893 204.37784958 C-51.3786923 204.40212832 -57.37962078 204.39068539 -63.38095093 204.37417603 C-73.96154234 204.34965199 -84.54195515 204.35548838 -95.12255859 204.36798096 C-111.03148663 204.38653667 -126.94037965 204.38167115 -142.84928262 204.34794676 C-148.81045905 204.33645087 -154.77134856 204.34084843 -160.7325089 204.35796714 C-164.44991788 204.36588743 -168.1672441 204.36159896 -171.88465118 204.35425758 C-173.60309022 204.35345 -175.32154083 204.35776381 -177.03995132 204.36770058 C-189.19853518 204.43457857 -198.75330773 204.05228135 -208.05078125 195.2578125 C-210.99101345 191.85209264 -212.65314109 188.26505322 -214 184 C-214.26408236 183.16377924 -214.26408236 183.16377924 -214.53349972 182.31066513 C-215.16888271 179.16349163 -215.12258145 176.16240267 -215.12025452 172.95123291 C-215.12111053 172.24306931 -215.12196655 171.5349057 -215.12284851 170.80528259 C-215.12450353 168.42517581 -215.11898033 166.04513941 -215.11352539 163.66503906 C-215.11321907 161.93242266 -215.11335253 160.19980613 -215.11389065 158.46718979 C-215.11411655 153.82435819 -215.10831768 149.18155233 -215.10128021 144.53872681 C-215.0955883 140.18320636 -215.09531725 135.8276922 -215.09460449 131.47216797 C-215.08935567 118.7314419 -215.07539454 105.99072063 -215.0625 93.25 C-215.041875 64.7875 -215.02125 36.325 -215 7 C-144.71 6.67 -74.42 6.34 -2 6 C-1.34 4.02 -0.68 2.04 0 0 Z " fill="#F1F1F1" transform="translate(256,191)"/>
<path d="M0 0 C18.77040156 15.19047961 32.63538879 35.70003016 36 60 C38.25461503 87.22881233 31.10747921 111.38948294 13.40625 132.3359375 C-1.15945753 148.46225655 -22.07668676 159.86552354 -44.00537109 161.18017578 C-71.90143777 162.3145589 -93.19519531 155.65206802 -114.5 137.4375 C-132.03073678 121.04576589 -141.58116899 98.06760259 -142.38989258 74.27075195 C-142.82397502 48.43728139 -132.95560431 26.61988274 -115.375 7.875 C-84.12779855 -22.21131471 -35.02121021 -25.62635155 0 0 Z " fill="#F0F0F1" transform="translate(403,228)"/>
<path d="M0 0 C5.30713481 4.06774405 10.26638726 8.47293096 15.125 13.0625 C15.87523437 13.74828125 16.62546875 14.4340625 17.3984375 15.140625 C28.48692674 25.64550954 35.90846419 38.25797492 42.125 52.0625 C42.85009766 53.64611328 42.85009766 53.64611328 43.58984375 55.26171875 C55.44387863 83.40154016 54.17290361 116.39944828 43.07421875 144.4453125 C30.95154016 173.81035294 7.96114209 197.97526434 -21.27734375 210.60546875 C-26.74289655 212.81898796 -32.15670585 214.6205492 -37.875 216.0625 C-38.58720703 216.24441895 -39.29941406 216.42633789 -40.03320312 216.61376953 C-58.78163309 221.26939351 -77.0874354 221.62124729 -95.875 217.0625 C-97.1021875 216.79566406 -98.329375 216.52882813 -99.59375 216.25390625 C-129.13681217 209.27156488 -154.51115059 189.29384336 -170.875 164.0625 C-187.78384443 136.52133252 -193.8241428 103.98258957 -186.85009766 72.16796875 C-179.12581965 41.09137144 -159.46642192 12.70915721 -131.875 -3.9375 C-126.66962107 -6.87506422 -121.31241158 -9.46180702 -115.875 -11.9375 C-114.99328125 -12.34742188 -114.1115625 -12.75734375 -113.203125 -13.1796875 C-77.14230211 -28.78990949 -31.80930424 -22.47202252 0 0 Z M-137.875 42.0625 C-154.33152579 61.9090701 -159.93648601 86.06976274 -157.67138672 111.33349609 C-155.18365949 133.46762769 -142.37126688 154.45199236 -125.734375 168.8671875 C-109.47416265 181.35112102 -91.11881763 188.69281414 -70.5 188.4375 C-68.71674316 188.42227295 -68.71674316 188.42227295 -66.89746094 188.40673828 C-42.45655698 187.9744821 -20.27535714 178.20711801 -3.27001953 160.59423828 C13.94160077 141.69579485 21.06544556 117.95822064 20.49609375 92.73828125 C19.38182836 69.34663882 7.2499641 48.27243091 -9.35546875 32.3046875 C-28.22841134 15.50923161 -52.66053495 8.59904355 -77.59912109 9.87158203 C-101.35416084 11.86433478 -122.31458563 24.49347005 -137.875 42.0625 Z " fill="#7491BF" transform="translate(418.875,200.9375)"/>
<path d="M0 0 C1.62825966 -0.01925285 1.62825966 -0.01925285 3.28941345 -0.03889465 C5.05956566 -0.04997505 5.05956566 -0.04997505 6.86547852 -0.0612793 C8.07953873 -0.06935104 9.29359894 -0.07742279 10.54444885 -0.08573914 C13.12271695 -0.09959563 15.70100351 -0.11031074 18.27929688 -0.11816406 C22.19705881 -0.13529115 26.11395814 -0.17915484 30.03149414 -0.22338867 C32.5386494 -0.23352303 35.04581184 -0.2420368 37.55297852 -0.2487793 C38.71486191 -0.26628738 39.8767453 -0.28379547 41.07383728 -0.30183411 C52.11689138 -0.2728298 62.40918853 2.73114697 70.80688477 10.17700195 C80.64148334 21.42392466 82.73003545 32.05620351 83.36938477 46.61450195 C83.41256836 47.53682617 83.45575195 48.45915039 83.50024414 49.40942383 C83.60543408 51.66516358 83.70757584 53.92099694 83.80688477 56.17700195 C84.77625977 56.57790039 85.74563477 56.97879883 86.74438477 57.3918457 C100.85635663 63.33195171 114.25171822 69.98242669 125.80688477 80.17700195 C126.62415039 80.87438477 127.44141602 81.57176758 128.28344727 82.2902832 C154.53877735 105.17225044 170.63843116 137.19001841 173.4675293 171.94750977 C175.95951377 210.58528834 162.67431617 245.04904339 137.68188477 274.05200195 C115.71180912 298.07087434 82.71395738 313.77485018 50.15112305 315.30151367 C14.7327827 316.29409031 -17.71354506 307.14238436 -45.19311523 284.17700195 C-46.88652894 282.53751862 -48.55181205 280.86865186 -50.19311523 279.17700195 C-50.87277344 278.4809082 -50.87277344 278.4809082 -51.56616211 277.77075195 C-59.01794897 270.08386071 -65.41685732 262.22199497 -71.19311523 253.17700195 C-72.09803711 251.8002832 -72.09803711 251.8002832 -73.02124023 250.39575195 C-90.28867573 222.70563017 -96.10281562 186.07418246 -89.09960938 154.26513672 C-80.45707097 118.92313377 -59.04482003 88.3165126 -27.94311523 69.17700195 C-7.30231622 56.86433186 15.85603057 49.74296512 39.99438477 49.86450195 C41.07067139 49.86579102 42.14695801 49.86708008 43.25585938 49.8684082 C52.34634642 49.9767492 60.96373112 51.13346714 69.80688477 53.17700195 C69.78379263 49.69642898 69.70609493 46.21902536 69.61938477 42.73950195 C69.61358398 41.76561523 69.6077832 40.79172852 69.60180664 39.78833008 C69.34033077 31.10152047 66.80365645 24.85117753 60.49438477 18.80200195 C53.43817591 12.72335352 45.12485171 12.75793624 36.31860352 12.8059082 C33.89737803 12.78854223 31.4761541 12.77095771 29.05493164 12.75317383 C25.25827328 12.74306124 21.46171041 12.73951654 17.66503906 12.74121094 C13.9867712 12.7376566 10.30924083 12.71039053 6.63110352 12.6809082 C5.49049973 12.68909073 4.34989594 12.69727325 3.17472839 12.70570374 C1.59211967 12.69065041 1.59211967 12.69065041 -0.02246094 12.67529297 C-1.41523003 12.67554222 -1.41523003 12.67554222 -2.83613586 12.67579651 C-5.19311523 12.17700195 -5.19311523 12.17700195 -7.02799988 10.37632751 C-8.77318531 7.08203488 -8.05831341 4.70434835 -7.19311523 1.17700195 C-4.65307754 -0.09301689 -2.84377865 0.02924605 0 0 Z M10.80688477 65.17700195 C8.98930664 65.6874707 8.98930664 65.6874707 7.13500977 66.20825195 C-12.68055002 72.2926977 -29.33850841 82.85140535 -44.19311523 97.17700195 C-45.27206055 98.16120117 -45.27206055 98.16120117 -46.37280273 99.1652832 C-57.10242926 109.22700125 -64.21583726 121.90377611 -70.19311523 135.17700195 C-70.67651367 136.23274414 -71.15991211 137.28848633 -71.65795898 138.3762207 C-83.49766393 166.48202485 -82.30913045 199.55844844 -71.14233398 227.5949707 C-58.69252709 257.50830763 -35.33430973 281.40533622 -5.66577148 294.4230957 C1.91590741 297.5328805 9.82530008 299.41024493 17.80688477 301.17700195 C18.82782227 301.42321289 19.84875977 301.66942383 20.90063477 301.9230957 C50.42672117 308.0743637 82.3064847 299.62349408 107.30297852 283.59887695 C113.22298053 279.6182143 118.54536088 274.97787258 123.80688477 270.17700195 C124.89549805 269.21213867 124.89549805 269.21213867 126.00610352 268.2277832 C146.8454434 248.74109824 160.03600725 218.70417396 161.12329102 190.42700195 C161.97045388 154.19284131 151.35959955 123.70319447 126.25585938 97.29345703 C103.83341244 74.28895643 73.86200449 62.48649606 41.96801758 61.82568359 C31.22556803 61.75110461 21.18015995 62.18563888 10.80688477 65.17700195 Z " fill="#294368" transform="translate(309.193115234375,117.822998046875)"/>
<path d="M0 0 C1.24249512 -0.0038269 2.48499023 -0.00765381 3.76513672 -0.01159668 C6.37028828 -0.01430184 8.97546765 -0.00703938 11.58056641 0.00976562 C14.25069423 0.0241722 16.91762417 0.0279004 19.58740234 0.00976562 C23.45443239 -0.01486212 27.32042793 -0.01198447 31.1875 0 C32.38431396 -0.00809692 33.58112793 -0.01619385 34.81420898 -0.02453613 C35.91966064 -0.01192749 37.0251123 0.00068115 38.1640625 0.01367188 C39.13682129 0.01685425 40.10958008 0.02003662 41.11181641 0.02331543 C43.5625 0.53125 43.5625 0.53125 45.44287109 2.33312988 C46.5625 4.53125 46.5625 4.53125 45.875 8.21875 C44.5625 11.53125 44.5625 11.53125 42.5625 12.53125 C40.88946774 12.62499235 39.21276562 12.65638709 37.53710938 12.65722656 C36.48841675 12.66103333 35.43972412 12.66484009 34.35925293 12.66876221 C33.21976196 12.66978943 32.080271 12.67081665 30.90625 12.671875 C28.49738646 12.69021366 26.08853205 12.70978493 23.6796875 12.73046875 C19.87907657 12.7593577 16.07904791 12.78124786 12.27832031 12.78173828 C8.61210375 12.78508948 4.94723169 12.81975461 1.28125 12.859375 C0.15795288 12.8523053 -0.96534424 12.8452356 -2.12268066 12.83795166 C-11.58908682 12.98265178 -18.66886065 15.46603241 -25.375 22.28125 C-32.89082584 30.77579518 -31.97231346 42.48807719 -32.125 53.09375 C-32.15822761 54.6907823 -32.19272216 56.28778877 -32.22851562 57.88476562 C-32.31279493 61.76678324 -32.37989423 65.64874872 -32.4375 69.53125 C-30.8027612 69.52848462 -30.8027612 69.52848462 -29.13499737 69.52566338 C-2.64628431 69.48131122 23.84242395 69.44842082 50.33116627 69.42762566 C63.14079417 69.4173026 75.95039758 69.40322264 88.76000977 69.38037109 C99.92175601 69.36046868 111.08348452 69.34754106 122.24524802 69.34307301 C128.1581124 69.34046028 134.07092603 69.33429794 139.98377419 69.31978989 C145.54455875 69.3062557 151.10527147 69.3020189 156.66607094 69.30503464 C158.71115 69.3044826 160.75623137 69.30048047 162.80129623 69.29283905 C165.58541912 69.28294293 168.36926787 69.28526154 171.15339661 69.29074097 C171.96953912 69.28491528 172.78568164 69.2790896 173.62655574 69.27308738 C177.47179627 69.29365567 179.28552773 69.34660182 182.5625 71.53125 C182.875 75.03125 182.875 75.03125 182.5625 78.53125 C179.9803868 81.1133632 178.24788539 80.77063015 174.72946393 80.78941262 C173.90651763 80.78358693 173.08357133 80.77776125 172.23568726 80.77175903 C171.36418175 80.77346788 170.49267625 80.77517673 169.59476149 80.77693737 C166.6573305 80.78024703 163.72012499 80.76920437 160.78271484 80.75830078 C158.68392441 80.75773699 156.58513359 80.75805261 154.48634338 80.75918579 C148.77379981 80.75976154 143.06133958 80.74797135 137.34881544 80.73403788 C131.38437283 80.72156746 125.41992849 80.72036294 119.45547485 80.71798706 C108.15428779 80.71176141 96.85313924 80.69533596 85.55196917 80.67528808 C72.68881135 80.65296276 59.82565172 80.64194414 46.96247935 80.63189721 C20.49579818 80.61097065 -5.97084875 80.57577367 -32.4375 80.53125 C-32.3769133 102.91502346 -32.29937643 125.29868144 -32.20178509 147.68232536 C-32.15686254 158.075967 -32.11743969 168.46957464 -32.09106445 178.86328125 C-32.06805572 187.92480661 -32.03462554 196.98622407 -31.98879844 206.04766381 C-31.96490503 210.84347696 -31.94615082 215.63918351 -31.93988609 220.43505478 C-31.93381767 224.95440226 -31.91375453 229.47347711 -31.88322449 233.99272346 C-31.87447237 235.64621268 -31.87071579 237.29973756 -31.87249184 238.95324898 C-31.88097205 250.49732862 -31.77910667 261.0589877 -23.40625 269.83984375 C-16.99903718 275.34445318 -10.40011992 276.65468608 -2.14317322 276.66255188 C-1.03866258 276.66572545 -1.03866258 276.66572545 0.08816141 276.66896313 C2.55626643 276.67495618 5.02432022 276.67396349 7.49243164 276.6730957 C9.26153144 276.67612755 11.03063046 276.67964908 12.79972839 276.68362427 C16.60948333 276.69150989 20.41922891 276.69665684 24.22899055 276.69991493 C30.249649 276.70582335 36.27024828 276.7223607 42.2908783 276.74125671 C44.35139939 276.74759385 46.41192051 276.75391948 48.47244167 276.76023388 C50.02014462 276.7649826 50.02014462 276.7649826 51.5991143 276.76982725 C65.61660296 276.81192912 79.63406361 276.84490052 93.65161133 276.85717773 C103.10680895 276.86554413 112.56185975 276.88797899 122.01698393 276.9265334 C127.0221502 276.94633663 132.02709679 276.95868442 137.03230476 276.95369911 C141.73640054 276.9490705 146.44007905 276.96275955 151.14409065 276.99071121 C152.87309398 276.99765232 154.60214019 276.99771838 156.33114243 276.99051094 C158.68631651 276.98168246 161.04009652 276.9972162 163.39515686 277.01899719 C164.7145781 277.02138555 166.03399935 277.0237739 167.39340305 277.02623463 C170.5625 277.53125 170.5625 277.53125 172.4831152 279.40310955 C173.83303279 282.06463881 174.09070057 283.58841823 173.5625 286.53125 C171.16976338 289.00560979 169.7390078 289.51088821 166.28990841 289.90877342 C164.98050069 289.9099045 163.67109297 289.91103558 162.32200623 289.91220093 C161.59131033 289.9168809 160.86061442 289.92156087 160.10777622 289.92638266 C157.65817358 289.9383527 155.20912833 289.92886755 152.75952148 289.91943359 C151.00339939 289.92349866 149.24727985 289.92884017 147.49116516 289.93536377 C142.7180248 289.94905797 137.94507867 289.94372818 133.17193484 289.93422651 C128.17224017 289.92663244 123.17256215 289.93367561 118.17286682 289.93838501 C109.76877867 289.94384683 101.36476952 289.93664346 92.96069336 289.92236328 C83.26209633 289.90607311 73.56368886 289.91129708 63.86509651 289.9278425 C55.53028926 289.94148965 47.19553886 289.94336015 38.86072403 289.93552649 C33.88662971 289.93086291 28.91262421 289.93018807 23.93853569 289.94013596 C19.25419137 289.94884902 14.57008916 289.94270491 9.8857708 289.92545319 C8.1730184 289.92150981 6.46024538 289.92258523 4.74750137 289.92924118 C-9.57279287 289.97972811 -22.3003558 288.65315595 -33.44140625 278.75 C-41.92305822 269.81037546 -44.58727957 259.49680778 -44.58467102 247.55151367 C-44.58834771 246.64578173 -44.5920244 245.74004978 -44.5958125 244.80687141 C-44.60682802 241.77098143 -44.6106896 238.73512571 -44.61450195 235.69921875 C-44.6207683 233.52255648 -44.62741526 231.34589527 -44.63441467 229.16923523 C-44.65544027 222.01908104 -44.66581693 214.86892668 -44.67578125 207.71875 C-44.67982962 205.2546589 -44.68394657 202.79056792 -44.68813133 200.32647705 C-44.70718115 188.74699993 -44.72141159 177.16752917 -44.7297433 165.5880394 C-44.73950975 152.23595965 -44.7658148 138.88406369 -44.80624419 125.5320406 C-44.83644263 115.20315825 -44.8512158 104.87432339 -44.85452431 94.54539776 C-44.85687088 88.38072528 -44.8657801 82.21623022 -44.89098549 76.05160522 C-44.91433574 70.2468856 -44.91847138 64.44245934 -44.90822411 58.63770485 C-44.9077303 56.51457555 -44.91400462 54.39143146 -44.92778015 52.26834679 C-45.09633929 24.73534748 -45.09633929 24.73534748 -35.41015625 13.52734375 C-25.03843113 3.03239021 -14.57700515 -0.09997195 0 0 Z " fill="#284268" transform="translate(73.4375,117.46875)"/>
<path d="M0 0 C6.85187346 4.58946241 10.42211237 10.43657693 12.0703125 18.38671875 C12.0703125 24.32671875 12.0703125 30.26671875 12.0703125 36.38671875 C31.5403125 36.38671875 51.0103125 36.38671875 71.0703125 36.38671875 C71.0703125 29.78671875 71.0703125 23.18671875 71.0703125 16.38671875 C74.66135494 6.81060557 77.22278521 2.49755723 86.3203125 -1.69921875 C92.97772242 -3.91205102 99.89228331 -3.4001448 106.29296875 -0.5859375 C112.50390896 2.81301659 116.5357186 7.52445271 118.66748047 14.27880859 C119.13847296 16.74338387 119.19998927 19.04085043 119.203125 21.55078125 C119.20546143 22.5783252 119.20779785 23.60586914 119.21020508 24.66455078 C119.18391962 30.57231411 119.13687308 36.47927133 119.0703125 42.38671875 C119.06306152 43.58683594 119.05581055 44.78695312 119.04833984 46.0234375 C119.02021417 49.52055457 118.95669112 53.01529974 118.8828125 56.51171875 C118.87717285 57.58244629 118.8715332 58.65317383 118.86572266 59.75634766 C118.63558494 67.76539432 116.58656371 72.52778204 111.2265625 78.41015625 C110.68 78.85617188 110.1334375 79.3021875 109.5703125 79.76171875 C109.02375 80.22320312 108.4771875 80.6846875 107.9140625 81.16015625 C102.00337972 85.09226302 95.94915826 85.08535152 89.0703125 84.38671875 C82.42558336 82.61329442 77.89663291 77.94005405 74.0703125 72.38671875 C72.0703125 67.38671875 72.0703125 67.38671875 72.0703125 48.38671875 C51.9403125 48.38671875 31.8103125 48.38671875 11.0703125 48.38671875 C11.0703125 54.65671875 11.0703125 60.92671875 11.0703125 67.38671875 C7.98011831 75.20309229 4.17947895 79.00340221 -3.0546875 83.19921875 C-9.06961983 85.48303411 -15.76289633 85.62360948 -21.75 83.28515625 C-28.11765337 79.73067511 -32.10628692 75.63717276 -34.96728516 68.96801758 C-36.29846383 64.0144255 -36.25463389 59.2883905 -36.265625 54.1796875 C-36.2722818 53.09972 -36.2789386 52.0197525 -36.28579712 50.90705872 C-36.29590102 48.62677711 -36.30061484 46.34646607 -36.30029297 44.06616211 C-36.30465966 40.59634092 -36.34098717 37.12779901 -36.37890625 33.65820312 C-36.38477632 31.43620224 -36.38874444 29.21419535 -36.390625 26.9921875 C-36.40499603 25.96377243 -36.41936707 24.93535736 -36.43417358 23.8757782 C-36.38853185 16.59928291 -35.28958267 10.09083365 -30.2527771 4.53800964 C-21.73228123 -3.41310184 -10.46903945 -5.34709004 0 0 Z " fill="#294368" transform="translate(168.9296875,81.61328125)"/>
<path d="M0 0 C27.75017193 -0.70551285 51.70270414 9.29263288 72.6875 27.15625 C73.36425781 27.72859375 74.04101562 28.3009375 74.73828125 28.890625 C90.66024515 43.63459157 99.7974422 64.17772399 103.6875 85.15625 C103.87828125 85.93742187 104.0690625 86.71859375 104.265625 87.5234375 C108.23962667 112.3241516 101.25723561 138.70935665 86.97265625 159.11328125 C83.48701325 163.75484689 79.72830409 167.99514176 75.6875 172.15625 C75.00300781 172.91421875 74.31851563 173.6721875 73.61328125 174.453125 C58.49095204 190.66560364 34.33293035 201.31537996 12.20629883 202.26245117 C-16.12076982 202.92134134 -42.0662881 196.9075937 -63.3125 177.15625 C-63.79525391 176.71974121 -64.27800781 176.28323242 -64.77539062 175.83349609 C-77.16315792 164.56285415 -85.33818944 151.76911494 -91.3125 136.15625 C-91.61671875 135.455 -91.9209375 134.75375 -92.234375 134.03125 C-101.43280361 112.25537819 -98.91689532 84.63961181 -90.3125 63.15625 C-78.84457925 36.8933327 -58.83469451 17.43631016 -32.33984375 6.66015625 C-21.79498376 2.59697576 -11.26438151 0.53133875 0 0 Z M-65.3125 44.15625 C-81.76902579 64.0028201 -87.37398601 88.16351274 -85.10888672 113.42724609 C-82.62115949 135.56137769 -69.80876688 156.54574236 -53.171875 170.9609375 C-36.91166265 183.44487102 -18.55631763 190.78656414 2.0625 190.53125 C3.84575684 190.51602295 3.84575684 190.51602295 5.66503906 190.50048828 C30.10594302 190.0682321 52.28714286 180.30086801 69.29248047 162.68798828 C86.50410077 143.78954485 93.62794556 120.05197064 93.05859375 94.83203125 C91.94432836 71.44038882 79.8124641 50.36618091 63.20703125 34.3984375 C44.33408866 17.60298161 19.90196505 10.69279355 -5.03662109 11.96533203 C-28.79166084 13.95808478 -49.75208563 26.58722005 -65.3125 44.15625 Z " fill="#2A446A" transform="translate(346.3125,198.84375)"/>
<path d="M0 0 C2.35125 0.020625 4.7025 0.04125 7.125 0.0625 C7.125 6.3325 7.125 12.6025 7.125 19.0625 C3.3815625 19.43375 3.3815625 19.43375 -0.4375 19.8125 C-27.64689649 22.89424169 -52.15875698 35.13641523 -70.1875 55.875 C-88.65979614 79.07764102 -95.39330606 106.75352409 -92.484375 135.98828125 C-88.89214456 157.05809441 -78.67918863 175.84784403 -63.875 191.0625 C-62.99908203 192.01382813 -62.99908203 192.01382813 -62.10546875 192.984375 C-43.72680751 212.43907027 -18.55179317 219.08736206 7.125 221.0625 C7.125 227.3325 7.125 233.6025 7.125 240.0625 C-24.8360891 241.27314731 -52.41546328 229.46812379 -75.875 208.0625 C-76.60074219 207.41925781 -77.32648438 206.77601563 -78.07421875 206.11328125 C-99.30456873 186.26096616 -112.05147559 156.23259184 -113.19140625 127.46875 C-114.06040821 91.62119173 -103.1168253 61.2616293 -78.32397461 35.17895508 C-67.06908353 23.63190361 -54.49167467 15.71757813 -39.875 9.0625 C-38.99328125 8.65257812 -38.1115625 8.24265625 -37.203125 7.8203125 C-25.71537728 2.84742842 -12.47533092 -0.15590714 0 0 Z " fill="#85A8DF" transform="translate(342.875,179.9375)"/>
<path d="M0 0 C6.27 0 12.54 0 19 0 C15.71750542 3.28249458 12.86228607 5.9876636 9.25 8.75 C-11.36499532 25.16282493 -25.20803249 48.55913184 -32.75 73.625 C-32.94875732 74.28089111 -33.14751465 74.93678223 -33.35229492 75.61254883 C-36.33281465 86.02073324 -37.36472958 96.32361106 -37.3125 107.125 C-37.30903564 108.300625 -37.30557129 109.47625 -37.30200195 110.6875 C-37.18189409 120.39168471 -36.12963707 129.54600367 -34 139 C-33.70996094 140.40378906 -33.70996094 140.40378906 -33.4140625 141.8359375 C-28.63485439 162.00791977 -18.50059793 180.40776013 -5 196 C-4.30777344 196.80179688 -3.61554688 197.60359375 -2.90234375 198.4296875 C0.60501188 202.4287285 4.21824454 206.25743371 8 210 C5.22754986 210.13487595 2.46162912 210.23400807 -0.3125 210.3125 C-1.09818359 210.35439453 -1.88386719 210.39628906 -2.69335938 210.43945312 C-3.8293457 210.46362305 -3.8293457 210.46362305 -4.98828125 210.48828125 C-6.03302612 210.52755737 -6.03302612 210.52755737 -7.09887695 210.56762695 C-7.72624756 210.38031006 -8.35361816 210.19299316 -9 210 C-9.38582906 209.17647695 -9.77165812 208.35295389 -10.16917896 207.50447559 C-11.81173111 204.66436482 -11.81173111 204.66436482 -15.1802702 204.36914349 C-16.51796815 204.34074336 -17.85641954 204.34011802 -19.19425964 204.36076355 C-19.93186234 204.35240787 -20.66946504 204.3440522 -21.42941934 204.33544332 C-23.90809391 204.31344568 -26.38529642 204.32713985 -28.86401367 204.34057617 C-30.63784413 204.3321268 -32.4116653 204.32148447 -34.18547058 204.30880737 C-39.00758181 204.280585 -43.82924939 204.28314603 -48.65141845 204.29110122 C-53.68835925 204.29421956 -58.72515708 204.26921168 -63.76203918 204.24714661 C-73.30302624 204.20964485 -82.84387076 204.19755499 -92.38492423 204.1945222 C-103.24579923 204.18983802 -114.10653084 204.15693527 -124.96734273 204.12162435 C-147.31154444 204.04961254 -169.65569164 204.01316074 -192 204 C-192 203.67 -192 203.34 -192 203 C-133.26 202.67 -74.52 202.34 -14 202 C-16.97 198.37 -19.94 194.74 -23 191 C-44.69127604 159.08190612 -52.93905798 120.67934774 -45.96875 82.6640625 C-40.22677749 54.15588081 -27.61179195 29.61179195 -7 9 C-75.31 8.67 -143.62 8.34 -214 8 C-214 64.76 -214 121.52 -214 180 C-214.33 180 -214.66 180 -215 180 C-215 122.91 -215 65.82 -215 7 C-144.71 6.67 -74.42 6.34 -2 6 C-1.34 4.02 -0.68 2.04 0 0 Z " fill="#CED0D4" transform="translate(256,191)"/>
<path d="M0 0 C1.6406543 -0.03577148 1.6406543 -0.03577148 3.31445312 -0.07226562 C11.22902692 -0.05797079 16.43030383 1.43894998 22.0793457 7.07617188 C28.09020099 13.9309024 27.92779839 19.5034372 27.9375 28.3125 C27.96199219 29.4675 27.98648438 30.6225 28.01171875 31.8125 C28.0412129 40.42479177 27.01900454 46.02743854 20.8125 52.375 C13.69838391 57.16334737 7.43951413 58.06610269 -0.9375 58 C-1.83597656 58.01998047 -2.73445313 58.03996094 -3.66015625 58.06054688 C-10.76395329 58.05537672 -16.07603677 56.52162593 -21.4609375 51.78125 C-21.90695313 51.2140625 -22.35296875 50.646875 -22.8125 50.0625 C-23.27398437 49.4953125 -23.73546875 48.928125 -24.2109375 48.34375 C-28.40857332 42.24782027 -27.76894629 36.40224837 -27.75 29.1875 C-27.76611328 27.96804687 -27.78222656 26.74859375 -27.79882812 25.4921875 C-27.79947266 24.31140625 -27.80011719 23.130625 -27.80078125 21.9140625 C-27.80376221 20.83979004 -27.80674316 19.76551758 -27.80981445 18.65869141 C-27.07195162 12.5225757 -24.02107255 8.52103993 -19.4375 4.5625 C-13.14133301 -0.03429668 -7.65162687 -0.07638148 0 0 Z " fill="#2C456A" transform="translate(98.4375,218.4375)"/>
<path d="M0 0 C0.99837891 -0.00708984 1.99675781 -0.01417969 3.02539062 -0.02148438 C10.08111059 0.03882092 16.2182136 0.60010021 21.8046875 5.33984375 C22.34351563 6.01144531 22.88234375 6.68304688 23.4375 7.375 C24.26894531 8.37853516 24.26894531 8.37853516 25.1171875 9.40234375 C29.40102691 15.43445276 28.92954839 20.96744086 28.9375 28.1875 C28.96199219 29.3425 28.98648438 30.4975 29.01171875 31.6875 C29.0412129 40.29979177 28.01900454 45.90243854 21.8125 52.25 C14.69838391 57.03834737 8.43951413 57.94110269 0.0625 57.875 C-0.83597656 57.89498047 -1.73445313 57.91496094 -2.66015625 57.93554688 C-9.76785689 57.93037388 -15.03529264 56.37338164 -20.4609375 51.69140625 C-20.90695313 51.13324219 -21.35296875 50.57507813 -21.8125 50 C-22.27398437 49.44441406 -22.73546875 48.88882813 -23.2109375 48.31640625 C-27.2016833 42.20319374 -26.7703156 36.11607537 -26.75 29.0625 C-26.76611328 27.95132813 -26.78222656 26.84015625 -26.79882812 25.6953125 C-26.8033997 18.01507039 -26.24424758 12.79000406 -21.1875 6.75 C-14.06820418 0.76331942 -9.15282629 -0.18246792 0 0 Z " fill="#2C456A" transform="translate(172.4375,218.5625)"/>
<path d="M0 0 C1.11568359 -0.01611328 2.23136719 -0.03222656 3.38085938 -0.04882812 C11.08095296 -0.0533925 16.31965535 0.49290913 22.375 5.5625 C28.55818606 12.91547801 29.34530848 18.15582188 29.25 27.625 C29.28577148 29.24051758 29.28577148 29.24051758 29.32226562 30.88867188 C29.30659085 39.51502214 27.40813376 46.59186624 21.1875 52.8125 C14.53255274 56.80546836 8.53682035 56.74480004 0.9375 56.8125 C-0.20460937 56.85375 -1.34671875 56.895 -2.5234375 56.9375 C-10.39375357 57.00987072 -15.55525542 55.84547544 -21.3125 50.3125 C-26.54520711 44.92529304 -26.95690852 39.35100216 -26.99609375 32.046875 C-26.97675781 30.81453125 -26.95742187 29.5821875 -26.9375 28.3125 C-26.95683594 27.08015625 -26.97617188 25.8478125 -26.99609375 24.578125 C-26.95661541 17.21936307 -26.29556383 11.92776417 -21.3125 6.3125 C-14.48515897 -0.01527949 -8.99764959 -0.02572227 0 0 Z " fill="#2C456A" transform="translate(172.3125,294.6875)"/>
<path d="M0 0 C1.02029297 -0.020625 2.04058594 -0.04125 3.09179688 -0.0625 C10.49844155 -0.10080198 15.06942474 0.9781853 21.375 4.9375 C27.14993966 10.71243966 28.19611112 16.52281381 28.234375 24.40039062 C28.21890625 25.48513672 28.2034375 26.56988281 28.1875 27.6875 C28.20296875 28.76837891 28.2184375 29.84925781 28.234375 30.96289062 C28.19637005 38.79666066 27.16556152 45.50021492 21.6875 51.40625 C21.0275 51.8496875 20.3675 52.293125 19.6875 52.75 C19.0275 53.2140625 18.3675 53.678125 17.6875 54.15625 C12.13511399 57.1927111 5.65345514 56.58464686 -0.5 56.6875 C-1.59892578 56.73326172 -2.69785156 56.77902344 -3.83007812 56.82617188 C-11.58124137 56.93247882 -16.52774333 55.52912134 -22.3125 50.25 C-28.08484061 43.57292594 -27.62157141 36.52157244 -27.75 28.125 C-27.79576172 26.92617188 -27.84152344 25.72734375 -27.88867188 24.4921875 C-27.99001879 16.45493685 -26.86536979 11.22845162 -21.3125 5.25 C-14.90344444 -0.39788742 -8.10807487 0.04051505 0 0 Z " fill="#2B456A" transform="translate(98.3125,294.75)"/>
<path d="M0 0 C4.41797876 2.33892993 6.94263189 4.45408998 9 9 C9.44792994 12.36242808 9.44421482 15.69750704 9.43359375 19.0859375 C9.4388356 20.06108307 9.44407745 21.03622864 9.44947815 22.04092407 C9.45589052 24.10018972 9.45457154 26.15949203 9.44604492 28.21875 C9.43754754 31.35744035 9.46628756 34.49430237 9.49804688 37.6328125 C9.49965944 39.63802029 9.4990803 41.64323129 9.49609375 43.6484375 C9.51294472 45.0471962 9.51294472 45.0471962 9.53013611 46.47421265 C9.4662331 52.49783425 8.51086504 56.06430548 5 61 C1.10086938 63.79502036 -3.38177907 63.66799267 -8 63 C-12.11744156 60.63466123 -13.66217988 58.48100178 -15 54 C-15.31187689 50.62674453 -15.32791771 47.26494441 -15.3359375 43.87890625 C-15.3425943 42.90138901 -15.3492511 41.92387177 -15.35610962 40.91673279 C-15.36621616 38.8532804 -15.37092726 36.78979547 -15.37060547 34.72631836 C-15.37498019 31.57676196 -15.41132567 28.42860571 -15.44921875 25.27929688 C-15.45508707 23.27083811 -15.45905636 21.26237271 -15.4609375 19.25390625 C-15.47530853 18.31623917 -15.48967957 17.37857208 -15.50448608 16.41249084 C-15.46519699 10.76588976 -14.81495131 7.45692826 -11 3 C-7.33394266 0.1057442 -4.63689657 -0.6624138 0 0 Z " fill="#ECEDEE" transform="translate(267,91)"/>
<path d="M0 0 C3 2.5 3 2.5 5 5 C5.33 5.33 5.66 5.66 6 6 C6.11915532 7.50210599 6.17007994 9.00970518 6.19287109 10.51635742 C6.21696548 11.95872017 6.21696548 11.95872017 6.24154663 13.43022156 C6.28590804 17.84711126 6.32708727 22.26384771 6.35009766 26.6809082 C6.36663637 29.00978605 6.39389852 31.33861357 6.43212891 33.66723633 C6.48694782 37.02191558 6.50878306 40.37540161 6.5234375 43.73046875 C6.54610687 44.76817917 6.56877625 45.80588959 6.59213257 46.87504578 C6.56856259 54.95767583 6.56856259 54.95767583 3.59228516 58.6418457 C-0.27260277 62.15766342 -2.66959292 62.34649237 -7.7421875 62.28125 C-11.1507503 61.85665394 -12.74615278 60.52704082 -15 58 C-17.66718135 53.16484868 -17.35856907 48.07178981 -17.40625 42.6953125 C-17.41765015 41.69797089 -17.42905029 40.70062927 -17.4407959 39.67306519 C-17.4596539 37.56675433 -17.47274718 35.46038503 -17.48046875 33.35400391 C-17.49989413 30.14250308 -17.56197357 26.93355737 -17.625 23.72265625 C-17.63806055 21.67189013 -17.64856131 19.62110579 -17.65625 17.5703125 C-17.6809436 16.61593292 -17.70563721 15.66155334 -17.7310791 14.67825317 C-17.69154756 8.72245493 -16.66884413 5.55996377 -12.48474121 1.2572937 C-8.68826701 -1.95759861 -4.58512443 -1.18785607 0 0 Z " fill="#F0F0F1" transform="translate(162,92)"/>
<path d="M0 0 C3.4375 0.875 3.4375 0.875 5.4375 3.875 C5.67800903 5.94413757 5.67800903 5.94413757 5.66455078 8.34643555 C5.66432419 9.69749641 5.66432419 9.69749641 5.66409302 11.07585144 C5.65377045 12.04468765 5.64344788 13.01352386 5.6328125 14.01171875 C5.6299826 15.00629593 5.62715271 16.00087311 5.62423706 17.02558899 C5.61303489 20.2046813 5.58793014 23.38349272 5.5625 26.5625 C5.55247025 28.71679281 5.54334439 30.87109003 5.53515625 33.02539062 C5.51309546 38.30868972 5.47961756 43.59182479 5.4375 48.875 C6.7692627 48.85143433 6.7692627 48.85143433 8.12792969 48.82739258 C11.43039821 48.77618314 14.7324432 48.73861144 18.03515625 48.71020508 C19.46295846 48.69514319 20.8907146 48.67468938 22.31835938 48.64868164 C24.37381373 48.61218158 26.42865505 48.59524834 28.484375 48.58203125 C30.33820801 48.55846558 30.33820801 48.55846558 32.22949219 48.53442383 C35.66828629 48.89950128 37.06812733 49.39195264 39.4375 51.875 C39.875 54.875 39.875 54.875 39.4375 57.875 C38.15795898 59.53823853 38.15795898 59.53823853 36.4375 60.875 C33.38887475 61.17347993 30.54889905 61.29521845 27.5 61.2734375 C26.62351807 61.27630768 25.74703613 61.27917786 24.84399414 61.28213501 C22.99136712 61.28417598 21.13871858 61.27864378 19.28613281 61.26611328 C16.44807821 61.25005984 13.61144773 61.26596055 10.7734375 61.28515625 C8.97395519 61.28317382 7.17447376 61.27933016 5.375 61.2734375 C4.52494385 61.27951019 3.6748877 61.28558289 2.79907227 61.2918396 C-3.06040543 61.22178192 -3.06040543 61.22178192 -5.28604126 59.68460083 C-7.02775778 57.2154167 -6.94321158 55.54281758 -6.95068359 52.53320312 C-6.96014008 51.44197144 -6.96959656 50.35073975 -6.9793396 49.22644043 C-6.97326691 48.04827759 -6.96719421 46.87011475 -6.9609375 45.65625 C-6.96524277 43.84211609 -6.96524277 43.84211609 -6.96963501 41.99133301 C-6.97167786 39.43253105 -6.96613268 36.87371355 -6.95361328 34.31494141 C-6.93756379 30.39059646 -6.95345562 26.46728153 -6.97265625 22.54296875 C-6.97067386 20.05989355 -6.96683027 17.576819 -6.9609375 15.09375 C-6.97004654 13.32650574 -6.97004654 13.32650574 -6.9793396 11.52355957 C-6.96988312 10.43232788 -6.96042664 9.34109619 -6.95068359 8.21679688 C-6.94829681 7.25543823 -6.94591003 6.29407959 -6.94345093 5.30358887 C-6.5625 2.875 -6.5625 2.875 -5.26089478 1.0333252 C-3.5625 -0.125 -3.5625 -0.125 0 0 Z " fill="#2E476C" transform="translate(349.5625,245.125)"/>
<path d="M0 0 C0.88945312 -0.00257813 1.77890625 -0.00515625 2.6953125 -0.0078125 C7.56078542 0.0648065 11.09192795 0.28529557 15 3.5 C16.92807685 7.35615369 16.27189373 12.07049833 16.3125 16.3125 C16.34150391 17.31087891 16.37050781 18.30925781 16.40039062 19.33789062 C16.46442216 26.73107012 16.46442216 26.73107012 14.10546875 30.63671875 C9.84864583 34.40388857 5.64248666 33.79042656 0.1875 33.875 C-0.71548828 33.91238281 -1.61847656 33.94976562 -2.54882812 33.98828125 C-6.81982174 34.04476757 -9.35367327 33.87654849 -13.09765625 31.6953125 C-15.9652865 26.87863582 -15.72807025 22.50395112 -15.625 17 C-15.64433594 15.96746094 -15.66367188 14.93492187 -15.68359375 13.87109375 C-15.65382572 9.25704848 -15.49000921 6.31601534 -13.0859375 2.3125 C-8.68194317 -0.27414984 -5.01580283 -0.15992415 0 0 Z " fill="#B5B5B5" transform="translate(173,230.5)"/>
<path d="M0 0 C0.88945313 -0.00257813 1.77890625 -0.00515625 2.6953125 -0.0078125 C7.56078542 0.0648065 11.09192795 0.28529557 15 3.5 C16.99369586 7.48739171 16.36001205 12.42775095 16.4375 16.8125 C16.48326172 17.85857422 16.52902344 18.90464844 16.57617188 19.98242188 C16.68307699 27.2845057 16.68307699 27.2845057 14.97167969 30.32983398 C11.46906137 33.77187242 7.66080531 34.07815825 2.9140625 34.03710938 C2.07617188 34.00423828 1.23828125 33.97136719 0.375 33.9375 C-0.470625 33.93169922 -1.31625 33.92589844 -2.1875 33.91992188 C-6.32760256 33.83829525 -9.41166933 33.75345654 -13 31.5 C-16.03160925 26.95258612 -15.40791487 22.47662217 -15.4375 17.125 C-15.48680664 15.56265625 -15.48680664 15.56265625 -15.53710938 13.96875 C-15.56984693 9.31406493 -15.51038389 6.35727725 -13.09765625 2.3046875 C-8.6847956 -0.2662351 -5.01680893 -0.15995623 0 0 Z " fill="#B5B5B6" transform="translate(98,230.5)"/>
<path d="M0 0 C1.4840332 -0.03577148 1.4840332 -0.03577148 2.99804688 -0.07226562 C7.47453333 -0.06323438 10.30648441 0.11938306 14.21484375 2.41015625 C16.95622778 7.08731674 16.79209375 11.23519191 16.6875 16.5625 C16.71650391 18.03976562 16.71650391 18.03976562 16.74609375 19.546875 C16.71598501 24.00296847 16.49420136 26.82596089 14.21484375 30.71484375 C9.52222028 33.46529097 5.34187436 33.25376179 0 33.125 C-0.99322266 33.13595703 -1.98644531 33.14691406 -3.00976562 33.15820312 C-10.23263565 33.08524484 -10.23263565 33.08524484 -13.21850586 30.87084961 C-15.31924 28.04988081 -15.45233295 26.55229481 -15.46875 23.0625 C-15.47390625 22.010625 -15.4790625 20.95875 -15.484375 19.875 C-15.46890625 18.781875 -15.4534375 17.68875 -15.4375 16.5625 C-15.45296875 15.469375 -15.4684375 14.37625 -15.484375 13.25 C-15.47664062 11.6721875 -15.47664062 11.6721875 -15.46875 10.0625 C-15.46423828 9.1034375 -15.45972656 8.144375 -15.45507812 7.15625 C-13.82271514 -1.02404453 -6.70317857 -0.07394811 0 0 Z " fill="#B6B6B6" transform="translate(172.9375,306.4375)"/>
<path d="M0 0 C1.43569336 -0.00773437 1.43569336 -0.00773437 2.90039062 -0.015625 C3.89361328 -0.00015625 4.88683594 0.0153125 5.91015625 0.03125 C6.89951172 0.01578125 7.88886719 0.0003125 8.90820312 -0.015625 C13.06610041 0.00674432 16.26700892 0.23657447 20.125 1.84765625 C23.15688875 6.25126633 22.69447919 10.75644848 22.59765625 15.96875 C22.62666016 17.52432617 22.62666016 17.52432617 22.65625 19.11132812 C22.62681108 23.69496865 22.45101114 26.70702329 20.125 30.71484375 C15.42934548 33.42051829 11.23776629 33.26037267 5.91015625 33.15625 C4.91693359 33.17558594 3.92371094 33.19492187 2.90039062 33.21484375 C-1.3489207 33.18622886 -4.12639992 33.14824393 -7.6796875 30.71484375 C-9.74744073 25.83015135 -9.60563648 21.21762542 -9.52734375 15.96875 C-9.5428125 14.92783203 -9.55828125 13.88691406 -9.57421875 12.81445312 C-9.5690625 11.81220703 -9.56390625 10.80996094 -9.55859375 9.77734375 C-9.55408203 8.86654053 -9.54957031 7.9557373 -9.54492188 7.01733398 C-8.43932117 1.70680004 -5.12280383 0.02659963 0 0 Z " fill="#B6B6B6" transform="translate(92.02734375,306.46875)"/>
<path d="M0 0 C4.96616441 0.11901483 8.08074422 0.23395352 12 3.5 C12.66 4.325 13.32 5.15 14 6 C14.33 6.33 14.66 6.66 15 7 C15.11915532 8.50210599 15.17007994 10.00970518 15.19287109 11.51635742 C15.20893402 12.47793259 15.22499695 13.43950775 15.24154663 14.43022156 C15.28590804 18.84711126 15.32708727 23.26384771 15.35009766 27.6809082 C15.36663637 30.00978605 15.39389852 32.33861357 15.43212891 34.66723633 C15.48694782 38.02191558 15.50878306 41.37540161 15.5234375 44.73046875 C15.54610687 45.76817917 15.56877625 46.80588959 15.59213257 47.87504578 C15.56854232 55.9646241 15.56854232 55.9646241 12.84228516 59.6418457 C10 62 10 62 4 63 C4 42.54 4 22.08 4 1 C2.68 0.67 1.36 0.34 0 0 Z " fill="#DDDDDD" transform="translate(153,91)"/>
<path d="M0 0 C5.29877676 -0.50464541 7.90716575 0.63478073 12 4 C15.80930821 8.65375281 15.45156993 13.35101138 15.43359375 19.0859375 C15.4388356 20.06108307 15.44407745 21.03622864 15.44947815 22.04092407 C15.45589052 24.10018972 15.45457154 26.15949203 15.44604492 28.21875 C15.43754754 31.35744035 15.46628756 34.49430237 15.49804688 37.6328125 C15.49965944 39.63802029 15.4990803 41.64323129 15.49609375 43.6484375 C15.51294472 45.0471962 15.51294472 45.0471962 15.53013611 46.47421265 C15.4662427 52.49692934 14.51603418 56.06781381 11 61 C8.33476915 62.85758514 7.29052817 63 4 63 C4 42.54 4 22.08 4 1 C2.68 0.67 1.36 0.34 0 0 Z " fill="#D7D8D9" transform="translate(261,91)"/>
<path d="M0 0 C3.125 1.1875 3.125 1.1875 5.125 4.1875 C5.28151417 7.63081168 4.70433829 9.51654543 2.4453125 12.1328125 C-2.86972003 17.08682395 -2.86972003 17.08682395 -6.52734375 17.453125 C-8.875 17.1875 -8.875 17.1875 -10.6875 16.0625 C-12.58485172 13.0666815 -12.60267787 11.6935843 -11.875 8.1875 C-8.60760456 3.5339368 -5.83539728 0.28235793 0 0 Z " fill="#30496D" transform="translate(403.875,239.8125)"/>
<path d="M0 0 C2.96783171 3.00973051 3.43178795 5.34162778 3.4375 9.5 C3.33275569 13.06606757 3.23371158 14.62779267 1.3125 17.6875 C-1.45128908 19.25613705 -2.8736084 19.56114721 -6 19 C-7.62890625 17.87890625 -7.62890625 17.87890625 -9 16 C-9.3984375 12.96875 -9.3984375 12.96875 -9.375 9.5 C-9.38660156 7.78296875 -9.38660156 7.78296875 -9.3984375 6.03125 C-9 3 -9 3 -7.6640625 1.12109375 C-5.0291145 -0.65409422 -3.0803011 -0.44921058 0 0 Z " fill="#324A6E" transform="translate(352,218)"/>
<path d="M0 0 C2.31640625 1.33984375 2.31640625 1.33984375 4 3 C4.44921058 6.0803011 4.65409422 8.0291145 2.87890625 10.6640625 C0.10850977 12.63386623 -2.14027374 12.39770085 -5.5 12.375 C-7.21703125 12.38660156 -7.21703125 12.38660156 -8.96875 12.3984375 C-12 12 -12 12 -13.87890625 10.62890625 C-15.51910531 8.24575989 -15.48309383 6.82954955 -15 4 C-11.87712993 -1.50219964 -5.61101538 -0.91591575 0 0 Z " fill="#30496E" transform="translate(427,294)"/>
<path d="M0 0 C2.6875 1.6875 2.6875 1.6875 4 4 C4.48280413 6.82785279 4.52105847 8.24473754 2.87890625 10.625 C0.11741878 12.64588064 -2.11777692 12.43369119 -5.5 12.4375 C-6.6446875 12.45683594 -7.789375 12.47617187 -8.96875 12.49609375 C-12 12 -12 12 -13.9140625 10.16796875 C-15.45755024 7.08654538 -14.98660292 5.24169531 -14 2 C-9.55075648 -0.96616234 -5.21761951 -0.63267542 0 0 Z " fill="#30496D" transform="translate(281,294)"/>
<path d="M0 0 C3.4375 0.875 3.4375 0.875 5.4375 3.875 C6.07784109 8.75201644 6.41014237 13.32597697 3.75 17.5625 C0.98621092 19.13113705 -0.4361084 19.43614721 -3.5625 18.875 C-5.19140625 17.75390625 -5.19140625 17.75390625 -6.5625 15.875 C-6.9609375 12.84375 -6.9609375 12.84375 -6.9375 9.375 C-6.94910156 7.65796875 -6.94910156 7.65796875 -6.9609375 5.90625 C-6.5625 2.875 -6.5625 2.875 -5.26171875 0.9609375 C-3.5625 -0.125 -3.5625 -0.125 0 0 Z " fill="#30496E" transform="translate(349.5625,364.125)"/>
<path d="M0 0 C5.08509012 0.72644145 6.90786863 2.77173291 10.43359375 6.32421875 C12.22864861 8.99581988 12.33219354 10.40495165 11.9375 13.5625 C10.8125 15.375 10.8125 15.375 8.9375 16.5625 C6.125 17.0625 6.125 17.0625 2.9375 16.5625 C-0.47504763 14.13434111 -2.73930763 12.04728855 -5.0625 8.5625 C-4.39392653 0.80704773 -4.39392653 0.80704773 0 0 Z " fill="#2E476C" transform="translate(397.0625,343.4375)"/>
<path d="M0 0 C4.23474635 2.91185002 7.63175302 6.2257191 8.6875 11.3125 C8 14 8 14 6.9375 15.9375 C5 17 5 17 1.6875 17.125 C-3.14679216 15.65013121 -5.49271109 13.34774566 -8 9 C-8.58600011 5.61422161 -8.64998596 4.02629362 -6.8125 1.125 C-4.33758514 -0.41115405 -2.88287531 -0.32220371 0 0 Z " fill="#2E476C" transform="translate(297,240)"/>
<path d="M0 0 C2 2 2 2 2.5625 5.1875 C1.8746865 9.84934708 0.43602464 11.57908132 -2.984375 14.6796875 C-6.07674991 16.70531293 -8.43395929 16.6293013 -12 16 C-14 14 -14 14 -14.5625 10.8125 C-13.8746865 6.15065292 -12.43602464 4.42091868 -9.015625 1.3203125 C-5.92325009 -0.70531293 -3.56604071 -0.6293013 0 0 Z " fill="#2D466B" transform="translate(303,344)"/>
</svg>
